<svg id="svg" version="1.1" xmlns="http://www.w3.org/2000/svg" xmlns:xlink="http://www.w3.org/1999/xlink" width="400" height="400" viewBox="0, 0, 400,400"><g id="svgg"><path id="path0" d="M159.333 15.050 C 143.534 18.361,131.711 30.153,128.189 46.114 C 127.631 48.643,127.625 49.058,127.540 91.000 L 127.454 133.333 134.127 133.333 L 140.800 133.333 140.805 96.600 C 140.809 73.728,140.911 59.162,141.076 58.000 C 142.200 50.077,147.682 43.769,155.380 41.538 L 157.467 40.933 200.267 40.933 L 243.067 40.933 245.067 41.554 C 251.733 43.623,256.663 48.555,258.712 55.204 L 259.327 57.200 259.403 95.267 L 259.479 133.333 266.146 133.333 L 272.813 133.333 272.732 90.733 L 272.652 48.133 271.950 45.333 C 267.900 29.182,255.663 17.542,239.867 14.816 C 237.771 14.454,232.705 14.404,199.867 14.418 L 162.267 14.435 159.333 15.050 M157.659 54.554 C 154.378 56.189,153.880 57.546,153.873 64.867 C 153.869 68.057,153.912 70.667,153.967 70.667 C 154.022 70.667,154.999 70.242,156.139 69.722 C 171.491 62.726,189.341 71.686,192.818 88.133 C 197.258 109.141,175.508 126.443,156.095 117.345 L 153.867 116.301 153.867 124.817 L 153.867 133.333 200.133 133.333 L 246.400 133.333 246.400 124.807 L 246.400 116.281 244.503 117.233 C 227.964 125.534,207.830 113.414,207.014 94.667 C 206.160 75.043,226.357 61.495,244.186 69.732 C 245.298 70.246,246.260 70.667,246.322 70.667 C 246.385 70.667,246.398 67.937,246.351 64.600 C 246.258 57.926,246.132 57.363,244.358 55.682 C 242.290 53.725,246.066 53.879,200.119 53.873 L 159.038 53.867 157.659 54.554 M106.378 67.181 C 104.251 67.597,101.878 69.813,101.361 71.867 C 100.739 74.339,100.981 127.651,101.621 129.067 C 103.090 132.316,104.751 133.132,110.200 133.282 L 114.400 133.397 114.400 100.165 L 114.400 66.933 110.867 66.964 C 108.923 66.981,106.903 67.079,106.378 67.181 M285.867 100.137 L 285.867 133.397 290.067 133.288 C 294.744 133.166,296.342 132.648,297.757 130.792 C 299.276 128.801,299.200 130.419,299.200 100.061 L 299.200 72.105 298.520 70.741 C 297.091 67.872,295.384 67.113,290.067 66.982 L 285.867 66.877 285.867 100.137 M163.867 80.642 C 155.818 82.637,151.568 91.989,155.321 99.443 C 161.134 110.986,178.189 108.269,180.304 95.464 C 181.813 86.324,173.002 78.379,163.867 80.642 M229.834 80.637 C 216.277 84.559,216.889 103.636,230.666 106.556 C 240.219 108.582,248.768 99.132,245.903 89.713 C 243.880 83.062,236.284 78.772,229.834 80.637 M180.267 152.933 L 180.267 159.733 200.133 159.733 L 220.000 159.733 220.000 152.933 L 220.000 146.133 200.133 146.133 L 180.267 146.133 180.267 152.933 M127.467 181.446 L 127.467 190.359 128.333 190.633 C 130.284 191.251,149.533 197.023,162.133 200.769 C 187.678 208.363,187.752 208.389,192.432 211.628 C 194.678 213.182,198.744 216.948,199.651 218.315 C 200.029 218.883,200.101 218.831,202.842 215.994 C 209.502 209.100,207.505 209.886,252.267 196.539 C 260.700 194.025,268.770 191.610,270.200 191.172 L 272.800 190.377 272.800 181.455 L 272.800 172.533 200.133 172.533 L 127.467 172.533 127.467 181.446 M113.212 174.195 C 110.447 175.199,105.512 179.454,104.068 182.080 L 103.469 183.168 105.801 183.864 C 107.084 184.246,109.472 184.973,111.109 185.479 C 112.745 185.986,114.155 186.400,114.242 186.400 C 114.329 186.400,114.400 183.580,114.400 180.133 C 114.400 176.687,114.310 173.876,114.200 173.888 C 114.090 173.899,113.645 174.038,113.212 174.195 M285.867 180.133 C 285.867 183.580,285.925 186.400,285.996 186.400 C 286.322 186.400,296.580 183.242,296.725 183.097 C 297.209 182.613,292.648 177.384,290.632 176.111 C 289.201 175.208,286.533 173.867,286.167 173.867 C 285.953 173.867,285.867 175.665,285.867 180.133 M180.267 192.533 L 180.267 198.933 173.733 198.933 L 167.200 198.933 167.200 192.533 L 167.200 186.133 173.733 186.133 L 180.267 186.133 180.267 192.533 M206.667 192.533 L 206.667 198.933 200.133 198.933 L 193.600 198.933 193.600 192.533 L 193.600 186.133 200.133 186.133 L 206.667 186.133 206.667 192.533 M233.067 192.533 L 233.067 198.933 226.533 198.933 L 220.000 198.933 220.000 192.533 L 220.000 186.133 226.533 186.133 L 233.067 186.133 233.067 192.533 M74.667 194.137 L 74.667 200.237 77.667 201.167 C 79.317 201.679,85.167 203.435,90.667 205.070 C 106.454 209.762,129.682 216.730,133.333 217.870 C 135.167 218.442,143.507 220.944,151.867 223.430 C 160.227 225.916,170.263 228.922,174.170 230.108 L 181.274 232.267 186.904 232.267 C 190.000 232.267,192.533 232.204,192.533 232.127 C 192.533 230.988,189.313 225.850,187.663 224.356 C 184.002 221.042,182.875 220.563,168.667 216.282 C 162.213 214.338,152.433 211.392,146.933 209.735 C 141.433 208.077,133.033 205.559,128.267 204.139 C 123.500 202.718,109.820 198.611,97.867 195.012 C 85.913 191.413,75.803 188.371,75.400 188.253 L 74.667 188.037 74.667 194.137 M314.533 191.401 C 308.520 193.212,284.833 200.334,261.895 207.226 C 238.958 214.119,219.460 220.066,218.568 220.442 C 214.061 222.338,209.652 226.897,208.117 231.245 L 207.757 232.267 213.393 232.267 L 219.029 232.267 254.648 221.586 C 274.238 215.712,298.127 208.554,307.733 205.680 C 317.340 202.806,325.292 200.374,325.405 200.275 C 325.518 200.177,325.578 197.399,325.538 194.102 L 325.467 188.107 314.533 191.401 M54.933 236.643 L 54.933 265.285 60.200 265.387 C 71.070 265.596,78.224 270.787,80.706 280.267 C 81.263 282.391,81.579 310.023,81.089 313.671 C 79.624 324.564,71.650 330.933,59.477 330.933 L 54.925 330.933 54.996 338.590 L 55.067 346.247 58.000 347.098 C 59.613 347.566,62.553 348.430,64.533 349.017 C 71.181 350.989,145.641 373.332,154.000 375.864 C 158.547 377.241,164.547 379.041,167.333 379.862 C 170.120 380.684,172.730 381.465,173.133 381.598 L 173.867 381.839 173.867 312.705 L 173.867 243.570 166.067 241.228 C 161.777 239.939,152.927 237.279,146.400 235.317 C 139.873 233.354,125.233 228.974,113.867 225.583 C 102.500 222.192,87.320 217.643,80.133 215.473 C 61.820 209.945,55.306 208.000,55.106 208.000 C 55.011 208.000,54.933 220.889,54.933 236.643 M338.267 209.999 C 332.275 211.823,321.418 215.086,253.267 235.537 L 226.401 243.600 226.400 312.600 C 226.400 374.148,226.444 381.600,226.805 381.600 C 227.266 381.600,271.250 368.457,319.200 353.991 C 327.633 351.447,336.033 348.930,337.867 348.398 C 339.700 347.865,342.192 347.134,343.404 346.772 L 345.608 346.114 345.537 338.590 L 345.467 331.067 340.133 330.899 C 334.277 330.715,333.270 330.513,330.002 328.867 C 324.426 326.059,320.578 320.945,319.419 314.800 C 318.741 311.207,318.944 282.776,319.666 280.199 C 322.382 270.505,329.012 265.699,340.133 265.362 L 345.467 265.200 345.535 236.600 C 345.599 209.478,345.578 208.001,345.135 208.026 C 344.877 208.040,341.787 208.928,338.267 209.999 M186.933 314.667 L 186.933 384.000 200.133 384.000 L 213.333 384.000 213.333 314.667 L 213.333 245.333 200.133 245.333 L 186.933 245.333 186.933 314.667 M20.667 251.983 C 16.775 252.650,15.467 254.935,15.467 261.061 L 15.467 265.338 28.600 265.269 L 41.733 265.200 41.805 258.467 L 41.876 251.733 31.805 251.767 C 26.265 251.785,21.253 251.882,20.667 251.983 M358.526 252.055 C 358.451 252.251,358.422 255.288,358.462 258.805 L 358.533 265.200 371.733 265.200 L 384.933 265.200 384.933 260.933 C 384.933 255.487,384.333 254.121,381.200 252.439 C 379.858 251.719,358.792 251.362,358.526 252.055 M15.467 295.600 C 15.467 316.075,15.358 315.419,19.067 317.423 L 20.133 318.000 41.733 318.000 L 63.333 318.000 64.400 317.418 C 65.957 316.569,66.911 315.566,67.628 314.028 L 68.261 312.667 68.261 298.133 L 68.261 283.600 67.609 282.198 C 66.878 280.628,65.978 279.686,64.400 278.839 C 63.335 278.267,63.301 278.267,39.400 278.192 L 15.467 278.117 15.467 295.600 M337.467 278.382 C 335.151 278.781,333.099 280.664,332.394 283.037 C 331.795 285.055,331.813 311.273,332.415 313.301 C 332.897 314.924,334.275 316.577,335.848 317.419 L 336.933 318.000 358.533 318.000 L 380.133 318.000 381.200 317.418 C 382.638 316.634,383.613 315.670,384.333 314.322 L 384.933 313.200 384.933 295.733 L 384.933 278.267 361.733 278.233 C 348.973 278.214,338.053 278.281,337.467 278.382 " stroke="none" fill="#ec0c8c" fill-rule="evenodd"></path><path id="path1" d="M182.487 14.333 C 192.142 14.372,207.862 14.372,217.421 14.333 C 226.979 14.294,219.080 14.263,199.867 14.263 C 180.653 14.263,172.833 14.295,182.487 14.333 M213.465 314.667 C 213.465 352.873,213.496 368.503,213.533 349.400 C 213.571 330.297,213.571 299.037,213.533 279.933 C 213.496 260.830,213.465 276.460,213.465 314.667 M15.307 261.467 C 15.307 263.667,15.348 264.531,15.398 263.388 C 15.449 262.244,15.448 260.444,15.398 259.388 C 15.347 258.331,15.306 259.267,15.307 261.467 M324.654 271.267 L 323.600 272.400 324.733 271.346 C 325.787 270.366,325.989 270.133,325.787 270.133 C 325.744 270.133,325.234 270.643,324.654 271.267 M15.326 295.200 C 15.326 304.660,15.359 308.530,15.400 303.800 C 15.441 299.070,15.441 291.330,15.400 286.600 C 15.359 281.870,15.326 285.740,15.326 295.200 M319.057 298.000 C 319.057 305.333,319.091 308.295,319.133 304.581 C 319.175 300.868,319.175 294.868,319.133 291.248 C 319.091 287.628,319.057 290.667,319.057 298.000 " stroke="none" fill="#f00c8c" fill-rule="evenodd"></path><path id="path2" d="M182.487 14.333 C 192.142 14.372,207.862 14.372,217.421 14.333 C 226.979 14.294,219.080 14.263,199.867 14.263 C 180.653 14.263,172.833 14.295,182.487 14.333 M213.465 314.667 C 213.465 352.873,213.496 368.503,213.533 349.400 C 213.571 330.297,213.571 299.037,213.533 279.933 C 213.496 260.830,213.465 276.460,213.465 314.667 M15.307 261.467 C 15.307 263.667,15.348 264.531,15.398 263.388 C 15.449 262.244,15.448 260.444,15.398 259.388 C 15.347 258.331,15.306 259.267,15.307 261.467 M324.654 271.267 L 323.600 272.400 324.733 271.346 C 325.787 270.366,325.989 270.133,325.787 270.133 C 325.744 270.133,325.234 270.643,324.654 271.267 M15.326 295.200 C 15.326 304.660,15.359 308.530,15.400 303.800 C 15.441 299.070,15.441 291.330,15.400 286.600 C 15.359 281.870,15.326 285.740,15.326 295.200 M319.057 298.000 C 319.057 305.333,319.091 308.295,319.133 304.581 C 319.175 300.868,319.175 294.868,319.133 291.248 C 319.091 287.628,319.057 290.667,319.057 298.000 " stroke="none" fill="#f00c8c" fill-rule="evenodd"></path><path id="path3" d="M182.487 14.333 C 192.142 14.372,207.862 14.372,217.421 14.333 C 226.979 14.294,219.080 14.263,199.867 14.263 C 180.653 14.263,172.833 14.295,182.487 14.333 M213.465 314.667 C 213.465 352.873,213.496 368.503,213.533 349.400 C 213.571 330.297,213.571 299.037,213.533 279.933 C 213.496 260.830,213.465 276.460,213.465 314.667 M15.307 261.467 C 15.307 263.667,15.348 264.531,15.398 263.388 C 15.449 262.244,15.448 260.444,15.398 259.388 C 15.347 258.331,15.306 259.267,15.307 261.467 M324.654 271.267 L 323.600 272.400 324.733 271.346 C 325.787 270.366,325.989 270.133,325.787 270.133 C 325.744 270.133,325.234 270.643,324.654 271.267 M15.326 295.200 C 15.326 304.660,15.359 308.530,15.400 303.800 C 15.441 299.070,15.441 291.330,15.400 286.600 C 15.359 281.870,15.326 285.740,15.326 295.200 M319.057 298.000 C 319.057 305.333,319.091 308.295,319.133 304.581 C 319.175 300.868,319.175 294.868,319.133 291.248 C 319.091 287.628,319.057 290.667,319.057 298.000 " stroke="none" fill="#f00c8c" fill-rule="evenodd"></path><path id="path4" d="M182.487 14.333 C 192.142 14.372,207.862 14.372,217.421 14.333 C 226.979 14.294,219.080 14.263,199.867 14.263 C 180.653 14.263,172.833 14.295,182.487 14.333 M213.465 314.667 C 213.465 352.873,213.496 368.503,213.533 349.400 C 213.571 330.297,213.571 299.037,213.533 279.933 C 213.496 260.830,213.465 276.460,213.465 314.667 M15.307 261.467 C 15.307 263.667,15.348 264.531,15.398 263.388 C 15.449 262.244,15.448 260.444,15.398 259.388 C 15.347 258.331,15.306 259.267,15.307 261.467 M324.654 271.267 L 323.600 272.400 324.733 271.346 C 325.787 270.366,325.989 270.133,325.787 270.133 C 325.744 270.133,325.234 270.643,324.654 271.267 M15.326 295.200 C 15.326 304.660,15.359 308.530,15.400 303.800 C 15.441 299.070,15.441 291.330,15.400 286.600 C 15.359 281.870,15.326 285.740,15.326 295.200 M319.057 298.000 C 319.057 305.333,319.091 308.295,319.133 304.581 C 319.175 300.868,319.175 294.868,319.133 291.248 C 319.091 287.628,319.057 290.667,319.057 298.000 " stroke="none" fill="#f00c8c" fill-rule="evenodd"></path></g></svg>
