<svg xmlns="http://www.w3.org/2000/svg" xmlns:xlink="http://www.w3.org/1999/xlink" viewBox="0 0 360.85 361.12"><defs><style>.cls-1{fill:#29abe2;}.cls-10,.cls-11,.cls-12,.cls-13,.cls-14,.cls-15,.cls-16,.cls-17,.cls-18,.cls-19,.cls-2,.cls-20,.cls-21,.cls-22,.cls-23,.cls-3,.cls-4,.cls-5,.cls-6,.cls-7,.cls-8,.cls-9{stroke:#00aeef;stroke-miterlimit:10;stroke-width:3px;}.cls-2{fill:url(#radial-gradient);}.cls-3{fill:url(#radial-gradient-2);}.cls-4{fill:url(#radial-gradient-3);}.cls-5{fill:url(#radial-gradient-4);}.cls-6{fill:url(#radial-gradient-5);}.cls-7{fill:url(#radial-gradient-6);}.cls-8{fill:url(#radial-gradient-7);}.cls-9{fill:url(#radial-gradient-8);}.cls-10{fill:url(#radial-gradient-9);}.cls-11{fill:url(#radial-gradient-10);}.cls-12{fill:url(#radial-gradient-11);}.cls-13{fill:url(#radial-gradient-12);}.cls-14{fill:url(#radial-gradient-13);}.cls-15{fill:url(#radial-gradient-14);}.cls-16{fill:url(#radial-gradient-15);}.cls-17{fill:url(#radial-gradient-16);}.cls-18{fill:url(#radial-gradient-17);}.cls-19{fill:url(#radial-gradient-18);}.cls-20{fill:url(#radial-gradient-19);}.cls-21{fill:url(#radial-gradient-20);}.cls-22{fill:url(#radial-gradient-21);}.cls-23{fill:url(#radial-gradient-22);}</style><radialGradient id="radial-gradient" cx="43.13" cy="291.35" r="13.69" gradientUnits="userSpaceOnUse"><stop offset="0" stop-color="#30302f"/><stop offset="0" stop-color="#292827"/><stop offset="0" stop-color="#221f1f"/></radialGradient><radialGradient id="radial-gradient-2" cx="42.68" cy="331.93" r="35.09" xlink:href="#radial-gradient"/><radialGradient id="radial-gradient-3" cx="70.06" cy="263.52" r="13.58" xlink:href="#radial-gradient"/><radialGradient id="radial-gradient-4" cx="97.44" cy="290.68" r="13.69" xlink:href="#radial-gradient"/><radialGradient id="radial-gradient-5" cx="97.44" cy="235.47" r="13.58" xlink:href="#radial-gradient"/><radialGradient id="radial-gradient-6" cx="125.05" cy="262.63" r="13.58" xlink:href="#radial-gradient"/><radialGradient id="radial-gradient-7" cx="125.27" cy="207.42" r="13.58" xlink:href="#radial-gradient"/><radialGradient id="radial-gradient-8" cx="152.77" cy="234.75" r="13.77" xlink:href="#radial-gradient"/><radialGradient id="radial-gradient-9" cx="152.88" cy="180.48" r="13.8" xlink:href="#radial-gradient"/><radialGradient id="radial-gradient-10" cx="180.48" cy="152.88" r="13.58" xlink:href="#radial-gradient"/><radialGradient id="radial-gradient-11" cx="194.29" cy="193.95" r="27.55" xlink:href="#radial-gradient"/><radialGradient id="radial-gradient-12" cx="207.87" cy="125.05" r="13.58" xlink:href="#radial-gradient"/><radialGradient id="radial-gradient-13" cx="235.69" cy="152.65" r="13.69" xlink:href="#radial-gradient"/><radialGradient id="radial-gradient-14" cx="235.47" cy="97.67" r="13.58" xlink:href="#radial-gradient"/><radialGradient id="radial-gradient-15" cx="97.44" cy="42.46" r="13.58" xlink:href="#radial-gradient"/><radialGradient id="radial-gradient-16" cx="318.29" cy="262.63" r="13.58" xlink:href="#radial-gradient"/><radialGradient id="radial-gradient-17" cx="290.82" cy="69.84" r="41.39" xlink:href="#radial-gradient"/><radialGradient id="radial-gradient-18" cx="166.23" cy="70.06" r="40.2" xlink:href="#radial-gradient"/><radialGradient id="radial-gradient-19" cx="290.68" cy="194.29" r="40.2" xlink:href="#radial-gradient"/><radialGradient id="radial-gradient-20" cx="179.98" cy="15.08" r="49.77" xlink:href="#radial-gradient"/><radialGradient id="radial-gradient-21" cx="345.77" cy="180.15" r="49.66" xlink:href="#radial-gradient"/><radialGradient id="radial-gradient-22" cx="263.3" cy="125.05" r="13.8" xlink:href="#radial-gradient"/></defs><g id="Layer_2" data-name="Layer 2"><g id="Layer_7" data-name="Layer 7"><polygon class="cls-1" points="167.19 193.85 139.74 193.85 139.74 221.56 112.14 221.56 112.14 249.82 139.74 249.82 139.74 222.11 167.35 222.11 167.35 195.28 194.8 195.28 194.8 167.02 167.19 167.02 167.19 193.85"/><rect class="cls-1" x="84.31" y="249.61" width="27.61" height="28.26"/><polygon class="cls-1" points="56.7 304.37 29.32 304.37 29.32 332.63 56.93 332.63 56.93 306.13 84.31 306.13 84.31 277.87 56.7 277.87 56.7 304.37"/><polygon class="cls-1" points="319.95 111.91 319.95 29.32 249.83 29.32 249.83 19.61 111.58 19.61 111.58 84.31 236.14 84.31 236.14 112.14 221.88 112.14 221.88 139.09 194.95 139.09 194.95 167.35 222.56 167.35 222.56 141.51 250.16 141.51 250.16 113.14 277.77 113.14 277.77 250.16 338.23 250.16 338.23 111.91 319.95 111.91"/><rect class="cls-2" x="29.32" y="277.77" width="27.61" height="27.16"/><polygon class="cls-3" points="56.26 331.93 28.66 331.93 28.66 304.25 1.5 304.25 1.5 331.93 1.5 359.62 28.66 359.62 56.26 359.62 56.26 331.97 83.87 331.97 83.87 304.36 56.26 304.36 56.26 331.93"/><rect class="cls-4" x="56.49" y="249.95" width="27.16" height="27.16"/><rect class="cls-5" x="83.64" y="277.1" width="27.6" height="27.16"/><rect class="cls-6" x="83.87" y="221.89" width="27.16" height="27.16"/><rect class="cls-7" x="111.47" y="249.05" width="27.16" height="27.16"/><rect class="cls-8" x="111.7" y="193.84" width="27.16" height="27.16"/><rect class="cls-9" x="139.08" y="220.89" width="27.38" height="27.71"/><rect class="cls-10" x="139.08" y="166.68" width="27.6" height="27.61"/><rect class="cls-11" x="166.91" y="139.3" width="27.16" height="27.16"/><polygon class="cls-12" points="194.06 194.29 166.68 194.29 166.68 221.44 194.29 221.44 194.29 194.29 221.89 194.29 221.89 166.46 194.06 166.46 194.06 194.29"/><rect class="cls-13" x="194.29" y="111.47" width="27.16" height="27.16"/><rect class="cls-14" x="221.89" y="139.08" width="27.61" height="27.16"/><rect class="cls-15" x="221.89" y="84.09" width="27.16" height="27.16"/><rect class="cls-16" x="83.87" y="28.88" width="27.16" height="27.16"/><rect class="cls-17" x="304.71" y="249.05" width="27.16" height="27.16"/><polygon class="cls-18" points="332.19 28.43 305.04 28.43 305.04 28.49 249.44 28.49 249.44 56.43 277.1 56.43 277.1 83.64 304.26 83.64 304.26 111.25 332.19 111.25 332.19 56.04 332.19 28.43"/><rect class="cls-19" x="111.02" y="56.49" width="110.42" height="27.16"/><rect class="cls-20" x="277.1" y="139.08" width="27.16" height="110.42"/><rect class="cls-21" x="110.91" y="1.5" width="138.14" height="27.16"/><rect class="cls-22" x="332.19" y="111.25" width="27.16" height="137.8"/><rect class="cls-23" x="249.5" y="111.25" width="27.61" height="27.61"/></g></g></svg>