<svg xmlns="http://www.w3.org/2000/svg" xmlns:xlink="http://www.w3.org/1999/xlink" viewBox="0 0 357.13 404.88"><defs><style>.cls-1,.cls-2,.cls-3,.cls-5{stroke:#00aeef;}.cls-1,.cls-2,.cls-20,.cls-3,.cls-5{stroke-miterlimit:10;}.cls-1,.cls-2,.cls-3{stroke-width:3px;}.cls-1{fill:url(#radial-gradient);}.cls-2{fill:url(#radial-gradient-2);}.cls-3{fill:url(#radial-gradient-3);}.cls-4{fill:#29abe2;}.cls-20,.cls-5{stroke-width:7px;}.cls-5{fill:url(#radial-gradient-4);}.cls-6{fill:url(#radial-gradient-5);}.cls-7{fill:url(#radial-gradient-6);}.cls-8{fill:url(#radial-gradient-7);}.cls-9{fill:url(#radial-gradient-8);}.cls-10{fill:url(#radial-gradient-9);}.cls-11{fill:url(#radial-gradient-10);}.cls-12{fill:url(#radial-gradient-11);}.cls-13{fill:url(#radial-gradient-12);}.cls-14{fill:url(#radial-gradient-13);}.cls-15{fill:url(#radial-gradient-14);}.cls-16{fill:url(#radial-gradient-15);}.cls-17{fill:url(#radial-gradient-16);}.cls-18{fill:url(#radial-gradient-17);}.cls-19{fill:url(#radial-gradient-18);}.cls-20{fill:none;stroke:#29abe2;}.cls-21{fill:url(#radial-gradient-19);}.cls-22{fill:url(#radial-gradient-20);}.cls-23{fill:url(#radial-gradient-21);}.cls-24{fill:url(#radial-gradient-22);}.cls-25{fill:url(#radial-gradient-23);}.cls-26{fill:url(#radial-gradient-24);}.cls-27{fill:url(#radial-gradient-25);}.cls-28{fill:url(#radial-gradient-26);}.cls-29{fill:url(#radial-gradient-27);}.cls-30{fill:url(#radial-gradient-28);}.cls-31{fill:url(#radial-gradient-29);}.cls-32{fill:url(#radial-gradient-30);}.cls-33{fill:url(#radial-gradient-31);}.cls-34{fill:url(#radial-gradient-32);}</style><radialGradient id="radial-gradient" cx="168.73" cy="172.9" r="169.33" gradientTransform="translate(180.31 414.2) rotate(-138.45)" gradientUnits="userSpaceOnUse"><stop offset="0" stop-color="#30302f"/><stop offset="0" stop-color="#292827"/><stop offset="0" stop-color="#221f1f"/></radialGradient><radialGradient id="radial-gradient-2" cx="238.75" cy="158.41" r="131.44" gradientTransform="translate(10.33 -14.56) rotate(3.57)" xlink:href="#radial-gradient"/><radialGradient id="radial-gradient-3" cx="194.95" cy="188.61" r="167.07" gradientTransform="translate(141.5 -77.32) rotate(34.58)" xlink:href="#radial-gradient"/><radialGradient id="radial-gradient-4" cx="84.14" cy="277.54" r="76.12" gradientTransform="matrix(1, 0, 0, 1, 0, 0)" xlink:href="#radial-gradient"/><radialGradient id="radial-gradient-5" cx="84.15" cy="277.54" r="76.11" gradientUnits="userSpaceOnUse"><stop offset="0" stop-color="#30302f"/><stop offset="0.39" stop-color="#292827"/><stop offset="1" stop-color="#221f1f"/></radialGradient><radialGradient id="radial-gradient-6" cx="84.14" cy="277.57" r="42.37" xlink:href="#radial-gradient-5"/><radialGradient id="radial-gradient-7" cx="70.11" cy="230.5" r="7.48" gradientTransform="matrix(1, 0, 0, 1, 0, 0)" xlink:href="#radial-gradient"/><radialGradient id="radial-gradient-8" cx="98.11" cy="324.53" r="7.48" gradientTransform="matrix(1, 0, 0, 1, 0, 0)" xlink:href="#radial-gradient"/><radialGradient id="radial-gradient-9" cx="48.46" cy="243.85" r="8.48" gradientTransform="matrix(1, 0, 0, 1, 0, 0)" xlink:href="#radial-gradient"/><radialGradient id="radial-gradient-10" cx="95.5" cy="229.82" r="7.29" gradientTransform="matrix(1, 0, 0, 1, 0, 0)" xlink:href="#radial-gradient"/><radialGradient id="radial-gradient-11" cx="72.79" cy="325.31" r="7.3" gradientTransform="matrix(1, 0, 0, 1, 0, 0)" xlink:href="#radial-gradient"/><radialGradient id="radial-gradient-12" cx="36.39" cy="266.19" r="7.3" gradientTransform="matrix(1, 0, 0, 1, 0, 0)" xlink:href="#radial-gradient"/><radialGradient id="radial-gradient-13" cx="119.83" cy="311.27" r="8.49" gradientTransform="matrix(1, 0, 0, 1, 0, 0)" xlink:href="#radial-gradient"/><radialGradient id="radial-gradient-14" cx="117.85" cy="241.86" r="8.48" gradientTransform="matrix(1, 0, 0, 1, 0, 0)" xlink:href="#radial-gradient"/><radialGradient id="radial-gradient-15" cx="131.9" cy="288.91" r="7.31" gradientTransform="matrix(1, 0, 0, 1, 0, 0)" xlink:href="#radial-gradient"/><radialGradient id="radial-gradient-16" cx="50.44" cy="313.25" r="8.48" gradientTransform="matrix(1, 0, 0, 1, 0, 0)" xlink:href="#radial-gradient"/><radialGradient id="radial-gradient-17" cx="37.11" cy="291.49" r="7.45" gradientTransform="matrix(1, 0, 0, 1, 0, 0)" xlink:href="#radial-gradient"/><radialGradient id="radial-gradient-18" cx="131.13" cy="263.53" r="7.47" gradientTransform="matrix(1, 0, 0, 1, 0, 0)" xlink:href="#radial-gradient"/><radialGradient id="radial-gradient-19" cx="172.79" cy="325.26" r="76.11" xlink:href="#radial-gradient-5"/><radialGradient id="radial-gradient-20" cx="172.78" cy="325.29" r="42.37" xlink:href="#radial-gradient-5"/><radialGradient id="radial-gradient-21" cx="158.74" cy="278.22" r="7.48" gradientTransform="matrix(1, 0, 0, 1, 0, 0)" xlink:href="#radial-gradient"/><radialGradient id="radial-gradient-22" cx="186.74" cy="372.25" r="7.48" gradientTransform="matrix(1, 0, 0, 1, 0, 0)" xlink:href="#radial-gradient"/><radialGradient id="radial-gradient-23" cx="137.1" cy="291.57" r="8.48" gradientTransform="matrix(1, 0, 0, 1, 0, 0)" xlink:href="#radial-gradient"/><radialGradient id="radial-gradient-24" cx="184.14" cy="277.54" r="7.29" gradientTransform="matrix(1, 0, 0, 1, 0, 0)" xlink:href="#radial-gradient"/><radialGradient id="radial-gradient-25" cx="161.42" cy="373.03" r="7.3" gradientTransform="matrix(1, 0, 0, 1, 0, 0)" xlink:href="#radial-gradient"/><radialGradient id="radial-gradient-26" cx="125.02" cy="313.91" r="7.3" gradientTransform="matrix(1, 0, 0, 1, 0, 0)" xlink:href="#radial-gradient"/><radialGradient id="radial-gradient-27" cx="208.46" cy="358.99" r="8.49" gradientTransform="matrix(1, 0, 0, 1, 0, 0)" xlink:href="#radial-gradient"/><radialGradient id="radial-gradient-28" cx="206.49" cy="289.58" r="8.48" gradientTransform="matrix(1, 0, 0, 1, 0, 0)" xlink:href="#radial-gradient"/><radialGradient id="radial-gradient-29" cx="220.53" cy="336.63" r="7.31" gradientTransform="matrix(1, 0, 0, 1, 0, 0)" xlink:href="#radial-gradient"/><radialGradient id="radial-gradient-30" cx="139.07" cy="360.97" r="8.48" gradientTransform="matrix(1, 0, 0, 1, 0, 0)" xlink:href="#radial-gradient"/><radialGradient id="radial-gradient-31" cx="125.74" cy="339.21" r="7.45" gradientTransform="matrix(1, 0, 0, 1, 0, 0)" xlink:href="#radial-gradient"/><radialGradient id="radial-gradient-32" cx="219.76" cy="311.25" r="7.47" gradientTransform="matrix(1, 0, 0, 1, 0, 0)" xlink:href="#radial-gradient"/></defs><g id="Layer_2" data-name="Layer 2"><g id="Layer_7" data-name="Layer 7"><rect class="cls-1" x="70.67" y="25.81" width="196.11" height="294.17" rx="9" transform="translate(409.68 190.36) rotate(138.45)"/><rect class="cls-2" x="140.7" y="11.32" width="196.11" height="294.17" rx="9" transform="translate(-9.4 15.17) rotate(-3.57)"/><rect class="cls-3" x="96.89" y="41.53" width="196.11" height="294.17" rx="9" transform="translate(-72.61 143.97) rotate(-34.58)"/><path class="cls-4" d="M216.56,211.9c1.15,1.14,2.12,2.21,3.2,3.15a41.78,41.78,0,0,0,10.87,6.36c3.8,1.65,7.62,3.25,11.43,4.87.27.12.52.26.87.43l-27.44,18.92c-.08-.83-.17-1.6-.22-2.38-.29-4.3-.51-8.61-.87-12.91a32.29,32.29,0,0,0-2.55-10.81c-.47-1.05-1.06-2.05-1.69-3.24-.21.41-.33.63-.44.86A37.08,37.08,0,0,1,196,233c-5.89,3.71-12.28,5.47-19.26,4.23a21.63,21.63,0,0,1-14.78-10,33.84,33.84,0,0,1-4.86-13.69,61.8,61.8,0,0,1,.28-18.86,394.66,394.66,0,0,0,4.74-51.48c0-1,.07-2.06.11-3.19,1.12.34,2.18.65,3.23,1,13.91,4.46,27.92,8.57,42.12,12,3.82.92,7.66,1.74,11.43,2.81a46.07,46.07,0,0,1,18,9.34,26.13,26.13,0,0,1,8.68,13.63,23.31,23.31,0,0,1-3.86,19.61c-4.41,6.31-10.6,10.12-17.93,12.14-2.18.59-4.44.85-6.67,1.27Z"/><path class="cls-4" d="M56.5,118.64l18,14.06L70,135.82l-3.65-2.93-5.8,4,1.42,4.47-3.68,2.54L51.63,122Zm2.74,14.24,3.8-2.62-6.22-5Z"/><path class="cls-4" d="M333.43,258.64l-18-14.07,4.52-3.11,3.65,2.93,5.8-4L328,235.92l3.68-2.53,6.61,21.89Zm-2.74-14.24-3.8,2.62,6.22,5Z"/></g><g id="Layer_8" data-name="Layer 8"><g id="Poker_Chips" data-name="Poker Chips"><g id="Front_Chip" data-name="Front Chip"><circle class="cls-5" cx="84.14" cy="277.54" r="76.1"/><path class="cls-6" d="M62.39,204.62a76.1,76.1,0,1,1-51.17,94.66A76.16,76.16,0,0,1,62.39,204.62Zm37.93,127.32a56.72,56.72,0,1,0-70.54-38.25A56.78,56.78,0,0,0,100.32,331.94ZM66.63,219c3.11-.92,6.23-1.82,9.32-2.79a4.08,4.08,0,0,0,3-5.4c-.44-1.6-1-3.18-1.41-4.78-.18-.69-.51-.87-1.21-.79a73.84,73.84,0,0,0-25.14,7.5c-.66.33-.9.65-.64,1.4.5,1.46.89,3,1.34,4.43.89,2.9,2.88,4,5.81,3.11S63.64,219.92,66.63,219Zm56.28-2.94c-.57.59-1.07,1.1-1.57,1.63-1,1-2,2-2.88,3.12a3.85,3.85,0,0,0,.36,5.38q7.23,6.93,14.55,13.77a3.93,3.93,0,0,0,5.76-.17c1.23-1.24,2.37-2.55,3.6-3.78a.89.89,0,0,0,.05-1.43c-1.16-1.4-2.22-2.88-3.4-4.27A72.48,72.48,0,0,0,122.91,216.08ZM18.15,247.41c-.15.15-.23.2-.26.27A71.93,71.93,0,0,0,11.59,274a1.24,1.24,0,0,0,.74.93c1.71.48,3.45.89,5.19,1.25a3.91,3.91,0,0,0,4.84-3q2.38-9.74,4.63-19.49a3.92,3.92,0,0,0-2.92-4.86C22.11,248.3,20.14,247.88,18.15,247.41ZM45.4,339c1.45-1.53,2.84-3,4.17-4.42a4,4,0,0,0-.22-5.86Q42.19,321.93,35,315.17a4,4,0,0,0-5.85.18c-1.17,1.18-2.25,2.45-3.44,3.6-.66.62-.62,1.08-.06,1.71,2.88,3.23,5.6,6.6,8.63,9.68A59.08,59.08,0,0,0,45.4,339Zm104.71-31.33c.13-.09.18-.1.19-.13a71.32,71.32,0,0,0,6.42-26.5,1.16,1.16,0,0,0-.72-.84c-1.75-.48-3.52-.92-5.31-1.28a4,4,0,0,0-4.76,2.93c-.25.89-.44,1.81-.65,2.71q-2,8.28-3.93,16.54c-.55,2.37.47,4.43,2.61,5.06S148.11,307.22,150.11,307.71ZM118,341.89c-.64-2.15-1.14-4.2-1.87-6.17a3.86,3.86,0,0,0-4.93-2.43Q101.6,336.11,92,339a3.7,3.7,0,0,0-2.73,4.31c.46,2.2,1.25,4.34,1.91,6.57A73.7,73.7,0,0,0,118,341.89Z"/><path class="cls-4" d="M100.31,331.93a56.71,56.71,0,1,1,38.22-70.45A56.77,56.77,0,0,1,100.31,331.93ZM72,237a42.36,42.36,0,1,0,52.71,28.32A42.3,42.3,0,0,0,72,237Zm6.5-4.27L75.88,224a44.86,44.86,0,0,0-14.15,4.22L64.34,237A37.85,37.85,0,0,1,78.48,232.74ZM104,318.07a35.88,35.88,0,0,1-14.29,4.3c.84,2.82,1.62,5.5,2.46,8.15a1.1,1.1,0,0,0,.91.47A43.73,43.73,0,0,0,106,327.15c.25-.12.57-.58.51-.79C105.71,323.65,104.89,321,104,318.07ZM46.67,252.39a36.88,36.88,0,0,1,10.21-10.85l-6.62-6.24A44.35,44.35,0,0,0,40,246.13ZM103.8,227.1a43.59,43.59,0,0,0-13.89-3.4.94.94,0,0,0-.72.55c-.69,2.7-1.31,5.41-2,8.25A37,37,0,0,1,101.7,236C102.42,232.89,103.1,230,103.8,227.1ZM64.49,328A44,44,0,0,0,79,331.46c.71-3,1.39-5.87,2.1-8.85a36.67,36.67,0,0,1-14.49-3.45C65.9,322.12,65.21,325,64.49,328ZM33.68,257.89a44.66,44.66,0,0,0-3.44,14.51l8.86,2.09A37.1,37.1,0,0,1,42.53,260Zm77.72,55.66,6.62,6.26A44.43,44.43,0,0,0,128.25,309l-6.62-6.25A36.76,36.76,0,0,1,111.4,313.55Zm15-69.87a44.4,44.4,0,0,0-10.83-10.23l-6.26,6.63a37.37,37.37,0,0,1,10.86,10.2Zm11.66,39-8.86-2.1a36.78,36.78,0,0,1-3.46,14.48l8.88,2.11A44.68,44.68,0,0,0,138.06,282.72ZM52.72,321.67,59,315a37.12,37.12,0,0,1-10.85-10.2l-6.23,6.6A44.47,44.47,0,0,0,52.72,321.67ZM30.61,285.81a43.4,43.4,0,0,0,3.93,13.46,1.26,1.26,0,0,0,1.07.5c1.11-.23,2.19-.62,3.27-.94l4.72-1.41a37,37,0,0,1-4.27-14.22ZM129,271.93c2.8-.84,5.51-1.63,8.2-2.49.22-.07.43-.63.39-.93a32.14,32.14,0,0,0-.58-3.35,41.73,41.73,0,0,0-3.54-10l-8.71,2.6A36.69,36.69,0,0,1,129,271.93Z"/><path class="cls-4" d="M66.64,219c-3,.89-6,1.8-9,2.67s-4.92-.2-5.82-3.11c-.45-1.47-.84-3-1.34-4.42-.26-.75,0-1.07.64-1.4a73.75,73.75,0,0,1,25.14-7.5c.7-.08,1,.09,1.22.78.43,1.61,1,3.18,1.4,4.79a4.07,4.07,0,0,1-3,5.39C72.86,217.21,69.74,218.11,66.64,219Z"/><path class="cls-4" d="M122.91,216.09a72,72,0,0,1,16.47,14.25c1.18,1.38,2.24,2.86,3.4,4.27a.89.89,0,0,1-.05,1.43c-1.23,1.23-2.37,2.54-3.6,3.77a3.93,3.93,0,0,1-5.76.17q-7.32-6.84-14.55-13.76a3.85,3.85,0,0,1-.36-5.38c.89-1.1,1.91-2.09,2.88-3.12C121.84,217.19,122.34,216.68,122.91,216.09Z"/><path class="cls-4" d="M18.15,247.42c2,.47,4,.89,5.92,1.42A3.92,3.92,0,0,1,27,253.7q-2.25,9.75-4.63,19.48a3.9,3.9,0,0,1-4.84,3q-2.61-.52-5.19-1.25a1.27,1.27,0,0,1-.74-.92,71.93,71.93,0,0,1,6.3-26.28C17.92,247.62,18,247.57,18.15,247.42Z"/><path class="cls-4" d="M45.4,339a59.45,59.45,0,0,1-11.15-8.69c-3-3.08-5.75-6.46-8.63-9.68-.57-.64-.6-1.09.05-1.72,1.2-1.15,2.28-2.41,3.45-3.59a3.94,3.94,0,0,1,5.84-.18q7.23,6.75,14.39,13.58a4,4,0,0,1,.22,5.86C48.24,336.08,46.85,337.5,45.4,339Z"/><path class="cls-4" d="M150.11,307.7c-2-.49-4.1-.91-6.15-1.51s-3.17-2.69-2.61-5.06c1.29-5.51,2.61-11,3.92-16.53.22-.91.41-1.82.66-2.72a4,4,0,0,1,4.76-2.93c1.78.37,3.56.8,5.31,1.28a1.15,1.15,0,0,1,.71.84,71.31,71.31,0,0,1-6.41,26.5S150.24,307.61,150.11,307.7Z"/><path class="cls-4" d="M118,341.87a73.58,73.58,0,0,1-26.85,8c-.67-2.24-1.46-4.37-1.92-6.58A3.7,3.7,0,0,1,92,339q9.6-2.92,19.23-5.75a3.85,3.85,0,0,1,4.92,2.44C116.86,337.67,117.36,339.73,118,341.87Z"/><path class="cls-7" d="M72,237A42.36,42.36,0,1,1,43.6,289.78,42.3,42.3,0,0,1,72,237Zm1.92,6.27a35.8,35.8,0,1,0,44.54,24A35.74,35.74,0,0,0,73.9,243.28Z"/><path class="cls-8" d="M78.48,232.74A37.85,37.85,0,0,0,64.34,237l-2.61-8.72A44.86,44.86,0,0,1,75.88,224Z"/><path class="cls-9" d="M104,318.07c.86,2.88,1.68,5.58,2.44,8.29.06.21-.26.67-.51.79A43.73,43.73,0,0,1,93.11,331a1.1,1.1,0,0,1-.91-.47c-.84-2.65-1.62-5.33-2.46-8.15A35.88,35.88,0,0,0,104,318.07Z"/><path class="cls-10" d="M46.67,252.39,40,246.13A44.35,44.35,0,0,1,50.26,235.3l6.62,6.24A36.88,36.88,0,0,0,46.67,252.39Z"/><path class="cls-11" d="M103.8,227.1c-.7,2.93-1.38,5.79-2.1,8.85a37,37,0,0,0-14.49-3.45c.67-2.84,1.29-5.55,2-8.25a.94.94,0,0,1,.72-.55A43.59,43.59,0,0,1,103.8,227.1Z"/><path class="cls-12" d="M64.49,328c.72-3,1.41-5.9,2.11-8.86a36.67,36.67,0,0,0,14.49,3.45c-.71,3-1.39,5.85-2.1,8.85A44,44,0,0,1,64.49,328Z"/><path class="cls-13" d="M33.68,257.89,42.53,260a37.1,37.1,0,0,0-3.43,14.48l-8.86-2.09A44.66,44.66,0,0,1,33.68,257.89Z"/><path class="cls-14" d="M111.4,313.55a36.76,36.76,0,0,0,10.23-10.82l6.62,6.25A44.43,44.43,0,0,1,118,319.81Z"/><path class="cls-15" d="M126.4,243.68l-6.23,6.6a37.37,37.37,0,0,0-10.86-10.2l6.26-6.63A44.4,44.4,0,0,1,126.4,243.68Z"/><path class="cls-16" d="M138.06,282.72a44.68,44.68,0,0,1-3.44,14.49l-8.88-2.11a36.78,36.78,0,0,0,3.46-14.48Z"/><path class="cls-17" d="M52.72,321.67A44.47,44.47,0,0,1,41.9,311.43l6.23-6.6A37.12,37.12,0,0,0,59,315Z"/><path class="cls-18" d="M30.61,285.81l8.72-2.61a37,37,0,0,0,4.27,14.22l-4.72,1.41c-1.08.32-2.16.71-3.27.94a1.26,1.26,0,0,1-1.07-.5A43.4,43.4,0,0,1,30.61,285.81Z"/><path class="cls-19" d="M129,271.93a36.69,36.69,0,0,0-4.24-14.2l8.71-2.6a41.73,41.73,0,0,1,3.54,10,32.14,32.14,0,0,1,.58,3.35c0,.3-.17.86-.39.93C134.46,270.3,131.75,271.09,129,271.93Z"/><path class="cls-4" d="M73.9,243.28a35.8,35.8,0,1,1-24,44.56A35.74,35.74,0,0,1,73.9,243.28Z"/></g></g><g id="Poker_Chips-2" data-name="Poker Chips"><g id="Front_Chip-2" data-name="Front Chip"><circle class="cls-20" cx="172.77" cy="325.26" r="76.1"/><path class="cls-21" d="M151,252.34A76.1,76.1,0,1,1,99.85,347,76.15,76.15,0,0,1,151,252.34ZM189,379.66a56.72,56.72,0,1,0-70.54-38.25A56.78,56.78,0,0,0,189,379.66ZM155.27,266.74c3.1-.93,6.22-1.82,9.32-2.79a4.08,4.08,0,0,0,2.95-5.4c-.44-1.6-1-3.18-1.4-4.78-.19-.69-.52-.87-1.22-.79a73.9,73.9,0,0,0-25.14,7.5c-.66.33-.9.65-.64,1.4.5,1.46.89,2.95,1.34,4.42.9,2.91,2.88,4,5.82,3.12S152.28,267.64,155.27,266.74Zm56.27-2.95L210,265.43c-1,1-2,2-2.88,3.11a3.87,3.87,0,0,0,.36,5.39q7.25,6.93,14.55,13.76a3.92,3.92,0,0,0,5.76-.16c1.23-1.24,2.38-2.55,3.6-3.78a.89.89,0,0,0,.06-1.43c-1.16-1.4-2.22-2.89-3.41-4.27A72.3,72.3,0,0,0,211.54,263.79ZM106.78,295.12a2.48,2.48,0,0,0-.26.27,72.23,72.23,0,0,0-6.3,26.29,1.28,1.28,0,0,0,.75.93q2.57.7,5.19,1.25a3.91,3.91,0,0,0,4.83-3q2.39-9.73,4.64-19.49a3.93,3.93,0,0,0-2.93-4.87C110.75,296,108.77,295.6,106.78,295.12ZM134,386.76c1.45-1.53,2.83-2.95,4.16-4.42a4,4,0,0,0-.21-5.86q-7.17-6.83-14.39-13.59a4,4,0,0,0-5.85.18c-1.16,1.18-2.25,2.44-3.44,3.59-.65.63-.62,1.08,0,1.72,2.87,3.22,5.6,6.6,8.62,9.68A59.24,59.24,0,0,0,134,386.76Zm104.71-31.34c.12-.08.17-.1.19-.13a71.26,71.26,0,0,0,6.41-26.5,1.21,1.21,0,0,0-.71-.84c-1.76-.48-3.53-.91-5.31-1.27a3.94,3.94,0,0,0-4.76,2.93c-.26.89-.45,1.8-.66,2.71q-2,8.26-3.93,16.54c-.55,2.37.48,4.43,2.61,5.05S236.74,354.94,238.75,355.42ZM206.64,389.6c-.64-2.14-1.14-4.19-1.87-6.16a3.85,3.85,0,0,0-4.92-2.44q-9.63,2.83-19.23,5.75a3.7,3.7,0,0,0-2.74,4.31c.46,2.2,1.25,4.34,1.92,6.57A73.47,73.47,0,0,0,206.64,389.6Z"/><path class="cls-4" d="M189,379.65a56.71,56.71,0,1,1,38.21-70.45A56.79,56.79,0,0,1,189,379.65Zm-28.33-94.93a42.35,42.35,0,1,0,52.7,28.33A42.3,42.3,0,0,0,160.62,284.72Zm6.49-4.27-2.6-8.7A44.8,44.8,0,0,0,150.37,276l2.6,8.72A37.87,37.87,0,0,1,167.11,280.45Zm25.55,85.34a36,36,0,0,1-14.29,4.3c.84,2.82,1.62,5.5,2.47,8.15a1.07,1.07,0,0,0,.9.46,43.47,43.47,0,0,0,12.86-3.83c.25-.12.56-.58.51-.79C194.34,371.36,193.52,368.66,192.66,365.79Zm-57.35-65.68a36.75,36.75,0,0,1,10.21-10.85L138.9,283a44.16,44.16,0,0,0-10.22,10.83Zm57.12-25.3a43.51,43.51,0,0,0-13.89-3.39.94.94,0,0,0-.72.55c-.68,2.7-1.31,5.41-2,8.24a37.12,37.12,0,0,1,14.49,3.46C191.05,280.61,191.73,277.75,192.43,274.81ZM153.12,375.74a44.14,44.14,0,0,0,14.5,3.44c.71-3,1.39-5.87,2.1-8.85a36.8,36.8,0,0,1-14.48-3.45C154.53,369.84,153.85,372.7,153.12,375.74Zm-30.81-70.13a44.86,44.86,0,0,0-3.44,14.5l8.86,2.09a37,37,0,0,1,3.44-14.48ZM200,361.27l6.63,6.26a44.8,44.8,0,0,0,10.23-10.83l-6.63-6.25A36.63,36.63,0,0,1,200,361.27Zm15-69.88a44.6,44.6,0,0,0-10.83-10.23l-6.26,6.64A37.12,37.12,0,0,1,208.8,298Zm11.66,39.05-8.85-2.11a36.82,36.82,0,0,1-3.46,14.49l8.87,2.11A44.68,44.68,0,0,0,226.69,330.44Zm-85.33,38.95,6.25-6.65a37.08,37.08,0,0,1-10.85-10.19l-6.23,6.6A44.7,44.7,0,0,0,141.36,369.39Zm-22.11-35.87A42.85,42.85,0,0,0,123.18,347a1.24,1.24,0,0,0,1.07.49c1.1-.23,2.18-.61,3.27-.93l4.72-1.41A37.24,37.24,0,0,1,128,330.92Zm98.34-13.87c2.8-.84,5.51-1.63,8.2-2.49.21-.07.42-.63.38-.93a31.23,31.23,0,0,0-.57-3.35,41.75,41.75,0,0,0-3.55-10l-8.7,2.6A36.86,36.86,0,0,1,217.59,319.65Z"/><path class="cls-4" d="M155.27,266.76l-9,2.67c-2.94.86-4.92-.21-5.81-3.11-.46-1.47-.85-3-1.34-4.42-.26-.76,0-1.07.64-1.41A73.6,73.6,0,0,1,164.93,253c.7-.08,1,.09,1.21.78.43,1.61,1,3.18,1.41,4.78a4.09,4.09,0,0,1-3,5.4C161.5,264.93,158.38,265.83,155.27,266.76Z"/><path class="cls-4" d="M211.55,263.8A72.27,72.27,0,0,1,228,278.06c1.18,1.38,2.24,2.86,3.4,4.26a.89.89,0,0,1,0,1.43c-1.23,1.23-2.38,2.55-3.6,3.78a3.93,3.93,0,0,1-5.76.17q-7.32-6.84-14.55-13.76a3.88,3.88,0,0,1-.37-5.39c.9-1.09,1.92-2.08,2.89-3.11C210.47,264.91,211,264.4,211.55,263.8Z"/><path class="cls-4" d="M106.79,295.13c2,.48,4,.9,5.91,1.42a3.92,3.92,0,0,1,2.93,4.87q-2.26,9.75-4.63,19.48a3.91,3.91,0,0,1-4.84,3c-1.75-.36-3.48-.77-5.19-1.25a1.28,1.28,0,0,1-.75-.93,72.43,72.43,0,0,1,6.3-26.28C106.55,295.34,106.63,295.29,106.79,295.13Z"/><path class="cls-4" d="M134,386.75a58.83,58.83,0,0,1-11.16-8.7c-3-3.08-5.75-6.45-8.62-9.68a1,1,0,0,1,0-1.71c1.19-1.15,2.27-2.41,3.44-3.59a3.94,3.94,0,0,1,5.85-.18q7.23,6.75,14.39,13.58a4,4,0,0,1,.21,5.86C136.87,383.8,135.48,385.21,134,386.75Z"/><path class="cls-4" d="M238.74,355.41c-2-.48-4.1-.91-6.15-1.51s-3.16-2.68-2.61-5c1.29-5.51,2.62-11,3.93-16.53.21-.91.4-1.82.66-2.72a4,4,0,0,1,4.76-2.93q2.67.56,5.31,1.28a1.17,1.17,0,0,1,.71.84,71.07,71.07,0,0,1-6.42,26.49S238.87,355.33,238.74,355.41Z"/><path class="cls-4" d="M206.64,389.59a74,74,0,0,1-26.85,8c-.66-2.24-1.45-4.37-1.91-6.58a3.69,3.69,0,0,1,2.73-4.3q9.6-2.92,19.23-5.75a3.86,3.86,0,0,1,4.93,2.43C205.49,385.39,206,387.44,206.64,389.59Z"/><path class="cls-22" d="M160.62,284.72a42.35,42.35,0,1,1-28.38,52.78A42.3,42.3,0,0,1,160.62,284.72Zm1.91,6.28a35.8,35.8,0,1,0,44.55,24.05A35.75,35.75,0,0,0,162.53,291Z"/><path class="cls-23" d="M167.11,280.45A37.87,37.87,0,0,0,153,284.69l-2.6-8.72a44.8,44.8,0,0,1,14.14-4.22Z"/><path class="cls-24" d="M192.66,365.79c.86,2.87,1.68,5.57,2.45,8.29,0,.21-.26.67-.51.79a43.47,43.47,0,0,1-12.86,3.83,1.07,1.07,0,0,1-.9-.46c-.85-2.65-1.63-5.33-2.47-8.15A36,36,0,0,0,192.66,365.79Z"/><path class="cls-25" d="M135.31,300.11l-6.63-6.26A44.16,44.16,0,0,1,138.9,283l6.62,6.24A36.75,36.75,0,0,0,135.31,300.11Z"/><path class="cls-26" d="M192.43,274.81c-.7,2.94-1.38,5.8-2.1,8.86a37.12,37.12,0,0,0-14.49-3.46c.67-2.83,1.3-5.54,2-8.24a.94.94,0,0,1,.72-.55A43.51,43.51,0,0,1,192.43,274.81Z"/><path class="cls-27" d="M153.12,375.74c.73-3,1.41-5.9,2.12-8.86a36.8,36.8,0,0,0,14.48,3.45c-.71,3-1.39,5.85-2.1,8.85A44.14,44.14,0,0,1,153.12,375.74Z"/><path class="cls-28" d="M122.31,305.61l8.86,2.11a37,37,0,0,0-3.44,14.48l-8.86-2.09A44.86,44.86,0,0,1,122.31,305.61Z"/><path class="cls-29" d="M200,361.27a36.63,36.63,0,0,0,10.23-10.82l6.63,6.25a44.8,44.8,0,0,1-10.23,10.83Z"/><path class="cls-30" d="M215,291.39,208.8,298a37.12,37.12,0,0,0-10.86-10.2l6.26-6.64A44.6,44.6,0,0,1,215,291.39Z"/><path class="cls-31" d="M226.69,330.44a44.68,44.68,0,0,1-3.44,14.49l-8.87-2.11a36.82,36.82,0,0,0,3.46-14.49Z"/><path class="cls-32" d="M141.36,369.39a44.7,44.7,0,0,1-10.83-10.24l6.23-6.6a37.08,37.08,0,0,0,10.85,10.19Z"/><path class="cls-33" d="M119.25,333.52l8.71-2.6a37.24,37.24,0,0,0,4.28,14.22l-4.72,1.41c-1.09.32-2.17.7-3.27.93a1.24,1.24,0,0,1-1.07-.49A42.85,42.85,0,0,1,119.25,333.52Z"/><path class="cls-34" d="M217.59,319.65a36.86,36.86,0,0,0-4.24-14.2l8.7-2.6a41.75,41.75,0,0,1,3.55,10,31.23,31.23,0,0,1,.57,3.35c0,.3-.17.86-.38.93C223.1,318,220.39,318.81,217.59,319.65Z"/><path class="cls-4" d="M162.53,291a35.8,35.8,0,1,1-24,44.56A35.75,35.75,0,0,1,162.53,291Z"/></g></g></g></g></svg>