<svg xmlns="http://www.w3.org/2000/svg" viewBox="0 0 216.88 248.17"><defs><style>.cls-1,.cls-11,.cls-4{fill:none;}.cls-1{stroke:#231f20;}.cls-1,.cls-11{stroke-miterlimit:10;}.cls-2{fill:#f6f6fb;}.cls-3{fill:#d7d8db;}.cls-5{fill:#323838;}.cls-6{fill:#4c5151;}.cls-7{fill:#b1b1b5;}.cls-8{fill:#0d0e0f;}.cls-9{fill:#b5b5b9;}.cls-10{fill:#d5d6da;}.cls-11{stroke:#29abe2;stroke-width:5px;}</style></defs><g id="Layer_2" data-name="Layer 2"><g id="Layer_7" data-name="Layer 7"><path class="cls-1" d="M52.84.53l.21,0A.76.76,0,0,0,52.84.53Z"/><path class="cls-1" d="M45.33,37.82a4.64,4.64,0,1,1-2.08-6.24A4.63,4.63,0,0,1,45.33,37.82Z"/><path class="cls-2" d="M103.52,41.35a43.61,43.61,0,0,0-2-9.2A37.56,37.56,0,0,0,81.75,6.37a35.52,35.52,0,0,0-5.86-2.32A41.13,41.13,0,0,0,53.15.49H53l-.12,0h-.16l-.17,0c-3.44.45-19.63,2.76-24,6.29a70.07,70.07,0,0,1-2.19,6.75c-.19.49-.38,1-.58,1.51-1.31,3.37-2.95,7-4.84,10.84s-3.81,7.23-5.68,10.28c-.27.43-.53.85-.79,1.25-.42.67-.84,1.31-1.25,1.93A56.06,56.06,0,0,0,16.9,52.25a21.11,21.11,0,0,0,1.5,3.61v0h0C21.63,62,28.16,68.21,36.78,72.51s17.51,5.82,24.37,4.68l.6.32c1.78,1.69,2.33,4.29-.53,9.87L.73,208.6c0,.07-.07.14-.1.2l30.29,15.12c0-.06.07-.13.11-.2L86.3,113C99.7,86.1,105.6,59.54,103.52,41.35ZM39.1,39.9a4.65,4.65,0,1,1,6.47-2.65,3.46,3.46,0,0,1-.24.57A4.63,4.63,0,0,1,39.1,39.9Z"/><path class="cls-3" d="M20.88,26C19,29.71,17.07,33.19,15.2,36.24c-.27.43-.53.85-.79,1.25-.42.67-.84,1.31-1.25,1.93C12.06,41.07,11,42.53,10,43.79a2.93,2.93,0,0,1,0-.61,39.24,39.24,0,0,1,2.8-7.72c.37-.82.76-1.68,1.17-2.56,3.08-6.56,7.31-14.43,10.39-19.77,1.48-2.57,2.69-4.55,3.39-5.53a3.9,3.9,0,0,1,.73-.74,70.07,70.07,0,0,1-2.19,6.75c-.19.49-.38,1-.58,1.51C24.41,18.49,22.77,22.16,20.88,26Z"/><path class="cls-4" d="M45.33,37.82a4.64,4.64,0,1,1-2.08-6.24A4.63,4.63,0,0,1,45.33,37.82Z"/><path class="cls-5" d="M45.33,37.82a4.64,4.64,0,1,1-2.08-6.24A4.63,4.63,0,0,1,45.33,37.82Z"/><ellipse class="cls-6" cx="91.37" cy="85.1" rx="1.98" ry="1.58" transform="translate(-25.57 128.86) rotate(-63.48)"/><path class="cls-7" d="M61.22,87.38a41.16,41.16,0,0,1-23.82-4c-5.17-2.59-8.71-6.13-12.23-10.32A91.66,91.66,0,0,1,16.38,59.9l-1.07-2c-.68-1.27-5.14-10.2-5.33-14.07,1-1.26,2.08-2.72,3.18-4.37A56.06,56.06,0,0,0,16.9,52.25a21.11,21.11,0,0,0,1.5,3.61v0h0C21.63,62,28.16,68.21,36.78,72.51s17.51,5.82,24.37,4.68l.6.32C63.53,79.2,64.08,81.8,61.22,87.38Z"/><path class="cls-8" d="M97,42.34c-1.3-.45-4.27-2.64-4.68-4.47s-1.39-7.81-2.08-11.3a6.67,6.67,0,0,1-.13-2.67C96.38,24.22,97.94,40.18,97,42.34Z"/><path class="cls-9" d="M97,42.34c1-2.16-.59-18.12-6.89-18.44.26-1.15,1.09-1.4,2.16-1.4A6.12,6.12,0,0,1,96.59,27c.9,3,2.41,10,2.78,12.56S98.27,42.78,97,42.34Z"/><path class="cls-10" d="M30.92,223.92a6.9,6.9,0,0,1-9.15,2.9l-17.95-9A6.91,6.91,0,0,1,.63,208.8Z"/><path class="cls-1" d="M207.29,77.6l-.1-.19Z"/><path class="cls-1" d="M182,106a4.64,4.64,0,1,0,6.23-2.08A4.65,4.65,0,0,0,182,106Z"/><path class="cls-2" d="M97.34,118.46,42.06,229.23a1.21,1.21,0,0,0-.09.2l30.29,15.12c0-.07.07-.14.1-.2l60.49-121.22c2.74-5.64,5.15-6.77,7.57-6.36l.62.28c3.21,6.18,9.75,12.36,18.39,16.67s17.47,5.81,24.33,4.68h0s0,0,0,0a20.7,20.7,0,0,0,3.78-1,55.53,55.53,0,0,0,12.5-4.73c.25-.7.51-1.42.79-2.16.17-.45.34-.91.53-1.37,1.3-3.34,2.92-7,4.8-10.73s3.84-7.31,5.75-10.38c.28-.47.57-.93.86-1.38,1.42-2.23,2.79-4.19,4.07-5.81.18-5.62-7.71-19.94-9.41-23l-.09-.15s-.05-.1-.08-.14l-.06-.1,0-.09s0,0,0,0v0a41.22,41.22,0,0,0-16.52-16A36.81,36.81,0,0,0,185.24,58a37.6,37.6,0,0,0-32.5-.31,43.65,43.65,0,0,0-8.54,3.95C128.42,70.92,110.74,91.61,97.34,118.46ZM182,106a3.6,3.6,0,0,1,.31-.54,4.65,4.65,0,0,1,8,4.69,4.72,4.72,0,0,1-1,1.39A4.65,4.65,0,0,1,182,106Z"/><path class="cls-3" d="M206.19,118.43c-1.88,3.75-3.5,7.39-4.8,10.73-.19.46-.36.92-.53,1.37-.28.74-.54,1.46-.79,2.16-.65,1.87-1.18,3.61-1.58,5.17a2.78,2.78,0,0,0,.47-.39,38.86,38.86,0,0,0,4.48-6.88c.44-.78.89-1.61,1.35-2.48,3.39-6.4,7.14-14.51,9.55-20.18,1.16-2.73,2-4.89,2.38-6a3.86,3.86,0,0,0,.15-1c-1.28,1.62-2.65,3.58-4.07,5.81-.29.45-.58.91-.86,1.38C210,111.12,208.08,114.63,206.19,118.43Z"/><path class="cls-4" d="M182,106a4.64,4.64,0,1,0,6.23-2.08A4.65,4.65,0,0,0,182,106Z"/><path class="cls-5" d="M182,106a4.64,4.64,0,1,0,6.23-2.08A4.65,4.65,0,0,0,182,106Z"/><ellipse class="cls-6" cx="116.54" cy="97.66" rx="1.98" ry="1.58" transform="translate(-22.88 158.33) rotate(-63.48)"/><path class="cls-7" d="M132.85,123.13a41.17,41.17,0,0,0,17.5,16.64c5.17,2.58,10.13,3.27,15.6,3.57a91.92,91.92,0,0,0,15.83-.9l2.26-.38c1.43-.22,11.25-2,14.45-4.2.4-1.56.93-3.3,1.58-5.17a55.53,55.53,0,0,1-12.5,4.73,20.7,20.7,0,0,1-3.78,1s0,0,0,0h0c-6.86,1.13-15.71-.38-24.33-4.68S144.25,123.23,141,117.05l-.62-.28C138,116.36,135.59,117.49,132.85,123.13Z"/><path class="cls-8" d="M147.35,67.48c1.14.77,4.68,1.82,6.38,1S160.8,65,164,63.4a6.85,6.85,0,0,0,2.22-1.51C162.18,57.06,148.49,65.4,147.35,67.48Z"/><path class="cls-9" d="M147.35,67.48c1.14-2.08,14.83-10.42,18.88-5.59.76-.89.45-1.71-.19-2.56a6.11,6.11,0,0,0-6.22-.76c-2.91,1.07-9.47,4.11-11.7,5.33S146.21,66.71,147.35,67.48Z"/><path class="cls-10" d="M42,229.43a6.89,6.89,0,0,0,3.19,9.06l17.94,8.95a6.91,6.91,0,0,0,9.16-2.89Z"/><line class="cls-11" x1="66.21" y1="92.49" x2="9.98" y2="204.83"/><line class="cls-11" x1="111.93" y1="106.83" x2="52.28" y2="225.74"/></g></g></svg>