<svg xmlns="http://www.w3.org/2000/svg" viewBox="0 0 370.97 361.24"><defs><style>.cls-1{fill:#e90e8b;}.cls-2{fill:#fff;}</style></defs><g id="Layer_2" data-name="Layer 2"><g id="Layer_7" data-name="Layer 7"><path class="cls-1" d="M118.44,355.48a28.32,28.32,0,0,1-22.31-10.79L12.18,240.34a28.17,28.17,0,0,1-5.52-24.46l30-130.25A28.38,28.38,0,0,1,52.24,66.2l121.37-58a28.46,28.46,0,0,1,24.95,0L319.93,66a28.41,28.41,0,0,1,15.59,19.43l30,130.25A28.91,28.91,0,0,1,360,240.1L276,344.45a29.06,29.06,0,0,1-22.31,10.79l-135.28.24Z"/><path class="cls-2" d="M185.84,11.27a23.48,23.48,0,0,1,9.84,2.16L317.05,71.24a23.28,23.28,0,0,1,12.47,15.59l30,130.25A22.45,22.45,0,0,1,355,236.75L271,341.09a22.85,22.85,0,0,1-18,8.63H118.44a22.87,22.87,0,0,1-18-8.63L16.5,236.75a24,24,0,0,1-4.56-19.67l30-130.25A22.9,22.9,0,0,1,54.4,71.24l121.37-58a28.86,28.86,0,0,1,10.07-1.92Zm0-11.27h0A36.3,36.3,0,0,0,171,3.36L49.6,61.41A34,34,0,0,0,30.89,84.67L.91,214.92a34,34,0,0,0,6.71,29.26l84,104.34a33.86,33.86,0,0,0,26.62,12.72H252.76a33.88,33.88,0,0,0,26.63-12.72l83.95-104.34a33.81,33.81,0,0,0,6.72-29.26l-30-130.25a34,34,0,0,0-18.71-23.26l-120.9-58A34.33,34.33,0,0,0,185.84,0Z"/><path class="cls-2" d="M307.45,206.76h-.24c-.24,0-.48,0-.48-.24-.48,0-1-.24-1.43-.24a32.79,32.79,0,0,0-4.56-.48,9,9,0,0,1-2.4-.24h-.24a63.85,63.85,0,0,1-13-2.15,4.68,4.68,0,0,1-2.64-2.64c0-.24-.24-.24-.24-.48h0l-3.12-1a94.81,94.81,0,0,0-1.68-33.82A98.82,98.82,0,0,0,264,134.08l2.4-2.15v-.48a5.42,5.42,0,0,1,1.2-3.6c2.87-2.64,6.47-4.8,10.79-7.44h0c.72-.48,1.44-.72,2.16-1.2a36.13,36.13,0,0,0,4.08-2.4c.24-.24.72-.48,1.2-1,.24-.24.48-.24.48-.48h0c3.35-2.87,4.07-7.67,1.68-10.79a6.83,6.83,0,0,0-5.52-2.64,8.92,8.92,0,0,0-5.28,1.92h0l-.48.48c-.48.24-.72.72-1.2,1a39.85,39.85,0,0,0-3.12,3.36,11.09,11.09,0,0,1-1.68,1.68h0a60.44,60.44,0,0,1-9.59,8.63,3.87,3.87,0,0,1-2.16.72,3,3,0,0,1-1.44-.24h-.48l-2.88,1.92a114.79,114.79,0,0,0-9.83-9.11,95.74,95.74,0,0,0-50.13-19.91L194,89.23l-.48-.48a5,5,0,0,1-1.92-3.12,84.09,84.09,0,0,1,.72-12.95v-.24a8.53,8.53,0,0,1,.48-2.4c.24-1.44.48-2.88.72-4.56V63.32h0a7.32,7.32,0,0,0-12.71-5.51,7.6,7.6,0,0,0-2.16,5.51h0v1.92a14,14,0,0,0,.72,4.56c.24.72.24,1.44.48,2.4v.24c.48,4.8,1.2,9.11.72,13a5,5,0,0,1-1.92,3.12l-.48.48h0l-.24,3.12A120.59,120.59,0,0,0,165,94a92.4,92.4,0,0,0-47.49,26.86l-2.4-1.68h-.48c-.48,0-1,.24-1.44.24a3.87,3.87,0,0,1-2.16-.72,64,64,0,0,1-9.59-8.87h0a11.09,11.09,0,0,0-1.68-1.68,39.85,39.85,0,0,0-3.12-3.36c-.24-.24-.72-.48-1.2-1-.24-.24-.48-.24-.48-.48h0a8.36,8.36,0,0,0-5.27-1.92,6.83,6.83,0,0,0-5.52,2.64c-2.4,3.12-1.68,7.92,1.68,10.8h0c.24,0,.24.24.48.24.48.23.72.71,1.2,1a36.13,36.13,0,0,0,4.08,2.4,9.45,9.45,0,0,1,2.15,1.2h0c4.32,2.64,7.92,4.8,10.8,7.44a4.41,4.41,0,0,1,1.2,3.6v.48h0l2.4,2.15a8.42,8.42,0,0,0-1.2,1.92,93.45,93.45,0,0,0-13.44,63.33l-3.11,1c0,.24-.24.24-.24.48a5.58,5.58,0,0,1-2.64,2.64c-3.6,1.19-7.92,1.67-13,2.15h-.24a8.16,8.16,0,0,0-2.4.24,32.79,32.79,0,0,0-4.56.48c-.48,0-1,.24-1.44.24a.88.88,0,0,0-.72.24h0A7.87,7.87,0,0,0,59,214.92c.72,3.36,3.84,5.52,7.68,5.52a5.28,5.28,0,0,0,1.92-.24h0c.24,0,.48,0,.48-.24.48,0,1-.24,1.44-.24A23.1,23.1,0,0,0,74.79,218c.72-.24,1.43-.72,2.15-1h.24c4.56-1.68,8.64-3.12,12.48-3.6h.48a5.34,5.34,0,0,1,3.12,1.2c.23,0,.23.24.47.24h0l3.36-.48a94.82,94.82,0,0,0,31.43,45.09,96,96,0,0,0,10.31,7l-1.44,3.12c0,.24.24.24.24.48a4.93,4.93,0,0,1,.48,3.84,68,68,0,0,1-6.24,11.27v.24c-.48.72-1,1.2-1.44,1.92-1,1.2-1.68,2.4-2.63,3.84a5.38,5.38,0,0,0-.72,1.19.84.84,0,0,1-.24.48h0c-1.92,4.08-.48,8.64,3.11,10.32a6.39,6.39,0,0,0,2.88.72,8.63,8.63,0,0,0,7.2-4.56h0a.84.84,0,0,1,.24-.48,5.25,5.25,0,0,1,.72-1.2,45.45,45.45,0,0,0,1.44-4.32l.72-2.15h0c1.68-4.8,2.88-8.64,5-12,1-1.44,2.16-1.68,3.12-2.16.24,0,.24,0,.48-.24h0l1.68-3.11A93.91,93.91,0,0,0,187,279.92a87,87,0,0,0,20.87-2.4,107.87,107.87,0,0,0,12.47-3.59l1.44,2.63c.24,0,.24,0,.48.24a4.45,4.45,0,0,1,3.12,2.16,82.17,82.17,0,0,1,5,12v.24l.72,2.15a30.4,30.4,0,0,0,1.44,4.32c.24.48.48.72.72,1.2a.84.84,0,0,0,.24.48h0a8.13,8.13,0,0,0,7.19,4.56,6.39,6.39,0,0,0,2.88-.72,7.15,7.15,0,0,0,3.6-4.32,8.68,8.68,0,0,0-.48-6h0c0-.24-.24-.24-.24-.48a5.38,5.38,0,0,0-.72-1.19,21.75,21.75,0,0,0-2.64-3.84c-.48-.72-1-1.2-1.44-1.92v-.24c-2.64-4.08-5-7.68-6.24-11.27-.48-1.68,0-2.64.24-3.84,0-.24.24-.24.24-.48h0l-1.19-2.88a95.1,95.1,0,0,0,41.73-52.53l2.88.48c.24,0,.24-.24.48-.24,1-.48,1.68-1.2,3.12-1.2h.48c3.84.48,7.91,1.92,12.47,3.6h.24c.72.24,1.44.72,2.16,1a23.1,23.1,0,0,0,4.32,1.68c.48,0,1,.24,1.44.24a.88.88,0,0,1,.72.24h0a5.23,5.23,0,0,0,1.91.24,8.08,8.08,0,0,0,7.68-5.52c0-2.88-2.64-6.72-7-7.92ZM196.4,195l-10.56,5-10.55-5-2.64-11.27,7.2-9.12H191.6l7.2,9.12L196.4,195ZM259,170.06a75.61,75.61,0,0,1,1.68,24.23L224,183.74a6.51,6.51,0,0,1-4.56-7.68,5.72,5.72,0,0,1,1.44-2.64l29-26.14A77,77,0,0,1,259,170.06Zm-20.63-37.18L207,155.19a6.38,6.38,0,0,1-8.39-1.44,5.33,5.33,0,0,1-1.2-2.64L195.2,112a72.8,72.8,0,0,1,43.17,20.86Zm-69.56-19.66c2.64-.48,5-1,7.68-1.44l-2.16,38.38a6.57,6.57,0,0,1-6.48,6.23,5.7,5.7,0,0,1-2.88-.72l-31.9-22.79a73.16,73.16,0,0,1,35.74-19.66Zm-47.25,34.06L150.1,172.7a6.39,6.39,0,0,1,.72,8.88,4.78,4.78,0,0,1-2.88,1.92l-37.17,10.79a77.16,77.16,0,0,1,10.79-47Zm-6.48,65,38.14-6.48a6.47,6.47,0,0,1,6.72,5,6.85,6.85,0,0,1-.24,3.84h0l-14.63,35.26a75.62,75.62,0,0,1-30-37.66ZM202.63,260a78.22,78.22,0,0,1-16.79,1.92,81.18,81.18,0,0,1-24.22-3.84l18.95-34.3a6.3,6.3,0,0,1,7.67-1.68,10.23,10.23,0,0,1,2.88,2.64h0l18.47,33.34c-2.16.72-4.56,1.2-7,1.92Zm46.78-33.34a76.22,76.22,0,0,1-23,23.27l-15.11-36.22a6.46,6.46,0,0,1,3.36-7.44,7.65,7.65,0,0,1,3.35-.72L256.36,212a48.22,48.22,0,0,1-7,14.63Z"/></g></g></svg>