<svg xmlns="http://www.w3.org/2000/svg" xmlns:xlink="http://www.w3.org/1999/xlink" viewBox="0 0 1083.35 1081.71"><defs><style>.cls-1{fill:url(#radial-gradient);}.cls-2{opacity:0.51;}.cls-3,.cls-4,.cls-5,.cls-6,.cls-7{fill:none;}.cls-4{stroke:#fff;}.cls-4,.cls-5,.cls-6,.cls-7{stroke-linecap:round;stroke-miterlimit:10;stroke-width:0.5px;}.cls-5{stroke:#fff200;}.cls-6{stroke:#00aeef;}.cls-7{stroke:#ec008c;}</style><radialGradient id="radial-gradient" cx="490.14" cy="130.73" r="239.14" gradientTransform="translate(-325.21 50.66) scale(1.77 3.75)" gradientUnits="userSpaceOnUse"><stop offset="0" stop-color="#30302f"/><stop offset="0" stop-color="#292827"/><stop offset="0" stop-color="#221f1f"/></radialGradient></defs><g id="Layer_2" data-name="Layer 2"><g id="Layer_1-2" data-name="Layer 1"><rect class="cls-1" y="0.85" width="1080.85" height="1080.85"/><g class="cls-2"><rect class="cls-3" x="268.74" y="645.35" width="41.92" height="8.74"/><line class="cls-4" x1="269.06" y1="653.79" x2="310.35" y2="645.65"/><rect class="cls-3" x="85.31" y="482.67" width="41.92" height="8.74"/><line class="cls-4" x1="85.62" y1="491.12" x2="126.92" y2="482.97"/><line class="cls-4" x1="67.62" y1="43.22" x2="108.91" y2="35.08"/><rect class="cls-3" x="226.98" y="516.07" width="41.92" height="8.74"/><line class="cls-4" x1="227.29" y1="524.51" x2="268.59" y2="516.37"/><rect class="cls-3" x="912.72" y="462.65" width="41.92" height="8.74"/><line class="cls-4" x1="913.03" y1="471.09" x2="954.32" y2="462.94"/><rect class="cls-3" x="122.58" y="543.47" width="14.56" height="13.99"/><path class="cls-4" d="M128.83,543.77l2.52,13.39m5.48-7.32-13.94,2.43"/><rect class="cls-3" x="877.7" y="516.9" width="14.56" height="13.99"/><path class="cls-4" d="M884,517.2l2.53,13.39m5.47-7.32L878,525.7"/><rect class="cls-3" x="785.21" y="630.79" width="14.56" height="13.99"/><path class="cls-4" d="M791.45,631.09,794,644.48m5.47-7.32-13.93,2.43"/><rect class="cls-3" x="381.56" y="642.7" width="14.56" height="13.99"/><path class="cls-4" d="M387.81,643l2.53,13.39m5.47-7.32-13.93,2.43"/><rect class="cls-3" x="710.21" y="567.85" width="41.92" height="8.74"/><line class="cls-4" x1="710.52" y1="576.3" x2="751.82" y2="568.15"/><rect class="cls-3" x="317.32" y="1008.59" width="41.92" height="8.74"/><line class="cls-4" x1="317.63" y1="1017.03" x2="358.93" y2="1008.89"/><rect class="cls-3" x="649.66" y="868.68" width="41.92" height="8.74"/><line class="cls-4" x1="649.97" y1="877.12" x2="691.27" y2="868.98"/><rect class="cls-3" x="136.94" y="848.12" width="41.92" height="8.74"/><line class="cls-4" x1="137.25" y1="856.56" x2="178.54" y2="848.42"/><rect class="cls-3" x="961.29" y="825.89" width="41.92" height="8.74"/><line class="cls-4" x1="961.6" y1="834.33" x2="1002.9" y2="826.19"/><rect class="cls-3" x="306.25" y="859.61" width="14.56" height="13.99"/><path class="cls-4" d="M312.49,859.91,315,873.3M320.5,866l-13.94,2.43"/><rect class="cls-3" x="215.25" y="744.95" width="14.56" height="13.99"/><path class="cls-4" d="M221.5,745.25,224,758.64m5.47-7.31-13.93,2.43"/><rect class="cls-3" x="171.16" y="920.7" width="14.56" height="13.99"/><path class="cls-4" d="M177.4,921l2.53,13.39m5.47-7.32-13.93,2.43"/><rect class="cls-3" x="559.22" y="809.9" width="14.56" height="13.99"/><path class="cls-4" d="M565.46,810.2,568,823.59m5.48-7.32-13.94,2.43"/><rect class="cls-3" x="1041.43" y="930.16" width="41.92" height="8.74"/><line class="cls-4" x1="1041.75" y1="938.61" x2="1083.04" y2="930.46"/><rect class="cls-3" x="921.22" y="950.92" width="41.92" height="8.74"/><line class="cls-4" x1="921.53" y1="959.36" x2="962.83" y2="951.21"/><rect class="cls-3" x="763.71" y="823.33" width="14.56" height="13.99"/><path class="cls-4" d="M770,823.62l2.53,13.4M778,829.7,764,832.13"/><rect class="cls-3" x="959.97" y="910.79" width="14.56" height="13.99"/><path class="cls-4" d="M966.21,911.09l2.53,13.39m5.47-7.32-13.93,2.43"/><rect class="cls-3" x="915.32" y="864.12" width="14.56" height="13.99"/><path class="cls-4" d="M921.57,864.42l2.52,13.39m5.48-7.32-13.94,2.43"/><rect class="cls-3" x="833.78" y="994.03" width="14.56" height="13.99"/><path class="cls-4" d="M840,994.33l2.52,13.39m5.48-7.32-13.94,2.43"/><rect class="cls-3" x="224.01" y="989.96" width="14.56" height="13.99"/><path class="cls-4" d="M230.25,990.26l2.53,13.39m5.47-7.32-13.93,2.43"/><rect class="cls-3" x="430.14" y="1005.94" width="14.56" height="13.99"/><path class="cls-4" d="M436.38,1006.24l2.53,13.39m5.48-7.32-13.94,2.43"/><rect class="cls-3" x="681.98" y="942.94" width="41.92" height="8.74"/><line class="cls-4" x1="682.29" y1="951.38" x2="723.59" y2="943.24"/><rect class="cls-3" x="1032.42" y="459.85" width="38.96" height="8.74"/><line class="cls-4" x1="1032.71" y1="468.29" x2="1071.09" y2="460.15"/><rect class="cls-3" x="865.61" y="31.05" width="38.96" height="8.74"/><line class="cls-4" x1="865.9" y1="39.5" x2="904.28" y2="31.35"/><rect class="cls-3" x="116.38" y="71.02" width="13.53" height="13.99"/><path class="cls-4" d="M122.18,71.32l2.35,13.39m5.09-7.32-13,2.43"/><rect class="cls-3" x="79.76" y="162.74" width="13.53" height="13.99"/><path class="cls-4" d="M85.57,163l2.35,13.39M93,169.11l-13,2.43"/><rect class="cls-3" x="665.35" y="11.07" width="13.53" height="13.99"/><path class="cls-4" d="M671.16,11.37l2.35,13.39m5.08-7.32-13,2.43"/><rect class="cls-3" x="971.07" y="165.8" width="38.96" height="8.74"/><line class="cls-4" x1="971.36" y1="174.24" x2="1009.74" y2="166.1"/><rect class="cls-3" x="859.36" y="186.55" width="38.96" height="8.74"/><rect class="cls-3" x="410.66" y="526.51" width="38.96" height="8.74"/><rect class="cls-3" x="286.77" y="151.35" width="38.96" height="8.74"/><line class="cls-4" x1="859.65" y1="194.99" x2="898.02" y2="186.85"/><line class="cls-4" x1="724.95" y1="132.24" x2="763.33" y2="124.09"/><line class="cls-4" x1="611.28" y1="217.62" x2="649.66" y2="209.48"/><line class="cls-4" x1="255.61" y1="284.2" x2="293.98" y2="276.06"/><rect class="cls-3" x="1044.17" y="99.9" width="13.53" height="13.99"/><path class="cls-4" d="M1050,100.2l2.35,13.39m5.08-7.32-13,2.43"/><rect class="cls-3" x="865.99" y="71.02" width="13.53" height="13.99"/><path class="cls-4" d="M871.8,71.32l2.35,13.39m5.08-7.32-13,2.43"/><rect class="cls-3" x="896.85" y="324.85" width="13.53" height="13.99"/><line class="cls-5" x1="304.4" y1="629.71" x2="404.36" y2="609.09"/><line class="cls-5" x1="531.24" y1="699.07" x2="631.21" y2="678.44"/><line class="cls-5" x1="103.52" y1="724.95" x2="203.49" y2="704.33"/><line class="cls-5" x1="505.26" y1="460.27" x2="605.23" y2="439.65"/><line class="cls-5" x1="168.91" y1="544.48" x2="268.87" y2="523.86"/><line class="cls-5" x1="817.36" y1="505.39" x2="917.33" y2="484.77"/><line class="cls-5" x1="615.37" y1="351.8" x2="715.34" y2="331.17"/><line class="cls-5" x1="12.69" y1="620.35" x2="112.66" y2="599.73"/><line class="cls-5" x1="859.17" y1="677.11" x2="959.14" y2="656.49"/><line class="cls-5" x1="352.97" y1="992.95" x2="452.94" y2="972.33"/><line class="cls-5" x1="165.27" y1="1065.21" x2="265.24" y2="1044.59"/><line class="cls-5" x1="331.07" y1="102.6" x2="431.03" y2="81.98"/><line class="cls-5" x1="103.52" y1="45.74" x2="203.49" y2="25.11"/><line class="cls-5" x1="831.25" y1="965.54" x2="931.22" y2="944.91"/><line class="cls-5" x1="602.34" y1="898.77" x2="702.31" y2="878.15"/><line class="cls-5" x1="865.94" y1="868.63" x2="965.91" y2="848.01"/><line class="cls-5" x1="152.98" y1="832.93" x2="252.95" y2="812.31"/><line class="cls-5" x1="61.26" y1="983.59" x2="161.23" y2="962.97"/><line class="cls-5" x1="913.72" y1="20.87" x2="1006.63" y2="0.25"/><line class="cls-5" x1="451.2" y1="173.61" x2="544.1" y2="152.99"/><line class="cls-5" x1="60.17" y1="219.23" x2="153.07" y2="198.61"/><line class="cls-5" x1="846.83" y1="275.99" x2="939.74" y2="255.36"/><line class="cls-5" x1="274.36" y1="342.16" x2="367.26" y2="321.54"/><ellipse class="cls-6" cx="505.26" cy="600.94" rx="7.61" ry="7.31"/><ellipse class="cls-6" cx="715.11" cy="510.2" rx="7.61" ry="7.31"/><ellipse class="cls-6" cx="665.35" cy="224.67" rx="7.61" ry="7.31"/><ellipse class="cls-6" cx="78.8" cy="476.52" rx="7.61" ry="7.31"/><ellipse class="cls-6" cx="141.15" cy="280.13" rx="7.61" ry="7.31"/><ellipse class="cls-6" cx="23.91" cy="576.87" rx="7.61" ry="7.31"/><ellipse class="cls-6" cx="971.68" cy="502.89" rx="7.61" ry="7.31"/><ellipse class="cls-6" cx="849.23" cy="435.33" rx="7.61" ry="7.31"/><ellipse class="cls-6" cx="421.24" cy="376.38" rx="7.61" ry="7.31"/><ellipse class="cls-6" cx="848.91" cy="720.73" rx="7.61" ry="7.31"/><ellipse class="cls-6" cx="199.8" cy="449.96" rx="7.61" ry="7.31"/><ellipse class="cls-6" cx="461.58" cy="482.67" rx="7.61" ry="7.31"/><ellipse class="cls-6" cx="88.73" cy="643.82" rx="7.61" ry="7.31"/><ellipse class="cls-6" cx="505.26" cy="1051.86" rx="7.61" ry="7.31"/><ellipse class="cls-6" cx="286.22" cy="15.25" rx="7.61" ry="7.31"/><ellipse class="cls-6" cx="282.41" cy="140.77" rx="7.61" ry="7.31"/><ellipse class="cls-6" cx="1020.25" cy="878.87" rx="7.61" ry="7.31"/><ellipse class="cls-6" cx="943.81" cy="747.62" rx="7.61" ry="7.31"/><ellipse class="cls-6" cx="820.08" cy="858.94" rx="7.61" ry="7.31"/><ellipse class="cls-6" cx="476.68" cy="855.73" rx="7.61" ry="7.31"/><ellipse class="cls-6" cx="366.85" cy="766.26" rx="7.61" ry="7.31"/><ellipse class="cls-6" cx="531.24" cy="19.35" rx="7.61" ry="7.31"/><ellipse class="cls-6" cx="137.3" cy="1007.06" rx="7.61" ry="7.31"/><ellipse class="cls-6" cx="1040.42" cy="681.44" rx="7.07" ry="7.31"/><ellipse class="cls-6" cx="990.55" cy="348.8" rx="7.07" ry="7.31"/><ellipse class="cls-6" cx="32.39" cy="32.69" rx="7.07" ry="7.31"/><ellipse class="cls-6" cx="428.32" cy="155.98" rx="7.07" ry="7.31"/><ellipse class="cls-6" cx="1040.42" cy="1023.08" rx="7.07" ry="7.31"/><ellipse class="cls-6" cx="717.88" cy="1023.08" rx="7.07" ry="7.31"/><ellipse class="cls-6" cx="1012.64" cy="48.36" rx="7.07" ry="7.31"/><ellipse class="cls-6" cx="782.99" cy="139.84" rx="7.07" ry="7.31"/><polygon class="cls-7" points="384.08 31.82 378.3 47.96 395.73 44.71 384.08 31.82"/><polygon class="cls-7" points="570.78 985.28 565 1001.42 582.43 998.16 570.78 985.28"/><polygon class="cls-7" points="587.01 411.19 581.23 427.33 598.67 424.07 587.01 411.19"/><polygon class="cls-7" points="335.35 436.49 329.56 452.63 347 449.38 335.35 436.49"/><polygon class="cls-7" points="752.63 742.41 746.84 758.55 764.28 755.29 752.63 742.41"/><polygon class="cls-7" points="481.35 666.06 475.57 682.2 493.01 678.94 481.35 666.06"/><polygon class="cls-7" points="44.44 859.6 38.65 875.74 56.09 872.48 44.44 859.6"/><polygon class="cls-7" points="73.45 1055.13 67.66 1071.26 85.1 1068.01 73.45 1055.13"/><polygon class="cls-7" points="526.67 93.5 521.29 109.63 537.5 106.38 526.67 93.5"/><polygon class="cls-7" points="757.94 347.49 752.57 363.63 768.77 360.37 757.94 347.49"/><polygon class="cls-7" points="520.9 228.15 515.53 244.29 531.73 241.03 520.9 228.15"/><polygon class="cls-7" points="263.39 311.24 258.02 327.38 274.22 324.12 263.39 311.24"/><polygon class="cls-7" points="931.84 122.56 926.47 138.7 942.67 135.44 931.84 122.56"/><polygon class="cls-7" points="965.52 580.24 960.15 596.38 976.35 593.12 965.52 580.24"/><polygon class="cls-7" points="1029.64 236.28 1024.27 252.41 1040.47 249.16 1029.64 236.28"/><polygon class="cls-7" points="1049.12 396.98 1043.75 413.12 1059.95 409.86 1049.12 396.98"/><polygon class="cls-7" points="1009.86 742.41 1004.49 758.55 1020.69 755.29 1009.86 742.41"/><polygon class="cls-7" points="15.65 401.6 10.27 417.74 26.48 414.48 15.65 401.6"/><polygon class="cls-7" points="197.85 602.28 192.06 618.42 209.5 615.16 197.85 602.28"/><polygon class="cls-7" points="167.48 130.92 162.1 147.06 178.31 143.8 167.48 130.92"/><polygon class="cls-7" points="949.75 1043.88 944.38 1060.02 960.58 1056.77 949.75 1043.88"/></g></g></g></svg>