<svg xmlns="http://www.w3.org/2000/svg" xmlns:xlink="http://www.w3.org/1999/xlink" viewBox="0 0 1081.85 1081.71"><defs><style>.cls-1{fill:url(#radial-gradient);}.cls-2,.cls-3,.cls-4,.cls-5,.cls-6{fill:none;}.cls-3{stroke:#fff;}.cls-3,.cls-4,.cls-5,.cls-6{stroke-linecap:round;stroke-miterlimit:10;stroke-width:0.5px;}.cls-4{stroke:#fff200;}.cls-5{stroke:#00aeef;}.cls-6{stroke:#ec008c;}</style><radialGradient id="radial-gradient" cx="489.49" cy="130.73" r="239.14" gradientTransform="translate(-324.06 50.66) scale(1.77 3.75)" gradientUnits="userSpaceOnUse"><stop offset="0" stop-color="#30302f"/><stop offset="0" stop-color="#292827"/><stop offset="0" stop-color="#221f1f"/></radialGradient></defs><g id="Layer_2" data-name="Layer 2"><g id="Layer_1-2" data-name="Layer 1"><rect class="cls-1" y="0.85" width="1080.85" height="1080.85"/><rect class="cls-2" x="267.24" y="645.35" width="41.92" height="8.74"/><line class="cls-3" x1="267.56" y1="653.79" x2="308.85" y2="645.65"/><rect class="cls-2" x="83.81" y="482.67" width="41.92" height="8.74"/><line class="cls-3" x1="84.12" y1="491.12" x2="125.42" y2="482.97"/><line class="cls-3" x1="66.12" y1="43.22" x2="107.41" y2="35.08"/><rect class="cls-2" x="225.48" y="516.07" width="41.92" height="8.74"/><line class="cls-3" x1="225.79" y1="524.51" x2="267.09" y2="516.37"/><rect class="cls-2" x="911.22" y="462.65" width="41.92" height="8.74"/><line class="cls-3" x1="911.53" y1="471.09" x2="952.82" y2="462.94"/><rect class="cls-2" x="121.08" y="543.47" width="14.56" height="13.99"/><path class="cls-3" d="M127.33,543.77l2.52,13.39m5.48-7.32-13.94,2.43"/><rect class="cls-2" x="876.2" y="516.9" width="14.56" height="13.99"/><path class="cls-3" d="M882.45,517.2,885,530.59m5.48-7.32-13.94,2.43"/><rect class="cls-2" x="783.71" y="630.79" width="14.56" height="13.99"/><path class="cls-3" d="M790,631.09l2.53,13.39m5.47-7.32L784,639.59"/><rect class="cls-2" x="380.06" y="642.7" width="14.56" height="13.99"/><path class="cls-3" d="M386.31,643l2.52,13.39m5.48-7.32-13.94,2.43"/><rect class="cls-2" x="708.71" y="567.85" width="41.92" height="8.74"/><line class="cls-3" x1="709.02" y1="576.3" x2="750.32" y2="568.15"/><rect class="cls-2" x="315.82" y="1008.59" width="41.92" height="8.74"/><line class="cls-3" x1="316.13" y1="1017.03" x2="357.43" y2="1008.89"/><rect class="cls-2" x="648.16" y="868.68" width="41.92" height="8.74"/><line class="cls-3" x1="648.47" y1="877.12" x2="689.77" y2="868.98"/><rect class="cls-2" x="135.44" y="848.12" width="41.92" height="8.74"/><line class="cls-3" x1="135.75" y1="856.56" x2="177.04" y2="848.42"/><rect class="cls-2" x="959.79" y="825.89" width="41.92" height="8.74"/><line class="cls-3" x1="960.1" y1="834.33" x2="1001.4" y2="826.19"/><rect class="cls-2" x="304.75" y="859.61" width="14.56" height="13.99"/><path class="cls-3" d="M311,859.91l2.53,13.39M319,866l-13.94,2.43"/><rect class="cls-2" x="213.75" y="744.95" width="14.56" height="13.99"/><path class="cls-3" d="M220,745.25l2.53,13.39m5.47-7.31-13.93,2.43"/><rect class="cls-2" x="169.66" y="920.7" width="14.56" height="13.99"/><path class="cls-3" d="M175.9,921l2.53,13.39m5.47-7.32L170,929.5"/><rect class="cls-2" x="557.72" y="809.9" width="14.56" height="13.99"/><path class="cls-3" d="M564,810.2l2.53,13.39m5.47-7.32L558,818.7"/><rect class="cls-2" x="1039.93" y="930.16" width="41.92" height="8.74"/><line class="cls-3" x1="1040.25" y1="938.61" x2="1081.54" y2="930.46"/><rect class="cls-2" x="919.72" y="950.92" width="41.92" height="8.74"/><line class="cls-3" x1="920.03" y1="959.36" x2="961.33" y2="951.21"/><rect class="cls-2" x="762.21" y="823.33" width="14.56" height="13.99"/><path class="cls-3" d="M768.45,823.62,771,837m5.47-7.32-13.93,2.43"/><rect class="cls-2" x="958.46" y="910.79" width="14.56" height="13.99"/><path class="cls-3" d="M964.71,911.09l2.53,13.39m5.47-7.32-13.93,2.43"/><rect class="cls-2" x="913.82" y="864.12" width="14.56" height="13.99"/><path class="cls-3" d="M920.07,864.42l2.52,13.39m5.48-7.32-13.94,2.43"/><rect class="cls-2" x="832.28" y="994.03" width="14.56" height="13.99"/><path class="cls-3" d="M838.53,994.33l2.52,13.39m5.48-7.32-13.94,2.43"/><rect class="cls-2" x="222.51" y="989.96" width="14.56" height="13.99"/><path class="cls-3" d="M228.75,990.26l2.53,13.39m5.47-7.32-13.93,2.43"/><rect class="cls-2" x="428.64" y="1005.94" width="14.56" height="13.99"/><path class="cls-3" d="M434.88,1006.24l2.53,13.39m5.47-7.32L429,1014.74"/><rect class="cls-2" x="680.48" y="942.94" width="41.92" height="8.74"/><line class="cls-3" x1="680.79" y1="951.38" x2="722.09" y2="943.24"/><rect class="cls-2" x="1030.92" y="459.85" width="38.96" height="8.74"/><line class="cls-3" x1="1031.21" y1="468.29" x2="1069.59" y2="460.15"/><rect class="cls-2" x="864.11" y="31.05" width="38.96" height="8.74"/><line class="cls-3" x1="864.4" y1="39.5" x2="902.78" y2="31.35"/><rect class="cls-2" x="114.88" y="71.02" width="13.53" height="13.99"/><path class="cls-3" d="M120.68,71.32,123,84.71m5.09-7.32-13,2.43"/><rect class="cls-2" x="78.26" y="162.74" width="13.53" height="13.99"/><path class="cls-3" d="M84.07,163l2.34,13.39m5.09-7.32-13,2.43"/><rect class="cls-2" x="663.85" y="11.07" width="13.53" height="13.99"/><path class="cls-3" d="M669.66,11.37,672,24.76m5.08-7.32-13,2.43"/><rect class="cls-2" x="969.57" y="165.8" width="38.96" height="8.74"/><line class="cls-3" x1="969.86" y1="174.24" x2="1008.24" y2="166.1"/><rect class="cls-2" x="857.85" y="186.55" width="38.96" height="8.74"/><rect class="cls-2" x="409.16" y="526.51" width="38.96" height="8.74"/><rect class="cls-2" x="285.27" y="151.35" width="38.96" height="8.74"/><line class="cls-3" x1="858.14" y1="194.99" x2="896.52" y2="186.85"/><line class="cls-3" x1="723.45" y1="132.24" x2="761.83" y2="124.09"/><line class="cls-3" x1="609.78" y1="217.62" x2="648.16" y2="209.48"/><line class="cls-3" x1="254.11" y1="284.2" x2="292.48" y2="276.06"/><rect class="cls-2" x="1042.67" y="99.9" width="13.53" height="13.99"/><path class="cls-3" d="M1048.48,100.2l2.34,13.39m5.09-7.32-13,2.43"/><rect class="cls-2" x="864.49" y="71.02" width="13.53" height="13.99"/><path class="cls-3" d="M870.3,71.32l2.34,13.39m5.09-7.32-13,2.43"/><rect class="cls-2" x="895.35" y="324.85" width="13.53" height="13.99"/><line class="cls-4" x1="302.9" y1="629.71" x2="402.86" y2="609.09"/><line class="cls-4" x1="529.74" y1="699.07" x2="629.71" y2="678.44"/><line class="cls-4" x1="102.02" y1="724.95" x2="201.99" y2="704.33"/><line class="cls-4" x1="503.76" y1="460.27" x2="603.73" y2="439.65"/><line class="cls-4" x1="167.41" y1="544.48" x2="267.37" y2="523.86"/><line class="cls-4" x1="815.86" y1="505.39" x2="915.83" y2="484.77"/><line class="cls-4" x1="613.87" y1="351.8" x2="713.84" y2="331.17"/><line class="cls-4" x1="11.19" y1="620.35" x2="111.15" y2="599.73"/><line class="cls-4" x1="857.67" y1="677.11" x2="957.64" y2="656.49"/><line class="cls-4" x1="351.47" y1="992.95" x2="451.44" y2="972.33"/><line class="cls-4" x1="163.77" y1="1065.21" x2="263.74" y2="1044.59"/><line class="cls-4" x1="329.56" y1="102.6" x2="429.53" y2="81.98"/><line class="cls-4" x1="102.02" y1="45.74" x2="201.99" y2="25.11"/><line class="cls-4" x1="829.75" y1="965.54" x2="929.72" y2="944.91"/><line class="cls-4" x1="600.84" y1="898.77" x2="700.81" y2="878.15"/><line class="cls-4" x1="864.44" y1="868.63" x2="964.4" y2="848.01"/><line class="cls-4" x1="151.48" y1="832.93" x2="251.45" y2="812.31"/><line class="cls-4" x1="59.76" y1="983.59" x2="159.73" y2="962.97"/><line class="cls-4" x1="912.22" y1="20.87" x2="1005.13" y2="0.25"/><line class="cls-4" x1="449.7" y1="173.61" x2="542.6" y2="152.99"/><line class="cls-4" x1="58.67" y1="219.23" x2="151.57" y2="198.61"/><line class="cls-4" x1="845.33" y1="275.99" x2="938.23" y2="255.36"/><line class="cls-4" x1="272.86" y1="342.16" x2="365.76" y2="321.54"/><ellipse class="cls-5" cx="503.76" cy="600.94" rx="7.61" ry="7.31"/><ellipse class="cls-5" cx="713.61" cy="510.2" rx="7.61" ry="7.31"/><ellipse class="cls-5" cx="663.85" cy="224.67" rx="7.61" ry="7.31"/><ellipse class="cls-5" cx="77.3" cy="476.52" rx="7.61" ry="7.31"/><ellipse class="cls-5" cx="139.65" cy="280.13" rx="7.61" ry="7.31"/><ellipse class="cls-5" cx="22.4" cy="576.87" rx="7.61" ry="7.31"/><ellipse class="cls-5" cx="970.18" cy="502.89" rx="7.61" ry="7.31"/><ellipse class="cls-5" cx="847.73" cy="435.33" rx="7.61" ry="7.31"/><ellipse class="cls-5" cx="419.74" cy="376.38" rx="7.61" ry="7.31"/><ellipse class="cls-5" cx="847.41" cy="720.73" rx="7.61" ry="7.31"/><ellipse class="cls-5" cx="198.3" cy="449.96" rx="7.61" ry="7.31"/><ellipse class="cls-5" cx="460.08" cy="482.67" rx="7.61" ry="7.31"/><ellipse class="cls-5" cx="87.23" cy="643.82" rx="7.61" ry="7.31"/><ellipse class="cls-5" cx="503.76" cy="1051.86" rx="7.61" ry="7.31"/><ellipse class="cls-5" cx="284.72" cy="15.25" rx="7.61" ry="7.31"/><ellipse class="cls-5" cx="280.91" cy="140.77" rx="7.61" ry="7.31"/><ellipse class="cls-5" cx="1018.75" cy="878.87" rx="7.61" ry="7.31"/><ellipse class="cls-5" cx="942.31" cy="747.62" rx="7.61" ry="7.31"/><ellipse class="cls-5" cx="818.58" cy="858.94" rx="7.61" ry="7.31"/><ellipse class="cls-5" cx="475.18" cy="855.73" rx="7.61" ry="7.31"/><ellipse class="cls-5" cx="365.35" cy="766.26" rx="7.61" ry="7.31"/><ellipse class="cls-5" cx="529.74" cy="19.35" rx="7.61" ry="7.31"/><ellipse class="cls-5" cx="135.8" cy="1007.06" rx="7.61" ry="7.31"/><ellipse class="cls-5" cx="1038.92" cy="681.44" rx="7.07" ry="7.31"/><ellipse class="cls-5" cx="989.05" cy="348.8" rx="7.07" ry="7.31"/><ellipse class="cls-5" cx="30.89" cy="32.69" rx="7.07" ry="7.31"/><ellipse class="cls-5" cx="426.81" cy="155.98" rx="7.07" ry="7.31"/><ellipse class="cls-5" cx="1038.92" cy="1023.08" rx="7.07" ry="7.31"/><ellipse class="cls-5" cx="716.38" cy="1023.08" rx="7.07" ry="7.31"/><ellipse class="cls-5" cx="1011.14" cy="48.36" rx="7.07" ry="7.31"/><ellipse class="cls-5" cx="781.48" cy="139.84" rx="7.07" ry="7.31"/><polygon class="cls-6" points="382.58 31.82 376.8 47.96 394.23 44.71 382.58 31.82"/><polygon class="cls-6" points="569.28 985.28 563.5 1001.42 580.93 998.16 569.28 985.28"/><polygon class="cls-6" points="585.51 411.19 579.73 427.33 597.16 424.07 585.51 411.19"/><polygon class="cls-6" points="333.84 436.49 328.06 452.63 345.5 449.38 333.84 436.49"/><polygon class="cls-6" points="751.13 742.41 745.34 758.55 762.78 755.29 751.13 742.41"/><polygon class="cls-6" points="479.85 666.06 474.07 682.2 491.51 678.94 479.85 666.06"/><polygon class="cls-6" points="42.94 859.6 37.15 875.74 54.59 872.48 42.94 859.6"/><polygon class="cls-6" points="71.95 1055.13 66.16 1071.26 83.6 1068.01 71.95 1055.13"/><polygon class="cls-6" points="525.17 93.5 519.79 109.63 536 106.38 525.17 93.5"/><polygon class="cls-6" points="756.44 347.49 751.07 363.63 767.27 360.37 756.44 347.49"/><polygon class="cls-6" points="519.4 228.15 514.03 244.29 530.23 241.03 519.4 228.15"/><polygon class="cls-6" points="261.89 311.24 256.52 327.38 272.72 324.12 261.89 311.24"/><polygon class="cls-6" points="930.34 122.56 924.97 138.7 941.17 135.44 930.34 122.56"/><polygon class="cls-6" points="964.02 580.24 958.65 596.38 974.85 593.12 964.02 580.24"/><polygon class="cls-6" points="1028.14 236.28 1022.77 252.41 1038.97 249.16 1028.14 236.28"/><polygon class="cls-6" points="1047.62 396.98 1042.24 413.12 1058.45 409.86 1047.62 396.98"/><polygon class="cls-6" points="1008.36 742.41 1002.99 758.55 1019.19 755.29 1008.36 742.41"/><polygon class="cls-6" points="14.15 401.6 8.77 417.74 24.98 414.48 14.15 401.6"/><polygon class="cls-6" points="196.35 602.28 190.56 618.42 208 615.16 196.35 602.28"/><polygon class="cls-6" points="165.98 130.92 160.6 147.06 176.81 143.8 165.98 130.92"/><polygon class="cls-6" points="948.25 1043.88 942.88 1060.02 959.08 1056.77 948.25 1043.88"/></g></g></svg>
