<svg xmlns="http://www.w3.org/2000/svg" xmlns:xlink="http://www.w3.org/1999/xlink" viewBox="0 0 390.35 322.58"><defs><style>.cls-1{fill:#29abe2;}.cls-2{fill:url(#radial-gradient);}</style><radialGradient id="radial-gradient" cx="195.18" cy="126.68" r="147.9" gradientUnits="userSpaceOnUse"><stop offset="0" stop-color="#30302f"/><stop offset="0" stop-color="#292827"/><stop offset="0" stop-color="#221f1f"/></radialGradient></defs><g id="Layer_2" data-name="Layer 2"><g id="Layer_8" data-name="Layer 8"><path class="cls-1" d="M363.9,0H26.45A26.47,26.47,0,0,0,0,26.45V226.89a26.48,26.48,0,0,0,26.45,26.46H163.26v43.27h-56v26H282.58v-26h-56V253.35H363.9a26.48,26.48,0,0,0,26.45-26.46V26.45A26.47,26.47,0,0,0,363.9,0Zm9.41,226.89a9.42,9.42,0,0,1-9.41,9.42H26.45A9.42,9.42,0,0,1,17,226.89V26.45A9.42,9.42,0,0,1,26.45,17H363.9a9.42,9.42,0,0,1,9.41,9.41Z"/><path class="cls-2" d="M373.31,26.45V226.89a9.42,9.42,0,0,1-9.41,9.42H26.45A9.42,9.42,0,0,1,17,226.89V26.45A9.42,9.42,0,0,1,26.45,17H363.9A9.42,9.42,0,0,1,373.31,26.45Z"/><polygon class="cls-1" points="156.32 171.81 70.83 126.26 156.81 86.09 162.72 98.72 102.03 127.08 162.88 159.5 156.32 171.81"/><polygon class="cls-1" points="235.34 168.79 229.44 156.15 290.13 127.8 229.28 95.38 235.83 83.07 321.33 128.62 235.34 168.79"/><rect class="cls-1" x="125.86" y="119.04" width="138.95" height="13.95" transform="matrix(0.23, -0.97, 0.97, 0.23, 28.52, 287.9)"/></g></g></svg>