<svg xmlns="http://www.w3.org/2000/svg" xmlns:xlink="http://www.w3.org/1999/xlink" viewBox="0 0 470.94 290.59"><defs><style>.cls-1,.cls-2,.cls-3,.cls-4,.cls-5{fill:#29abe2;stroke-miterlimit:10;stroke-width:7px;}.cls-1{stroke:url(#radial-gradient);}.cls-2{stroke:url(#radial-gradient-2);}.cls-3{stroke:url(#radial-gradient-3);}.cls-4{stroke:url(#radial-gradient-4);}.cls-5{stroke:url(#radial-gradient-5);}</style><radialGradient id="radial-gradient" cx="374.07" cy="79.41" r="84.48" gradientUnits="userSpaceOnUse"><stop offset="0" stop-color="#30302f"/><stop offset="0" stop-color="#292827"/><stop offset="0" stop-color="#221f1f"/></radialGradient><radialGradient id="radial-gradient-2" cx="201.71" cy="225.71" r="52.43" xlink:href="#radial-gradient"/><radialGradient id="radial-gradient-3" cx="277.12" cy="80.09" r="63.59" xlink:href="#radial-gradient"/><radialGradient id="radial-gradient-4" cx="94.55" cy="118.79" r="87.85" xlink:href="#radial-gradient"/><radialGradient id="radial-gradient-5" cx="229.34" cy="149.32" r="113.84" xlink:href="#radial-gradient"/></defs><g id="Layer_2" data-name="Layer 2"><g id="Layer_8" data-name="Layer 8"><path class="cls-1" d="M409.34,107.9l21.5-.74a68.44,68.44,0,0,0,28.21-11.64,76.46,76.46,0,0,1-29.37-4.32C391.89,77.55,384.43,40,341.39,20.73A109,109,0,0,0,319,13.48L283.17,90.87a74.9,74.9,0,0,1,31.34,1.18c37.92,9.66,51.83,44.68,87.67,52.38A64.05,64.05,0,0,0,434,143.08c-4.92-2.45-23.57-12.1-28.27-23.35-1-2.36-2.88-6.89-.73-9.7A6.35,6.35,0,0,1,409.34,107.9Z"/><polygon class="cls-2" points="170.56 281.4 181.61 286.06 233.49 177.55 225.1 167.31 170.56 281.4"/><polygon class="cls-3" points="313.39 9.61 302.31 4.63 240.28 142.62 248.74 153.44 313.39 9.61"/><path class="cls-4" d="M182.2,109.18,129,42.55a110.16,110.16,0,0,0-20,12.38c-37.21,29-35.51,67.21-69,89.47A76.37,76.37,0,0,1,12.5,155.6a68.35,68.35,0,0,0,30.17,4.58l21.06-4.4a6.32,6.32,0,0,1,4.72,1c2.75,2.22,2,7.07,1.6,9.6-1.89,12-17.71,25.86-21.9,29.41a64.15,64.15,0,0,0,31.23-6.26c33-16,38.14-53.35,72.67-71.76A75.16,75.16,0,0,1,182.2,109.18Z"/><polygon class="cls-5" points="244.49 158.85 236.04 148.02 142.94 28.78 133.36 36.26 230.41 160.55 238.86 171.38 315.75 269.86 325.32 262.38 244.49 158.85"/></g></g></svg>