<svg xmlns="http://www.w3.org/2000/svg" xmlns:xlink="http://www.w3.org/1999/xlink" viewBox="0 0 482.18 362.05"><defs><style>.cls-1{stroke:#fff200;stroke-miterlimit:10;stroke-width:5px;fill:url(#radial-gradient);}.cls-2{fill:#fcee1f;}</style><radialGradient id="radial-gradient" cx="241.09" cy="181.03" r="210.71" gradientUnits="userSpaceOnUse"><stop offset="0" stop-color="#30302f"/><stop offset="0" stop-color="#292827"/><stop offset="0" stop-color="#221f1f"/></radialGradient></defs><g id="Layer_2" data-name="Layer 2"><g id="Layer_8" data-name="Layer 8"><path class="cls-1" d="M290.25,4.9,307,2.67c18.54-1.23,35.82,4.25,53.11,9.8a27.59,27.59,0,0,1,17.1,15.08c1.74,3.69,4.14,6.12,8.13,7.07,3.58.84,6,3.25,7.78,6.34,24.79,42,48.64,84.42,66.83,129.77,6.57,16.4,12.92,33,15.12,50.7.2,1.5.4,3,.59,4.49.53,2.17.06,4.54,1.36,6.55l1.86,14c-.77,1.65.17,3.24.16,4.87,2,15.64-.89,30.06-10.43,42.92a31,31,0,0,1-18.79,12.05l-14,1.85c-12.76.06-21.86-7.39-30.79-15.12-2.37-2-4.69-4.14-7.19-6-15.6-11.77-21.81-17.12-29.74-23.66-15.09-12.45-17.66-18.52-24.61-24.26-18.13-15-38-4.46-105.55,3.36-43.54,5-81.55,6-97.24,24.55-1,1.17-1.92,2.44-12.39,15.46-7.81,9.72-13,16.33-19.7,26.31-.7,1-1.26,2.17-2,3.16-7.73,9.86-15.09,20-22.27,30.25-5.37,7.68-12.2,13.3-21.49,15.52l-14,1.86c-17.19-.26-27.16-10.75-35-24.46-3.64-6.35-5-13.39-7-20.25l-1.24-9.32-1.74-13c-.2-2.1-.49-5.35-.75-9.33a259.45,259.45,0,0,1,.35-40.74c3.45-37.06,11-73.36,20-109.41,3.38-13.53,7-27,10.65-40.43,1.49-5.54,3.2-10.78,8.92-13.63,2.56-1.28,3.32-4.06,3.77-6.74,1.53-9,6.29-15.73,14.05-20.67C71.1,45,81.33,38.71,92.44,33.86a57.57,57.57,0,0,1,14.84-4.17c1.6-.44,3.43,0,4.86-1.13A33.36,33.36,0,0,1,124.26,27C140.15,27.83,150,40.23,152,42.83c2.78.56,5.24,1,7.28,1.29,8.41,1.3,57.15,8.11,105.48-18.53,2.2-1.22,4-2.26,5.1-2.94A26.78,26.78,0,0,1,274.76,14,28.13,28.13,0,0,1,290.25,4.9Z"/><circle class="cls-2" cx="322.54" cy="78.12" r="21.02"/><circle class="cls-2" cx="287.73" cy="123.52" r="21.02"/><circle class="cls-2" cx="330.56" cy="155.74" r="21.02"/><circle class="cls-2" cx="365.35" cy="110.21" r="21.02"/><path class="cls-2" d="M163.49,121.11,141.71,124l-3-22.61a12.2,12.2,0,0,0-13.65-10.46L111,92.81a12.19,12.19,0,0,0-10.45,13.65l3,22.61-23.36,3.11a12.2,12.2,0,0,0-10.46,13.65l1.87,14.1a12.2,12.2,0,0,0,13.66,10.45l23.37-3.1,3,22.54a12.19,12.19,0,0,0,13.66,10.45l14.09-1.87a12.2,12.2,0,0,0,10.45-13.66l-3-22.53,21.78-2.9A12.2,12.2,0,0,0,179,145.66l-1.87-14.1A12.2,12.2,0,0,0,163.49,121.11Z"/></g></g></svg>