<svg xmlns="http://www.w3.org/2000/svg" xmlns:xlink="http://www.w3.org/1999/xlink" viewBox="0 0 397.98 341.75"><defs><style>.cls-1{fill:#4e4f53;}.cls-2{fill:#ec008c;}.cls-10,.cls-3{fill:none;stroke-miterlimit:10;}.cls-3{stroke:url(#radial-gradient);}.cls-4{fill:#48484a;}.cls-5{fill:#161616;}.cls-6{fill:#2f2f31;}.cls-7{fill:#241820;}.cls-8{fill:url(#radial-gradient-2);}.cls-9{fill:#a4acaf;}.cls-10{stroke:#29abe2;stroke-width:5px;}</style><radialGradient id="radial-gradient" cx="432.05" cy="-672.71" r="48.48" gradientTransform="translate(106.09 883.33) rotate(-21.3)" gradientUnits="userSpaceOnUse"><stop offset="0" stop-color="#30302f"/><stop offset="0" stop-color="#292827"/><stop offset="0" stop-color="#221f1f"/></radialGradient><radialGradient id="radial-gradient-2" cx="431.35" cy="-672.91" r="19.14" xlink:href="#radial-gradient"/></defs><g id="Layer_2" data-name="Layer 2"><g id="Layer_7" data-name="Layer 7"><path class="cls-1" d="M327.28,19.52l68.6,175.94a30.63,30.63,0,0,1-17.41,39.66L110.36,339.65A30.62,30.62,0,0,1,70.7,322.24L2.1,146.3a30.64,30.64,0,0,1,17.41-39.67l16-6.23h0c2.16-1.77,3.36-4.85,4.2-7.05l56.41-22a16.67,16.67,0,0,0,9,1.91h0L287.62,2.1A30.62,30.62,0,0,1,327.28,19.52Z"/><circle class="cls-2" cx="48.7" cy="143.53" r="5.13"/><circle class="cls-3" cx="264.27" cy="99.63" r="47.98"/><rect class="cls-4" x="173.46" y="17.81" width="177.96" height="160.69" rx="40.43" transform="translate(-17.73 102.04) rotate(-21.3)"/><rect class="cls-5" x="183.76" y="29.4" width="158.84" height="140.87" rx="32.33" transform="translate(-18.29 102.42) rotate(-21.3)"/><rect class="cls-6" x="198.53" y="44.65" width="127.07" height="110.41" rx="10.78" transform="translate(-18.37 102.02) rotate(-21.3)"/><circle class="cls-7" cx="262.73" cy="99.49" r="37.66"/><circle class="cls-8" cx="263.54" cy="99.69" r="19.14"/><circle class="cls-2" cx="263.23" cy="99.52" r="2.65"/><rect class="cls-9" x="267.8" y="229.58" width="20.2" height="13.01" transform="matrix(0.93, -0.36, 0.36, 0.93, -66.78, 117.08)"/><rect class="cls-9" x="289.49" y="221.12" width="20.2" height="13.01" transform="translate(-62.22 124.38) rotate(-21.3)"/><rect class="cls-9" x="311.56" y="212.52" width="20.2" height="13.01" transform="matrix(0.93, -0.36, 0.36, 0.93, -57.59, 131.81)"/><rect class="cls-9" x="333.73" y="203.87" width="20.2" height="13.01" transform="matrix(0.93, -0.36, 0.36, 0.93, -52.93, 139.27)"/><path class="cls-9" d="M273.19,228.11c-3.18,1.24-5.56,1.8-7.42,1s-2.76-3-3.6-5.32a5.6,5.6,0,0,1,0-4.39c1.11-2.38,3.95-3.4,6.24-4.21l1.15-.43a1.55,1.55,0,1,1,1.13,2.89c-.39.16-.8.31-1.23.46-1.75.63-3.91,1.4-4.47,2.61a2.6,2.6,0,0,0,.09,2c.71,1.94,1.23,3.23,1.94,3.54,1.07.48,3.78-.51,5.72-1.3l.5-.2c2.66-1.08,5.17-2.09,5.39-2.64a1.78,1.78,0,0,0-.17-.89l-3.25,1.27a1.56,1.56,0,0,1-1.13-2.9l6.06-2.37.61,1.36c.79,1.79,1.35,3.27.77,4.7-.72,1.76-2.59,2.52-7.11,4.35l-.5.2Z"/><path class="cls-9" d="M298.31,218.32l-9.17,3.57a4,4,0,0,1-5.18-2.27l-1.11-2.83a4,4,0,0,1,2.28-5.19l9.16-3.57a4,4,0,0,1,5.19,2.28l1.1,2.82A4,4,0,0,1,298.31,218.32Zm-12.05-3.82a.9.9,0,0,0-.51,1.16l1.1,2.83A.9.9,0,0,0,288,219l9.17-3.58a.9.9,0,0,0,.51-1.16l-1.11-2.82a.89.89,0,0,0-1.16-.51Z"/><path class="cls-9" d="M313.77,197l-11,4.29a4,4,0,0,0-2.34,5,.58.58,0,0,0,.06.17l3.16,8.13a1.56,1.56,0,0,0,2.9-1.13l-1-2.51a3.91,3.91,0,0,0,.88-.22l11-4.29a4,4,0,0,0,2.27-5.19l-.77-2A4,4,0,0,0,313.77,197Zm3.06,5.39a.9.9,0,0,1-.5,1.16l-11,4.29a.9.9,0,0,1-1.16-.51l-.78-2a.9.9,0,0,1,.52-1.16l11-4.28a.89.89,0,0,1,1.16.5Z"/><path class="cls-9" d="M346.7,199.45,337.54,203a4,4,0,0,1-5.19-2.27l-1.1-2.83a4,4,0,0,1,2.28-5.19l9.16-3.57a4,4,0,0,1,5.19,2.28l1.1,2.82A4,4,0,0,1,346.7,199.45Zm-12-3.82a.9.9,0,0,0-.51,1.16l1.1,2.83a.9.9,0,0,0,1.16.51l9.16-3.58a.9.9,0,0,0,.51-1.16l-1.1-2.82a.9.9,0,0,0-1.16-.51Z"/><path class="cls-9" d="M326.24,207.43a1.55,1.55,0,0,1-2-.85l-1.72-4.1a5.26,5.26,0,0,1-.21-4.36c.86-1.79,2.84-2.36,4.29-2.77l.58-.16a1.55,1.55,0,1,1,.91,3l-.64.19c-.93.26-2.08.59-2.34,1.12a2.61,2.61,0,0,0,.28,1.81l1.71,4.1a1.54,1.54,0,0,1-.83,2Z"/><path class="cls-10" d="M58.3,229.48l30.12,76.64c3.6,9.56,11.87,13.35,21.46,9.83l98.43-38.35"/></g></g></svg>