<svg xmlns="http://www.w3.org/2000/svg" viewBox="0 0 328.09 370.68"><defs><style>.cls-1{fill:#e90e8b;}</style></defs><g id="Layer_2" data-name="Layer 2"><g id="Layer_7" data-name="Layer 7"><path class="cls-1" d="M300.86,229.83v-85A33.85,33.85,0,1,0,269.07,89l-74.32-44a33.86,33.86,0,1,0-63.75.26L58.84,88.81a33.84,33.84,0,1,0-31.61,56v85a33.85,33.85,0,1,0,32.24,55.29l72.7,41.13a33.85,33.85,0,1,0,66,10.58,34,34,0,0,0-1.73-10.64l72.23-41a33.84,33.84,0,1,0,32.19-55.34ZM67.05,256.41a33.79,33.79,0,0,0-11.16-19.05L152.32,66a33.47,33.47,0,0,0,21.27-.09L272,237.55a33.78,33.78,0,0,0-11,18.86Zm195.27-156a33.75,33.75,0,0,0,25.3,44.39v85a33.18,33.18,0,0,0-4.14,1.12L185.07,59.33A34.73,34.73,0,0,0,188,56.44ZM137.84,56.64a34.85,34.85,0,0,0,2.95,2.88L44.36,230.86a31.31,31.31,0,0,0-3.89-1v-85a33.77,33.77,0,0,0,25.21-44.66Zm52,258.05a33.76,33.76,0,0,0-51.18,0L66,273.61a34.92,34.92,0,0,0,1-4H261a33.79,33.79,0,0,0,1.07,4Z"/></g></g></svg>