<?xml version="1.0" encoding="UTF-8"?>
<svg xmlns="http://www.w3.org/2000/svg" xmlns:xlink="http://www.w3.org/1999/xlink" width="230pt" height="144pt" viewBox="0 0 230 144" version="1.1">
<g id="surface1">
<path style=" stroke:none;fill-rule:nonzero;fill:rgb(91.372549%,5.490196%,54.509804%);fill-opacity:1;" d="M 207.304688 44.160156 L 205.234375 40.097656 L 204.847656 44.585938 L 196.597656 46.007812 L 194.730469 73.472656 L 183.445312 48.277344 L 172.464844 50.171875 L 170.753906 77.558594 L 159.867188 52.34375 L 146.707031 54.617188 L 166.652344 98.242188 L 178.90625 96.125 L 180.601562 69.867188 L 191.300781 93.988281 L 203.054688 91.960938 L 206.1875 56.714844 Z M 207.304688 44.160156 "/>
<path style=" stroke:none;fill-rule:nonzero;fill:rgb(91.372549%,5.490196%,54.509804%);fill-opacity:1;" d="M 96.222656 63.324219 L 94.152344 59.265625 L 94.886719 63.554688 L 82.230469 65.738281 L 85.113281 82.550781 L 74.429688 84.394531 L 71.546875 67.582031 L 69.476562 63.523438 L 70.210938 67.8125 L 57.558594 69.996094 L 64.660156 111.417969 L 63.324219 111.648438 L 65.394531 115.710938 L 79.386719 113.296875 L 76.335938 95.511719 L 87.019531 93.667969 L 89.332031 107.160156 L 88 107.390625 L 90.070312 111.453125 L 104.058594 109.039062 Z M 96.222656 63.324219 "/>
<path style=" stroke:none;fill-rule:nonzero;fill:rgb(91.372549%,5.490196%,54.509804%);fill-opacity:1;" d="M 57.507812 101.785156 C 57.003906 98.859375 55.800781 96.449219 53.898438 94.554688 C 52.128906 92.738281 49.855469 91.492188 47.375 90.980469 C 44.925781 90.484375 40.878906 90.128906 35.226562 89.914062 C 33.171875 89.832031 31.761719 89.617188 30.992188 89.265625 C 30.246094 88.953125 29.722656 88.269531 29.613281 87.46875 C 29.289062 85.574219 30.648438 84.359375 33.699219 83.835938 C 37.375 83.203125 40.070312 84.308594 41.789062 87.164062 L 52.773438 81.644531 L 50.703125 77.585938 L 49.910156 77.984375 C 45.695312 73.785156 39.878906 72.324219 32.453125 73.605469 C 26.332031 74.660156 21.886719 76.898438 19.113281 80.320312 C 16.339844 83.738281 15.328125 87.605469 16.074219 91.914062 C 16.59375 95.167969 18.351562 98.09375 20.980469 100.070312 C 23.679688 102.160156 29.15625 103.28125 37.414062 103.4375 C 39.578125 103.5 41.113281 103.734375 42.019531 104.140625 C 42.890625 104.5 43.503906 105.292969 43.632812 106.226562 C 43.953125 108.097656 42.355469 109.339844 38.828125 109.949219 C 34.308594 110.730469 31.191406 109.371094 29.476562 105.875 L 16.882812 110.457031 C 21.082031 119.296875 28.734375 122.757812 39.839844 120.839844 C 45.917969 119.796875 50.582031 117.511719 53.828125 113.996094 C 57.074219 110.476562 58.300781 106.40625 57.507812 101.785156 Z M 57.507812 101.785156 "/>
<path style=" stroke:none;fill-rule:nonzero;fill:rgb(91.372549%,5.490196%,54.509804%);fill-opacity:1;" d="M 131.792969 104.976562 C 125.390625 106.082031 119.796875 104.851562 115.019531 101.285156 C 110.242188 97.71875 107.246094 92.367188 106.027344 85.226562 C 104.847656 78.394531 105.808594 72.417969 108.914062 67.296875 C 112.019531 62.179688 116.996094 59.027344 123.84375 57.84375 C 130.191406 56.746094 135.71875 57.953125 140.433594 61.460938 C 145.148438 64.972656 148.105469 70.230469 149.308594 77.238281 C 150.550781 84.492188 149.535156 90.652344 146.261719 95.726562 C 142.988281 100.796875 138.164062 103.882812 131.792969 104.976562 Z M 129.9375 94.609375 C 132.296875 94.203125 133.8125 92.878906 134.488281 90.632812 C 135.164062 88.390625 135.03125 84.519531 134.097656 79.03125 C 132.734375 71.085938 129.925781 67.476562 125.675781 68.207031 C 121.089844 69 119.574219 73.925781 121.125 82.992188 C 122.601562 91.496094 125.539062 95.371094 129.9375 94.609375 Z M 129.9375 94.609375 "/>
<path style=" stroke:none;fill-rule:nonzero;fill:rgb(16.078431%,67.058824%,88.627451%);fill-opacity:1;" d="M 228.953125 41.359375 C 228.960938 46.660156 227.871094 51.90625 225.746094 56.757812 L 216.964844 56.757812 C 222.550781 47.214844 222.546875 35.386719 216.953125 25.847656 C 211.359375 16.308594 201.054688 10.554688 190.023438 10.8125 C 178.996094 11.070312 168.96875 17.300781 163.824219 27.089844 L 174.132812 33.609375 L 160.300781 40.917969 L 152.648438 44.960938 L 148.558594 47.125 L 149.675781 18.144531 L 157.191406 22.898438 C 165.59375 7.542969 183.300781 -0.148438 200.214844 4.203125 C 217.128906 8.554688 228.953125 23.84375 228.953125 41.359375 Z M 228.953125 41.359375 "/>
<path style=" stroke:none;fill-rule:nonzero;fill:rgb(91.372549%,5.490196%,54.509804%);fill-opacity:1;" d="M 149.683594 18.175781 L 148.558594 47.332031 L 174.296875 33.730469 Z M 149.683594 18.175781 "/>
<path style=" stroke:none;fill-rule:nonzero;fill:rgb(16.078431%,67.058824%,88.627451%);fill-opacity:1;" d="M 48.84375 51.046875 L 49.222656 61.976562 L 44.640625 62.761719 L 44.261719 51.835938 L 40.886719 52.421875 L 40.777344 49.167969 L 52.199219 47.191406 L 52.320312 50.441406 Z M 48.84375 51.046875 "/>
<path style=" stroke:none;fill-rule:nonzero;fill:rgb(16.078431%,67.058824%,88.627451%);fill-opacity:1;" d="M 67.445312 53.109375 L 63.355469 53.816406 L 63.554688 59.5 L 58.976562 60.292969 L 58.46875 46.15625 L 63.050781 45.367188 L 63.234375 50.5625 L 67.328125 49.859375 L 67.144531 44.660156 L 71.722656 43.871094 L 72.230469 58.003906 L 67.652344 58.796875 Z M 67.445312 53.109375 "/>
<path style=" stroke:none;fill-rule:nonzero;fill:rgb(16.078431%,67.058824%,88.627451%);fill-opacity:1;" d="M 91.210938 51.460938 L 91.324219 54.710938 L 79.695312 56.714844 L 79.1875 42.582031 L 90.523438 40.625 L 90.632812 43.722656 L 83.867188 44.890625 L 83.949219 47.105469 L 89.632812 46.125 L 89.734375 49.191406 L 84.0625 50.167969 L 84.15625 52.675781 Z M 91.210938 51.460938 "/>
<path style=" stroke:none;fill-rule:nonzero;fill:rgb(91.372549%,5.490196%,54.509804%);fill-opacity:1;" d="M 0.757812 62.90625 L 0 60.074219 L 6.179688 58.832031 L 6.9375 61.664062 Z M 0.757812 62.90625 "/>
<path style=" stroke:none;fill-rule:nonzero;fill:rgb(16.078431%,67.058824%,88.627451%);fill-opacity:1;" d="M 3.457031 60.785156 L 2.734375 57.949219 L 30.042969 52.71875 L 30.765625 55.554688 Z M 3.457031 60.785156 "/>
<path style=" stroke:none;fill-rule:nonzero;fill:rgb(100%,100%,100%);fill-opacity:1;" d="M 23.101562 59.0625 L 22.957031 58.5 L 34.015625 56.324219 L 34.164062 56.890625 Z M 23.101562 59.0625 "/>
<path style=" stroke:none;fill-rule:nonzero;fill:rgb(91.372549%,5.490196%,54.509804%);fill-opacity:1;" d="M 133.179688 39.449219 L 132.519531 36.601562 L 126.300781 37.683594 L 126.960938 40.53125 Z M 133.179688 39.449219 "/>
<path style=" stroke:none;fill-rule:nonzero;fill:rgb(16.078431%,67.058824%,88.627451%);fill-opacity:1;" d="M 129.710938 38.484375 L 129.019531 35.640625 L 101.65625 40.664062 L 102.351562 43.507812 Z M 129.710938 38.484375 "/>
<path style=" stroke:none;fill-rule:nonzero;fill:rgb(100%,100%,100%);fill-opacity:1;" d="M 111 43.957031 L 110.863281 43.386719 L 99.757812 45.371094 L 99.894531 45.941406 Z M 111 43.957031 "/>
<path style=" stroke:none;fill-rule:nonzero;fill:rgb(98.823529%,93.333333%,12.156863%);fill-opacity:1;" d="M 229.660156 42.058594 C 229.664062 55.628906 222.515625 68.191406 210.867188 75.085938 L 211.644531 71.574219 C 219.695312 65.476562 224.855469 56.300781 225.890625 46.234375 C 226.925781 36.171875 223.742188 26.128906 217.101562 18.511719 L 220.1875 16.792969 C 226.304688 23.78125 229.671875 32.761719 229.660156 42.058594 Z M 229.660156 42.058594 "/>
<path style=" stroke:none;fill-rule:nonzero;fill:rgb(100%,100%,100%);fill-opacity:1;" d="M 14.8125 106.398438 L 27.402344 101.8125 C 29.125 105.308594 32.242188 106.667969 36.753906 105.886719 C 40.269531 105.28125 41.871094 104.039062 41.558594 102.164062 C 41.425781 101.230469 40.8125 100.4375 39.945312 100.078125 C 39.039062 99.671875 37.503906 99.4375 35.339844 99.375 C 27.082031 99.21875 21.601562 98.097656 18.90625 96.007812 C 16.277344 94.03125 14.519531 91.105469 14.003906 87.851562 C 13.261719 83.542969 14.273438 79.675781 17.035156 76.257812 C 19.796875 72.835938 24.242188 70.59375 30.375 69.539062 C 39.65625 67.9375 46.429688 70.621094 50.695312 77.585938 L 39.710938 83.101562 C 37.984375 80.25 35.289062 79.140625 31.621094 79.773438 C 28.574219 80.300781 27.21875 81.511719 27.554688 83.410156 C 27.664062 84.210938 28.1875 84.894531 28.929688 85.207031 C 29.699219 85.558594 31.109375 85.773438 33.164062 85.855469 C 38.820312 86.070312 42.871094 86.421875 45.3125 86.917969 C 47.789062 87.433594 50.058594 88.679688 51.824219 90.496094 C 53.726562 92.386719 54.929688 94.796875 55.433594 97.722656 C 56.222656 102.347656 54.996094 106.417969 51.753906 109.933594 C 48.507812 113.453125 43.847656 115.734375 37.765625 116.78125 C 26.660156 118.699219 19.011719 115.238281 14.8125 106.398438 Z M 14.8125 106.398438 "/>
<path style=" stroke:none;fill-rule:nonzero;fill:rgb(100%,100%,100%);fill-opacity:1;" d="M 94.152344 59.265625 L 101.988281 104.976562 L 88 107.390625 L 84.941406 89.609375 L 74.257812 91.453125 L 77.304688 109.234375 L 63.324219 111.648438 L 55.488281 65.933594 L 69.480469 63.523438 L 72.363281 80.332031 L 83.046875 78.488281 L 80.164062 61.679688 Z M 94.152344 59.265625 "/>
<path style=" stroke:none;fill-rule:nonzero;fill:rgb(100%,100%,100%);fill-opacity:1;" d="M 129.722656 100.917969 C 123.320312 102.023438 117.726562 100.792969 112.949219 97.226562 C 108.171875 93.660156 105.171875 88.308594 103.957031 81.171875 C 102.785156 74.335938 103.746094 68.359375 106.84375 63.242188 C 109.941406 58.121094 114.917969 54.96875 121.773438 53.785156 C 128.121094 52.6875 133.652344 53.894531 138.367188 57.402344 C 143.082031 60.910156 146.039062 66.171875 147.242188 73.183594 C 148.484375 80.441406 147.46875 86.605469 144.191406 91.671875 C 140.914062 96.742188 136.089844 99.824219 129.722656 100.917969 Z M 127.875 90.550781 C 130.234375 90.144531 131.75 88.816406 132.425781 86.578125 C 133.097656 84.335938 132.96875 80.46875 132.035156 74.972656 C 130.671875 67.027344 127.863281 63.417969 123.613281 64.148438 C 119.027344 64.941406 117.511719 69.871094 119.0625 78.933594 C 120.53125 87.433594 123.46875 91.308594 127.875 90.550781 Z M 127.875 90.550781 "/>
<path style=" stroke:none;fill-rule:nonzero;fill:rgb(100%,100%,100%);fill-opacity:1;" d="M 205.234375 40.09375 L 200.972656 87.898438 L 189.222656 89.929688 L 178.523438 65.8125 L 176.835938 92.074219 L 164.570312 94.179688 L 144.625 50.5625 L 157.789062 48.28125 L 168.675781 73.496094 L 170.382812 46.109375 L 181.363281 44.210938 L 192.652344 69.40625 L 194.515625 41.941406 Z M 205.234375 40.09375 "/>
<path style=" stroke:none;fill-rule:nonzero;fill:rgb(98.823529%,93.333333%,12.156863%);fill-opacity:1;" d="M 81.742188 130.832031 L 84.082031 135.070312 L 80.449219 135.6875 L 78.453125 131.824219 L 77 132.078125 L 77.132812 136.257812 L 73.628906 136.851562 L 73.269531 125.855469 L 78.632812 124.945312 C 80.089844 124.699219 81.230469 124.792969 82.058594 125.226562 C 82.871094 125.644531 83.445312 126.410156 83.621094 127.308594 C 83.96875 128.824219 83.339844 130 81.742188 130.832031 Z M 76.925781 129.777344 L 78.308594 129.542969 C 79.632812 129.320312 80.207031 128.816406 80.03125 128.035156 C 79.886719 127.382812 79.253906 127.148438 78.140625 127.335938 L 76.855469 127.554688 Z M 76.925781 129.777344 "/>
<path style=" stroke:none;fill-rule:nonzero;fill:rgb(98.823529%,93.333333%,12.156863%);fill-opacity:1;" d="M 95.304688 130.617188 L 95.382812 133.152344 L 86.335938 134.6875 L 85.976562 123.6875 L 94.800781 122.191406 L 94.878906 124.601562 L 89.613281 125.496094 L 89.667969 127.21875 L 94.097656 126.457031 L 94.167969 128.84375 L 89.742188 129.601562 L 89.8125 131.550781 Z M 95.304688 130.617188 "/>
<path style=" stroke:none;fill-rule:nonzero;fill:rgb(98.823529%,93.333333%,12.156863%);fill-opacity:1;" d="M 97.328125 132.824219 L 96.96875 121.828125 L 102.046875 120.980469 C 102.808594 120.835938 103.585938 120.777344 104.363281 120.8125 C 104.972656 120.851562 105.554688 121.070312 106.039062 121.4375 C 106.523438 121.789062 106.859375 122.304688 106.988281 122.890625 C 107.140625 123.503906 107.019531 124.152344 106.652344 124.664062 C 106.226562 125.242188 105.632812 125.675781 104.953125 125.90625 C 106.394531 126.089844 107.246094 126.746094 107.503906 127.878906 C 107.691406 128.691406 107.519531 129.546875 107.027344 130.222656 C 106.519531 130.953125 105.519531 131.445312 104.023438 131.703125 Z M 100.660156 125.421875 L 102.066406 125.183594 C 103.191406 124.996094 103.679688 124.578125 103.53125 123.933594 C 103.40625 123.363281 102.894531 123.15625 102.015625 123.304688 L 100.609375 123.542969 Z M 100.804688 129.789062 L 102.640625 129.476562 C 103.210938 129.382812 103.578125 129.210938 103.746094 128.972656 C 103.910156 128.761719 103.96875 128.496094 103.917969 128.238281 C 103.855469 127.949219 103.660156 127.703125 103.394531 127.574219 C 103.042969 127.421875 102.648438 127.386719 102.273438 127.476562 L 100.734375 127.730469 Z M 100.804688 129.789062 "/>
<path style=" stroke:none;fill-rule:nonzero;fill:rgb(98.823529%,93.333333%,12.156863%);fill-opacity:1;" d="M 115.554688 130.019531 C 114.175781 130.277344 112.75 130.066406 111.5 129.425781 C 110.246094 128.78125 109.445312 127.6875 109.09375 126.148438 C 108.667969 124.496094 108.945312 122.742188 109.851562 121.300781 C 110.765625 119.855469 112.183594 118.96875 114.109375 118.640625 C 115.648438 118.378906 117.015625 118.601562 118.199219 119.304688 C 119.371094 119.988281 120.195312 121.140625 120.457031 122.476562 C 120.867188 124.273438 120.625 125.898438 119.730469 127.355469 C 118.839844 128.8125 117.449219 129.699219 115.554688 130.019531 Z M 115.019531 127.535156 C 115.589844 127.476562 116.082031 127.117188 116.308594 126.59375 C 116.5625 125.894531 116.671875 125.152344 116.628906 124.410156 C 116.640625 123.785156 116.601562 123.15625 116.503906 122.535156 C 116.429688 122.066406 116.171875 121.644531 115.789062 121.367188 C 115.417969 121.132812 114.96875 121.054688 114.539062 121.144531 C 113.621094 121.300781 113.101562 121.964844 112.980469 123.132812 C 112.851562 124.148438 112.886719 125.175781 113.085938 126.175781 C 113.332031 127.261719 113.976562 127.714844 115.023438 127.535156 Z M 115.019531 127.535156 "/>
<path style=" stroke:none;fill-rule:nonzero;fill:rgb(98.823529%,93.333333%,12.156863%);fill-opacity:1;" d="M 128.671875 127.800781 C 127.296875 128.054688 125.875 127.84375 124.628906 127.203125 C 123.375 126.558594 122.574219 125.464844 122.226562 123.925781 C 121.800781 122.277344 122.074219 120.519531 122.984375 119.078125 C 123.898438 117.632812 125.316406 116.746094 127.238281 116.417969 C 128.78125 116.15625 130.144531 116.378906 131.328125 117.082031 C 132.5 117.761719 133.324219 118.917969 133.589844 120.25 C 133.996094 122.050781 133.753906 123.679688 132.863281 125.132812 C 131.972656 126.589844 130.574219 127.476562 128.671875 127.800781 Z M 128.140625 125.3125 C 128.710938 125.253906 129.203125 124.894531 129.433594 124.367188 C 129.683594 123.671875 129.792969 122.929688 129.75 122.1875 C 129.761719 121.5625 129.71875 120.933594 129.625 120.3125 C 129.550781 119.84375 129.292969 119.425781 128.910156 119.148438 C 128.535156 118.910156 128.078125 118.828125 127.644531 118.921875 C 126.726562 119.078125 126.210938 119.742188 126.085938 120.914062 C 125.960938 121.925781 125.996094 122.953125 126.195312 123.957031 C 126.445312 125.039062 127.09375 125.492188 128.136719 125.3125 Z M 128.140625 125.3125 "/>
<path style=" stroke:none;fill-rule:nonzero;fill:rgb(98.823529%,93.333333%,12.156863%);fill-opacity:1;" d="M 140.613281 116.945312 L 140.882812 125.445312 L 137.316406 126.050781 L 137.046875 117.550781 L 134.417969 117.996094 L 134.34375 115.460938 L 143.230469 113.953125 L 143.316406 116.492188 Z M 140.613281 116.945312 "/>
<path style=" stroke:none;fill-rule:nonzero;fill:rgb(98.823529%,93.333333%,12.156863%);fill-opacity:1;" d="M 154.222656 120.640625 L 154.300781 123.175781 L 145.253906 124.710938 L 144.894531 113.714844 L 153.714844 112.21875 L 153.792969 114.625 L 148.527344 115.519531 L 148.585938 117.242188 L 153.011719 116.484375 L 153.082031 118.867188 L 148.667969 119.617188 L 148.734375 121.566406 Z M 154.222656 120.640625 "/>
<path style=" stroke:none;fill-rule:nonzero;fill:rgb(98.823529%,93.333333%,12.156863%);fill-opacity:1;" d="M 156.261719 122.839844 L 155.902344 111.851562 L 159.996094 111.15625 C 160.800781 111.003906 161.621094 110.933594 162.441406 110.9375 C 163.125 110.96875 163.796875 111.140625 164.410156 111.445312 C 165.070312 111.753906 165.640625 112.222656 166.074219 112.8125 C 166.53125 113.441406 166.847656 114.15625 167.011719 114.917969 C 167.25 115.886719 167.238281 116.902344 166.976562 117.863281 C 166.738281 118.734375 166.28125 119.527344 165.644531 120.160156 C 165.09375 120.726562 164.417969 121.160156 163.675781 121.425781 C 162.71875 121.71875 161.738281 121.9375 160.75 122.089844 Z M 159.855469 119.75 L 160.683594 119.613281 C 161.550781 119.464844 162.164062 119.25 162.53125 118.964844 C 162.941406 118.609375 163.222656 118.128906 163.332031 117.597656 C 163.5 116.882812 163.492188 116.136719 163.308594 115.429688 C 162.953125 113.859375 162.089844 113.191406 160.714844 113.425781 L 159.652344 113.605469 Z M 159.855469 119.75 "/>
<path style=" stroke:none;fill-rule:nonzero;fill:rgb(16.078431%,67.058824%,88.627451%);fill-opacity:1;" d="M 8.671875 143.972656 L 7.511719 139.582031 L 17.09375 137.6875 L 18.253906 142.078125 Z M 8.671875 143.972656 "/>
<path style=" stroke:none;fill-rule:nonzero;fill:rgb(91.372549%,5.490196%,54.509804%);fill-opacity:1;" d="M 12.859375 140.699219 L 11.753906 136.300781 L 54.082031 128.320312 L 55.191406 132.722656 Z M 12.859375 140.699219 "/>
<path style=" stroke:none;fill-rule:nonzero;fill:rgb(100%,100%,100%);fill-opacity:1;" d="M 43.308594 138.121094 L 43.078125 137.242188 L 60.222656 133.925781 L 60.449219 134.804688 Z M 43.308594 138.121094 "/>
<path style=" stroke:none;fill-rule:nonzero;fill:rgb(16.078431%,67.058824%,88.627451%);fill-opacity:1;" d="M 230 105.882812 L 228.992188 101.464844 L 219.351562 103.117188 L 220.359375 107.535156 Z M 230 105.882812 "/>
<path style=" stroke:none;fill-rule:nonzero;fill:rgb(91.372549%,5.490196%,54.509804%);fill-opacity:1;" d="M 224.632812 104.375 L 223.570312 99.964844 L 181.160156 107.621094 L 182.222656 112.03125 Z M 224.632812 104.375 "/>
<path style=" stroke:none;fill-rule:nonzero;fill:rgb(100%,100%,100%);fill-opacity:1;" d="M 195.617188 112.765625 L 195.414062 111.886719 L 178.195312 114.90625 L 178.402344 115.789062 Z M 195.617188 112.765625 "/>
<path style=" stroke:none;fill-rule:nonzero;fill:rgb(16.078431%,67.058824%,88.627451%);fill-opacity:1;" d="M 144.183594 91.792969 C 140.90625 96.863281 136.085938 99.949219 129.71875 101.046875 C 129.570312 101.074219 129.421875 101.097656 129.273438 101.117188 L 128.59375 98.234375 C 133.820312 96.835938 137.863281 93.921875 140.730469 89.488281 C 144.007812 84.417969 145.023438 78.253906 143.78125 70.996094 C 143.734375 70.730469 143.6875 70.472656 143.636719 70.214844 L 146.449219 69.792969 C 146.773438 70.949219 147.035156 72.125 147.238281 73.308594 C 148.480469 80.5625 147.460938 86.722656 144.183594 91.792969 Z M 144.183594 91.792969 "/>
<path style=" stroke:none;fill-rule:nonzero;fill:rgb(16.078431%,67.058824%,88.627451%);fill-opacity:1;" d="M 55.457031 102.902344 C 53.707031 111.183594 46.035156 114.707031 41.386719 116.109375 C 41.082031 116.203125 40.785156 116.28125 40.503906 116.359375 L 39.980469 116.492188 C 39.265625 116.660156 38.527344 116.8125 37.769531 116.941406 L 36.707031 113.34375 C 50.261719 112.050781 51.742188 102.441406 51.863281 99.398438 L 55.507812 98.351562 C 55.734375 99.863281 55.71875 101.398438 55.457031 102.902344 Z M 55.457031 102.902344 "/>
<path style=" stroke:none;fill-rule:nonzero;fill:rgb(16.078431%,67.058824%,88.627451%);fill-opacity:1;" d="M 101.992188 104.976562 L 101.449219 101.808594 L 101.441406 101.808594 L 98.785156 86.457031 L 95.613281 87.175781 L 98.261719 102.300781 L 93.78125 102.996094 L 94.332031 106.207031 L 98.820312 105.484375 L 98.828125 105.535156 L 101.992188 104.988281 L 101.988281 104.976562 Z M 101.992188 104.976562 "/>
<path style=" stroke:none;fill-rule:nonzero;fill:rgb(16.078431%,67.058824%,88.627451%);fill-opacity:1;" d="M 203.953125 54.898438 L 201.015625 87.90625 L 195.839844 88.796875 L 198.550781 58.285156 L 203.714844 57.398438 Z M 203.953125 54.898438 "/>
<path style=" stroke:none;fill-rule:nonzero;fill:rgb(16.078431%,67.058824%,88.627451%);fill-opacity:1;" d="M 190.605469 89.691406 L 191.160156 85.457031 L 201.375 83.851562 L 201.015625 87.90625 Z M 190.605469 89.691406 "/>
<path style="fill:none;stroke-width:2;stroke-linecap:butt;stroke-linejoin:miter;stroke:rgb(100%,100%,100%);stroke-opacity:1;stroke-miterlimit:10;" d="M 617.435251 178.403602 L 708.293634 132.974438 L 632.562862 87.545275 " transform="matrix(0.252797,0,0,0.253571,0,0.0275947)"/>
<path style="fill:none;stroke-width:2;stroke-linecap:butt;stroke-linejoin:miter;stroke:rgb(100%,100%,100%);stroke-opacity:1;stroke-miterlimit:10;" d="M 828.433758 22.212932 C 797.436833 2.094082 747.526531 -7.919128 697.168118 11.306235 C 647.999516 30.06945 622.163595 67.133732 622.163595 67.133732 L 648.849382 83.000818 C 648.849382 83.000818 659.32591 62.219556 685.996245 50.09587 " transform="matrix(0.252797,0,0,0.253571,0,0.0275947)"/>
</g>
</svg>
