<svg xmlns="http://www.w3.org/2000/svg" viewBox="0 0 909.82 567.67"><defs><style>.cls-1{fill:#e90e8b;}.cls-2{fill:#29abe2;}.cls-3{fill:#fff;}.cls-4{fill:#fcee1f;}.cls-5{fill:none;stroke:#fff;stroke-miterlimit:10;stroke-width:2px;}</style></defs><g id="Layer_2" data-name="Layer 2"><g id="Layer_3" data-name="Layer 3"><polygon class="cls-1" points="820.04 174.04 811.85 158.03 810.32 175.72 777.69 181.33 770.31 289.64 725.66 190.28 682.22 197.75 675.46 305.75 632.4 206.32 580.33 215.28 659.23 387.32 707.71 378.98 714.42 275.43 756.74 370.55 803.23 362.55 815.63 223.56 815.63 223.56 820.04 174.04"/><polygon class="cls-1" points="380.63 249.62 372.44 233.61 375.35 250.53 325.29 259.14 336.69 325.44 294.43 332.71 283.02 266.41 274.83 250.4 277.74 267.32 227.68 275.93 255.78 439.29 250.5 440.2 258.69 456.21 314.03 446.69 301.97 376.56 344.23 369.29 353.38 422.5 348.11 423.41 356.3 439.43 411.63 429.91 380.63 249.62"/><path class="cls-1" d="M227.49,401.3q-3-17.32-14.28-28.51a50.4,50.4,0,0,0-25.81-14.11q-14.52-2.93-48.06-4.2-12.18-.48-16.75-2.55a9,9,0,0,1-5.44-7.09q-1.94-11.22,16.16-14.33,21.8-3.75,32,13.12l43.45-21.76-8.19-16-3.14,1.57q-25-24.85-69.06-17.28-36.31,6.24-52.76,26.48T63.59,362.37A50.06,50.06,0,0,0,83,394.53q16,12.36,65,13.28,12.84.38,18.22,2.78a10.43,10.43,0,0,1,6.38,8.22q1.91,11.08-19,14.68-26.82,4.62-37-16.07L66.79,435.5q24.9,52.29,90.81,40.95,36.06-6.19,55.33-27T227.49,401.3Z"/><path class="cls-1" d="M521.34,413.89q-38,6.54-66.35-14.56T419.41,336q-7-40.43,11.43-70.71T489.9,228q37.65-6.48,65.62,14.28t35.11,62.22Q598,347.4,578.57,377.4T521.34,413.89ZM514,373q14-2.4,18-15.68t-1.55-45.76q-8.09-47-33.31-42.68-27.21,4.68-18,58.3Q487.89,377.5,514,373Z"/><path class="cls-2" d="M905.68,163A150.57,150.57,0,0,1,893,223.73H858.26a120.32,120.32,0,1,0-210.21-117l40.78,25.71-54.72,28.82L603.84,177.2l-16.18,8.53,4.42-114.28,29.73,18.74A151.27,151.27,0,0,1,905.68,163Z"/><polygon class="cls-1" points="592.11 71.57 587.66 186.56 689.47 132.92 592.11 71.57"/><g id="THE"><path class="cls-2" d="M193.21,201.21l1.5,43.09-18.12,3.11-1.5-43.09-13.35,2.3-.43-12.82L206.49,186l.48,12.81Z"/><path class="cls-2" d="M266.8,209.34l-16.19,2.79.8,22.41-18.12,3.12-2-55.74,18.12-3.12.73,20.5,16.19-2.78-.73-20.5,18.12-3.12,2,55.74-18.11,3.12Z"/><path class="cls-2" d="M360.81,202.83l.44,12.82-46,7.91-2-55.74,44.83-7.71.44,12.21-26.76,4.6.32,8.74,22.49-3.87.4,12.09-22.44,3.86.37,9.88Z"/><polygon class="cls-1" points="2.99 247.98 0 236.81 24.45 231.91 27.44 243.08 2.99 247.98"/><polygon class="cls-2" points="13.67 239.61 10.81 228.42 118.84 207.79 121.7 218.98 13.67 239.61"/><polygon class="cls-3" points="91.39 232.82 90.81 230.59 134.56 222.01 135.14 224.25 91.39 232.82"/><polygon class="cls-1" points="526.83 155.46 524.22 144.23 499.61 148.5 502.22 159.74 526.83 155.46"/><polygon class="cls-2" points="513.11 151.66 510.36 140.45 402.13 160.26 404.88 171.47 513.11 151.66"/><polygon class="cls-3" points="439.08 173.25 438.55 171 394.61 178.82 395.15 181.07 439.08 173.25"/></g><path class="cls-4" d="M908.47,165.76A151.13,151.13,0,0,1,834.13,296l3.08-13.85A143.66,143.66,0,0,0,858.8,72.9L871,66.12A150.71,150.71,0,0,1,908.47,165.76Z"/><path class="cls-3" d="M58.6,419.49l49.79-18.08q10.22,20.67,37,16.07,20.87-3.6,19-14.69a10.45,10.45,0,0,0-6.38-8.22q-5.37-2.4-18.22-2.77-49-.93-65-13.28a50,50,0,0,1-19.4-32.17q-4.39-25.49,12-45.73t52.76-26.49q55.08-9.47,80.39,31.73l-43.45,21.75q-10.24-16.86-32-13.12Q107,317.61,109,328.83a9,9,0,0,0,5.44,7.09q4.56,2.07,16.75,2.55,33.56,1.27,48.06,4.2A50.29,50.29,0,0,1,205,356.78q11.29,11.19,14.28,28.5,4.69,27.36-14.56,48.16t-55.33,27Q83.5,471.78,58.6,419.49Z"/><path class="cls-3" d="M372.44,233.61l31,180.28-55.34,9.52L336,353.28l-42.26,7.27,12.06,70.13L250.5,440.2l-31-180.29,55.34-9.51,11.41,66.3,42.26-7.27-11.4-66.3Z"/><path class="cls-3" d="M513.15,397.88q-38,6.54-66.35-14.56T411.22,320q-6.95-40.43,11.43-70.71T481.71,212q37.65-6.48,65.63,14.27t35.11,62.23q7.38,42.93-12.07,72.92T513.15,397.88ZM505.84,357q14-2.42,18-15.68t-1.54-45.76q-8.1-47-33.32-42.69-27.21,4.69-18,58.31Q479.7,361.47,505.84,357Z"/><path class="cls-3" d="M811.85,158,795,346.54l-46.49,8-42.32-95.11L699.52,363,651,371.3l-78.9-172,52.07-9,43.06,99.43,6.76-108,43.44-7.48,44.65,99.36,7.38-108.31Z"/><path class="cls-4" d="M323.35,515.85l9.25,16.72L318.23,535l-7.89-15.24-5.75,1,.52,16.49-13.85,2.34-1.42-43.37,21.21-3.58q8.64-1.47,13.55,1.11a11.73,11.73,0,0,1,6.18,8.2Q332.84,510.93,323.35,515.85Zm-19.05-4.16,5.47-.92q7.86-1.33,6.82-5.95-.87-3.87-7.49-2.76l-5.08.86Z"/><path class="cls-4" d="M377,515l.31,10-35.79,6.05-1.42-43.37,34.9-5.9.31,9.5-20.83,3.52.23,6.8,17.51-3,.28,9.41L355,511l.27,7.69Z"/><path class="cls-4" d="M385,523.71l-1.42-43.37L403.67,477a39.83,39.83,0,0,1,9.16-.67,12.36,12.36,0,0,1,6.64,2.47,9.64,9.64,0,0,1,3.75,5.73,8.48,8.48,0,0,1-1.33,7,13.86,13.86,0,0,1-6.72,4.89q8.56,1.08,10.08,7.79a11.28,11.28,0,0,1-1.88,9.23q-3,4.33-11.88,5.84Zm13.19-29.19,5.56-.94q6.68-1.12,5.8-4.94c-.5-2.24-2.52-3.06-6-2.47l-5.56.94Zm.57,17.22,7.26-1.23q3.38-.57,4.38-2a3.54,3.54,0,0,0,.67-2.89A3.78,3.78,0,0,0,409,503a7,7,0,0,0-4.43-.38l-6.09,1Z"/><path class="cls-4" d="M457.11,512.65a25.13,25.13,0,0,1-16.05-2.35q-7.44-3.81-9.51-12.92a24.37,24.37,0,0,1,3-19.12q5.42-8.56,16.83-10.49,9.15-1.54,16.19,2.62a18.65,18.65,0,0,1,8.93,12.5q2.42,10.64-2.87,19.25T457.11,512.65Zm-2.12-9.8a6.25,6.25,0,0,0,5.1-3.72,21.69,21.69,0,0,0,1.27-8.6,43,43,0,0,0-.5-7.4,7,7,0,0,0-2.83-4.6,6.72,6.72,0,0,0-4.95-.89q-5.44.93-6.16,7.85a37.29,37.29,0,0,0,.42,12Q448.8,503.9,455,502.85Z"/><path class="cls-4" d="M509,503.89a25.11,25.11,0,0,1-16-2.36q-7.44-3.81-9.51-12.91a24.36,24.36,0,0,1,3-19.12q5.42-8.56,16.83-10.5,9.15-1.54,16.18,2.62a18.66,18.66,0,0,1,8.94,12.5q2.42,10.65-2.87,19.26T509,503.89Zm-2.11-9.81a6.25,6.25,0,0,0,5.11-3.72,21.86,21.86,0,0,0,1.26-8.6,42.81,42.81,0,0,0-.5-7.39,7.05,7.05,0,0,0-2.83-4.6,6.72,6.72,0,0,0-5-.89q-5.44.92-6.16,7.85a37.31,37.31,0,0,0,.42,12Q500.69,495.14,506.87,494.08Z"/><path class="cls-4" d="M556.23,461.08l1.07,33.53L543.19,497l-1.07-33.53-10.39,1.76-.3-10,35.16-5.94.34,10Z"/><path class="cls-4" d="M610.06,475.66l.31,10-35.79,6.05-1.42-43.37,34.9-5.9.31,9.5-20.84,3.52.24,6.8,17.5-3,.29,9.41-17.47,2.95.26,7.69Z"/><path class="cls-4" d="M618.13,484.33,616.71,441l16.19-2.74a50.74,50.74,0,0,1,9.68-.87,19.49,19.49,0,0,1,7.79,2,17.34,17.34,0,0,1,6.58,5.39,21.89,21.89,0,0,1,3.7,8.31,23.12,23.12,0,0,1-.14,11.62,20.19,20.19,0,0,1-5.27,9.05,20.41,20.41,0,0,1-7.78,5,83.21,83.21,0,0,1-11.58,2.61Zm14.22-12.18,3.27-.55q5.14-.87,7.31-2.55a9.71,9.71,0,0,0,3.17-5.4,17.83,17.83,0,0,0-.1-8.55q-2.1-9.28-10.25-7.9l-4.2.71Z"/><polygon class="cls-2" points="34.3 567.67 29.71 550.36 67.62 542.88 72.2 560.2 34.3 567.67"/><polygon class="cls-1" points="50.87 554.76 46.5 537.41 213.94 505.94 218.32 523.3 50.87 554.76"/><polygon class="cls-3" points="171.31 544.59 170.41 541.13 238.22 528.05 239.12 531.51 171.31 544.59"/><polygon class="cls-2" points="909.82 417.46 905.83 400.04 867.69 406.55 871.69 423.97 909.82 417.46"/><polygon class="cls-1" points="888.59 411.51 884.39 394.12 716.63 424.31 720.83 441.7 888.59 411.51"/><polygon class="cls-3" points="773.81 444.6 773 441.13 704.9 453.04 705.72 456.52 773.81 444.6"/><path class="cls-2" d="M570.36,361.89q-19.46,30-57.22,36.5c-.59.1-1.18.2-1.77.28l-2.68-11.37q31-8.28,48-34.5,19.44-30,12.07-72.92c-.19-1.05-.37-2.07-.57-3.08l11.12-1.67A134.66,134.66,0,0,1,582.43,289Q589.8,331.91,570.36,361.89Z"/><path class="cls-2" d="M219.38,405.71c-6.93,32.65-37.27,46.55-55.66,52.07-1.21.37-2.39.69-3.5,1l-2.07.52c-2.83.66-5.74,1.26-8.75,1.77l-4.19-14.19c53.61-5.1,59.47-43,59.95-55l14.41-4.12A56.12,56.12,0,0,1,219.38,405.71Z"/><polygon class="cls-2" points="403.45 413.89 401.3 401.39 401.27 401.39 390.77 340.85 378.22 343.69 388.7 403.33 370.97 406.07 373.15 418.73 390.91 415.89 390.94 416.08 403.45 413.93 403.44 413.89 403.45 413.89"/><polygon class="cls-2" points="806.78 216.39 795.17 346.56 774.69 350.07 785.41 229.75 805.84 226.25 806.78 216.39"/><polygon class="cls-2" points="753.98 353.6 756.18 336.9 796.59 330.58 795.17 346.56 753.98 353.6"/><polyline class="cls-5" points="617.43 178.4 708.29 132.97 632.57 87.54"/><path class="cls-5" d="M828.44,22.21c-31-20.12-80.92-30.13-131.27-10.91-49.17,18.77-75,55.83-75,55.83L648.85,83S659.32,62.22,686,50.1"/></g></g></svg>
