<svg xmlns="http://www.w3.org/2000/svg" xmlns:xlink="http://www.w3.org/1999/xlink" viewBox="0 0 512.85 339.51"><defs><style>.cls-1{stroke:#fff200;stroke-miterlimit:10;stroke-width:5px;fill:url(#radial-gradient);}</style><radialGradient id="radial-gradient" cx="263.77" cy="243.89" r="217.92" gradientTransform="translate(212.5 -186.8) rotate(40.22)" gradientUnits="userSpaceOnUse"><stop offset="0" stop-color="#30302f"/><stop offset="0" stop-color="#292827"/><stop offset="0" stop-color="#221f1f"/></radialGradient></defs><g id="Layer_2" data-name="Layer 2"><g id="Layer_8" data-name="Layer 8"><path class="cls-1" d="M464.77,117.88c-62.43-45.29-144-14.7-194.5,13.09C241.16,65,190.38-15.51,96.22,6.07-23,33.41-16.06,175.09,48.08,221.64c62.43,45.28,144,14.68,194.51-13.09,29.11,65.93,79.89,146.47,174,124.88C535.88,306.1,528.91,164.42,464.77,117.88ZM74.29,185.31C33.34,155.6,28.9,65.16,105,47.71s107.77,69.52,123.24,109.87c0,0,0,.08,0,.11s-1.69,1.33-4.76,3.54C203.94,175.22,128,224.28,74.29,185.31Zm331.8,106.74C330.53,309.37,298.73,223.67,283.15,183c-.12-.31-.23-.61-.35-.9,0,0,2.23-1.77,6.23-4.58,21.66-15.2,95.32-61.1,147.78-23.05C477.76,184.16,482.21,274.6,406.09,292.05Z"/></g></g></svg>