<svg xmlns="http://www.w3.org/2000/svg" xmlns:xlink="http://www.w3.org/1999/xlink" viewBox="0 0 639.26 437.88"><defs><style>.cls-1{fill:none;stroke:#fcee1f;}.cls-1,.cls-3,.cls-4,.cls-5{stroke-miterlimit:10;stroke-width:5px;}.cls-2{fill:#fcee1f;}.cls-3,.cls-4,.cls-5{stroke:#fff200;}.cls-3{fill:url(#radial-gradient);}.cls-4{fill:url(#radial-gradient-2);}.cls-5{fill:url(#radial-gradient-3);}</style><radialGradient id="radial-gradient" cx="565.77" cy="46.81" r="63.33" gradientTransform="translate(-16.17 -8.68) rotate(6.42)" gradientUnits="userSpaceOnUse"><stop offset="0" stop-color="#30302f"/><stop offset="0" stop-color="#292827"/><stop offset="0" stop-color="#221f1f"/></radialGradient><radialGradient id="radial-gradient-2" cx="425.71" cy="206.98" r="151.22" xlink:href="#radial-gradient"/><radialGradient id="radial-gradient-3" cx="588.77" cy="12.78" r="68.53" xlink:href="#radial-gradient"/></defs><g id="Layer_2" data-name="Layer 2"><g id="Layer_8" data-name="Layer 8"><path class="cls-1" d="M2,308.31a121.68,121.68,0,0,1,47.32-39.52c16.23-7.6,37.93-10.5,50.12,2.65,12.51,13.49,7.47,35.13.25,52.05-6.79,15.9-14.91,31.45-18.28,48.41S80.24,408,92,420.73c10.07,10.94,25.79,15.41,40.63,14.55s29-6.48,42.28-13.14c24.86-12.44,38.89-23.41,58.73-42.88"/><path class="cls-2" d="M252.46,390.91a10.29,10.29,0,0,1-2.18,3l-5.63,5.42a10.32,10.32,0,0,1-14.59-.29l-13.53-14.09a10.3,10.3,0,0,1,.29-14.58l5.63-5.41a10.15,10.15,0,0,1,3.69-2.28A53.19,53.19,0,0,0,252.46,390.91Z"/><path class="cls-3" d="M602.4,148.4A80.14,80.14,0,0,1,492,35.21,148,148,0,0,0,602.4,148.4Z"/><path class="cls-4" d="M471.13,94.91,288.41,285.12l-3.17,3.3-57.63,60A54.26,54.26,0,0,0,232,362.36,53.33,53.33,0,0,0,253.44,386a51.23,51.23,0,0,0,10.9,4.74l63.24-51.82,4.65-3.8L536.85,167.46A80.66,80.66,0,0,1,471.13,94.91ZM412.62,244.32,349,259.17l42-23.08-12.51-12.42,47.39-19.57,14.56,14.81-41.1,12.32Z"/><polygon class="cls-2" points="399.3 231.23 412.62 244.32 348.96 259.17 390.96 236.09 378.45 223.67 425.84 204.1 440.4 218.91 399.3 231.23"/><path class="cls-5" d="M636.25,91.59a79.77,79.77,0,0,1-25.13,49.79A148,148,0,0,1,501.34,24.65,80.12,80.12,0,0,1,636.25,91.59Z"/></g></g></svg>