<svg id="svg" version="1.1" xmlns="http://www.w3.org/2000/svg" xmlns:xlink="http://www.w3.org/1999/xlink" width="400" height="400" viewBox="0, 0, 400,400"><g id="svgg"><path id="path0" d="M190.800 26.104 C 190.360 26.379,188.727 27.909,187.171 29.503 C 181.382 35.433,175.293 40.292,169.959 43.239 C 158.685 49.467,152.064 58.062,150.664 68.286 C 150.294 70.990,150.392 70.872,149.295 69.936 C 144.039 65.448,137.523 63.327,129.067 63.351 C 123.810 63.366,123.687 63.385,116.400 65.305 C 110.365 66.896,105.282 67.472,96.178 67.598 C 87.301 67.722,87.883 67.145,87.837 75.867 C 87.784 86.086,87.288 89.535,84.216 101.067 C 81.986 109.435,84.157 120.731,89.395 128.024 L 90.849 130.048 88.507 130.360 C 78.889 131.641,69.451 138.565,64.341 148.090 C 60.903 154.495,56.096 160.593,49.163 167.343 L 45.867 170.552 45.867 171.879 L 45.867 173.205 50.341 177.736 C 56.411 183.881,61.761 190.778,64.199 195.600 C 69.055 205.201,79.303 212.566,89.425 213.732 L 90.984 213.911 90.463 214.489 C 83.998 221.648,81.606 235.018,84.921 245.456 C 86.970 251.907,88.300 263.775,87.819 271.322 C 87.526 275.923,88.009 276.266,94.793 276.269 C 105.466 276.274,110.142 276.883,120.196 279.577 C 126.617 281.298,129.318 280.879,129.770 278.092 C 130.145 275.780,128.815 274.656,125.067 274.118 C 123.820 273.939,121.712 273.461,120.382 273.055 C 114.637 271.301,107.263 270.203,99.533 269.950 C 94.560 269.788,94.400 269.765,94.390 269.225 C 94.384 268.918,94.330 267.767,94.269 266.667 C 94.208 265.567,94.088 263.167,94.002 261.333 C 93.718 255.300,92.752 249.420,91.197 244.267 C 87.562 232.212,90.576 221.747,99.831 214.298 C 102.974 211.768,103.497 210.916,102.921 209.264 C 102.345 207.612,101.071 206.833,99.333 207.071 C 87.957 208.632,79.742 205.673,73.042 197.600 C 71.786 196.087,71.344 195.400,69.867 192.667 C 66.629 186.674,62.383 181.014,56.438 174.762 C 55.024 173.274,53.867 171.985,53.867 171.898 C 53.867 171.810,55.116 170.447,56.642 168.869 C 62.713 162.594,66.445 157.537,70.493 150.101 C 71.503 148.245,74.324 144.601,75.631 143.464 C 82.104 137.830,88.604 135.706,96.826 136.538 C 100.525 136.913,101.343 136.815,102.272 135.886 C 103.884 134.274,103.255 132.061,100.695 130.340 C 92.161 124.601,87.699 112.691,90.366 102.770 C 92.317 95.512,92.829 93.248,93.315 89.723 C 93.889 85.569,94.329 79.392,94.290 76.067 L 94.267 74.133 95.333 74.126 C 104.375 74.062,114.157 72.773,120.484 70.812 C 132.027 67.232,142.740 70.511,150.199 79.905 C 152.622 82.958,153.398 83.365,155.275 82.570 C 157.203 81.754,157.332 81.232,156.898 76.000 C 155.961 64.672,160.749 55.890,171.084 49.986 C 177.698 46.207,180.192 44.468,185.594 39.867 C 186.111 39.427,187.813 37.824,189.378 36.304 C 191.360 34.378,192.330 33.607,192.578 33.760 C 192.773 33.880,194.193 35.202,195.733 36.696 C 200.480 41.303,205.359 45.112,210.000 47.835 C 211.467 48.695,213.768 50.045,215.114 50.833 C 224.413 56.284,229.175 66.390,227.756 77.662 C 227.028 83.442,230.763 84.946,234.222 80.267 C 241.286 70.713,252.679 67.147,264.355 70.835 C 270.030 72.627,275.643 73.505,284.067 73.917 L 290.400 74.227 290.401 76.113 C 290.404 79.609,290.950 86.774,291.491 90.400 C 291.979 93.667,292.495 95.907,294.136 101.867 C 297.015 112.326,293.167 123.383,284.317 130.080 C 281.598 132.138,281.000 133.549,282.091 135.333 C 282.996 136.815,283.565 136.940,287.613 136.552 C 300.033 135.360,308.951 140.371,315.342 152.133 C 317.486 156.078,320.422 160.210,324.239 164.651 C 326.604 167.402,327.071 167.913,329.548 170.458 L 331.033 171.983 328.379 174.725 C 322.377 180.926,318.321 186.326,314.803 192.800 C 308.844 203.767,298.608 208.975,286.503 207.200 C 283.297 206.730,281.733 207.692,281.733 210.133 C 281.733 211.650,281.947 211.926,284.937 214.261 C 291.563 219.438,294.992 226.428,295.012 234.800 C 295.021 238.571,294.817 239.850,293.445 244.616 C 291.649 250.854,290.810 256.641,290.502 264.913 L 290.318 269.867 287.626 269.875 C 279.944 269.899,272.104 270.924,265.260 272.801 C 263.094 273.395,260.101 274.053,258.611 274.262 C 255.439 274.707,254.460 275.369,254.233 277.225 C 253.770 281.002,257.835 281.610,266.499 279.060 C 272.879 277.182,280.381 276.267,289.394 276.267 C 297.306 276.267,296.847 276.810,296.929 267.344 C 297.008 258.177,297.699 252.824,299.703 245.863 C 302.914 234.712,301.390 224.323,295.298 215.830 L 293.930 213.922 295.832 213.639 C 306.166 212.099,315.555 205.194,320.625 195.403 C 323.137 190.553,326.997 185.398,332.116 180.060 C 333.140 178.993,334.043 178.033,334.124 177.927 C 334.204 177.820,335.170 176.893,336.269 175.867 C 340.179 172.213,340.129 171.862,334.960 166.724 C 330.345 162.138,326.753 157.944,323.946 153.867 C 322.697 152.053,320.000 147.562,320.000 147.297 C 320.000 147.212,319.201 145.986,318.224 144.571 C 312.953 136.942,304.549 131.498,296.267 130.349 C 295.020 130.176,293.965 130.012,293.922 129.984 C 293.879 129.956,294.479 129.088,295.255 128.055 C 301.208 120.136,302.891 109.377,299.857 98.633 C 297.686 90.944,297.053 86.230,296.925 76.800 C 296.874 73.060,296.825 69.849,296.816 69.664 C 296.807 69.480,296.449 68.961,296.019 68.511 L 295.238 67.694 288.086 67.604 C 278.712 67.486,271.296 66.530,266.234 64.789 C 256.367 61.393,242.671 63.650,235.467 69.859 C 234.953 70.302,234.508 70.574,234.476 70.465 C 234.445 70.356,234.179 69.067,233.884 67.600 C 231.832 57.367,225.597 49.043,216.267 44.077 C 209.948 40.715,204.142 36.207,197.600 29.586 C 193.362 25.297,192.660 24.938,190.800 26.104 M187.867 85.252 C 144.891 88.348,111.758 118.961,106.101 160.800 C 104.259 174.424,106.641 193.573,111.460 203.867 C 111.597 204.160,112.027 205.180,112.416 206.133 C 116.788 216.863,129.497 234.400,132.900 234.400 C 136.979 234.400,137.563 231.111,134.117 227.544 C 103.898 196.268,104.431 146.156,135.311 115.316 C 173.513 77.164,236.117 85.999,262.994 133.333 C 264.730 136.391,264.931 136.801,266.780 141.039 C 278.811 168.625,272.813 203.576,252.230 225.821 C 248.364 229.999,248.533 229.757,248.533 231.082 C 248.533 234.179,251.963 235.256,254.294 232.891 C 290.064 196.608,287.118 138.080,247.867 105.182 C 231.631 91.574,208.190 83.788,187.867 85.252 M186.533 113.760 C 186.093 113.821,184.773 113.996,183.600 114.150 C 177.151 114.997,168.594 117.992,162.627 121.490 C 128.849 141.293,122.955 187.128,150.645 214.670 C 156.757 220.750,159.114 222.115,161.250 220.813 C 163.856 219.224,163.259 217.010,159.412 214.000 C 151.974 208.182,146.108 199.968,142.459 190.267 C 129.910 156.894,155.992 119.978,192.133 119.960 C 241.569 119.935,264.193 181.794,226.267 213.289 C 222.873 216.107,222.371 217.072,223.332 218.930 C 224.946 222.052,227.754 220.989,233.898 214.933 C 268.452 180.877,250.164 123.149,202.000 114.243 C 199.707 113.819,188.621 113.473,186.533 113.760 M190.180 128.550 C 180.542 129.821,173.814 140.239,176.904 149.106 L 177.336 150.345 174.721 152.973 C 161.002 166.755,160.780 191.052,174.246 204.933 L 176.574 207.333 176.429 209.600 C 175.948 217.098,172.055 221.322,163.424 223.712 C 144.733 228.886,138.434 233.501,135.267 244.341 L 134.549 246.800 134.460 272.933 C 134.353 304.088,134.376 304.346,137.743 310.284 C 140.597 315.316,142.877 317.329,152.133 322.988 C 161.525 328.729,169.827 333.829,171.600 334.945 C 177.584 338.713,186.688 338.688,191.513 334.891 C 192.053 334.467,192.562 334.231,192.646 334.367 C 194.131 336.769,200.992 338.351,206.047 337.457 C 210.226 336.719,210.705 336.475,223.600 328.530 C 226.387 326.813,231.181 323.862,234.255 321.972 C 244.655 315.578,248.981 309.868,250.130 301.023 C 250.574 297.603,250.469 250.209,250.011 247.200 C 248.252 235.648,241.583 229.663,225.067 224.818 C 215.489 222.008,214.528 221.559,211.993 218.715 C 209.701 216.143,208.575 213.360,208.345 209.698 L 208.192 207.262 210.252 205.189 C 223.935 191.417,223.779 166.525,209.926 152.862 L 207.420 150.391 207.858 149.129 C 209.305 144.958,208.388 139.305,205.597 135.195 C 204.681 133.847,204.040 133.187,202.170 131.668 C 199.240 129.288,194.307 128.005,190.180 128.550 M195.304 135.210 C 200.878 136.932,204.143 144.705,201.069 148.933 C 199.472 151.130,199.871 153.132,202.222 154.722 C 220.637 167.170,216.334 202.030,195.861 206.259 C 172.260 211.134,160.921 170.379,181.698 155.348 C 185.085 152.898,185.258 152.394,183.800 149.233 C 179.993 140.984,186.867 132.604,195.304 135.210 M189.874 212.840 C 193.105 213.207,195.952 212.919,199.458 211.869 C 202.203 211.048,202.133 211.047,202.133 211.895 C 202.133 214.303,204.445 219.620,206.683 222.359 C 209.674 226.020,213.290 228.110,219.600 229.825 C 235.526 234.154,240.897 237.812,243.367 246.015 C 243.944 247.931,244.277 297.134,243.737 300.625 C 242.749 307.001,239.131 311.639,231.600 316.178 C 230.133 317.062,227.313 318.781,225.333 319.999 C 221.183 322.551,214.605 326.576,210.930 328.813 C 204.480 332.738,197.981 332.253,195.391 327.653 C 193.816 324.857,191.125 324.949,189.188 327.866 C 186.107 332.509,180.124 332.687,173.043 328.347 C 171.223 327.231,167.873 325.177,165.600 323.782 C 163.327 322.387,159.607 320.108,157.333 318.717 C 155.060 317.325,152.120 315.523,150.800 314.710 C 146.459 312.040,143.312 308.176,141.643 303.469 L 140.933 301.467 140.859 275.088 C 140.776 245.625,140.709 246.816,142.667 242.839 C 145.683 236.714,150.961 233.655,165.067 229.859 C 175.321 227.099,182.667 219.520,182.667 211.700 L 182.667 211.034 184.899 211.781 C 186.126 212.192,188.365 212.668,189.874 212.840 M153.391 264.416 C 151.636 265.646,151.647 266.929,153.448 270.701 C 157.981 280.195,160.144 292.154,160.407 309.168 C 160.530 317.111,160.572 317.309,162.279 318.022 C 163.878 318.690,165.554 318.144,166.343 316.697 C 168.016 313.631,166.029 289.187,163.296 279.200 C 159.988 267.115,156.651 262.133,153.391 264.416 M227.625 264.561 C 224.919 266.690,220.545 280.356,219.098 291.200 C 217.872 300.391,217.525 315.433,218.506 316.880 C 219.617 318.519,221.715 318.778,223.347 317.478 L 224.133 316.851 224.308 308.626 C 224.664 291.785,226.759 280.392,231.232 270.962 C 232.943 267.355,233.008 267.053,232.364 265.695 C 231.570 264.022,229.071 263.424,227.625 264.561 M142.143 324.698 C 112.023 330.127,95.856 344.539,102.632 359.918 C 104.738 364.698,108.764 368.162,113.869 369.586 C 129.251 373.878,153.186 372.862,183.344 366.637 C 187.005 365.881,190.600 365.148,191.333 365.008 C 192.498 364.786,193.360 364.906,198.133 365.956 C 228.518 372.637,253.926 373.962,270.368 369.723 C 279.298 367.421,284.919 358.943,283.358 350.133 C 281.319 338.635,265.025 328.511,242.364 324.663 C 236.778 323.714,235.986 323.833,235.073 325.757 C 233.885 328.261,235.401 330.132,238.930 330.518 C 254.908 332.267,273.195 341.221,276.386 348.858 C 278.781 354.590,275.640 361.395,269.733 363.272 C 257.575 367.134,235.202 366.549,209.247 361.689 L 205.561 360.999 207.605 360.072 C 215.969 356.279,222.874 350.541,222.594 347.616 C 222.254 344.048,219.268 343.763,215.980 346.983 C 210.562 352.289,203.292 355.769,192.667 358.142 C 179.313 361.125,173.477 362.233,163.235 363.731 C 142.489 366.764,121.473 366.328,113.725 362.702 C 108.238 360.134,105.972 353.585,108.704 348.193 C 112.507 340.688,130.412 332.212,146.050 330.514 C 150.103 330.074,151.558 326.534,148.541 324.454 C 147.683 323.863,146.529 323.907,142.143 324.698 " stroke="none" fill="#ec0c8c" fill-rule="evenodd"></path><path id="path1" d="M254.667 111.550 C 254.667 111.596,255.057 111.986,255.533 112.417 L 256.400 113.200 255.617 112.333 C 254.887 111.525,254.667 111.344,254.667 111.550 M97.467 127.733 C 98.040 128.320,98.568 128.800,98.642 128.800 C 98.715 128.800,98.306 128.320,97.733 127.733 C 97.160 127.147,96.632 126.667,96.558 126.667 C 96.485 126.667,96.894 127.147,97.467 127.733 M242.783 315.800 L 242.000 316.667 242.867 315.883 C 243.343 315.453,243.733 315.063,243.733 315.017 C 243.733 314.811,243.513 314.992,242.783 315.800 " stroke="none" fill="#f00c8c" fill-rule="evenodd"></path><path id="path2" d="M254.667 111.550 C 254.667 111.596,255.057 111.986,255.533 112.417 L 256.400 113.200 255.617 112.333 C 254.887 111.525,254.667 111.344,254.667 111.550 M97.467 127.733 C 98.040 128.320,98.568 128.800,98.642 128.800 C 98.715 128.800,98.306 128.320,97.733 127.733 C 97.160 127.147,96.632 126.667,96.558 126.667 C 96.485 126.667,96.894 127.147,97.467 127.733 M242.783 315.800 L 242.000 316.667 242.867 315.883 C 243.343 315.453,243.733 315.063,243.733 315.017 C 243.733 314.811,243.513 314.992,242.783 315.800 " stroke="none" fill="#f00c8c" fill-rule="evenodd"></path><path id="path3" d="M254.667 111.550 C 254.667 111.596,255.057 111.986,255.533 112.417 L 256.400 113.200 255.617 112.333 C 254.887 111.525,254.667 111.344,254.667 111.550 M97.467 127.733 C 98.040 128.320,98.568 128.800,98.642 128.800 C 98.715 128.800,98.306 128.320,97.733 127.733 C 97.160 127.147,96.632 126.667,96.558 126.667 C 96.485 126.667,96.894 127.147,97.467 127.733 M242.783 315.800 L 242.000 316.667 242.867 315.883 C 243.343 315.453,243.733 315.063,243.733 315.017 C 243.733 314.811,243.513 314.992,242.783 315.800 " stroke="none" fill="#f00c8c" fill-rule="evenodd"></path><path id="path4" d="M254.667 111.550 C 254.667 111.596,255.057 111.986,255.533 112.417 L 256.400 113.200 255.617 112.333 C 254.887 111.525,254.667 111.344,254.667 111.550 M97.467 127.733 C 98.040 128.320,98.568 128.800,98.642 128.800 C 98.715 128.800,98.306 128.320,97.733 127.733 C 97.160 127.147,96.632 126.667,96.558 126.667 C 96.485 126.667,96.894 127.147,97.467 127.733 M242.783 315.800 L 242.000 316.667 242.867 315.883 C 243.343 315.453,243.733 315.063,243.733 315.017 C 243.733 314.811,243.513 314.992,242.783 315.800 " stroke="none" fill="#f00c8c" fill-rule="evenodd"></path></g></svg>
