<svg xmlns="http://www.w3.org/2000/svg" xmlns:xlink="http://www.w3.org/1999/xlink" viewBox="0 0 250.43 568.91"><defs><style>.cls-1{fill:#eae5e9;}.cls-2{fill:#121014;}.cls-10,.cls-21,.cls-3{fill:none;}.cls-3{stroke:#231f20;}.cls-10,.cls-16,.cls-17,.cls-18,.cls-19,.cls-21,.cls-3{stroke-miterlimit:10;}.cls-4{fill:#181619;}.cls-5{fill:#d2d2d1;}.cls-6{fill:#181317;}.cls-7{fill:#161419;}.cls-8{fill:#e90e8b;}.cls-9{fill:#ccccc7;}.cls-10{stroke:url(#radial-gradient);}.cls-11{fill:#d3d3d1;}.cls-12{fill:#abaaab;}.cls-13{fill:#d8d6d4;}.cls-14{fill:#121212;}.cls-15{fill:#131313;}.cls-16{fill:#f6f6f8;stroke:url(#radial-gradient-3);}.cls-17{fill:#e0dfdd;stroke:url(#radial-gradient-4);}.cls-18{fill:#f7f2f5;stroke:url(#radial-gradient-5);}.cls-19{fill:#f7faf9;stroke:url(#radial-gradient-6);}.cls-20{fill:#b6b1ae;}.cls-21{stroke:#29abe2;stroke-width:5px;}</style><radialGradient id="radial-gradient" cx="158.18" cy="380.34" r="1.87" gradientUnits="userSpaceOnUse"><stop offset="0" stop-color="#30302f"/><stop offset="0" stop-color="#292827"/><stop offset="0" stop-color="#221f1f"/></radialGradient><radialGradient id="radial-gradient-3" cx="89.27" cy="116.2" r="20.17" xlink:href="#radial-gradient"/><radialGradient id="radial-gradient-4" cx="111.23" cy="117.61" r="15.8" xlink:href="#radial-gradient"/><radialGradient id="radial-gradient-5" cx="138.62" cy="127.53" r="16.11" xlink:href="#radial-gradient"/><radialGradient id="radial-gradient-6" cx="165.43" cy="126.49" r="13.72" xlink:href="#radial-gradient"/></defs><g id="Layer_2" data-name="Layer 2"><g id="Layer_7" data-name="Layer 7"><path class="cls-1" d="M125.22,0A125.23,125.23,0,0,0,94.63,246.66c.67,1.49,4,2.81,9,3.81v-4.75h43.27v4.75c5-1,8.29-2.32,9-3.81A125.23,125.23,0,0,0,125.22,0ZM20.52,121.78c0-11.07,9.93-20,22.18-20a24.67,24.67,0,0,1,3.67.28v39.55a23.4,23.4,0,0,1-3.67.28C30.45,141.84,20.52,132.87,20.52,121.78Zm102,82.74c-42,0-76.1-17-76.1-37.9a20.66,20.66,0,0,1,2.79-10.2A35.08,35.08,0,0,1,58.65,146a47.09,47.09,0,0,1-4.76-6.86,37.39,37.39,0,0,1-5-18.49,36.89,36.89,0,0,1,4-16.63,41.63,41.63,0,0,1,3.73-6.11,35.33,35.33,0,0,1-6.15-6.69,21.55,21.55,0,0,1-4.12-12.33C46.37,57.92,80.44,41,122.47,41s76.11,17,76.11,37.91a21.49,21.49,0,0,1-4.13,12.33A36,36,0,0,1,187,99a42.35,42.35,0,0,1,3.11,5.34A36.73,36.73,0,0,1,194,120.62a37.2,37.2,0,0,1-4.83,18.15A44.17,44.17,0,0,1,185,145a36.17,36.17,0,0,1,10.8,11.42,20.56,20.56,0,0,1,2.8,10.2C198.58,187.55,164.51,204.52,122.47,204.52Zm78.47-62.68a23.58,23.58,0,0,1-5.16-.55v-39a24.21,24.21,0,0,1,5.16-.55c12.25,0,22.18,9,22.18,20S213.19,141.84,200.94,141.84Z"/><path class="cls-2" d="M46.38,102v39.55a24.57,24.57,0,0,1-3.67.28c-12.25,0-22.18-9-22.18-20.06s9.93-20.05,22.18-20.05A23.31,23.31,0,0,1,46.38,102Z"/><path class="cls-3" d="M223.13,121.79c0,11.08-9.93,20.06-22.18,20.06a24,24,0,0,1-5.15-.55v-39a24,24,0,0,1,5.15-.55C213.2,101.74,223.13,110.71,223.13,121.79Z"/><path class="cls-4" d="M223.13,121.79c0,11.08-9.93,20.06-22.18,20.06a24,24,0,0,1-5.15-.55v-39a24,24,0,0,1,5.15-.55C213.2,101.74,223.13,110.71,223.13,121.79Z"/><path class="cls-5" d="M190.11,104.3A43.57,43.57,0,0,0,187,99a50,50,0,0,0-6.6-7.78c-13.17-12.77-34.67-21.08-58.95-21.08s-45.79,8.31-59,21.08a49.28,49.28,0,0,0-5.83,6.69A44.61,44.61,0,0,0,52.92,104a36.89,36.89,0,0,0-4,16.64,37.37,37.37,0,0,0,5,18.48A46.48,46.48,0,0,0,58.67,146a58.57,58.57,0,0,0,11.55,10.44c13.12,9.1,31.23,14.74,51.22,14.74s38.09-5.64,51.22-14.74A57.37,57.37,0,0,0,185,145a44.44,44.44,0,0,0,4.17-6.22,36.49,36.49,0,0,0,1-34.48ZM183,133.61a36.2,36.2,0,0,1-4.73,7.25c-5.24,6.35-12.85,11.71-22.06,15.56A89,89,0,0,1,122.08,163a89,89,0,0,1-34.17-6.54c-9-3.79-16.57-9-21.8-15.26a36.5,36.5,0,0,1-5.17-7.94,29.73,29.73,0,0,1-3-12.82,29.24,29.24,0,0,1,2.17-11,34,34,0,0,1,3.49-6.49A46.29,46.29,0,0,1,75.48,91.19c11.68-8.22,28.24-13.34,46.6-13.34S157,83,168.68,91.19a46.07,46.07,0,0,1,12.07,12,34.35,34.35,0,0,1,3.11,5.77,29.3,29.3,0,0,1,2.33,11.39A29.7,29.7,0,0,1,183,133.61Z"/><path class="cls-6" d="M198.59,78.86a21.53,21.53,0,0,1-4.12,12.33A36.6,36.6,0,0,1,187,99a50,50,0,0,0-6.6-7.78c-13.17-12.77-34.67-21.08-58.95-21.08s-45.79,8.31-59,21.08a49.28,49.28,0,0,0-5.83,6.69,35.33,35.33,0,0,1-6.15-6.69,21.53,21.53,0,0,1-4.12-12.33c0-20.93,34.07-37.9,76.11-37.9S198.59,57.93,198.59,78.86Z"/><path class="cls-7" d="M198.59,166.62c0,20.93-34.07,37.9-76.1,37.9s-76.11-17-76.11-37.9a20.69,20.69,0,0,1,2.79-10.2A34.84,34.84,0,0,1,58.67,146a58.57,58.57,0,0,0,11.55,10.44c13.12,9.1,31.23,14.74,51.22,14.74s38.09-5.64,51.22-14.74A57.37,57.37,0,0,0,185,145a36.21,36.21,0,0,1,10.81,11.42A20.69,20.69,0,0,1,198.59,166.62Z"/><path class="cls-7" d="M186.19,120.4A29.7,29.7,0,0,1,183,133.61a36.2,36.2,0,0,1-4.73,7.25c-5.24,6.35-12.85,11.71-22.06,15.56A89,89,0,0,1,122.08,163a89,89,0,0,1-34.17-6.54c-9-3.79-16.57-9-21.8-15.26a36.5,36.5,0,0,1-5.17-7.94,29.73,29.73,0,0,1-3-12.82,29.24,29.24,0,0,1,2.17-11,34,34,0,0,1,3.49-6.49A46.29,46.29,0,0,1,75.48,91.19c11.68-8.22,28.24-13.34,46.6-13.34S157,83,168.68,91.19a46.07,46.07,0,0,1,12.07,12,34.35,34.35,0,0,1,3.11,5.77A29.3,29.3,0,0,1,186.19,120.4Z"/><rect class="cls-8" x="115.8" y="21.01" width="14.18" height="5.09"/><path class="cls-9" d="M161.57,356.84v20.7l-2.81,3a1.07,1.07,0,0,0-.38-.88c-2.68-2.29-18.53,3.34-14.71,13.52.07.15.13.3.2.46a.09.09,0,0,0,0,.07l.79,1.84H105.06a14.17,14.17,0,0,0,.56-1.75c.21-.75.38-1.5.42-1.77a11.78,11.78,0,0,0-6.51-11.81c-3.69-1.78-5.85-1.84-7.4,0l-3.74-4.41v-19a117.14,117.14,0,0,0,15,3.05,157.82,157.82,0,0,0,43.27,0A117,117,0,0,0,161.57,356.84Z"/><path class="cls-10" d="M158.76,380.54l-.38-.88A1.07,1.07,0,0,1,158.76,380.54Z"/><path class="cls-11" d="M125,311a106.78,106.78,0,0,1-22-2.1l.34-.36V245.72h43.27v62.81l.33.36A106.78,106.78,0,0,1,125,311Z"/><path class="cls-9" d="M161.57,324.33v19.84a120.53,120.53,0,0,1-14.95,3.05,157.82,157.82,0,0,1-43.27,0,120.7,120.7,0,0,1-15-3.05V324.33l.42-.45c8.79,3.26,21.74,5.33,36.17,5.33s27.38-2.07,36.17-5.33Z"/><path class="cls-12" d="M161.57,344.17v12.67a117,117,0,0,1-14.95,3.05,157.82,157.82,0,0,1-43.27,0,117.14,117.14,0,0,1-15-3.05V344.17a120.7,120.7,0,0,0,15,3.05,157.82,157.82,0,0,0,43.27,0A120.53,120.53,0,0,0,161.57,344.17Z"/><path class="cls-13" d="M105.75,392.94a21.82,21.82,0,0,1-.69,2.61h0L37,536.18,20,528l68.4-141.25,1.87-3.85a9.43,9.43,0,0,1,1.87-2.6c2.75-2.72,6.15-.64,7.92.23C104.22,382.54,107,388.63,105.75,392.94Z"/><path class="cls-14" d="M38.47,548.4,33,559.81a16.12,16.12,0,0,1-29-14l5.53-11.41a16,16,0,0,1,7.88-7.66L39.6,537.47A16,16,0,0,1,38.47,548.4Z"/><path class="cls-15" d="M231.64,533l5,11.65A16.12,16.12,0,1,1,207,557.42l-5-11.65a16,16,0,0,1-.63-11L224.11,525A16,16,0,0,1,231.64,533Z"/><path class="cls-13" d="M221.4,526.19l-17.31,7.45-59.4-138.09-.79-1.84a.09.09,0,0,1,0-.07c-.07-.16-.13-.31-.2-.46-3.82-10.18,12-15.81,14.71-13.52l.38.88,2.81,6.55Z"/><path class="cls-10" d="M158.76,380.54l-.38-.88A1.07,1.07,0,0,1,158.76,380.54Z"/><path class="cls-16" d="M93.24,112.49s12.43-2.64,9.38-13.42-30.49,0-30.49,0v38.59c20,1.11,33.3,1.21,34.24-11.73S93.24,112.49,93.24,112.49ZM82.45,99.07s11.37-2.65,11.25,4.31c-.16,10.17-11.25,11-11.25,11Zm0,37.64V116.2s15.48-.36,15.25,7.18S82.45,136.71,82.45,136.71Z"/><polygon class="cls-17" points="106.42 101.74 118.33 97.31 118.33 138.12 109.89 138.12 110.59 101.74 106.42 101.74"/><path class="cls-18" d="M120.64,116.2h12.47s-4.46,29,7.5,18.17c.47-22.28,0-18.17,0-18.17h9.62v20.51l4.45,1.41H143.43l-1.64-1.41s-18.53,7.51-18.41-3.75,0-14.31,0-14.31Z"/><path class="cls-19" d="M170.05,114.33c-4.18-1.19-10.46.83-13.72,3.7-3.58,3.15-6,7.17-4.22,12.35,2.57,7.74,19.23,13.84,24.85,1.87-4.92,3.29-12,5.87-15.71,2.59-5.25-4.59.47-7.31.47-7.31s15,.24,17.35-4.79C180.53,119.63,175.45,115.87,170.05,114.33Zm-9.28,10.91v-7.52s12.31-2.27,12.13,2.69S160.77,125.24,160.77,125.24Z"/><path class="cls-3" d="M172.9,120.41c-.17,5-12.13,4.83-12.13,4.83v-7.52S173.08,115.45,172.9,120.41Z"/><path class="cls-3" d="M172.9,120.41c-.17,5-12.13,4.83-12.13,4.83v-7.52S173.08,115.45,172.9,120.41Z"/><path class="cls-20" d="M133.38,396.31V461a8.29,8.29,0,1,1-16.58,0V396.31a6.34,6.34,0,0,1,0-.76h16.5A6.34,6.34,0,0,1,133.38,396.31Z"/><path class="cls-15" d="M139.22,466.72c0,8.13-5.72,14.73-12.78,14.73s-12.78-6.6-12.78-14.73a16,16,0,0,1,3.14-9.67V461a8.29,8.29,0,1,0,16.58,0v-6.62A15.39,15.39,0,0,1,139.22,466.72Z"/><path class="cls-12" d="M161.15,323.88c-8.79,3.26-21.73,5.33-36.17,5.33s-27.38-2.07-36.17-5.33l10.62-11.21,3.58-3.78a106.78,106.78,0,0,0,22,2.1,106.78,106.78,0,0,0,22-2.1l3.59,3.78Z"/><path class="cls-21" d="M107.27,236.12c-50.81-7.07-96.59-50-96.59-111.56"/><line class="cls-21" x1="110.37" y1="253.01" x2="110.37" y2="303.6"/><line class="cls-21" x1="106.04" y1="312.9" x2="96.74" y2="323.43"/><line class="cls-21" x1="94.6" y1="330.27" x2="94.6" y2="374.53"/><line class="cls-21" x1="94.6" y1="383.96" x2="24.47" y2="528.37"/></g></g></svg>