<svg xmlns="http://www.w3.org/2000/svg" xmlns:xlink="http://www.w3.org/1999/xlink" viewBox="0 0 438.24 438.19"><defs><style>.cls-1{stroke:#fff200;fill:url(#radial-gradient);}.cls-1,.cls-2,.cls-3,.cls-4,.cls-5{stroke-miterlimit:10;}.cls-1,.cls-5{stroke-width:3px;}.cls-2,.cls-3,.cls-4,.cls-5{fill:#fcee1f;}.cls-2,.cls-3,.cls-4{stroke-width:2px;}.cls-2{stroke:url(#radial-gradient-2);}.cls-3{stroke:url(#radial-gradient-3);}.cls-4{stroke:url(#radial-gradient-4);}.cls-5{stroke:url(#radial-gradient-5);}</style><radialGradient id="radial-gradient" cx="205.46" cy="241.29" r="184.09" gradientUnits="userSpaceOnUse"><stop offset="0" stop-color="#30302f"/><stop offset="0" stop-color="#292827"/><stop offset="0" stop-color="#221f1f"/></radialGradient><radialGradient id="radial-gradient-2" cx="70.24" cy="239.99" r="38.08" xlink:href="#radial-gradient"/><radialGradient id="radial-gradient-3" cx="134.14" cy="176.28" r="37.43" xlink:href="#radial-gradient"/><radialGradient id="radial-gradient-4" cx="226.31" cy="139.31" r="40.67" xlink:href="#radial-gradient"/><radialGradient id="radial-gradient-5" cx="316.25" cy="219.09" r="177.32" xlink:href="#radial-gradient"/></defs><g id="Layer_2" data-name="Layer 2"><g id="Layer_7" data-name="Layer 7"><path class="cls-1" d="M301.27,87.61C246.79,66.33,14.42,71.44,1.66,300.4,0,328.49,12.72,336.15,12.72,336.15c13.62.85,28.09-8.51,28.09-8.51s60.43-50.22,76.61-31.49-56.18,80-34.9,94.48,238.32,44.26,309-106.4S301.27,87.61,301.27,87.61ZM173.17,291.94a27.67,27.67,0,1,1,27.66-27.67A27.67,27.67,0,0,1,173.17,291.94Z"/><path class="cls-2" d="M33.33,234.44c-.91,7.89.81,17.68,8.25,20.49,1.67.63,3.56.86,5,2a10,10,0,0,1,2.46,3.7c2.88,6,6.94,11.76,12.93,14.64a19.65,19.65,0,0,0,23.54-5.78c2.86-3.84,4.21-8.67,7.26-12.37s7.81-6.09,10.89-9.93c4.71-5.86,4.76-14.56,1.45-21.3s-9.46-11.73-16.13-15.21c-7.55-3.94-15.71-4.39-23.63-6.9a14.1,14.1,0,0,0-8.48-.29C42.61,207.27,35,220.54,33.33,234.44Z"/><path class="cls-3" d="M100.56,155.14c-2.4,4.51-2.86,10.19-.49,14.71,1.13,2.13,2.82,3.93,4,6.05,4.48,8.28-.13,19.39,4.65,27.5,2.73,4.63,8,7.19,13.16,8.6,7.33,2,15.31,2.16,22.41-.55s13.17-8.53,15.22-15.85c.87-3.11,1-6.39,1.63-9.57,1.2-6.15,4.15-11.8,6.29-17.69s3.44-12.5,1.27-18.38a17.14,17.14,0,0,0-16.27-10.88c-8.34.32-15.09,6.22-23.18,7.54-3.4.55-5.53-.66-8.69-1.35a18.24,18.24,0,0,0-11,1.63A19.16,19.16,0,0,0,100.56,155.14Z"/><path class="cls-4" d="M186.36,139.1c.3,9.08,4.32,18.13,11.35,23.89a54.86,54.86,0,0,0,9.92,6.06c9.06,4.63,18.57,9,28.73,9.58s21.18-3.68,26-12.65c6.4-11.91-.06-26.73,2.42-40,.51-2.69,1.38-5.34,1.5-8.08.38-8.79-8.64-16.7-17.31-15.17-3.12.55-6,2.08-9.17,2.41-3.48.37-6.88-.63-10.15-1.71-4.39-1.46-9-3.48-13.75-3.45-10.31,0-20,10.7-24.49,19A39.68,39.68,0,0,0,186.36,139.1Z"/><path class="cls-5" d="M214.1,432.57c-6.42,8.37-19.62,3-18.23-7.44.84-6.33,5.13-17.43,16-41.31C234,335.3,276.58,168.47,307.23,161.66c15.32-32.34,34-62.13,12.76-154.91,29.79-18.1,110.66,12.77,116.61,59.58C405.11,79.1,383,91,371.91,100s-39.15,71.93-39.15,71.93c6,41.61-62.13,136.18-106.45,238.32C221.58,421.11,217.51,428.13,214.1,432.57Z"/></g></g></svg>