<svg xmlns="http://www.w3.org/2000/svg" viewBox="0 0 745.55 543.14"><defs><style>.cls-1{fill:#00aeef;}.cls-2{fill:#303136;}.cls-3{fill:#025670;}.cls-4{fill:#111113;}.cls-5{fill:#202426;}.cls-6{fill:#393c41;}.cls-13,.cls-14,.cls-7{fill:none;stroke-miterlimit:10;}.cls-7{stroke:#231f20;}.cls-8{fill:#ec008c;}.cls-9{fill:#84194c;}.cls-10{fill:#c12726;}.cls-11{fill:#10090d;}.cls-12{fill:#2b2227;}.cls-13{stroke:#2b2227;stroke-width:5px;}.cls-14{stroke:#fff;stroke-linecap:round;stroke-width:2px;}</style></defs><g id="Layer_2" data-name="Layer 2"><g id="Layer_6" data-name="Layer 6"><path class="cls-1" d="M90.08,516.09S25.13,546.43,4.5,497.52a51510534186.45,51510534186.45,0,0,1,0-.06,57.92,57.92,0,0,1-1.67-8.71C-1.06,450.32.2,389.39.2,389.39c2.36-39.7-12.94-120.81,49.12-144.24A297.91,297.91,0,0,1,85.69,235Z"/><polygon class="cls-2" points="652.81 406.61 108 532.39 90.08 516.09 625.25 396.18 639.46 393 652.81 406.61"/><path class="cls-3" d="M107.53,532.18l-.07,0a118.42,118.42,0,0,1-29,9.51l-.18,0a93.66,93.66,0,0,1-32,0h-.1a52.57,52.57,0,0,1-26.5-14.85l0-.06A69.45,69.45,0,0,1,6.25,504.42c-.14-.37-.26-.73-.39-1.08-.63-1.85-1.2-3.7-1.7-5.51,0-.11,0-.22-.08-.33a.89.89,0,0,1,0-.14.11.11,0,0,1,0-.05c20.63,48.92,85.58,18.57,85.58,18.57Z"/><path class="cls-4" d="M625.25,396.18,581,98.32,85.69,235l17-4.53,4.4,281.06-17,4.53ZM547.13,134.91l32.62,244.55L140,480.61l-3.2-229.56Z"/><polygon class="cls-4" points="107.09 511.56 90.08 516.09 85.69 235.03 102.69 230.5 107.09 511.56"/><polygon class="cls-4" points="639.46 393 625.25 396.18 580.97 98.32 598.28 93.55 639.46 393"/><polygon class="cls-5" points="579.75 379.46 139.95 480.61 136.75 251.05 547.13 134.91 579.75 379.46"/><polygon class="cls-6" points="652.81 406.61 639.46 393 598.28 93.55 613.24 100.55 652.81 406.61"/><path class="cls-7" d="M651.46,326.86c12.17-2.44,34.95-8,54.7-18.29C692.86,315.92,675.12,322.33,651.46,326.86Z"/><path class="cls-8" d="M700,284.74c-10,4.62-7,5.4-39.87,15.26-22.35,6.68-32.82,5.31-32.82,5.31L586.57,17.11S649-12.33,684.26,6c.51.26,1,.54,1.5.82C714.63,15.68,763.13,255.5,700,284.74Z"/><path class="cls-9" d="M741.42,271.46h0c-4.24,16.35-18.6,28.36-35.1,37l-.17.09c-19.75,10.32-42.52,15.85-54.7,18.28l-1.26.25q-3.3.61-6.78,1.19l-.57.09-.14,0-15.35-23.1s10.47,1.38,32.81-5.31c7.33-2.2,43.8-14.95,54.82-34.79a99.11,99.11,0,0,0,9.25-24.73h0c4.59-31-8.14-118.95-8.14-118.95s-8.54-75.43-21.8-104.07l0-.05a29.28,29.28,0,0,0-5.49-8.58,41.12,41.12,0,0,1,4.2,3.3,1.42,1.42,0,0,1,.13.12c9.92,8.87,12.79,19.4,15.19,28.24a.53.53,0,0,0,0,.12c.05.16.09.36.15.56a2.81,2.81,0,0,1,.08.31c6,21.47,15.21,59.47,22.72,99.19l0,.11,0,.14v0q1.54,8.17,3,16.41c2.45,14.92,4.55,29.05,6.26,41.27a2.84,2.84,0,0,0,.05.42c3,21.84,4.71,37.55,4.69,40.79C745.27,244.29,747.08,256.88,741.42,271.46Z"/><path class="cls-10" d="M686.43,7.27l.16.1h0Z"/><path class="cls-10" d="M694.25,17.41c-2.69-4.87-5.27-8.31-7.63-10l.08,0c.62.37,1.22.74,1.81,1.14A37.64,37.64,0,0,1,693,12.13a41.12,41.12,0,0,0-4.2-3.3A29.28,29.28,0,0,1,694.25,17.41Z"/><circle class="cls-11" cx="44.16" cy="313.65" r="13.71"/><ellipse class="cls-11" cx="663.9" cy="156.25" rx="13.71" ry="15.61" transform="translate(462.3 807.82) rotate(-86.05)"/><ellipse class="cls-12" cx="35.16" cy="308.35" rx="22.37" ry="19.91" transform="translate(-268.25 243.09) rotate(-71.36)"/><ellipse class="cls-12" cx="43.44" cy="370.44" rx="11.05" ry="9.83" transform="translate(-321.44 293.17) rotate(-71.36)"/><ellipse class="cls-12" cx="21.45" cy="398.98" rx="11.05" ry="9.83" transform="translate(-363.45 291.75) rotate(-71.36)"/><ellipse class="cls-12" cx="65.53" cy="388.06" rx="11.05" ry="9.83" transform="translate(-323.11 326.09) rotate(-71.36)"/><ellipse class="cls-12" cx="43.89" cy="415.73" rx="11.05" ry="9.83" transform="translate(-364.06 324.41) rotate(-71.36)"/><ellipse class="cls-12" cx="645.12" cy="44.29" rx="11.05" ry="11.78" transform="translate(458.3 663.36) rotate(-77.14)"/><ellipse class="cls-12" cx="623.85" cy="74.39" rx="11.05" ry="11.78" transform="translate(412.43 666.02) rotate(-77.14)"/><ellipse class="cls-12" cx="674.02" cy="60.77" rx="11.05" ry="11.78" transform="translate(464.7 704.34) rotate(-77.14)"/><ellipse class="cls-12" cx="653.01" cy="89.97" rx="11.05" ry="11.78" transform="translate(419.9 706.56) rotate(-77.14)"/><ellipse class="cls-12" cx="651.68" cy="215.98" rx="11.05" ry="11.78" transform="translate(391.34 851.25) rotate(-86.05)"/><ellipse class="cls-12" cx="657.07" cy="144.88" rx="25.33" ry="23.14" transform="translate(-15.59 161.16) rotate(-13.82)"/><line class="cls-13" x1="61.33" y1="263.97" x2="77.19" y2="259.82"/><polygon class="cls-12" points="619.17 34.82 618.09 29.93 611.91 31.3 611.32 24.49 606.44 26.1 606.99 32.38 600.16 33.89 601.24 38.77 607.42 37.41 608.01 44.22 612.89 42.55 612.35 36.32 619.17 34.82"/><polygon class="cls-12" points="63.85 450.55 63.96 466.52 76.82 464.41 76.71 448.36 63.85 450.55"/></g><g id="Layer_7" data-name="Layer 7"><polyline class="cls-14" points="395.51 195.03 529.38 157.91 544.51 297.01"/></g></g></svg>