<svg xmlns="http://www.w3.org/2000/svg" xmlns:xlink="http://www.w3.org/1999/xlink" viewBox="0 0 368.58 302.58"><defs><style>.cls-1{stroke:#fcee1f;stroke-width:3px;fill:url(#radial-gradient);}.cls-1,.cls-3,.cls-4,.cls-6{stroke-miterlimit:10;}.cls-2{fill:url(#radial-gradient-2);}.cls-3,.cls-4,.cls-6{fill:#fcee1f;stroke-width:2px;}.cls-3{stroke:url(#radial-gradient-3);}.cls-4{stroke:url(#radial-gradient-4);}.cls-5{fill:url(#radial-gradient-5);}.cls-6{stroke:url(#radial-gradient-6);}.cls-7{fill:url(#radial-gradient-7);}</style><radialGradient id="radial-gradient" cx="182.59" cy="214.69" r="141.86" gradientUnits="userSpaceOnUse"><stop offset="0" stop-color="#30302f"/><stop offset="0" stop-color="#292827"/><stop offset="0" stop-color="#221f1f"/></radialGradient><radialGradient id="radial-gradient-2" cx="187.56" cy="164.06" r="146.09" gradientTransform="translate(320.69 -46.58) rotate(81.12)" xlink:href="#radial-gradient"/><radialGradient id="radial-gradient-3" cx="187.56" cy="164.06" r="150.56" xlink:href="#radial-gradient"/><radialGradient id="radial-gradient-4" cx="191.47" cy="164.76" r="123.75" xlink:href="#radial-gradient"/><radialGradient id="radial-gradient-5" cx="191.39" cy="166.15" r="125.71" xlink:href="#radial-gradient"/><radialGradient id="radial-gradient-6" cx="198.2" cy="95.91" r="125.07" xlink:href="#radial-gradient"/><radialGradient id="radial-gradient-7" cx="198.2" cy="95.93" r="127.58" xlink:href="#radial-gradient"/></defs><g id="Layer_2" data-name="Layer 2"><g id="Layer_7" data-name="Layer 7"><g id="Button"><path class="cls-1" d="M1.52,187a85.65,85.65,0,0,0,12.6,33.18c36,56.69,130.3,72.42,149.06,75.55,16,2.67,117.62,19.62,171.08-25.2a84.23,84.23,0,0,0,21.17-26.28c1.79-11.42,6.45-47.57,8.24-59l-352.34-57C9.64,139.09,3.2,176.21,1.52,187Z"/><ellipse class="cls-2" cx="187.56" cy="164.06" rx="105.56" ry="177.59" transform="translate(-3.49 324.04) rotate(-81.12)"/><path class="cls-3" d="M203.36,62.94c94.83,14.82,164.64,72.11,155.91,128S266.59,280,171.76,265.18,7.12,193.07,15.84,137.23s92.68-89.11,187.52-74.29m1-6.35C157,49.19,110.62,53.14,73.84,67.71,36.16,82.63,12.9,106.91,8.35,136.06s10.19,59.36,41.52,85.07c30.58,25.09,73.51,43,120.89,50.4s93.73,3.45,130.51-11.12c37.68-14.92,60.94-39.2,65.5-68.35S356.58,132.7,325.24,107c-30.57-25.09-73.51-43-120.89-50.4Z"/><path class="cls-4" d="M176.46,242.82c27.83,4.27,56.93,4.14,82-.39,18.48-3.34,43.8-7.91,62-26.14a67.26,67.26,0,0,0,14.13-20.76l.15-.32,10.17-65.11-7.5-1.17c-7.78,49.78-83.31,56.14-151.42,45.5S47.84,134.68,55.62,84.9l-7.5-1.17L38,148.75V149a59.51,59.51,0,0,0,7,26.2c4.69,8.79,13,19.78,38.74,34.6,41,23.59,81,31.18,92.3,32.94Z"/><path class="cls-5" d="M51.87,84.32c-7.47,47.8,53.7,80.81,133.57,93.29s148.19-.3,155.66-48.1L331,194.28a64.21,64.21,0,0,1-13.51,19.84c-17.05,17.11-40.06,21.55-60,25.16-10.1,1.82-40.28,6.54-80.5.36l-.45-.06c-7.92-1.24-48.68-8.21-90.79-32.42C62.42,193.77,53.54,183.63,48.41,174a56.59,56.59,0,0,1-6.66-24.92L51.87,84.32m-7.5-1.17L34.25,147.91l-.08.51,0,.52a62.34,62.34,0,0,0,7.36,27.48c7,13.09,19,23.87,40.16,36,41.69,24,82.34,31.67,93.8,33.46l.47.07c28.3,4.35,57.91,4.21,83.4-.4,19-3.43,45-8.13,63.95-27.14a70.31,70.31,0,0,0,14.76-21.66l.28-.65.11-.69,10.12-64.77-15-2.34c-7.41,47.44-80.88,53.28-147.17,42.92S52,132.93,59.37,85.49l-15-2.34Z"/><path class="cls-6" d="M184.18,185.63C266,198.42,338.84,168.57,346.57,119.1a55.15,55.15,0,0,0,.65-7.9c.32-23-13.37-46.37-38.55-65.91-25-19.4-59.26-33.29-96.45-39.1s-74-3-103.77,7.82C78.51,24.93,58.33,43,51.62,65a57.26,57.26,0,0,0-1.78,7.72C42.11,122.2,102.38,172.85,184.18,185.63Z"/><path class="cls-7" d="M211.73,9.37C287.41,21.19,344.07,65.69,343.45,111a54.35,54.35,0,0,1-.63,7.51c-7.47,47.8-78.27,76.43-158.14,64S46.12,121.12,53.59,73.32A51.93,51.93,0,0,1,55.29,66C68.51,22.63,136-2.46,211.73,9.37m1-6.35c-37.9-5.92-75.51-3.08-105.9,8C75.85,22.32,55,41.15,48,64.05a59.51,59.51,0,0,0-1.87,8.1c-3.94,25.23,8.54,51.33,35.16,73.49,25.89,21.56,62.27,36.89,102.44,43.17s79.49,2.77,110.73-9.86c32.1-13,51.95-34,55.9-59.27a59,59,0,0,0,.69-8.28c.33-23.93-13.83-48.24-39.88-68.45C285.57,23.13,250.62,8.94,212.72,3Z"/></g></g></g></svg>