<svg height="512pt" viewBox="0 0 512 512" width="512pt" xmlns="http://www.w3.org/2000/svg"><path d="m384.335938 386.449219-82.90625 83.800781-63.363282-57.367188-20.132812 22.234376 84.636718 76.632812 103.09375-104.199219zm0 0" fill="#ffe477"/><path d="m385.597656 0c-23.417968 0-46.335937 6.488281-66.277344 18.769531-19.9375 12.277344-36.050781 29.820313-46.59375 50.734375-10.007812 19.847656-18.863281 40.523438-26.332031 61.457032-7.8125 21.902343-14.257812 44.542968-19.164062 67.28125l-17.960938 83.277343-100.875 100.875 21.210938 21.210938 100.875-100.875 83.277343-17.960938c44.644532-9.628906 87.960938-24.9375 128.742188-45.496093 20.910156-10.539063 38.453125-26.652344 50.730469-46.59375 12.277343-19.941407 18.769531-42.859376 18.769531-66.277344 0-69.699219-56.703125-126.402344-126.402344-126.402344zm0 0" fill="#3f52e9"/><path d="m119 393 10.605469 10.605469 100.875-100.875 83.277343-17.960938c44.644532-9.628906 87.960938-24.9375 128.738282-45.496093 20.914062-10.542969 38.457031-26.652344 50.734375-46.59375 12.277343-19.941407 18.769531-42.859376 18.769531-66.277344 0-34.847656-14.175781-66.449219-37.0625-89.339844zm0 0" fill="#2e3192"/><path d="m453.730469 58.269531c-17.453125-17.457031-41.554688-28.269531-68.132813-28.269531-36.617187 0-69.601562 20.3125-86.082031 53.007812-9.449219 18.738282-17.8125 38.265626-24.863281 58.027344-7.375 20.6875-13.464844 42.0625-18.097656 63.53125l-13.988282 64.867188 64.867188-13.988282c42.15625-9.09375 83.054687-23.546874 121.558594-42.960937 32.695312-16.480469 53.007812-49.464844 53.007812-86.082031 0-26.578125-10.8125-50.679688-28.269531-68.132813zm0 0" fill="#f4f5f7"/><path d="m242.5625 269.4375 64.871094-13.992188c42.15625-9.09375 83.054687-23.546874 121.558594-42.960937 32.695312-16.480469 53.007812-49.464844 53.007812-86.082031 0-26.578125-10.8125-50.679688-28.269531-68.136719zm0 0" fill="#c8d6f2"/><path d="m495 342c0 24.851562-20.148438 45-45 45s-45-20.148438-45-45 20.148438-45 45-45 45 20.148438 45 45zm0 0" fill="#38eecf"/><path d="m42 512-42-42 100-100h42v42zm0 0" fill="#ff9098"/><path d="m42 512 100-100v-42l-121 121zm0 0" fill="#fb4b72"/><path d="m418.179688 373.820312c8.144531 8.144532 19.394531 13.179688 31.820312 13.179688 24.851562 0 45-20.148438 45-45 0-12.425781-5.035156-23.675781-13.179688-31.820312zm0 0" fill="#0fb397"/><path d="m291.117188 501.382812 11.453124 10.367188 103.09375-104.199219-10.414062-10.300781zm0 0" fill="#ffd011"/></svg>