<?xml version="1.0" standalone="no"?>
<!DOCTYPE svg PUBLIC "-//W3C//DTD SVG 20010904//EN"
 "http://www.w3.org/TR/2001/REC-SVG-20010904/DTD/svg10.dtd">
<svg version="1.0" xmlns="http://www.w3.org/2000/svg"
 width="512.000000pt" height="512.000000pt" viewBox="0 0 512.000000 512.000000"
 preserveAspectRatio="xMidYMid meet">

<g transform="translate(0.000000,512.000000) scale(0.100000,-0.100000)"
fill="#000000" stroke="none">
<path d="M505 4696 c-23 -23 -25 -32 -25 -121 l0 -95 -135 0 c-131 0 -137 -1
-160 -25 l-25 -24 0 -1591 0 -1591 25 -24 24 -25 1656 0 1655 0 0 -456 c0
-329 3 -468 12 -498 16 -55 99 -138 154 -154 65 -19 418 -16 477 4 57 19 128
93 145 152 9 28 12 172 12 496 l0 456 295 0 296 0 24 25 25 24 0 1591 0 1591
-25 24 c-23 24 -29 25 -160 25 l-135 0 0 95 c0 89 -2 98 -25 121 l-25 25 -902
-3 -903 -3 -67 -32 c-37 -17 -87 -50 -112 -73 l-46 -43 -46 43 c-25 23 -75 56
-112 73 l-67 32 -903 3 -902 3 -25 -25z m1809 -148 c55 -16 138 -99 154 -154
9 -31 12 -332 12 -1256 l0 -1214 -72 35 -72 36 -848 3 -848 3 0 1279 0 1280
816 0 c612 0 827 -3 858 -12z m2166 -1268 l0 -1280 -80 0 -80 0 0 366 0 366
-127 391 c-115 350 -132 395 -163 428 -61 65 -154 65 -218 1 -34 -35 -46 -66
-164 -429 l-128 -391 0 -366 0 -365 -368 -3 -368 -3 -72 -36 -72 -35 0 1214
c0 924 3 1225 12 1256 15 51 99 137 148 153 24 8 288 11 858 12 l822 1 0
-1280z m-4000 -335 l0 -1376 25 -24 24 -25 1496 0 1495 0 0 -80 0 -80 -1600 0
-1600 0 0 1480 0 1480 80 0 80 0 0 -1375z m4320 -105 l0 -1480 -240 0 -240 0
0 80 0 80 135 0 c131 0 137 1 160 25 l25 24 0 1376 0 1375 80 0 80 0 0 -1480z
m-856 523 c10 -32 21 -64 23 -70 4 -10 -9 -13 -47 -13 -38 0 -51 3 -47 13 2 6
13 38 23 70 10 31 21 57 24 57 3 0 14 -26 24 -57z m133 -400 l50 -158 -104 -3
c-56 -1 -150 -1 -206 0 l-104 3 50 158 50 157 107 0 107 0 50 -157z m-237
-1123 l0 -800 -80 0 -80 0 0 800 0 800 80 0 80 0 0 -800z m320 0 l0 -800 -80
0 -80 0 0 800 0 800 80 0 80 0 0 -800z m-1846 -12 c45 -13 146 -105 146 -132
0 -14 -91 -16 -910 -16 l-910 0 0 80 0 80 816 0 c612 0 827 -3 858 -12z m1206
-68 l0 -80 -430 0 c-384 0 -430 2 -430 16 0 24 101 119 140 131 22 7 158 11
378 12 l342 1 0 -80z m960 0 l0 -80 -80 0 -80 0 0 80 0 80 80 0 80 0 0 -80z
m-320 -960 l0 -80 -240 0 -240 0 0 80 0 80 240 0 240 0 0 -80z m0 -375 c0
-131 -1 -137 -25 -160 -24 -25 -26 -25 -215 -25 -189 0 -191 0 -215 25 -24 23
-25 29 -25 160 l0 135 240 0 240 0 0 -135z"/>
<path d="M825 4295 c-25 -24 -25 -26 -25 -215 0 -257 -17 -240 240 -240 257 0
240 -17 240 240 0 257 17 240 -240 240 -189 0 -191 0 -215 -25z m295 -215 l0
-80 -80 0 -80 0 0 80 0 80 80 0 80 0 0 -80z"/>
<path d="M1465 4295 c-16 -15 -25 -36 -25 -55 0 -19 9 -40 25 -55 l24 -25 391
0 391 0 24 25 c16 15 25 36 25 55 0 19 -9 40 -25 55 l-24 25 -391 0 -391 0
-24 -25z"/>
<path d="M1465 3975 c-16 -15 -25 -36 -25 -55 0 -19 9 -40 25 -55 l24 -25 391
0 391 0 24 25 c16 15 25 36 25 55 0 19 -9 40 -25 55 l-24 25 -391 0 -391 0
-24 -25z"/>
<path d="M825 3655 c-25 -24 -25 -26 -25 -215 0 -257 -17 -240 240 -240 257 0
240 -17 240 240 0 257 17 240 -240 240 -189 0 -191 0 -215 -25z m295 -215 l0
-80 -80 0 -80 0 0 80 0 80 80 0 80 0 0 -80z"/>
<path d="M1465 3655 c-16 -15 -25 -36 -25 -55 0 -19 9 -40 25 -55 l24 -25 391
0 391 0 24 25 c16 15 25 36 25 55 0 19 -9 40 -25 55 l-24 25 -391 0 -391 0
-24 -25z"/>
<path d="M1465 3335 c-16 -15 -25 -36 -25 -55 0 -19 9 -40 25 -55 l24 -25 391
0 391 0 24 25 c16 15 25 36 25 55 0 19 -9 40 -25 55 l-24 25 -391 0 -391 0
-24 -25z"/>
<path d="M825 3015 c-16 -15 -25 -36 -25 -55 0 -19 9 -40 25 -55 l24 -25 431
0 431 0 24 25 c16 15 25 36 25 55 0 19 -9 40 -25 55 l-24 25 -431 0 -431 0
-24 -25z"/>
<path d="M1945 3015 c-16 -15 -25 -36 -25 -55 0 -19 9 -40 25 -55 23 -24 28
-25 175 -25 147 0 152 1 175 25 16 15 25 36 25 55 0 19 -9 40 -25 55 -23 24
-28 25 -175 25 -147 0 -152 -1 -175 -25z"/>
<path d="M825 2695 c-16 -15 -25 -36 -25 -55 0 -19 9 -40 25 -55 l24 -25 711
0 711 0 24 25 c16 15 25 36 25 55 0 19 -9 40 -25 55 l-24 25 -711 0 -711 0
-24 -25z"/>
<path d="M825 2375 c-16 -15 -25 -36 -25 -55 0 -19 9 -40 25 -55 23 -24 28
-25 175 -25 147 0 152 1 175 25 16 15 25 36 25 55 0 19 -9 40 -25 55 -23 24
-28 25 -175 25 -147 0 -152 -1 -175 -25z"/>
<path d="M1385 2375 c-16 -15 -25 -36 -25 -55 0 -19 9 -40 25 -55 l24 -25 431
0 431 0 24 25 c16 15 25 36 25 55 0 19 -9 40 -25 55 l-24 25 -431 0 -431 0
-24 -25z"/>
<path d="M2825 4295 c-16 -15 -25 -36 -25 -55 0 -19 9 -40 25 -55 23 -24 28
-25 175 -25 147 0 152 1 175 25 16 15 25 36 25 55 0 19 -9 40 -25 55 -23 24
-28 25 -175 25 -147 0 -152 -1 -175 -25z"/>
<path d="M3385 4295 c-16 -15 -25 -36 -25 -55 0 -19 9 -40 25 -55 l24 -25 431
0 431 0 24 25 c16 15 25 36 25 55 0 19 -9 40 -25 55 l-24 25 -431 0 -431 0
-24 -25z"/>
<path d="M2825 3975 c-16 -15 -25 -36 -25 -55 0 -19 9 -40 25 -55 l24 -25 711
0 711 0 24 25 c16 15 25 36 25 55 0 19 -9 40 -25 55 l-24 25 -711 0 -711 0
-24 -25z"/>
<path d="M2825 3655 c-16 -15 -25 -36 -25 -55 0 -19 9 -40 25 -55 l24 -25 351
0 351 0 24 25 c16 15 25 36 25 55 0 19 -9 40 -25 55 l-24 25 -351 0 -351 0
-24 -25z"/>
<path d="M2825 3335 c-16 -15 -25 -36 -25 -55 0 -19 9 -40 25 -55 l24 -25 311
0 311 0 24 25 c16 15 25 36 25 55 0 19 -9 40 -25 55 l-24 25 -311 0 -311 0
-24 -25z"/>
<path d="M2825 3015 c-16 -15 -25 -36 -25 -55 0 -19 9 -40 25 -55 l24 -25 231
0 231 0 24 25 c16 15 25 36 25 55 0 19 -9 40 -25 55 l-24 25 -231 0 -231 0
-24 -25z"/>
<path d="M2825 2695 c-16 -15 -25 -36 -25 -55 0 -19 9 -40 25 -55 l24 -25 231
0 231 0 24 25 c16 15 25 36 25 55 0 19 -9 40 -25 55 l-24 25 -231 0 -231 0
-24 -25z"/>
<path d="M2825 2375 c-16 -15 -25 -36 -25 -55 0 -19 9 -40 25 -55 l24 -25 231
0 231 0 24 25 c16 15 25 36 25 55 0 19 -9 40 -25 55 l-24 25 -231 0 -231 0
-24 -25z"/>
</g>
</svg>
