<?xml version="1.0" encoding="iso-8859-1"?>
<!-- Generator: Adobe Illustrator 19.0.0, SVG Export Plug-In . SVG Version: 6.00 Build 0)  -->
<svg version="1.1" id="Capa_1" xmlns="http://www.w3.org/2000/svg" xmlns:xlink="http://www.w3.org/1999/xlink" x="0px" y="0px"
	 viewBox="0 0 480 480" style="enable-background:new 0 0 480 480;" xml:space="preserve">
<g>
	<g>
		<rect x="216" y="72" width="216" height="16"/>
	</g>
</g>
<g>
	<g>
		<rect x="216" y="104" width="136" height="16"/>
	</g>
</g>
<g>
	<g>
		<rect x="216" y="136" width="136" height="16"/>
	</g>
</g>
<g>
	<g>
		<rect x="280" y="40" width="152" height="16"/>
	</g>
</g>
<g>
	<g>
		<rect x="248" y="40" width="16" height="16"/>
	</g>
</g>
<g>
	<g>
		<rect x="232" y="320" width="16" height="16"/>
	</g>
</g>
<g>
	<g>
		<path d="M133.656,53.656l-11.312-11.312l-16,16c-3.123,3.124-3.123,8.188,0,11.312l16,16l11.312-11.312L123.312,64L133.656,53.656
			z"/>
	</g>
</g>
<g>
	<g>
		<path d="M197.656,58.344l-16-16l-11.312,11.312L180.688,64l-10.344,10.344l11.312,11.312l16-16
			C200.779,66.532,200.779,61.468,197.656,58.344z"/>
	</g>
</g>
<g>
	<g>
		<rect x="126.697" y="56" transform="matrix(0.3165 -0.9486 0.9486 0.3165 43.1798 187.9208)" width="50.6" height="15.992"/>
	</g>
</g>
<g>
	<g>
		<polygon points="416,248 416,184 400,184 400,248 384,248 384,168 368,168 368,248 352,248 352,208 336,208 336,248 320,248 
			320,200 304,200 304,248 288,248 288,216 272,216 272,248 256,248 256,264 432,264 432,248 		"/>
	</g>
</g>
<g>
	<g>
		<path d="M424,0H56C29.501,0.026,8.026,21.501,8,48v157.008v0.072V296v24c0.026,26.499,21.501,47.974,48,48h99.056l-32,64H80
			c-13.255,0-24,10.745-24,24s10.745,24,24,24h320c13.255,0,24-10.745,24-24s-10.745-24-24-24h-43.056l-32-64H424
			c26.499-0.026,47.974-21.501,48-48V48C471.974,21.501,450.499,0.026,424,0z M24,112.56l18.184,21.648
			c1.52,1.811,3.764,2.856,6.128,2.856H72.8c2.364,0,4.608-1.045,6.128-2.856L97.12,112.56l17.952,5.832l1.984,28.184
			c0.164,2.357,1.362,4.521,3.272,5.912l19.816,14.4c1.917,1.384,4.345,1.855,6.64,1.288l27.464-6.824l11.104,15.272l-14.968,24
			c-1.24,2.012-1.527,4.469-0.784,6.712l7.576,23.288c0.729,2.246,2.412,4.056,4.6,4.944L208,246.2v18.88l-26.24,10.632
			c-2.193,0.884-3.879,2.699-4.6,4.952l-2.4,7.336h-46.088c17.928-37.536,2.032-82.499-35.504-100.427
			c-22.047-10.53-47.833-9.712-69.168,2.195V112.56z M24,208.8c25.876-20.187,63.218-15.575,83.404,10.302
			C122.99,239.08,124.193,266.744,110.4,288H24V208.8z M400,448c4.418,0,8,3.582,8,8s-3.582,8-8,8H80c-4.418,0-8-3.582-8-8
			s3.582-8,8-8H400z M339.056,432H140.944l32-64h134.112L339.056,432z M456,320c0,17.673-14.327,32-32,32H56
			c-17.673,0-32-14.327-32-32v-16h90.576h0.072H456V320z M456,288H194.04l24.968-10.12c3.016-1.224,4.99-4.153,4.992-7.408V240.8
			c0.001-3.258-1.973-6.191-4.992-7.416L191.2,222.136l-5.264-16.2l15.856-25.44c1.72-2.764,1.593-6.294-0.32-8.928l-17.44-24
			c-1.915-2.637-5.237-3.849-8.4-3.064l-29.088,7.2L132.8,141.72l-2.104-29.84c-0.229-3.253-2.41-6.042-5.512-7.048l-28.2-9.168
			c-3.103-0.988-6.495-0.013-8.6,2.472l-19.256,22.92H52.064L32.8,98.136c-2.106-2.488-5.503-3.464-8.608-2.472L24,95.736V48
			c0-17.673,14.327-32,32-32h368c17.673,0,32,14.327,32,32V288z"/>
	</g>
</g>
<g>
</g>
<g>
</g>
<g>
</g>
<g>
</g>
<g>
</g>
<g>
</g>
<g>
</g>
<g>
</g>
<g>
</g>
<g>
</g>
<g>
</g>
<g>
</g>
<g>
</g>
<g>
</g>
<g>
</g>
</svg>
