<svg id="Layer_1" enable-background="new 0 0 512 512" height="512" viewBox="0 0 512 512" width="512" xmlns="http://www.w3.org/2000/svg"><g><g><path d="m500.5 423.5h-25.023c1.927-3.756 3.023-8.006 3.023-12.51l-.007-187.354c0-4.142-3.358-7.5-7.5-7.5-4.143 0-7.5 3.358-7.5 7.5l.007 187.354c0 6.893-5.607 12.5-12.5 12.5l-389.99.01c-6.893 0-12.5-5.607-12.5-12.5l-.01-259.99c0-6.893 5.607-12.5 12.5-12.5h22.635c4.142 0 7.5-3.358 7.5-7.5s-3.358-7.5-7.5-7.5h-22.635c-15.164 0-27.5 12.336-27.5 27.5l.01 259.99c0 4.5 1.093 8.747 3.018 12.5h-25.028c-6.341 0-11.5 5.159-11.5 11.5v20c0 18.472 15.028 33.5 33.5 33.5h445c18.472 0 33.5-15.028 33.5-33.5v-20c0-6.341-5.159-11.5-11.5-11.5zm-283 15h77v4.5c0 2.481-2.019 4.5-4.5 4.5h-68c-2.481 0-4.5-2.019-4.5-4.5zm279.5 16.5c0 10.201-8.299 18.5-18.5 18.5h-445c-10.201 0-18.5-8.299-18.5-18.5v-16.5h187.5v4.5c0 10.752 8.748 19.5 19.5 19.5h68c10.752 0 19.5-8.748 19.5-19.5v-4.5h187.5z"/><path d="m116.705 138.51h2.795v15h-48.5c-1.989 0-3.897.79-5.303 2.197-1.407 1.407-2.197 3.314-2.197 5.304l.01 239.989c0 4.142 3.358 7.5 7.5 7.5l280.95-.008c4.143 0 7.5-3.358 7.5-7.5 0-4.143-3.358-7.5-7.5-7.5l-273.451.008-.009-224.99h41v182.49c0 9.649 7.851 17.5 17.5 17.5h238c9.649 0 17.5-7.851 17.5-17.5v-182.5h40.99l.01 224.99-48.5.001c-4.143 0-7.5 3.358-7.5 7.5 0 4.143 3.358 7.5 7.5 7.5l56-.001c1.989 0 3.897-.791 5.304-2.197 1.406-1.407 2.196-3.314 2.196-5.304l-.01-239.989c0-4.142-3.358-7.5-7.5-7.5h-48.49v-15h58.49c6.893 0 12.5 5.607 12.5 12.5l.001 40.869c0 4.142 3.358 7.5 7.5 7.5 4.143 0 7.5-3.358 7.5-7.5l-.001-40.869c0-15.164-12.337-27.5-27.5-27.5h-58.49v-82.5c0-9.649-7.851-17.5-17.5-17.5h-238c-9.649 0-17.5 7.851-17.5 17.5v82.51h-2.795c-4.142 0-7.5 3.358-7.5 7.5s3.358 7.5 7.5 7.5zm260.795 212.49c0 1.378-1.121 2.5-2.5 2.5h-238c-1.378 0-2.5-1.122-2.5-2.5v-262.5h243zm-240.5-312.5h238c1.379 0 2.5 1.122 2.5 2.5v32.5h-243v-32.5c0-1.378 1.122-2.5 2.5-2.5z"/><path d="m154 63.5h8c4.142 0 7.5-3.358 7.5-7.5s-3.358-7.5-7.5-7.5h-8c-4.142 0-7.5 3.358-7.5 7.5s3.358 7.5 7.5 7.5z"/><path d="m194 63.5h8c4.142 0 7.5-3.358 7.5-7.5s-3.358-7.5-7.5-7.5h-8c-4.142 0-7.5 3.358-7.5 7.5s3.358 7.5 7.5 7.5z"/><path d="m234 63.5h8c4.142 0 7.5-3.358 7.5-7.5s-3.358-7.5-7.5-7.5h-8c-4.142 0-7.5 3.358-7.5 7.5s3.358 7.5 7.5 7.5z"/><path d="m203.594 120.747h1.053v32.515c0 4.142 3.358 7.5 7.5 7.5s7.5-3.358 7.5-7.5v-40.015c0-4.142-3.358-7.5-7.5-7.5h-8.553c-4.142 0-7.5 3.358-7.5 7.5s3.358 7.5 7.5 7.5z"/><path d="m167.995 242.767c4.142 0 7.5-3.358 7.5-7.5v-40.015c0-4.142-3.358-7.5-7.5-7.5h-8.553c-4.142 0-7.5 3.358-7.5 7.5s3.358 7.5 7.5 7.5h1.053v32.515c0 4.142 3.358 7.5 7.5 7.5z"/><path d="m163.718 104.931c-10.516 0-19.071 8.555-19.071 19.071v18.505c0 10.516 8.555 19.071 19.071 19.071s19.071-8.555 19.071-19.071v-18.505c0-10.516-8.555-19.071-19.071-19.071zm4.071 37.576c0 2.245-1.826 4.071-4.071 4.071s-4.071-1.826-4.071-4.071v-18.505c0-2.245 1.826-4.071 4.071-4.071s4.071 1.826 4.071 4.071z"/><path d="m212.147 186.936c-10.516 0-19.071 8.555-19.071 19.071v18.505c0 10.516 8.555 19.071 19.071 19.071s19.071-8.555 19.071-19.071v-18.505c0-10.516-8.555-19.071-19.071-19.071zm4.071 37.576c0 2.245-1.826 4.071-4.071 4.071s-4.071-1.826-4.071-4.071v-18.505c0-2.245 1.826-4.071 4.071-4.071s4.071 1.826 4.071 4.071z"/><path d="m260.276 242.767c4.143 0 7.5-3.358 7.5-7.5v-40.015c0-4.142-3.357-7.5-7.5-7.5h-8.553c-4.142 0-7.5 3.358-7.5 7.5s3.358 7.5 7.5 7.5h1.053v32.515c0 4.142 3.358 7.5 7.5 7.5z"/><path d="m352.559 242.767c4.143 0 7.5-3.358 7.5-7.5v-40.015c0-4.142-3.357-7.5-7.5-7.5h-8.553c-4.143 0-7.5 3.358-7.5 7.5s3.357 7.5 7.5 7.5h1.053v32.515c0 4.142 3.357 7.5 7.5 7.5z"/><path d="m304.429 186.936c-10.516 0-19.071 8.555-19.071 19.071v18.505c0 10.516 8.556 19.071 19.071 19.071s19.071-8.555 19.071-19.071v-18.505c0-10.516-8.556-19.071-19.071-19.071zm4.071 37.576c0 2.245-1.826 4.071-4.071 4.071s-4.071-1.826-4.071-4.071v-18.505c0-2.245 1.826-4.071 4.071-4.071s4.071 1.826 4.071 4.071z"/><path d="m295.876 120.747h1.053v32.515c0 4.142 3.357 7.5 7.5 7.5s7.5-3.358 7.5-7.5v-40.015c0-4.142-3.357-7.5-7.5-7.5h-8.553c-4.143 0-7.5 3.358-7.5 7.5s3.357 7.5 7.5 7.5z"/><path d="m256 104.931c-10.516 0-19.071 8.555-19.071 19.071v18.505c0 10.516 8.555 19.071 19.071 19.071s19.071-8.555 19.071-19.071v-18.505c0-10.516-8.555-19.071-19.071-19.071zm4.071 37.576c0 2.245-1.826 4.071-4.071 4.071s-4.071-1.826-4.071-4.071v-18.505c0-2.245 1.826-4.071 4.071-4.071s4.071 1.826 4.071 4.071z"/><path d="m348.282 104.931c-10.516 0-19.071 8.555-19.071 19.071v18.505c0 10.516 8.556 19.071 19.071 19.071s19.071-8.555 19.071-19.071v-18.505c.001-10.516-8.555-19.071-19.071-19.071zm4.072 37.576c0 2.245-1.826 4.071-4.071 4.071s-4.071-1.826-4.071-4.071v-18.505c0-2.245 1.826-4.071 4.071-4.071s4.071 1.826 4.071 4.071z"/><path d="m212.147 270.165h-8.553c-4.142 0-7.5 3.358-7.5 7.5s3.358 7.5 7.5 7.5h1.053v32.515c0 4.142 3.358 7.5 7.5 7.5s7.5-3.358 7.5-7.5v-40.015c0-4.143-3.358-7.5-7.5-7.5z"/><path d="m163.718 269.348c-10.516 0-19.071 8.555-19.071 19.071v18.505c0 10.516 8.555 19.071 19.071 19.071s19.071-8.555 19.071-19.071v-18.505c0-10.516-8.555-19.071-19.071-19.071zm4.071 37.576c0 2.245-1.826 4.071-4.071 4.071s-4.071-1.826-4.071-4.071v-18.505c0-2.245 1.826-4.071 4.071-4.071s4.071 1.826 4.071 4.071z"/><path d="m304.429 270.165h-8.553c-4.143 0-7.5 3.358-7.5 7.5s3.357 7.5 7.5 7.5h1.053v32.515c0 4.142 3.357 7.5 7.5 7.5s7.5-3.358 7.5-7.5v-40.015c0-4.143-3.358-7.5-7.5-7.5z"/><path d="m256 269.348c-10.516 0-19.071 8.555-19.071 19.071v18.505c0 10.516 8.555 19.071 19.071 19.071s19.071-8.555 19.071-19.071v-18.505c0-10.516-8.555-19.071-19.071-19.071zm4.071 37.576c0 2.245-1.826 4.071-4.071 4.071s-4.071-1.826-4.071-4.071v-18.505c0-2.245 1.826-4.071 4.071-4.071s4.071 1.826 4.071 4.071z"/><path d="m348.282 269.348c-10.516 0-19.071 8.555-19.071 19.071v18.505c0 10.516 8.556 19.071 19.071 19.071s19.071-8.555 19.071-19.071v-18.505c.001-10.516-8.555-19.071-19.071-19.071zm4.072 37.576c0 2.245-1.826 4.071-4.071 4.071s-4.071-1.826-4.071-4.071v-18.505c0-2.245 1.826-4.071 4.071-4.071s4.071 1.826 4.071 4.071z"/></g></g></svg>