<?xml version="1.0" encoding="iso-8859-1"?>
<!-- Generator: Adobe Illustrator 19.0.0, SVG Export Plug-In . SVG Version: 6.00 Build 0)  -->
<svg version="1.1" id="Capa_1" xmlns="http://www.w3.org/2000/svg" xmlns:xlink="http://www.w3.org/1999/xlink" x="0px" y="0px"
	 viewBox="0 0 512 512" style="enable-background:new 0 0 512 512;" xml:space="preserve">
<g>
	<g>
		<path d="M487.619,41.142H24.381C10.971,41.142,0,52.114,0,65.523v323.048c0,13.409,10.971,24.381,24.381,24.381h176.762v39.619
			h-48.762c-5.047,0-9.143,4.09-9.143,9.143c0,5.047,4.096,9.143,9.143,9.143h213.334c5.047,0,9.143-4.096,9.143-9.143
			c0-5.053-4.096-9.143-9.143-9.143h-54.857v-39.619h176.762c13.409,0,24.381-10.971,24.381-24.381V65.523
			C512,52.114,501.029,41.142,487.619,41.142z M18.286,65.523c0-3.303,2.792-6.095,6.095-6.095H487.62
			c3.303,0,6.095,2.792,6.095,6.095v259.048H18.286V65.523z M292.571,452.571h-73.143v-39.619h73.143V452.571z M493.715,388.572
			c0,3.303-2.792,6.095-6.096,6.095H24.381c-3.303,0-6.095-2.792-6.095-6.095v-45.714h475.429V388.572z"/>
	</g>
</g>
<g>
	<g>
		<path d="M383.25,92.214H244.542c-12.197,0.036-22.029,9.868-22.065,22.071v32.786h-93.738
			c-12.203,0.031-22.034,9.868-22.071,22.071v89.606c0.036,12.197,9.867,22.034,22.07,22.065h-0.049l19.109,0.091v22.333
			c0,3.584,2.096,6.839,5.358,8.326c3.26,1.481,7.095,0.92,9.795-1.438l33.482-29.221l71.034-0.091
			c12.185-0.036,22.016-9.868,22.053-22.065v-32.738l26.039,0.031l33.481,29.221c2.7,2.359,6.528,2.92,9.795,1.438
			c3.26-1.487,5.358-4.742,5.358-8.326v-22.333l19.102-0.091h-0.043c12.197-0.031,22.034-9.868,22.071-22.065v-89.6
			C405.285,102.089,395.447,92.251,383.25,92.214z M271.245,258.749c0,1.031-0.402,1.932-1.122,2.664
			c-0.725,0.713-1.633,1.115-2.664,1.122l-74.472,0.097c-2.188,0-4.352,0.817-5.997,2.255l-20.907,18.243v-11.313
			c0-5.023-4.078-9.119-9.1-9.143l-28.202-0.134h-0.043c-1.036,0-1.939-0.402-2.67-1.122c-0.713-0.725-1.122-1.628-1.122-2.664
			l0.007-89.612c0-1.036,0.402-1.939,1.122-2.664c0.725-0.713,1.633-1.115,2.67-1.122h138.715c1.031,0,1.932,0.402,2.664,1.122
			c0.713,0.725,1.122,1.628,1.122,2.664V258.749z M387.061,203.891c0,1.031-0.402,1.932-1.122,2.664
			c-0.725,0.713-1.633,1.115-2.67,1.122h-0.049l-28.202,0.134c-5.016,0.024-9.094,4.12-9.094,9.143v11.313l-20.907-18.249
			c-1.652-1.438-3.809-2.25-5.998-2.255l-29.495-0.031v-38.589c-0.036-12.197-9.868-22.034-22.065-22.071h-26.698v-32.786h0
			c0-1.036,0.402-1.939,1.122-2.664c0.725-0.713,1.633-1.115,2.664-1.122h138.722c1.036,0,1.939,0.402,2.67,1.122
			c0.713,0.725,1.122,1.628,1.122,2.664V203.891z"/>
	</g>
</g>
<g>
	<g>
		<circle cx="167.615" cy="233.143" r="9.143"/>
	</g>
</g>
<g>
	<g>
		<circle cx="198.096" cy="233.143" r="9.143"/>
	</g>
</g>
<g>
	<g>
		<circle cx="228.576" cy="233.143" r="9.143"/>
	</g>
</g>
<g>
</g>
<g>
</g>
<g>
</g>
<g>
</g>
<g>
</g>
<g>
</g>
<g>
</g>
<g>
</g>
<g>
</g>
<g>
</g>
<g>
</g>
<g>
</g>
<g>
</g>
<g>
</g>
<g>
</g>
</svg>
