<?xml version="1.0" encoding="iso-8859-1"?>
<!-- Generator: Adobe Illustrator 18.1.1, SVG Export Plug-In . SVG Version: 6.00 Build 0)  -->
<svg version="1.1" id="Capa_1" xmlns="http://www.w3.org/2000/svg" xmlns:xlink="http://www.w3.org/1999/xlink" x="0px" y="0px"
	 viewBox="0 0 317.266 317.266" style="enable-background:new 0 0 317.266 317.266;" xml:space="preserve">
<g>
	<g>
		<g>
			<path style="fill:#010002;" d="M0,30.568v206.223h317.266V30.568H0z M301.403,220.929H15.862V46.431h285.538v174.498H301.403z"/>
			<path style="fill:#010002;" d="M162.695,159.773l-27.206,5.442v24.145l27.206,5.426c0.904,2.711,1.934,5.315,3.204,7.803
				l-6.916,10.375h114.026l-6.932-10.375c1.302-2.491,2.316-5.076,3.22-7.803l27.174-5.426l0.032-24.145l-27.238-5.442
				c-0.888-2.711-1.921-5.315-3.188-7.82l15.37-23.05l-17.07-17.1l-23.082,15.37c-2.442-1.237-5.14-2.031-7.742-2.935l-5.52-27.475
				h-24.129l-5.52,27.475c-2.633,0.92-5.299,1.697-7.742,2.935l-23.08-15.37l-17.084,17.084l15.37,23.066
				C164.613,154.461,163.582,157.062,162.695,159.773z M215.995,149.1c15.561,0,28.174,12.626,28.174,28.188
				s-12.61,28.188-28.174,28.188c-15.561,0-28.188-12.626-28.188-28.188C187.805,161.726,200.432,149.1,215.995,149.1z"/>
			<path style="fill:#010002;" d="M67.356,130.919l3.11,11.661l13.864-0.888c0.777,1.205,1.619,2.332,2.539,3.362l-4.425,13.119
				l10.453,6.028l9.154-10.391c1.332,0.269,2.744,0.301,4.124,0.395l6.219,12.565l11.661-3.11l-0.904-13.99
				c1.127-0.777,2.332-1.506,3.362-2.41l13.135,4.409l6.028-10.437l-10.407-9.154c0.301-1.364,0.46-2.744,0.525-4.204l12.422-6.138
				l-3.093-11.661l-13.864,0.904c-0.777-1.221-1.619-2.332-2.553-3.395l4.441-13.119l-10.453-6.028l-9.154,10.407
				c-1.332-0.269-2.744-0.317-4.124-0.395l-6.219-12.565l-11.661,3.11l0.904,13.99c-1.143,0.777-2.332,1.506-3.362,2.41
				l-13.135-4.425l-6.028,10.453l10.407,9.154c-0.301,1.364-0.46,2.76-0.525,4.204L67.356,130.919z M104.143,112.708
				c7.518-2.015,15.244,2.459,17.259,9.963c2.015,7.502-2.442,15.244-9.961,17.259c-7.518,2.015-15.244-2.459-17.259-9.963
				C92.168,122.461,96.622,114.723,104.143,112.708z"/>
			<polygon style="fill:#010002;" points="111.043,254.97 79.315,286.697 237.948,286.697 206.223,254.97 			"/>
		</g>
	</g>
</g>
<g>
</g>
<g>
</g>
<g>
</g>
<g>
</g>
<g>
</g>
<g>
</g>
<g>
</g>
<g>
</g>
<g>
</g>
<g>
</g>
<g>
</g>
<g>
</g>
<g>
</g>
<g>
</g>
<g>
</g>
</svg>
