<?xml version="1.0" encoding="iso-8859-1"?>
<!-- Generator: Adobe Illustrator 19.0.0, SVG Export Plug-In . SVG Version: 6.00 Build 0)  -->
<svg version="1.1" id="Capa_1" xmlns="http://www.w3.org/2000/svg" xmlns:xlink="http://www.w3.org/1999/xlink" x="0px" y="0px"
	 viewBox="0 0 490.676 490.676" style="enable-background:new 0 0 490.676 490.676;" xml:space="preserve">
<g>
	<g>
		<path d="M458.667,352.005H448v64c11.782,0,21.333-9.551,21.333-21.333v-32C469.333,356.78,464.558,352.005,458.667,352.005z"/>
	</g>
</g>
<g>
	<g>
		<path d="M394.667,53.338h-320c-29.441,0.035-53.298,23.893-53.333,53.333v245.333H10.667C4.776,352.005,0,356.78,0,362.671v32
			c0,11.782,9.551,21.333,21.333,21.333H352v-21.333H21.333v-21.333H192c0,5.891,4.776,10.667,10.667,10.667h64
			c5.891,0,10.667-4.776,10.667-10.667H352v-21.333H42.667V106.671c0-17.673,14.327-32,32-32h320c17.673,0,32,14.327,32,32H448
			C447.965,77.231,424.107,53.373,394.667,53.338z"/>
	</g>
</g>
<g>
	<g>
		<path d="M362.667,117.338V96.005h-288C68.776,96.005,64,100.78,64,106.671v213.333c0,5.891,4.776,10.667,10.667,10.667H352
			v-21.333H85.333v-192H362.667z"/>
	</g>
</g>
<g>
	<g>
		<path d="M362.667,202.671H384c0-11.782,9.551-21.333,21.333-21.333v-21.333C381.769,160.005,362.667,179.107,362.667,202.671z"/>
	</g>
</g>
<g>
	<g>
		<path d="M489.997,191.938c-5.891-46.759-48.572-79.888-95.331-73.997c-46.759,5.891-79.888,48.572-73.997,95.331
			c4.872,38.67,35.327,69.125,73.997,73.997v24.032c-12.74,4.504-21.277,16.525-21.333,30.037v64c0,17.673,14.327,32,32,32
			s32-14.327,32-32v-64c-0.056-13.512-8.594-25.533-21.333-30.037v-24.032C462.759,281.378,495.888,238.696,489.997,191.938z
			 M416,405.338c0,5.891-4.776,10.667-10.667,10.667c-5.891,0-10.667-4.776-10.667-10.667v-64c0-5.891,4.776-10.667,10.667-10.667
			c5.891,0,10.667,4.776,10.667,10.667V405.338z M405.333,266.671c-35.332-0.035-63.965-28.668-64-64c0-35.346,28.654-64,64-64
			c35.346,0,64,28.654,64,64C469.333,238.017,440.68,266.671,405.333,266.671z"/>
	</g>
</g>
<g>
	<g>
		<rect x="213.333" y="202.671" width="21.333" height="21.333"/>
	</g>
</g>
<g>
	<g>
		<rect x="149.333" y="202.671" width="21.333" height="21.333"/>
	</g>
</g>
<g>
	<g>
		<rect x="277.333" y="202.671" width="21.333" height="21.333"/>
	</g>
</g>
<g>
</g>
<g>
</g>
<g>
</g>
<g>
</g>
<g>
</g>
<g>
</g>
<g>
</g>
<g>
</g>
<g>
</g>
<g>
</g>
<g>
</g>
<g>
</g>
<g>
</g>
<g>
</g>
<g>
</g>
</svg>
