<svg xmlns="http://www.w3.org/2000/svg" viewBox="0 0 660.46 660.46"><defs><style>.cls-1{fill:#00204e;}.cls-2{fill:#fff;}</style></defs><g id="Layer_2" data-name="Layer 2"><g id="Layer_1-2" data-name="Layer 1"><circle class="cls-1" cx="330.23" cy="330.23" r="330.23"/><path class="cls-1" d="M330.23,631.78A301.55,301.55,0,0,1,117,117,301.55,301.55,0,0,1,543.46,543.46,299.56,299.56,0,0,1,330.23,631.78Z"/><path class="cls-2" d="M330.23,34.68c163.23,0,295.55,132.32,295.55,295.55S493.46,625.78,330.23,625.78,34.68,493.46,34.68,330.23,167,34.68,330.23,34.68m0-12A307.63,307.63,0,0,0,210.51,613.61,307.63,307.63,0,0,0,450,46.85,305.7,305.7,0,0,0,330.23,22.68Z"/><path class="cls-2" d="M72.89,387.31a45.61,45.61,0,0,1-8.38-14.83,35.79,35.79,0,0,1-2.87-14.12V298.43a35.6,35.6,0,0,1,2.87-14,45.71,45.71,0,0,1,8.38-14.83l.41-.41a48.35,48.35,0,0,1,18-11.09,36.35,36.35,0,0,1,14.22-2.83h45.83a36.81,36.81,0,0,1,14.21,2.83,48.42,48.42,0,0,1,17.9,11.09l.41.41a42.48,42.48,0,0,1,8.29,14.63,23.23,23.23,0,0,1,1,4.23l1.74,9.29H169l-1.94-5.25a21.78,21.78,0,0,0-3.38-6.26,20.72,20.72,0,0,0-12.37-4.43H104.5A15.89,15.89,0,0,0,93,286.33a19.33,19.33,0,0,0-4.5,12.1v59.93A19.49,19.49,0,0,0,93,370.57a15.93,15.93,0,0,0,11.46,4.54h46.85a20.43,20.43,0,0,0,12.37-4.54,23.91,23.91,0,0,0,3.38-6.16l1.94-5.34h25.78l-1.64,9.28a27.14,27.14,0,0,1-.92,4.13,43.45,43.45,0,0,1-8.39,14.83,28.56,28.56,0,0,1-2.66,2.53,50.51,50.51,0,0,1-15.65,9,37,37,0,0,1-14.21,2.82H105.52a36.52,36.52,0,0,1-14.22-2.82,48.5,48.5,0,0,1-18-11.1Z"/><path class="cls-2" d="M282.68,401.54c-.88.07-1.46.1-1.74.1H251q-28.64,0-40.4-27.74h-.1c-.68-1.95-1.25-3.67-1.69-5.15s-.82-3-1.12-4.49a20.18,20.18,0,0,1-.47-4h5.07c2.83,0,5.91,0,9.26,0s7.56-.05,12.68-.05l2,4.94c.14.34.31.77.52,1.31a15.81,15.81,0,0,0,1.68,3.78,9.56,9.56,0,0,0,4,3.43q2.86,1.47,8.49,1.47h30a10.93,10.93,0,0,0,2.87-.31l1.94-.3a8.21,8.21,0,0,0,.82-.3c.34-.13.65-.27.92-.4l1.13-.41a28.84,28.84,0,0,0,4.8-2.92l.31-.41a14.76,14.76,0,0,0,3.78-8.47l.21-.91c.07-.81.1-1.58.1-2.32s0-1.38-.1-2.12a25,25,0,0,0-1.07-4.74,13.47,13.47,0,0,0-3-5,20.92,20.92,0,0,0-12.79-4.75H251q-12.57,0-19.07-3.68a42.06,42.06,0,0,1-9.57-6.91l-.92-.81a3.61,3.61,0,0,1-1-.91A39.06,39.06,0,0,1,211,316.29a43.36,43.36,0,0,1-3.79-17.86c0-1.27,0-2.55.11-3.83a42.9,42.9,0,0,1,9.1-22.9l.72-.81.1-.1c0-.07,0-.1.1-.1l1.64-1.82a27.09,27.09,0,0,1,2.45-2.32,37.26,37.26,0,0,1,13.3-8.47A47.06,47.06,0,0,1,251,255.25h30c.48,0,1.06,0,1.74.1A54.81,54.81,0,0,1,297,259a52.42,52.42,0,0,1,7.06,3.23l1.43.81a44.44,44.44,0,0,1,7.67,6.15l.11.11h.3l2.46,3.43.1.1v.1l1.23,1.81a43.08,43.08,0,0,1,4.5,9.49c.27,1,.47,1.88.61,2.62l2.35,9.58-27,.1-2.05-5a20,20,0,0,0-2.14-3,22.29,22.29,0,0,0-5.12-4.49,13.41,13.41,0,0,0-7.57-2.16H251a19.43,19.43,0,0,0-8.69,1.81,8,8,0,0,0-1.33.71,2.11,2.11,0,0,0-.51.4l-.51.4-.21.21a.26.26,0,0,0-.2.1c-.41.33-.72.6-.92.8l-.11.11-.3.4a16,16,0,0,0-5.12,11.7,14.78,14.78,0,0,0,.62,4.34,16.94,16.94,0,0,0,4.91,7.87q4.4,4.55,12.37,4.54h29.87q16.16,0,29.66,11.3l.31.3c0,.07.07.14.21.2a1.89,1.89,0,0,0,.2.2,38.88,38.88,0,0,1,9.62,13.32,48.3,48.3,0,0,1,2.55,7.27,43.62,43.62,0,0,1-2.45,28.45,39.37,39.37,0,0,1-4.91,8.17,38.46,38.46,0,0,1-5.42,5.85c-1.43,1.08-2.63,1.92-3.58,2.52s-1.84,1.21-2.87,1.82a67.82,67.82,0,0,1-7.26,3.33A57,57,0,0,1,282.68,401.54Z"/><path class="cls-2" d="M412.59,401.54c-.89.07-1.47.1-1.74.1h-30q-28.65,0-40.4-27.74h-.11q-1-2.92-1.68-5.15c-.45-1.48-.82-3-1.13-4.49a20.09,20.09,0,0,1-.46-4h5.06q4.24,0,9.26,0t12.68-.05l2,4.94c.13.34.31.77.51,1.31a15.48,15.48,0,0,0,1.69,3.78,9.49,9.49,0,0,0,4,3.43q2.87,1.47,8.49,1.47h30a10.84,10.84,0,0,0,2.86-.31l2-.3q.3-.09.81-.3c.34-.13.65-.27.93-.4l1.12-.41a28.9,28.9,0,0,0,4.81-2.92l.3-.41a14.7,14.7,0,0,0,3.79-8.47l.2-.91c.07-.81.11-1.58.11-2.32s0-1.38-.11-2.12a23.5,23.5,0,0,0-1.07-4.74,13.34,13.34,0,0,0-3-5q-6.24-4.75-12.78-4.75H380.88q-12.58,0-19.08-3.68a41.74,41.74,0,0,1-9.56-6.91l-.92-.81a3.49,3.49,0,0,1-1-.91,39.2,39.2,0,0,1-9.41-13.11,43.35,43.35,0,0,1-3.78-17.86c0-1.27,0-2.55.1-3.83a42.79,42.79,0,0,1,9.11-22.9l.71-.81.1-.1c0-.07,0-.1.11-.1l1.63-1.82a26,26,0,0,1,2.46-2.32,37.14,37.14,0,0,1,13.29-8.47,47.16,47.16,0,0,1,16.27-2.83h30c.47,0,1,0,1.74.1A55,55,0,0,1,426.91,259a53,53,0,0,1,7.06,3.23l1.43.81a44.44,44.44,0,0,1,7.67,6.15l.1.11h.31l2.45,3.43.1.1v.1l1.23,1.81a43.08,43.08,0,0,1,4.5,9.49c.27,1,.48,1.88.62,2.62l2.35,9.58-27,.1-2.05-5a19.54,19.54,0,0,0-2.15-3,22.22,22.22,0,0,0-5.11-4.49,13.46,13.46,0,0,0-7.57-2.16h-30a19.5,19.5,0,0,0-8.7,1.81,8.43,8.43,0,0,0-1.33.71,2.58,2.58,0,0,0-.51.4l-.51.4-.2.21a.29.29,0,0,0-.21.1c-.41.33-.71.6-.92.8l-.1.11-.31.4a15.93,15.93,0,0,0-5.11,11.7,14.78,14.78,0,0,0,.61,4.34,17,17,0,0,0,4.91,7.87q4.39,4.55,12.38,4.54h29.87q16.15,0,29.66,11.3l.31.3c0,.07.06.14.2.2l.21.2a38.85,38.85,0,0,1,9.61,13.32,49.45,49.45,0,0,1,2.56,7.27,44,44,0,0,1,1.33,10.59,43.39,43.39,0,0,1-3.79,17.86,38.94,38.94,0,0,1-4.91,8.17,38,38,0,0,1-5.42,5.85q-2.14,1.62-3.58,2.52c-.89.61-1.84,1.21-2.86,1.82a69.69,69.69,0,0,1-7.26,3.33A57,57,0,0,1,412.59,401.54Z"/><path class="cls-2" d="M478.25,387.31a45.61,45.61,0,0,1-8.38-14.83A35.79,35.79,0,0,1,467,358.36V298.43a35.6,35.6,0,0,1,2.87-14,45.71,45.71,0,0,1,8.38-14.83l.41-.41a48.39,48.39,0,0,1,18-11.09,36.33,36.33,0,0,1,14.21-2.83h45.83a36.86,36.86,0,0,1,14.22,2.83,48.5,48.5,0,0,1,17.9,11.09l.41.41a42.62,42.62,0,0,1,8.28,14.63,23.23,23.23,0,0,1,1,4.23l1.74,9.29H574.4l-1.94-5.25a22,22,0,0,0-3.37-6.26,20.75,20.75,0,0,0-12.38-4.43H509.86a15.89,15.89,0,0,0-11.46,4.54,19.33,19.33,0,0,0-4.5,12.1v59.93a19.49,19.49,0,0,0,4.5,12.21,15.93,15.93,0,0,0,11.46,4.54h46.85a20.46,20.46,0,0,0,12.38-4.54,24.17,24.17,0,0,0,3.37-6.16l1.94-5.34h25.78l-1.64,9.28a27.14,27.14,0,0,1-.92,4.13,43.59,43.59,0,0,1-8.38,14.83,31.29,31.29,0,0,1-2.66,2.53,50.63,50.63,0,0,1-15.65,9,37,37,0,0,1-14.22,2.82H510.88a36.51,36.51,0,0,1-14.21-2.82,48.54,48.54,0,0,1-18-11.1Z"/><path class="cls-2" d="M310.5,224.61a12,12,0,0,1-4.34,9.57,13,13,0,0,1-18.2,0,12,12,0,0,1-4.34-9.57V203.94h5.92v20.67a7.68,7.68,0,0,0,2.1,5.1,6.87,6.87,0,0,0,5.43,2.43,6.53,6.53,0,0,0,5.35-2.38,8.05,8.05,0,0,0,1.93-5.15V203.94h6.15Z"/><path class="cls-2" d="M329.94,237.42h-6.15V210H313.31v-6.07h26.88V210H329.94Z"/><path class="cls-2" d="M362,223.71h-2.78l-10.11-10.87v24.58H343v-33.6h5.61l12.05,13,12.17-13h5.47v33.6h-5.92V212.64Z"/><path class="cls-2" d="M154.4,202.71a9.42,9.42,0,0,1-3.54-.6,7.59,7.59,0,0,1-2.68-1.41l-9.79-8a7.58,7.58,0,0,1-1.91-2.33,9.74,9.74,0,0,1-1.3-3.35v-.12a10.13,10.13,0,0,1,.58-4.41,7.64,7.64,0,0,1,1.43-2.7l6.09-7.48a8,8,0,0,1,2.36-2,10.09,10.09,0,0,1,4.19-1.44l.12,0a9,9,0,0,1,3.49.59,5.78,5.78,0,0,1,.83.4l1.74,1-3.44,4.23-1.11-.38a4.42,4.42,0,0,0-1.47-.28,4.32,4.32,0,0,0-2.37,1.43l-6.24,7.65a3.4,3.4,0,0,0-.78,2.47,4.14,4.14,0,0,0,1.38,2.35l9.79,8a4.1,4.1,0,0,0,2.59.89,3.37,3.37,0,0,0,2.26-1.27l6.23-7.65a4.25,4.25,0,0,0,.91-2.62,4.86,4.86,0,0,0-.56-1.37l-.61-1,3.43-4.21,1.29,1.5a5.37,5.37,0,0,1,.56.7,9.12,9.12,0,0,1,1.3,3.34,5.75,5.75,0,0,1,.06.77,10.68,10.68,0,0,1-.61,3.75,7.8,7.8,0,0,1-1.43,2.7l-6.1,7.48a7.85,7.85,0,0,1-2.35,2,10.12,10.12,0,0,1-4.21,1.46Z"/><path class="cls-2" d="M177.35,146.7A10.28,10.28,0,0,1,179.1,148l.09.06,9.65,10.41a2.57,2.57,0,0,1,.28.37,8,8,0,0,1,.9,1.4,9.29,9.29,0,0,1,.84,3.51,4.58,4.58,0,0,1-.06.78,10.13,10.13,0,0,1-1.13,3.63,7.65,7.65,0,0,1-1.78,2.48l-7.07,6.57a7.59,7.59,0,0,1-2.6,1.6,10.16,10.16,0,0,1-4.37.87h-.1a9.16,9.16,0,0,1-3.42-1.09,7.47,7.47,0,0,1-2.47-1.77l-8.59-9.24A7.3,7.3,0,0,1,157.7,165a9.52,9.52,0,0,1-.84-3.49v-.11a10.35,10.35,0,0,1,1.19-4.29,7.84,7.84,0,0,1,1.78-2.48l7.07-6.57a8,8,0,0,1,2.6-1.6,10.24,10.24,0,0,1,4.37-.87H174A9,9,0,0,1,177.35,146.7Zm7.32,15.36-9.43-10.14a3.19,3.19,0,0,0-4.54.27l-7.23,6.72a3.36,3.36,0,0,0-1.1,2.33,4.06,4.06,0,0,0,1,2.51L172,173a4,4,0,0,0,2.43,1.22,3.3,3.3,0,0,0,2.42-.91l7.22-6.72a4.28,4.28,0,0,0,1.26-2.48A4.37,4.37,0,0,0,184.67,162.06Z"/><path class="cls-2" d="M202.91,143.12l-2.11,1.45-13.34-3,12.8,18.66-4.67,3.21-17.5-25.52,4.26-2.92,15.91,3.57,2.48-16.18,4.16-2.85,17.5,25.51-4.5,3.09L205,129.33Z"/><path class="cls-2" d="M236.87,120.39a8.58,8.58,0,0,1-1.72,3.3,7.87,7.87,0,0,1-3,2.58l-9,4.49,5.62,11.3-4.88,2.43-13.73-27.6L224.09,110a9.27,9.27,0,0,1,3.59-.91,10.68,10.68,0,0,1,6.41,2.11,8.92,8.92,0,0,1,2.3,2.83,9.62,9.62,0,0,1,1,3.25v.1A7.94,7.94,0,0,1,236.87,120.39Zm-5.25-1.14a4.14,4.14,0,0,0-.3-2.72,4.24,4.24,0,0,0-2-1.88,4.4,4.4,0,0,0-2.75.32l-9,4.49,3.13,6.3,9-4.49A4.33,4.33,0,0,0,231.62,119.25Z"/><path class="cls-2" d="M267,113.42a11,11,0,0,1-.82,9.63,12,12,0,0,1-15.8,5.6,11,11,0,0,1-6.71-7l-6.36-17.94,5.14-1.82,6.36,17.94a7.09,7.09,0,0,0,3.39,3.78,6.33,6.33,0,0,0,5.46.43,6,6,0,0,0,3.91-3.7,7.35,7.35,0,0,0,.09-5.06l-6.36-18,5.35-1.89Z"/><path class="cls-2" d="M287.57,120.75,282,122l-5.45-24.65-9.42,2.08L266,94l24.17-5.34,1.21,5.46-9.22,2Z"/><path class="cls-2" d="M298.48,118.45l-2.89-30.69,24.64-2.32.53,5.57-19,1.78.66,7,15.87-1.49.53,5.57-15.87,1.49.65,7,19-1.79.52,5.57Z"/><path class="cls-2" d="M352.25,117l-6.73-.24L337,103.81l-6.09-.22-.46,12.62-5.66-.21,1.11-30.81,15.71.56a8.34,8.34,0,0,1,3.4.91,7.15,7.15,0,0,1,2.9,2.09,9.78,9.78,0,0,1,1.88,2.74l.08.22a10.55,10.55,0,0,1,.44,3.46,9.68,9.68,0,0,1-.7,3.31,10.41,10.41,0,0,1-1.71,2.53l0,0a9.17,9.17,0,0,1-4.41,2.59ZM341.13,98.37a3.3,3.3,0,0,0,2.45-.87,3.41,3.41,0,0,0,.16-5.14,3.18,3.18,0,0,0-2.36-1L331.33,91l-.25,7Z"/><path class="cls-2" d="M380,122l-.36-.06-6.17-1.34q-5.9-1.27-7.08-7.52h0c-.05-.43-.09-.81-.11-1.14s0-.65,0-1a4.69,4.69,0,0,1,.09-.84l1,.23,1.91.4,2.61.56.2,1.1c0,.08,0,.18.05.3a3.12,3.12,0,0,0,.17.85,2.08,2.08,0,0,0,.68.89,4.18,4.18,0,0,0,1.68.68l6.17,1.34a2.36,2.36,0,0,0,.61.06l.41,0,.18,0,.21,0,.25,0a5.77,5.77,0,0,0,1.12-.39l.08-.07a3.15,3.15,0,0,0,1.16-1.57l.08-.18a4.64,4.64,0,0,0,.12-.47c0-.14.06-.29.08-.45a5,5,0,0,0,0-1,2.77,2.77,0,0,0-.4-1.17,4.4,4.4,0,0,0-2.42-1.55l-6.14-1.33a8.43,8.43,0,0,1-3.76-1.61,8.66,8.66,0,0,1-1.66-1.86l-.16-.2a1,1,0,0,1-.17-.23,8.46,8.46,0,0,1-1.35-3.12,9.25,9.25,0,0,1,0-3.85c.06-.26.12-.52.2-.78a8.74,8.74,0,0,1,1.38-2.72,9.22,9.22,0,0,1,1.51-1.59l.19-.13,0,0s0,0,0,0l.42-.3a6,6,0,0,1,.6-.36,7.76,7.76,0,0,1,3.12-1.15,9.9,9.9,0,0,1,3.47.14l6.17,1.34.35.1a11.37,11.37,0,0,1,2.79,1.39,9.92,9.92,0,0,1,1.31,1l.26.23a9.56,9.56,0,0,1,1.3,1.61l0,0,.06,0,.35.81,0,0v0l.17.43a9.09,9.09,0,0,1,.51,2.15c0,.22,0,.41,0,.57l.05,2.08-5.56-1.19-.2-1.13a3.91,3.91,0,0,0-.3-.72,4.84,4.84,0,0,0-.85-1.15,2.85,2.85,0,0,0-1.47-.79l-6.16-1.34a4.07,4.07,0,0,0-1.87,0l-.31.08-.12.06-.13.06-.05,0s0,0,0,0l-.23.12,0,0-.09.07a3.35,3.35,0,0,0-1.57,2.18,3.23,3.23,0,0,0-.07.92,3.62,3.62,0,0,0,.66,1.84,3.45,3.45,0,0,0,2.34,1.48l6.15,1.34a9.53,9.53,0,0,1,5.6,3.65l.05.08a.09.09,0,0,0,0,0l0,0a8.34,8.34,0,0,1,1.38,3.17,10.42,10.42,0,0,1,.2,1.61,9.21,9.21,0,0,1-.2,2.24A9,9,0,0,1,389,118.5a8.31,8.31,0,0,1-1.37,1.46,9.14,9.14,0,0,1-1.38,1c-.34.16-.63.28-.85.36l-.67.24a14.48,14.48,0,0,1-1.64.36A12.09,12.09,0,0,1,380,122Z"/><path class="cls-2" d="M393.5,122.22a9.21,9.21,0,0,1-.61-3.54,7.65,7.65,0,0,1,.43-3l4.25-11.89a7.62,7.62,0,0,1,1.57-2.58,9.29,9.29,0,0,1,2.71-2.34l.09-.06a10.43,10.43,0,0,1,4.36-.92,7.73,7.73,0,0,1,3,.45l9.09,3.25a7.72,7.72,0,0,1,2.61,1.56,10.22,10.22,0,0,1,2.79,3.48l.05.11a9.07,9.07,0,0,1,.61,3.49c0,.31-.06.61-.1.91l-.32,2-5.15-1.85v-1.17a5.4,5.4,0,0,0-.23-1.48,4.29,4.29,0,0,0-2.16-1.76l-9.29-3.33a3.32,3.32,0,0,0-2.57.1,4.07,4.07,0,0,0-1.75,2.08l-4.25,11.88a4,4,0,0,0,0,2.74,3.31,3.31,0,0,0,1.92,1.71l9.29,3.32a4.33,4.33,0,0,0,2.8,0,5.33,5.33,0,0,0,1.11-1l.74-.93,5.13,1.83-1,1.73a6.39,6.39,0,0,1-.5.74,8.87,8.87,0,0,1-2.69,2.36c-.28.12-.52.23-.73.3a10.18,10.18,0,0,1-3.74.67,7.48,7.48,0,0,1-3-.45l-9.08-3.25a7.54,7.54,0,0,1-2.62-1.57,10.24,10.24,0,0,1-2.79-3.47Z"/><path class="cls-2" d="M436.32,109.24l-12.86,28-5.15-2.36,12.86-28Z"/><path class="cls-2" d="M425.41,137.83l15-26.91L462.06,123l-2.73,4.88-16.66-9.32-3.43,6.14,13.91,7.78-2.72,4.88-13.92-7.78-3.43,6.14L449.74,145,447,149.91Z"/><path class="cls-2" d="M487.16,141l-18.25,24.82-4.68-3.39L465.65,137,453,154.17l-4.57-3.36L466.71,126l4.79,3.53-1.4,25.15,12.49-17Z"/><path class="cls-2" d="M474,166.31a9.07,9.07,0,0,1,.9-3.48,7.57,7.57,0,0,1,1.62-2.56l8.76-9.09a7.39,7.39,0,0,1,2.48-1.71,9,9,0,0,1,3.44-1l.1,0a10.35,10.35,0,0,1,4.36.95,7.89,7.89,0,0,1,2.57,1.64l6.95,6.7a7.51,7.51,0,0,1,1.74,2.5,10,10,0,0,1,1.11,4.31v.13a9.11,9.11,0,0,1-.88,3.43c-.15.27-.3.53-.47.79l-1.09,1.66-3.94-3.8.49-1.06a5.63,5.63,0,0,0,.4-1.44,4.36,4.36,0,0,0-1.25-2.5l-7.1-6.84a3.33,3.33,0,0,0-2.39-1,4.06,4.06,0,0,0-2.45,1.18l-8.75,9.09a4.06,4.06,0,0,0-1.1,2.51,3.28,3.28,0,0,0,1.06,2.35l7.1,6.84a4.29,4.29,0,0,0,2.56,1.13,4.75,4.75,0,0,0,1.41-.44l1.06-.54,3.93,3.78L495,181a7.48,7.48,0,0,1-.76.48,8.92,8.92,0,0,1-3.42,1c-.3,0-.56,0-.79,0a10.14,10.14,0,0,1-3.68-.93,7.67,7.67,0,0,1-2.57-1.64l-7-6.7a7.81,7.81,0,0,1-1.74-2.5,10.52,10.52,0,0,1-1.11-4.31Z"/><path class="cls-2" d="M491.46,187.59l24.1-19.22L531,187.72l-4.36,3.48-11.91-14.92-5.49,4.39,9.94,12.46-4.37,3.48-9.94-12.46-5.5,4.39,11.9,14.92-4.37,3.48Z"/><path class="cls-2" d="M154.4,202.71a9.42,9.42,0,0,1-3.54-.6,7.59,7.59,0,0,1-2.68-1.41l-9.79-8a7.58,7.58,0,0,1-1.91-2.33,9.54,9.54,0,0,1-1.3-3.35v-.12a10,10,0,0,1,.58-4.41,7.64,7.64,0,0,1,1.43-2.7l6.09-7.48a8,8,0,0,1,2.36-2,10.09,10.09,0,0,1,4.19-1.44l.12,0a8.83,8.83,0,0,1,3.49.6,4.84,4.84,0,0,1,.83.39l1.74,1-3.44,4.23-1.11-.38a4.42,4.42,0,0,0-1.47-.28,4.32,4.32,0,0,0-2.37,1.43l-6.24,7.65a3.36,3.36,0,0,0-.78,2.47,4.14,4.14,0,0,0,1.38,2.35l9.79,8a4.1,4.1,0,0,0,2.59.89,3.37,3.37,0,0,0,2.26-1.27l6.23-7.65a4.26,4.26,0,0,0,.91-2.63,4.91,4.91,0,0,0-.56-1.36l-.61-1,3.43-4.21,1.29,1.5a5.37,5.37,0,0,1,.56.7,9.12,9.12,0,0,1,1.3,3.34,5.75,5.75,0,0,1,.06.77,10.68,10.68,0,0,1-.61,3.75,7.8,7.8,0,0,1-1.43,2.7l-6.1,7.48a7.85,7.85,0,0,1-2.35,2,10.12,10.12,0,0,1-4.21,1.46Z"/><path class="cls-2" d="M177.35,146.7A9.9,9.9,0,0,1,179.1,148l.09.06,9.65,10.41a2.57,2.57,0,0,1,.28.37,8.07,8.07,0,0,1,.9,1.41,9.2,9.2,0,0,1,.84,3.5,4.79,4.79,0,0,1-.06.79,10.25,10.25,0,0,1-1.13,3.63,7.71,7.71,0,0,1-1.78,2.47l-7.07,6.57a7.78,7.78,0,0,1-2.6,1.61,10.46,10.46,0,0,1-4.37.87l-.1,0a9.16,9.16,0,0,1-3.42-1.09,7.7,7.7,0,0,1-2.47-1.76l-8.59-9.25A7.3,7.3,0,0,1,157.7,165a9.47,9.47,0,0,1-.84-3.49v-.11a10.35,10.35,0,0,1,1.19-4.29,7.8,7.8,0,0,1,1.78-2.47l7.07-6.58a8,8,0,0,1,2.6-1.6,10.24,10.24,0,0,1,4.37-.87H174A9.16,9.16,0,0,1,177.35,146.7Zm7.32,15.36-9.43-10.14a4.38,4.38,0,0,0-2-.82,4.32,4.32,0,0,0-2.54,1.1l-7.23,6.72a3.32,3.32,0,0,0-1.1,2.32,4,4,0,0,0,1,2.51L172,173a4,4,0,0,0,2.43,1.22,3.3,3.3,0,0,0,2.42-.91l7.22-6.72a4.28,4.28,0,0,0,1.26-2.48A4.37,4.37,0,0,0,184.67,162.06Z"/><path class="cls-2" d="M202.91,143.12l-2.11,1.45-13.34-3,12.8,18.66-4.67,3.21-17.5-25.52,4.26-2.92,15.91,3.57,2.48-16.18,4.16-2.85,17.5,25.52-4.5,3.08L205,129.33Z"/><path class="cls-2" d="M236.87,120.39a8.58,8.58,0,0,1-1.72,3.3,7.87,7.87,0,0,1-3,2.58l-9,4.5,5.62,11.3-4.88,2.42-13.73-27.6L224.09,110a9.45,9.45,0,0,1,3.59-.91,7.22,7.22,0,0,1,3.37.54,7.05,7.05,0,0,1,3,1.57,8.85,8.85,0,0,1,2.3,2.84,9.5,9.5,0,0,1,1,3.24v.1A7.94,7.94,0,0,1,236.87,120.39Zm-5.25-1.14a4.14,4.14,0,0,0-.3-2.72,3.24,3.24,0,0,0-4.74-1.55l-9,4.49,3.13,6.29,9-4.49A4.28,4.28,0,0,0,231.62,119.25Z"/><path class="cls-2" d="M267,113.42a11,11,0,0,1-.82,9.63,12,12,0,0,1-15.8,5.6,11,11,0,0,1-6.71-7l-6.36-17.94,5.14-1.82,6.36,17.94a7.09,7.09,0,0,0,3.39,3.78,6.3,6.3,0,0,0,5.46.43,6,6,0,0,0,3.91-3.7,7.35,7.35,0,0,0,.09-5.06l-6.36-18,5.34-1.89Z"/><path class="cls-2" d="M287.57,120.75,282,122l-5.45-24.65-9.42,2.08L266,94l24.17-5.33,1.21,5.45-9.22,2Z"/><path class="cls-2" d="M298.47,118.45l-2.88-30.69,24.64-2.32.53,5.56-19,1.79.66,7,15.87-1.49.52,5.56-15.87,1.5.66,7,19-1.79.53,5.57Z"/><path class="cls-2" d="M352.25,117l-6.73-.24L337,103.81l-6.09-.22-.46,12.62-5.66-.21,1.11-30.81,15.71.56a8.34,8.34,0,0,1,3.4.91,7.15,7.15,0,0,1,2.9,2.09,9.78,9.78,0,0,1,1.88,2.74l.08.22a10.58,10.58,0,0,1,.44,3.46,9.68,9.68,0,0,1-.7,3.31,10.41,10.41,0,0,1-1.71,2.53l0,0a9.23,9.23,0,0,1-4.41,2.58ZM341.13,98.37a3.3,3.3,0,0,0,2.45-.87A3.48,3.48,0,0,0,344.83,95a3.52,3.52,0,0,0-1.09-2.61,3.23,3.23,0,0,0-2.36-1L331.33,91l-.25,7Z"/><path class="cls-2" d="M380,122l-.37,0-6.16-1.34q-5.9-1.29-7.08-7.52h0q-.07-.64-.12-1.14c0-.32,0-.65,0-1a3.92,3.92,0,0,1,.09-.84l1,.22,1.91.41,2.61.55.2,1.11c0,.08,0,.18,0,.29a3.68,3.68,0,0,0,.18.86,2.14,2.14,0,0,0,.68.89,4.18,4.18,0,0,0,1.68.68l6.17,1.34a2.33,2.33,0,0,0,.6.06l.42,0,.18,0,.21,0,.25,0a6.53,6.53,0,0,0,1.12-.39l.08-.07a3.13,3.13,0,0,0,1.15-1.57l.09-.18a4.81,4.81,0,0,0,.12-.48,4.38,4.38,0,0,0,.08-.44,5,5,0,0,0,0-1,2.77,2.77,0,0,0-.4-1.17,4.35,4.35,0,0,0-2.42-1.55l-6.14-1.34a7.57,7.57,0,0,1-5.42-3.46l-.16-.2a.93.93,0,0,1-.17-.24,8.32,8.32,0,0,1-1.35-3.12,9,9,0,0,1,0-3.84c.06-.26.12-.52.19-.78a9,9,0,0,1,1.39-2.73,9.14,9.14,0,0,1,1.51-1.58l.18-.13,0,0s0,0,0,0l.41-.3c.19-.13.4-.25.61-.37a8,8,0,0,1,3.12-1.15,10.15,10.15,0,0,1,3.47.15l6.17,1.34a2.13,2.13,0,0,1,.35.1,11,11,0,0,1,2.79,1.39,9.92,9.92,0,0,1,1.31,1l.25.23a8.81,8.81,0,0,1,1.31,1.61v0l.07,0,.35.81,0,0v0l.17.43a9,9,0,0,1,.51,2.15,5.39,5.39,0,0,1,0,.57l.06,2.07-5.56-1.18-.2-1.13a3.91,3.91,0,0,0-.3-.72,4.64,4.64,0,0,0-.86-1.15,2.78,2.78,0,0,0-1.46-.79l-6.17-1.34a4.07,4.07,0,0,0-1.87,0,1.47,1.47,0,0,0-.3.08l-.12.06-.13.06-.05,0s0,0,0,0l-.23.12,0,0-.08.07a3.35,3.35,0,0,0-1.57,2.18,3.23,3.23,0,0,0-.07.92,3.62,3.62,0,0,0,.66,1.84,3.45,3.45,0,0,0,2.34,1.48l6.15,1.34a9.53,9.53,0,0,1,5.6,3.65l.05.08s0,0,0,0l0,0a8.21,8.21,0,0,1,1.39,3.17,10.42,10.42,0,0,1,.2,1.61,9.14,9.14,0,0,1-1.78,5.74,8.37,8.37,0,0,1-1.37,1.47,9.14,9.14,0,0,1-1.38,1c-.34.16-.63.28-.85.36l-.67.24a15,15,0,0,1-1.64.36A11.67,11.67,0,0,1,380,122Z"/><path class="cls-2" d="M393.5,122.22a9.21,9.21,0,0,1-.61-3.54,7.65,7.65,0,0,1,.43-3l4.25-11.89a7.62,7.62,0,0,1,1.57-2.58,9.17,9.17,0,0,1,2.71-2.34l.09-.06a10.43,10.43,0,0,1,4.36-.92,7.73,7.73,0,0,1,3,.45l9.09,3.25a7.72,7.72,0,0,1,2.61,1.56,10.32,10.32,0,0,1,2.79,3.48l.05.11a8.88,8.88,0,0,1,.6,3.49,9,9,0,0,1-.09.91l-.32,2-5.15-1.85v-1.17a5.4,5.4,0,0,0-.23-1.48,4.38,4.38,0,0,0-2.16-1.76l-9.29-3.33a3.32,3.32,0,0,0-2.57.1,4.07,4.07,0,0,0-1.75,2.08l-4.25,11.88a4,4,0,0,0,0,2.74,3.25,3.25,0,0,0,1.92,1.71l9.29,3.32a4.33,4.33,0,0,0,2.8,0,5.33,5.33,0,0,0,1.11-1l.74-.93,5.13,1.83-1,1.73a6.39,6.39,0,0,1-.5.74,8.87,8.87,0,0,1-2.69,2.36c-.28.12-.52.23-.73.3a10.18,10.18,0,0,1-3.74.67,7.48,7.48,0,0,1-3-.45l-9.08-3.25a7.54,7.54,0,0,1-2.62-1.57,10.24,10.24,0,0,1-2.79-3.47Z"/><path class="cls-2" d="M436.32,109.24l-12.86,28-5.15-2.36,12.86-28Z"/><path class="cls-2" d="M425.43,137.84l15.05-26.91L462.08,123l-2.73,4.88-16.66-9.32-3.43,6.14,13.91,7.78-2.73,4.88-13.91-7.78-3.43,6.14L449.76,145,447,149.92Z"/><path class="cls-2" d="M487.16,141l-18.25,24.82-4.68-3.39L465.65,137,453,154.17l-4.56-3.36L466.71,126l4.79,3.53-1.41,25.15,12.5-17Z"/><path class="cls-2" d="M474,166.31a9.07,9.07,0,0,1,.9-3.48,7.57,7.57,0,0,1,1.62-2.56l8.76-9.09a7.25,7.25,0,0,1,2.48-1.71,9.18,9.18,0,0,1,3.44-1h.1a10.49,10.49,0,0,1,4.36.94,7.86,7.86,0,0,1,2.57,1.65l6.95,6.69a7.81,7.81,0,0,1,1.74,2.51,10,10,0,0,1,1.11,4.31v.12a9.07,9.07,0,0,1-.88,3.43c-.15.28-.3.54-.47.8l-1.09,1.66-3.94-3.8.49-1.06a5.63,5.63,0,0,0,.4-1.44,4.36,4.36,0,0,0-1.25-2.5l-7.1-6.84a3.33,3.33,0,0,0-2.39-1,4,4,0,0,0-2.45,1.18l-8.75,9.09a4.06,4.06,0,0,0-1.1,2.51,3.28,3.28,0,0,0,1.06,2.35l7.1,6.84a4.29,4.29,0,0,0,2.56,1.13,4.75,4.75,0,0,0,1.41-.44l1.06-.54,3.93,3.78L495,181c-.24.17-.5.33-.76.48a8.92,8.92,0,0,1-3.42,1l-.79,0a10.35,10.35,0,0,1-3.68-.93,7.67,7.67,0,0,1-2.57-1.64l-7-6.7a7.81,7.81,0,0,1-1.74-2.5,10.53,10.53,0,0,1-1.11-4.32Z"/><path class="cls-2" d="M491.46,187.59l24.1-19.22L531,187.71l-4.36,3.49-11.91-14.92-5.49,4.39,9.94,12.46-4.37,3.48-9.94-12.46-5.5,4.38,11.9,14.93-4.37,3.48Z"/><path class="cls-2" d="M125,458c-.11-.18-.17-.29-.2-.35l-3-6.08q-2.89-5.82,1.54-11v0c.33-.34.62-.63.88-.87a8.7,8.7,0,0,1,.8-.68,4.47,4.47,0,0,1,.76-.5c0,.11.22.46.51,1s.6,1.2,1,1.88.78,1.53,1.3,2.57l-.8.91-.22.24a3.18,3.18,0,0,0-.59.73,2.1,2.1,0,0,0-.29,1.16,4.33,4.33,0,0,0,.56,1.88l3,6.08a2.38,2.38,0,0,0,.35.55l.26.37a1.16,1.16,0,0,0,.15.13,1.14,1.14,0,0,0,.17.15l.2.19a6.08,6.08,0,0,0,1.08.68l.11,0a3.3,3.3,0,0,0,2.1-.09l.21-.05c.17-.07.33-.14.48-.22a2.91,2.91,0,0,0,.42-.23,5.89,5.89,0,0,0,.86-.7,3.07,3.07,0,0,0,.71-1.12,4.77,4.77,0,0,0-.33-3.08l-3-6.07a8.85,8.85,0,0,1-1.19-4.25,9.63,9.63,0,0,1,.43-2.64l.07-.27a.79.79,0,0,1,.09-.3,8.76,8.76,0,0,1,1.71-3.24,9.79,9.79,0,0,1,3.24-2.57c.26-.13.52-.26.79-.37a9.54,9.54,0,0,1,5.57-.47l.24.06h0s0,0,0,0l.53.15c.24.07.48.16.73.26a8.49,8.49,0,0,1,3.06,1.84,11,11,0,0,1,2.23,3l3,6.09c.05.09.1.22.16.36a12.53,12.53,0,0,1,.71,3.28,10.26,10.26,0,0,1,.06,1.76l0,.37a9.67,9.67,0,0,1-.47,2.18v0l0,.07-.45.84v0h0l-.24.44a9.63,9.63,0,0,1-1.47,1.87c-.18.16-.34.29-.47.39l-1.71,1.45-2.76-5.47.82-.93a5.16,5.16,0,0,0,.4-.74,5,5,0,0,0,.39-1.5,3,3,0,0,0-.33-1.75l-3-6.09a4.41,4.41,0,0,0-1.25-1.58,1.62,1.62,0,0,0-.28-.2l-.13-.06-.14-.07-.06,0,0,0-.26-.1h0l-.11,0a3.64,3.64,0,0,0-2.9.15,3.52,3.52,0,0,0-.82.57,3.8,3.8,0,0,0-1.1,1.79,3.71,3.71,0,0,0,.33,3l3,6.07A10.26,10.26,0,0,1,143,456l0,.09a.08.08,0,0,0,0,.06l0,.07a8.75,8.75,0,0,1-1.73,3.3,10.26,10.26,0,0,1-1.22,1.25,9.69,9.69,0,0,1-2,1.35,9.9,9.9,0,0,1-4,1,9,9,0,0,1-2.16-.17,9.13,9.13,0,0,1-1.74-.51c-.36-.18-.65-.34-.87-.47s-.44-.25-.66-.4a13.07,13.07,0,0,1-1.41-1.14A12.82,12.82,0,0,1,125,458Z"/><path class="cls-2" d="M140.79,484.15l-3.43-5,22.5-15.29-5.84-8.6,5-3.39,15,22.06-5,3.39-5.72-8.41Z"/><path class="cls-2" d="M177.79,508.73a11.88,11.88,0,0,1-9.92,3.2,12.92,12.92,0,0,1-12.15-13.36,11.89,11.89,0,0,1,4.12-9.57L175,475.19l3.95,4.35-15.18,13.8a7.62,7.62,0,0,0-2.33,5,6.81,6.81,0,0,0,1.84,5.61,6.45,6.45,0,0,0,5.32,2.33,7.86,7.86,0,0,0,5.06-2l15.18-13.8,4.11,4.51Z"/><path class="cls-2" d="M195.47,537.09a10.54,10.54,0,0,1-6.78-2.5l-15.62-12.7,21-25.78,15.62,12.7a8.43,8.43,0,0,1,2.1,2.53,11.09,11.09,0,0,1,1.58,4.53V516a9.79,9.79,0,0,1-.64,3.81,8.11,8.11,0,0,1-1.51,2.88l-8.58,10.55A9.69,9.69,0,0,1,195.47,537.09Zm-.68-32.61-13.36,16.44L192.65,530a3.54,3.54,0,0,0,2.7.84,4.35,4.35,0,0,0,2.51-1.5l8.58-10.55a4.49,4.49,0,0,0,1-2.77,3.65,3.65,0,0,0-1.39-2.45Z"/><path class="cls-2" d="M201.84,544.49l16.86-28.64,23,13.53-3.06,5.19L220.9,524.14l-3.84,6.53,14.81,8.72-3.06,5.19L214,535.86l-3.85,6.53,17.73,10.44L224.83,558Z"/><path class="cls-2" d="M268.47,540.45,255.94,571.2l-5.78-2.31-5.23-27-8.67,21.3-5.65-2.31,12.53-30.77,5.93,2.42,5.17,26.65,8.57-21.06Z"/><path class="cls-2" d="M278.07,577.14l-5.93-1.47,6.53-26.41-10.1-2.49,1.45-5.85,25.89,6.4-1.44,5.85-9.87-2.44Z"/><path class="cls-2" d="M310.57,579.4a10.29,10.29,0,0,1-1.78-3.44,8,8,0,0,1-.54-3.22l.48-13.6a8,8,0,0,1,.76-3.15,10.28,10.28,0,0,1,2-3.3l.09-.09a10.92,10.92,0,0,1,4.17-2.37,8.32,8.32,0,0,1,3.25-.53l10.4.37a8.29,8.29,0,0,1,3.2.76,11,11,0,0,1,4,2.66l.09.09a9.62,9.62,0,0,1,1.76,3.39,5.39,5.39,0,0,1,.2,1l.32,2.11-5.87-.2-.4-1.21a4.86,4.86,0,0,0-.72-1.44,4.61,4.61,0,0,0-2.77-1.11l-10.62-.38a3.64,3.64,0,0,0-2.64.94,4.45,4.45,0,0,0-1.12,2.71L314.35,573a4.44,4.44,0,0,0,.92,2.81,3.63,3.63,0,0,0,2.57,1.12l10.62.38a4.7,4.7,0,0,0,2.85-.93,5.73,5.73,0,0,0,.81-1.37l.49-1.2,5.84.21-.44,2.09a5.79,5.79,0,0,1-.25.93,9.72,9.72,0,0,1-2,3.3,7,7,0,0,1-.62.55,11.49,11.49,0,0,1-3.62,1.91,8.41,8.41,0,0,1-3.25.53l-10.4-.37a8.21,8.21,0,0,1-3.2-.76,10.87,10.87,0,0,1-4-2.66Z"/><path class="cls-2" d="M371,553.22a11.2,11.2,0,0,1,.68,2.27l0,.11,1.87,15.18a2.18,2.18,0,0,1,0,.51,8.42,8.42,0,0,1-.1,1.79,9.79,9.79,0,0,1-1.47,3.59,5.48,5.48,0,0,1-.55.65,11,11,0,0,1-3.27,2.46,8.39,8.39,0,0,1-3.13,1l-10.32,1.28a8.26,8.26,0,0,1-3.28-.24,11.24,11.24,0,0,1-4.37-2l-.08-.09a9.77,9.77,0,0,1-2.3-3.1,8,8,0,0,1-1-3.1L342,560.08a8.08,8.08,0,0,1,.25-3.24,10.55,10.55,0,0,1,1.47-3.58l.06-.09a11.22,11.22,0,0,1,3.74-3,8.32,8.32,0,0,1,3.13-1l10.32-1.29a8.45,8.45,0,0,1,3.28.24,10.92,10.92,0,0,1,4.37,2l.1.08A9.65,9.65,0,0,1,371,553.22Zm-3.3,18-1.85-14.82a4.56,4.56,0,0,0-1.23-2,4.65,4.65,0,0,0-2.91-.65l-10.55,1.31a3.59,3.59,0,0,0-2.43,1.34,4.36,4.36,0,0,0-.67,2.86l1.68,13.49a4.32,4.32,0,0,0,1.35,2.6,3.51,3.51,0,0,0,2.69.73l10.55-1.31a3.48,3.48,0,0,0,3.37-3.58Z"/><path class="cls-2" d="M395.69,559.86l-2.65.8-12.73-7.4,7.09,23.33-5.84,1.78-9.7-31.9,5.34-1.62,15.18,8.83,7.81-15.82,5.19-1.58,9.7,31.9-5.62,1.71-7.15-23.53Z"/><path class="cls-2" d="M432.47,544.61,430,545.88l-13.86-5,11.21,21.65-5.42,2.81-15.33-29.6,4.95-2.57,16.53,5.93,4.8-17,4.83-2.5,15.33,29.61-5.21,2.7-11.32-21.84Z"/><path class="cls-2" d="M473.14,518.7a11.88,11.88,0,0,1,2.25,10.18,12.94,12.94,0,0,1-14.46,10.83,11.93,11.93,0,0,1-9.14-5l-12.3-16.42,4.7-3.53,12.3,16.42a7.68,7.68,0,0,0,4.71,2.8,6.78,6.78,0,0,0,5.75-1.31,6.45,6.45,0,0,0,2.84-5.07,8,8,0,0,0-1.53-5.23L456,505.94l4.89-3.66Z"/><path class="cls-2" d="M481.43,481.86l23.49,23.46-4.36,4.44-26.9-5.64,16.27,16.25-4.32,4.32L462.1,501.21l4.53-4.53,26.57,5.57-16.09-16.07Z"/><path class="cls-2" d="M486.61,474.94l25.66,21.11-3.87,4.71-25.67-21.1Z"/><path class="cls-2" d="M525.11,478.37l-3.42,5.06-22.54-15.24-5.83,8.62-5-3.37,14.94-22.1,5,3.37-5.69,8.42Z"/><path class="cls-2" d="M515,426.86l3.06-6.54,11,20.18,13.21,6.17L539.77,452l-13.22-6.17L504,450.34l3.05-6.55,15.29-3.18Z"/></g></g></svg>