<?xml version="1.0" encoding="utf-8"?>
<!-- Generator: Adobe Illustrator 26.0.3, SVG Export Plug-In . SVG Version: 6.00 Build 0)  -->
<svg version="1.1" id="Layer_1" xmlns="http://www.w3.org/2000/svg" xmlns:xlink="http://www.w3.org/1999/xlink" x="0px" y="0px"
	 viewBox="0 0 1667 2500" style="enable-background:new 0 0 1667 2500;" xml:space="preserve">
<style type="text/css">
	.st0{fill:#FFFFFF;}
</style>
<desc>Created using Figma</desc>
<path id="path0_fill" class="st0" d="M416.8,2500c230,0,416.7-186.7,416.7-416.7v-416.7H416.8c-230,0-416.7,186.7-416.7,416.7
	S186.8,2500,416.8,2500z"/>
<path id="path1_fill" class="st0" d="M0.2,1250c0-230,186.7-416.7,416.7-416.7h416.7v833.3H416.8C186.8,1666.7,0.2,1480,0.2,1250z"
	/>
<path id="path1_fill_1_" class="st0" d="M0.2,416.7C0.2,186.7,186.8,0,416.8,0h416.7v833.3H416.8C186.8,833.3,0.2,646.7,0.2,416.7z"
	/>
<path id="path2_fill" class="st0" d="M833.5,0h416.7c230,0,416.7,186.7,416.7,416.7s-186.7,416.7-416.7,416.7H833.5V0z"/>
<path id="path3_fill" class="st0" d="M1666.8,1250c0,230-186.7,416.7-416.7,416.7S833.5,1480,833.5,1250s186.7-416.7,416.7-416.7
	S1666.8,1020,1666.8,1250z"/>
</svg>
