<?xml version="1.0" standalone="no"?>
<!DOCTYPE svg PUBLIC "-//W3C//DTD SVG 20010904//EN"
 "http://www.w3.org/TR/2001/REC-SVG-20010904/DTD/svg10.dtd">
<svg version="1.0" xmlns="http://www.w3.org/2000/svg"
 width="512.000000pt" height="512.000000pt" viewBox="0 0 512.000000 512.000000"
 preserveAspectRatio="xMidYMid meet">

<g transform="translate(0.000000,512.000000) scale(0.100000,-0.100000)"
fill="#000000" stroke="none">
<path d="M2537 5109 c-409 -36 -818 -171 -1097 -363 -105 -72 -266 -230 -339
-333 -71 -99 -147 -250 -185 -367 -63 -191 -86 -384 -86 -726 l0 -225 -160
-264 c-117 -194 -161 -276 -166 -308 -9 -63 12 -130 59 -180 40 -43 78 -60
190 -84 l57 -12 0 -467 c0 -545 -1 -541 84 -625 84 -84 188 -115 390 -115 136
0 314 24 521 69 77 17 145 31 152 31 10 0 13 -112 13 -536 0 -348 4 -542 10
-555 27 -50 16 -49 800 -49 794 0 772 -1 798 55 15 33 15 57 0 90 -25 56 -10
55 -737 55 l-671 0 -2 554 -3 554 -24 26 c-39 41 -65 41 -283 -8 -298 -67
-367 -77 -534 -83 -168 -6 -246 8 -290 52 -24 24 -24 26 -24 230 l0 205 80 0
c91 0 126 12 146 51 18 35 18 63 0 98 -20 39 -55 51 -146 51 l-80 0 0 213 c0
274 8 261 -190 307 -84 19 -115 30 -114 41 1 8 72 132 160 274 l158 260 7 325
c8 377 18 458 76 635 33 102 92 220 155 312 62 90 210 234 308 298 410 269
1087 392 1571 285 500 -111 889 -416 1099 -863 238 -506 237 -1184 -2 -1661
-128 -257 -317 -463 -559 -610 -42 -25 -79 -46 -82 -46 -3 0 -7 57 -9 126 -3
124 -3 126 -31 150 -41 35 -99 33 -138 -5 l-29 -29 0 -481 c0 -516 0 -520 51
-547 35 -18 63 -18 98 0 47 25 51 47 52 314 l0 247 81 40 c456 226 788 670
898 1200 65 312 61 675 -10 980 -152 650 -567 1118 -1175 1323 -261 89 -540
119 -848 91z"/>
<path d="M2655 4432 c-75 -26 -139 -67 -180 -114 -32 -38 -43 -44 -102 -55
-233 -43 -388 -252 -352 -475 6 -34 12 -65 15 -70 3 -5 -15 -31 -40 -59 -25
-27 -58 -76 -73 -107 -26 -52 -28 -66 -28 -172 0 -106 2 -120 28 -172 16 -32
51 -83 79 -113 l50 -55 -12 -68 c-14 -82 4 -187 44 -255 61 -104 184 -189 291
-202 30 -4 55 -11 55 -15 0 -16 83 -100 127 -128 101 -64 229 -81 350 -47 45
13 66 14 80 6 11 -5 47 -14 81 -20 136 -22 282 27 371 124 43 48 52 53 103 59
151 19 299 145 345 294 16 54 19 181 4 231 -10 33 -8 37 35 83 25 27 57 74 72
106 23 51 26 69 27 167 0 103 -2 114 -32 177 -18 39 -52 88 -80 116 l-48 48
12 59 c44 211 -107 427 -328 468 -51 9 -63 15 -80 44 -28 45 -94 97 -165 130
-78 36 -200 44 -283 18 -53 -16 -61 -16 -111 -1 -71 21 -191 20 -255 -2z m235
-207 c62 -31 74 -31 145 1 47 22 68 26 120 22 83 -5 132 -38 174 -117 35 -67
59 -81 139 -81 105 -1 188 -62 211 -157 16 -62 9 -81 -29 -75 -73 11 -187 -43
-210 -99 -15 -36 -6 -91 19 -113 32 -29 84 -31 129 -6 l40 22 69 -40 c44 -26
80 -56 99 -83 26 -38 29 -51 29 -119 0 -56 -5 -83 -18 -103 l-17 -27 -41 30
c-48 34 -134 55 -171 41 -37 -14 -68 -58 -68 -98 0 -41 45 -93 81 -93 28 0 59
-27 59 -51 0 -9 12 -39 26 -67 64 -124 3 -272 -129 -312 -37 -11 -43 -10 -52
5 -25 44 -59 75 -107 99 -87 43 -172 29 -198 -33 -25 -62 11 -120 88 -140 23
-7 42 -16 42 -21 0 -20 -53 -69 -92 -85 -65 -26 -137 -23 -197 9 -63 32 -79
32 -142 0 -114 -57 -240 -20 -294 86 -36 70 -65 90 -137 90 -124 0 -213 73
-220 181 l-3 44 68 7 c107 10 187 69 187 137 0 52 -48 101 -100 101 -12 0 -39
-10 -60 -22 -32 -19 -43 -21 -57 -11 -10 7 -42 26 -70 43 -31 17 -64 48 -80
72 -24 36 -28 51 -28 118 0 57 5 83 18 104 l19 28 21 -20 c54 -49 146 -73 197
-52 36 15 60 56 60 100 0 39 -47 90 -84 90 -27 0 -56 23 -56 46 0 8 -12 38
-26 66 -65 128 -12 263 122 314 45 17 46 17 57 -2 20 -39 94 -100 134 -112 49
-15 108 -16 134 -2 10 6 26 25 35 42 32 62 -6 130 -82 144 -45 8 -49 18 -25
53 51 71 178 93 271 46z"/>
<path d="M3454 641 c-30 -13 -64 -59 -64 -88 0 -32 26 -80 49 -93 25 -13 77
-13 102 0 24 13 49 61 49 94 0 56 -83 109 -136 87z"/>
</g>
</svg>
