<svg clip-rule="evenodd" fill-rule="evenodd" height="512" image-rendering="optimizeQuality" shape-rendering="geometricPrecision" text-rendering="geometricPrecision" viewBox="0 0 1.70666 1.70666" width="512" xmlns="http://www.w3.org/2000/svg">
  <g id="Layer_x0020_1">
    <g id="_328774032">
      <g>
        <path fill="#c5dcff" id="_328775232" d="m1.0033 1.20784c-.00483071 0-.0096378-.00196063-.0131929-.00588189-.00680315-.00748031-.00640945-.0192087.00087008-.0262244l.201268-.193268c.0408189-.0417402.105122-.0483031.153024-.0156063.00829528.00569291.0105551.0172047.00502756.0257362-.00550394.00852362-.0167047.0108622-.0250236.00516535-.033752-.0230354-.0790354-.0183425-.107744.0111299-.00015354.00017717-.00029921.00031102-.00045669.00044882l-.20148.193469c-.00345669.00338189-.0078937.0050315-.0122913.0050315z" />
      </g>
      <g>
        <path fill="#c5dcff" id="_328775136" d="m.397709 1.70667c-.00468504 0-.0093189-.00187008-.0127559-.00543701l-.289311-.297268c-.00338189-.00347638-.00529134-.0082126-.00529134-.0131339 0-.00492126.00190945-.00965748.00529134-.0131339l.160646-.165043c.061685-.0633543.143665-.0982598.230862-.0982598.0118504 0 .023878.00064567.0356614.002l.52063.0587441c.0483346.00438583.0882205.0400512.0999646.0873504l.301598-.28961c.0229449-.0234409.0534055-.0363976.0857756-.0363976.0325 0 .0630394.0130394.0860354.0366417.0229843.0235748.0356339.0549646.0356339.0883504s-.0126496.0647756-.0356339.0884016l-.419693.431213c-.0406654.0418307-.0947638.0648268-.152264.0648268-.00002362 0-.00002362 0-.00002362 0-.00268504 0-.00539764-.00004331-.00808268-.00013386l-.481811-.0132283-.149512.0723071c-.00249606.00125591-.00511811.00181102-.00772047.00181102zm-.263787-.315823.267587.274965.141906-.0686535c.00255512-.00127165.00537008-.00182677.00816142-.00178346l.486291.0133583c.00242126.00009449.0046811.0001378.00690945.0001378.047878 0 .0928976-.0191693.126764-.0539646l.419693-.431268c.0161654-.016563.0250472-.0386417.0250472-.0621339 0-.0234882-.00888189-.0455236-.0250472-.0621339-.0161378-.0166063-.0376339-.0257362-.0604882-.0257362-.0228346 0-.0443228.00912992-.0604685.0257362-.00015748.00013386-.00030315.00031102-.00046063.00044488l-.329283.316177c-.00524016.00505512-.0129134.00643701-.0194961.00347244-.00658661-.00296063-.010874-.00965748-.010874-.0170512l.00002362-.0209528c-.00446457-.0370433-.0338031-.0661378-.0700827-.0693425-.00015748 0-.00027953-.00004331-.00043701-.00004331l-.520827-.0587953c-.0104882-.00117717-.0211654-.00178346-.0317205-.00178346-.0775591 0-.150484.0310551-.205339.0874016l-.147858.151949z" />
      </g>
      <g>
        <path fill="#c5dcff" id="_328775040" d="m1.09314 1.23339c-.00483071 0-.0096378-.002-.0131929-.00588189-.00677953-.00751969-.00640945-.0192559.00086614-.0262638l.247201-.23735c.0440039-.0449843.113563-.048815.161949-.00885827.00775197.00643701.00898819.0180984.00275197.0260906-.00626378.00799213-.0176142.00926378-.0253937.00282677-.0340394-.0281339-.0830394-.0254016-.11398.00643701-.00015748.00013386-.00030315.00026772-.00046063.00044488l-.247433.237567c-.00347244.00335039-.00788583.00498819-.0123071.00498819z" />
      </g>
      <g>
        <path fill="#c5dcff" id="_328774944" d="m.830551.683476c-.112465 0-.203976-.0940551-.203976-.209563 0-.115563.0914882-.20961.203976-.20961.112492 0 .203957.0940551.203957.20961 0 .115535-.0914882.209563-.203957.209563zm0-.382035c-.0925512 0-.167858.0773543-.167858.17248 0 .0950748.0753071.172437.167858.172437.0925551 0 .167862-.0773543.167862-.172437 0-.095126-.0753071-.17248-.167862-.17248z" />
      </g>
      <g>
        <path fill="#c5dcff" id="_328774848" d="m.830551.683476c-.112465 0-.203976-.0940551-.203976-.209563 0-.115563.0914882-.20961.203976-.20961.112492 0 .203957.0940551.203957.20961 0 .115535-.0914882.209563-.203957.209563zm0-.382035c-.0925512 0-.167858.0773543-.167858.17248 0 .0950748.0753071.172437.167858.172437.0925551 0 .167862-.0773543.167862-.172437 0-.095126-.0753071-.17248-.167862-.17248z" />
      </g>
      <g>
        <path fill="#c5dcff" id="_328774752" d="m.830551.58202c-.0580197 0-.105228-.0484882-.105228-.108083 0-.0596614.0472087-.108122.105228-.108122.0580236 0 .105205.0484882.105205.108122.00000787.0595945-.0471811.108083-.105205.108083zm0-.179134c-.0381063 0-.0691063.031878-.0691063.0710354 0 .0391299.0310236.0709921.0691063.0709921.0380866 0 .0691102-.031878.0691102-.0709921.00000787-.0391811-.031-.0710354-.0691102-.0710354z" />
      </g>
      <g>
        <path fill="#c5dcff" id="_328774656" d="m.830551.58202c-.0580197 0-.105228-.0484882-.105228-.108083 0-.0596614.0472087-.108122.105228-.108122.0580236 0 .105205.0484882.105205.108122.00000787.0595945-.0471811.108083-.105205.108083zm0-.179134c-.0381063 0-.0691063.031878-.0691063.0710354 0 .0391299.0310236.0709921.0691063.0709921.0380866 0 .0691102-.031878.0691102-.0709921.00000787-.0391811-.031-.0710354-.0691102-.0710354z" />
      </g>
      <g>
        <path fill="#c5dcff" id="_328774560" d="m.895701.927531h-.130295c-.00996457 0-.0180472-.00830315-.0180472-.0185669v-.0762717c-.0370906-.00908661-.0722126-.0240866-.104752-.0447441l-.0526024.0540512c-.00338189.00347244-.00797638.00543307-.0127559.00543307-.00478346 0-.00938583-.00196063-.0127598-.00543307l-.0921417-.0946969c-.00704331-.00720866-.00704331-.0189646 0-.0262244l.0526024-.0540472c-.0201299-.033437-.0347283-.0695236-.0435709-.107654h-.0742205c-.00996457 0-.0180472-.00830315-.0180472-.0185709v-.133874c0-.0102677.00808268-.0185709.0180472-.0185709l.0742441.00000787c.00884252-.0380866.0234606-.0741732.0435866-.10761l-.0526417-.0540906c-.00704331-.00725984-.00704331-.0190118 0-.0262244l.0921417-.0946929c.00338189-.00347638.00797638-.00543701.0127598-.00543701.00477953 0 .00938189.00196063.0127559.00543701l.0526417.0540906c.0325433-.0207087.0676614-.0357087.104728-.0447874v-.0762677c0-.0102638.00808268-.0185709.0180472-.0185709h.130303c.00998819 0 .0180709.00830709.0180709.0185709v.0762677c.0370945.00903543.0722283.0240906.104752.0447441l.0526299-.0540472c.00703937-.00726378.0185039-.00726378.0255394 0l.0921417.0946929c.00704331.0072126.00704331.0189646 0 .0262244l-.052626.0540512c.020126.0334331.034752.0695197.0435866.10765h.0742283c.00996457 0 .0180472.00830709.0180472.0185709v.133878c0 .0102638-.00808268.0185669-.0180472.0185669l-.0742283-.00000787c-.0088189.0381299-.0234213.0742677-.0435472.107701l.0525787.0540079c.00704331.00725984.00704331.0190157 0 .0262244l-.0921457.0946969c-.00338189.00347244-.00797244.00543307-.0127795.00543307-.00479134 0-.00938583-.00196063-.0127598-.00543307l-.0525748-.0540512c-.0325394.0207087-.067685.0357087-.104795.0447874v.0762205c-.00002362.0102638-.0081063.0185669-.0180945.0185669zm-.112248-.0370866h.0942087v-.0727008c0-.0088622.0061063-.0164764.0145984-.0181654.0426378-.00852362.082563-.0255551.118657-.0506417.00714961-.00500787.0167441-.00405512.022878.00222835l.0501142.0515079.0666181-.0684291-.0501102-.0515079c-.00613386-.00624803-.00704331-.0161339-.0022126-.0235315.0244173-.0370866.0410157-.0780945.0492874-.121878.00164567-.00875197.00907874-.0150039.0177165-.0150039l.0707402-.00000787v-.0968307l-.0707559-.00000787c-.00862205 0-.0160551-.00625197-.0177008-.0150039-.0083189-.0437402-.0248937-.084748-.0493346-.121835-.00485827-.00738976-.00394882-.0172559.00220866-.0235354l.0501535-.0515591-.0666181-.0684252-.0501535.0515591c-.00611024.00625197-.0157087.00720866-.022878.00222835-.0360945-.0250906-.0760079-.0421417-.118618-.0506417-.00849213-.00173228-.0145984-.00934646-.0145984-.0182087v-.0727008l-.0942008-.00000787v.0727008c0 .0088622-.0061063.0165157-.0145984.0182087-.0425709.00852362-.0824803.0256024-.118575.0506929-.00717323.00500394-.0167717.00405512-.0229055-.00223228l-.0501929-.0515984-.066622.0684252.0501969.0516024c.0061063.00625197.00703937.0161378.00218504.0235315-.0244409.0370906-.0410315.0780472-.0493504.121839-.00166929.00870866-.00908268.0149606-.0177205.0149606h-.0707559v.0968307l.0707402.00000787c.00864567 0 .0160748.00625197.0177205.0150039.00829528.0437835.0248898.0847913.0493346.121835.00485433.00738976.00392126.0172559-.00218898.0235354l-.0501535.0515551.066622.0684291.0501535-.0515591c.00613386-.00625197.0157283-.00720866.022878-.00222835.0361181.0250906.0760039.0421417.118618.0506417.00847244.00168898.0145984.00934646.0145984.0182047v.0727126h.00001575z" />
      </g>
      <g>
        <path fill="#c5dcff" id="_328774464" d="m1.51662.259701c-.0697008 0-.126398-.0582559-.126398-.129831 0-.0716142.0566969-.12987.126398-.12987.0696732 0 .12637.0582559.12637.12987 0 .0715748-.0566969.129831-.12637.129831zm0-.222614c-.0497874 0-.0902756.0416063-.0902756.0927835 0 .0511299.0404882.0927441.0902756.0927441.0497598 0 .0902598-.0416063.0902598-.0927441 0-.0511772-.0404921-.0927835-.0902598-.0927835z" />
      </g>
      <g>
        <path fill="#c5dcff" id="_328774368" d="m.252815 1.05739c-.0597323 0-.108323-.0499488-.108323-.111303 0-.0613937.0485984-.111303.108323-.111303.0597362 0 .108327.0499094.108327.111303 0 .0613543-.0485906.111303-.108327.111303zm0-.18552c-.0398189 0-.0722126.0333031-.0722126.0742165 0 .0409173.0323937.0741772.0722126.0741772.0398228 0 .0722126-.0332598.0722126-.0741772 0-.0409134-.0323898-.0742165-.0722126-.0742165z" />
      </g>
      <g>
        <path fill="#c5dcff" id="_328774272" d="m.162539.278264c-.0597323 0-.108323-.0499528-.108323-.111303 0-.0613937.0485984-.111303.108323-.111303.0597362 0 .108323.0499094.108323.111303 0 .0613504-.0485709.111303-.108323.111303zm0-.18552c-.0398189 0-.0722126.0332992-.0722126.0742165 0 .0409134.0324094.0742165.0722126.0742165.0398031 0 .0722126-.0333031.0722126-.0742165 0-.0409173-.0323937-.0742165-.0722126-.0742165z" />
      </g>
      <g>
        <path fill="#c5dcff" id="_328774176" d="m1.03354 1.4077c-.00164961 0-.00329528-.00004331-.00496457-.0001378l-.366354-.0165157c-.00996457-.0004685-.0176772-.00912598-.0172441-.0193425.00045669-.0102638.00894882-.0180945.0188228-.0177441l.366358.0165669c.0225748.00104331.0443701-.00816929.0597992-.0251299.0154252-.0169646.0228504-.0399134.0203386-.0629528-.0011063-.0101693.00602756-.0193425.0159409-.0204764.0099685-.0011378.0188268.00616535.0199331.0163819.00365748.0338386-.00721654.0675157-.0298543.092378-.0215039.023685-.0514488.0369724-.0827756.0369724z" />
      </g>
      <g>
        <path fill="#c5dcff" id="_328774056" d="m.551102 1.63245c-.00461811 0-.00922835-.00178346-.0127598-.00543701l-.329913-.338965c-.00704331-.00726378-.00704331-.0190157 0-.0262283.00706299-.00725984.0184803-.00725984.0255394 0l.329913.338969c.00704331.00725984.00704331.0190157 0 .0262244-.00355118.00365354-.00816929.00543701-.0127795.00543701z" />
      </g>
    </g>
  </g>
</svg>
