<svg id="Layer_1" enable-background="new 0 0 128 128" height="512" viewBox="0 0 128 128" width="512" xmlns="http://www.w3.org/2000/svg"><g><path d="m119.183 44.416c0-7.444-6.056-13.5-13.5-13.5s-13.5 6.056-13.5 13.5c0 5.538 3.354 10.302 8.134 12.382v8.91c0 1.206-.717 2.29-1.827 2.762l-27.49 11.687v-49.225c4.974-1.992 8.5-6.852 8.5-12.529 0-7.444-6.056-13.5-13.5-13.5s-13.5 6.056-13.5 13.5c0 5.677 3.526 10.537 8.5 12.529v49.225l-27.492-11.689c-1.109-.471-1.826-1.554-1.826-2.76v-8.91c4.781-2.08 8.134-6.844 8.134-12.382 0-7.444-6.056-13.5-13.5-13.5s-13.5 6.056-13.5 13.5c0 5.814 3.701 10.767 8.866 12.663v8.629c0 5.225 3.106 9.921 7.914 11.963l31.404 13.351v10.046c-4.974 1.992-8.5 6.852-8.5 12.529 0 7.444 6.056 13.5 13.5 13.5s13.5-6.056 13.5-13.5c0-5.677-3.526-10.537-8.5-12.529v-10.046l31.403-13.351c4.808-2.043 7.915-6.739 7.915-11.964v-8.629c5.164-1.896 8.865-6.848 8.865-12.662z" fill="#e6e7e8"/><g><path d="m101.683 52.916c-1.538 0-3.005-.291-4.366-.8v9.591c0 1.607-.956 3.053-2.435 3.682l-28.882 12.28v-51.432c-1.257.425-2.599.666-4 .666s-2.743-.241-4-.666v51.431l-28.883-12.28c-1.479-.628-2.434-2.073-2.434-3.681v-9.591c-1.361.508-2.828.8-4.366.8-1.265 0-2.484-.192-3.634-.541v9.333c0 4.822 2.867 9.157 7.305 11.043l32.012 13.61v11.402c1.257-.425 2.599-.666 4-.666s2.743.241 4 .666v-11.402l32.011-13.609c4.438-1.886 7.306-6.221 7.306-11.044v-9.333c-1.15.349-2.37.541-3.634.541z" fill="#ffd7e5"/><g><circle cx="62" cy="109.597" fill="#fa759e" r="12.5"/><circle cx="62" cy="14.403" fill="#0089ef" r="12.5"/><path d="m62 4.903c6.395 0 11.659 4.805 12.402 11 .059-.493.098-.991.098-1.5 0-6.904-5.596-12.5-12.5-12.5s-12.5 5.596-12.5 12.5c0 .509.039 1.007.098 1.5.743-6.195 6.007-11 12.402-11z" fill="#fff"/></g><g><circle cx="22.317" cy="40.416" fill="#d4fbff" r="12.5"/><g><circle cx="101.683" cy="40.416" fill="#6dc9f7" r="12.5"/><g fill="#3a2c60"><path d="m66 39.991c-.552 0-1 .447-1 1v6.884c0 .553.448 1 1 1s1-.447 1-1v-6.884c0-.552-.448-1-1-1z"/><path d="m60.74 107.815c-.152 0-.294.042-.426.126s-.238.21-.318.378l-1.464 3.228-1.476-3.228c-.08-.168-.188-.294-.324-.378s-.288-.126-.456-.126c-.232 0-.442.076-.63.228s-.282.336-.282.552c0 .104.024.212.072.324l2.16 4.428c.088.176.212.31.372.402s.332.138.516.138.356-.046.516-.138.28-.226.36-.402l2.16-4.428c.056-.112.084-.228.084-.348 0-.208-.088-.386-.264-.534s-.376-.222-.6-.222z"/><path d="m63.356 108.151c.12 0 .24-.036.36-.108l1.056-.636v4.908h-1.116c-.592 0-.888.248-.888.744 0 .504.296.756.888.756h4.104c.584 0 .876-.252.876-.756 0-.496-.292-.744-.876-.744h-1.116v-6.096c0-.28-.084-.502-.252-.666s-.384-.246-.648-.246c-.28 0-.56.084-.84.252l-1.896 1.14c-.248.144-.372.356-.372.636 0 .208.07.396.21.564s.309.252.51.252z"/><path d="m60.656 12.533c-.152 0-.294.042-.426.126s-.238.21-.318.378l-1.464 3.228-1.476-3.228c-.08-.168-.188-.294-.324-.378s-.288-.126-.456-.126c-.232 0-.442.076-.63.228s-.282.336-.282.552c0 .104.024.212.072.324l2.16 4.428c.088.176.212.31.372.402s.332.138.516.138.356-.046.516-.138.28-.226.36-.402l2.16-4.428c.056-.112.084-.228.084-.348 0-.208-.088-.386-.264-.534s-.376-.222-.6-.222z"/><path d="m62.66 16.985h2.916v.684c0 .304.084.536.252.696s.388.24.66.24.492-.08.66-.24.252-.392.252-.696v-.684h.444c.583 0 .876-.24.876-.72 0-.472-.292-.708-.876-.708h-.444v-4.62c0-.288-.092-.514-.276-.678s-.4-.246-.648-.246c-.16 0-.312.034-.456.102s-.264.17-.36.306l-3.576 5.112c-.152.224-.228.448-.228.672s.072.41.216.558.34.222.588.222zm2.916-4.068v2.64h-1.836z"/><path d="m21.135 37.955c-.152 0-.294.042-.426.126s-.238.21-.318.378l-1.464 3.228-1.476-3.228c-.08-.168-.188-.294-.324-.378s-.288-.126-.456-.126c-.232 0-.442.076-.63.228s-.282.336-.282.552c0 .104.024.212.072.324l2.16 4.428c.088.176.212.31.372.402s.332.138.516.138.356-.046.516-.138.28-.226.36-.402l2.16-4.428c.056-.112.084-.228.084-.348 0-.208-.088-.386-.264-.534-.176-.147-.376-.222-.6-.222z"/><path d="m23.211 37.68c.096 0 .18-.016.252-.048s.176-.088.312-.168c.336-.2.632-.352.888-.456s.536-.156.84-.156c.352 0 .62.086.804.258s.276.422.276.75c0 .528-.296 1.104-.888 1.728l-2.64 2.796c-.232.24-.348.504-.348.792 0 .224.074.41.222.558s.346.222.594.222h4.464c.592 0 .888-.252.888-.756 0-.496-.296-.744-.888-.744h-2.784l1.884-1.98c.48-.512.822-.976 1.026-1.392s.306-.868.306-1.356c0-.464-.116-.874-.348-1.23s-.562-.63-.99-.822-.926-.288-1.494-.288c-.472 0-.942.078-1.41.234s-.882.366-1.242.63c-.12.08-.206.17-.258.27s-.078.226-.078.378c0 .208.06.39.18.546.12.155.264.234.432.234z"/><path d="m115.183 40.416c0-7.444-6.056-13.5-13.5-13.5s-13.5 6.056-13.5 13.5c0 5.538 3.354 10.302 8.134 12.382v8.91c0 1.206-.717 2.29-1.826 2.762l-27.491 11.687v-23.782c0-.553-.448-1-1-1s-1 .447-1 1v25.294c0 .336.168.648.448.834.166.11.358.166.552.166.133 0 .266-.026.391-.08l28.882-12.279c1.849-.785 3.044-2.592 3.044-4.602v-8.234c1.078.278 2.202.442 3.366.442.902 0 1.782-.093 2.634-.262v8.054c0 4.421-2.628 8.395-6.697 10.124l-32.011 13.609c-.369.156-.609.518-.609.92v10.084c-.966-.22-1.968-.348-3-.348s-2.034.127-3 .348v-10.084c0-.401-.24-.764-.609-.92l-32.013-13.61c-4.067-1.729-6.696-5.702-6.696-10.123v-8.054c.853.169 1.733.262 2.634.262 1.164 0 2.288-.164 3.366-.442v8.234c0 2.01 1.194 3.816 3.043 4.601l28.883 12.28c.125.054.258.08.391.08.193 0 .386-.056.552-.166.281-.185.449-.498.449-.834v-50.114c.966.22 1.968.348 3 .348s2.034-.127 3-.348v9.376c0 .553.448 1 1 1s1-.447 1-1v-9.999c4.974-1.992 8.5-6.852 8.5-12.529 0-7.444-6.056-13.5-13.5-13.5s-13.5 6.056-13.5 13.5c0 5.677 3.526 10.537 8.5 12.529v49.226l-27.492-11.69c-1.109-.471-1.825-1.554-1.825-2.76v-8.91c4.781-2.08 8.134-6.844 8.134-12.382 0-7.444-6.056-13.5-13.5-13.5s-13.5 6.056-13.5 13.5c0 5.814 3.701 10.767 8.866 12.663v8.629c0 5.225 3.106 9.921 7.914 11.963l31.403 13.351v10.046c-4.974 1.992-8.5 6.852-8.5 12.529 0 7.444 6.056 13.5 13.5 13.5s13.5-6.056 13.5-13.5c0-5.677-3.526-10.537-8.5-12.529v-10.046l31.402-13.35c4.808-2.043 7.915-6.738 7.915-11.964v-8.629c5.164-1.896 8.866-6.849 8.866-12.663zm-64.683-26.014c0-6.341 5.159-11.5 11.5-11.5s11.5 5.159 11.5 11.5-5.159 11.5-11.5 11.5-11.5-5.159-11.5-11.5zm-39.683 26.014c0-6.341 5.159-11.5 11.5-11.5s11.5 5.159 11.5 11.5-5.159 11.5-11.5 11.5-11.5-5.159-11.5-11.5zm62.683 69.181c0 6.341-5.159 11.5-11.5 11.5s-11.5-5.159-11.5-11.5 5.159-11.5 11.5-11.5 11.5 5.159 11.5 11.5zm28.183-57.681c-6.341 0-11.5-5.159-11.5-11.5s5.159-11.5 11.5-11.5 11.5 5.159 11.5 11.5-5.159 11.5-11.5 11.5z"/><path d="m100.621 37.931c-.152 0-.294.042-.426.126s-.238.21-.318.378l-1.464 3.228-1.476-3.228c-.08-.168-.188-.294-.324-.378s-.288-.126-.456-.126c-.232 0-.442.076-.63.228s-.282.336-.282.552c0 .104.024.212.072.324l2.16 4.428c.088.176.212.31.372.402s.332.138.516.138.356-.046.516-.138.28-.226.36-.402l2.16-4.428c.056-.112.084-.228.084-.348 0-.208-.088-.386-.264-.534s-.376-.222-.6-.222z"/><path d="m106.573 39.575c.416-.152.742-.398.978-.738s.354-.738.354-1.194-.116-.856-.348-1.2-.564-.61-.996-.798-.932-.282-1.5-.282c-.488 0-.966.076-1.434.228s-.87.364-1.206.636c-.12.088-.206.182-.258.282s-.078.222-.078.366c0 .208.06.386.18.534s.264.222.432.222c.096 0 .184-.014.264-.042s.18-.078.3-.15c.336-.2.632-.352.888-.456s.532-.156.828-.156c.36 0 .64.094.84.282s.3.45.3.786c0 .352-.118.612-.354.78s-.598.252-1.086.252h-.504c-.208 0-.372.072-.492.216s-.18.312-.18.504c0 .2.06.372.18.516s.284.216.492.216h.708c.512 0 .884.084 1.116.252s.348.44.348.816c0 .384-.112.666-.336.846s-.58.27-1.068.27c-.344 0-.644-.052-.9-.156s-.56-.256-.912-.456c-.12-.072-.22-.122-.3-.15s-.168-.042-.264-.042c-.168 0-.312.074-.432.222s-.18.326-.18.534c0 .136.026.256.078.36s.138.2.258.288c.344.272.754.484 1.23.636s.974.228 1.494.228c.624 0 1.172-.098 1.644-.294s.834-.474 1.086-.834.378-.784.378-1.272c0-.512-.134-.946-.402-1.302s-.65-.606-1.146-.75z"/></g></g></g></g></g></svg>