<?xml version="1.0" encoding="utf-8"?>
<!-- Generator: Adobe Illustrator 27.0.0, SVG Export Plug-In . SVG Version: 6.00 Build 0)  -->
<svg version="1.1" id="Layer_2_00000006698693421770992400000000118984918885460121_"
	 xmlns="http://www.w3.org/2000/svg" xmlns:xlink="http://www.w3.org/1999/xlink" x="0px" y="0px" viewBox="0 0 117 117"
	 style="enable-background:new 0 0 117 117;" xml:space="preserve">
<style type="text/css">
	.st0{fill:#EA4335;}
	.st1{fill:#4285F4;}
	.st2{fill:#FBBC04;}
	.st3{fill:#0F9D58;}
</style>
<g id="Layer_1-2">
	<path class="st0" d="M29.8,58.6l17.8-10.3c4.2-2.4,5.6-7.8,3.2-12s-7.8-5.6-12-3.2L8.1,50.9L29.8,58.6z"/>
	<path class="st1" d="M43.2,85c3,0,6-1.6,7.6-4.4c2.4-4.2,1-9.5-3.2-12L16.8,50.9c-4.2-2.4-9.5-1-12,3.2c-2.4,4.2-1,9.5,3.2,12
		l30.8,17.7C40.2,84.6,41.8,85,43.2,85z"/>
	<path class="st2" d="M73.9,85c1.5,0,3-0.4,4.4-1.2L109,66.1l-21.4-7.9L69.5,68.7c-4.2,2.4-5.6,7.8-3.2,12
		C67.9,83.4,70.8,85,73.9,85C73.9,85,73.9,85,73.9,85z"/>
	<path class="st3" d="M104.6,67.2c3,0,6-1.6,7.6-4.4c2.4-4.2,1-9.5-3.2-12L78.2,33.2c-4.2-2.4-9.5-1-12,3.2c-2.4,4.2-1,9.5,3.2,12
		l30.8,17.7C101.6,66.9,103.1,67.2,104.6,67.2L104.6,67.2z"/>
</g>
</svg>
