<?xml version="1.0" encoding="utf-8"?>
<!-- Generator: Adobe Illustrator 27.0.0, SVG Export Plug-In . SVG Version: 6.00 Build 0)  -->
<svg version="1.1" id="Layer_2_00000095330470084010767710000011723784209083911350_"
	 xmlns="http://www.w3.org/2000/svg" xmlns:xlink="http://www.w3.org/1999/xlink" x="0px" y="0px" viewBox="0 0 118 118"
	 style="enable-background:new 0 0 118 118;" xml:space="preserve">
<style type="text/css">
	.st0{fill:#A5BED2;}
</style>
<g id="Layer_2-2">
	<path class="st0" d="M48.3,69.2L17.5,51.4c-1.4-0.8-2.9-1.2-4.4-1.2c-3,0-6,1.6-7.6,4.4c-2.4,4.2-1,9.5,3.2,12l30.8,17.8
		c1.4,0.8,2.9,1.2,4.4,1.2c3,0,6-1.6,7.6-4.4C53.9,77,52.5,71.6,48.3,69.2z"/>
	<path class="st0" d="M109.6,51.4L78.9,33.7c-1.4-0.8-2.9-1.2-4.4-1.2c-3,0-6,1.6-7.6,4.4c-2.4,4.2-1,9.5,3.2,12l30.8,17.8
		c1.4,0.8,2.9,1.2,4.4,1.2c3,0,6-1.6,7.6-4.4C115.3,59.2,113.8,53.8,109.6,51.4L109.6,51.4L109.6,51.4z"/>
	<path class="st0" d="M99.7,68.7l-14.4-8.3l-15.2,8.8c-4.2,2.4-5.6,7.8-3.2,12c1.6,2.8,4.6,4.4,7.6,4.4c1.5,0,3-0.4,4.4-1.2
		l24.7-14.3C102.2,69.9,100.9,69.4,99.7,68.7L99.7,68.7z"/>
	<path class="st0" d="M18.7,49.3l14.4,8.3l15.2-8.8c4.2-2.4,5.6-7.8,3.2-12c-2.4-4.2-7.8-5.6-12-3.2L14.7,47.9
		C16.1,48.1,17.5,48.6,18.7,49.3L18.7,49.3z"/>
</g>
</svg>
