<svg xmlns="http://www.w3.org/2000/svg" xmlns:xlink="http://www.w3.org/1999/xlink" viewBox="0 0 259.96 211.05"><defs><style>.cls-1{fill:url(#New_Gradient_Swatch);}.cls-2{fill:url(#New_Gradient_Swatch-2);}.cls-3{fill:#f5fffb;}.cls-4{fill:#00d097;}</style><linearGradient id="New_Gradient_Swatch" x1="11.91" y1="158.46" x2="256.76" y2="49.65" gradientUnits="userSpaceOnUse"><stop offset="0" stop-color="#00e097"/><stop offset="1" stop-color="#096"/></linearGradient><linearGradient id="New_Gradient_Swatch-2" x1="1.98" y1="159.21" x2="246.82" y2="50.4" xlink:href="#New_Gradient_Swatch"/></defs><g id="Layer_2" data-name="Layer 2"><g id="Layer_1-2" data-name="Layer 1"><path class="cls-1" d="M171.43,177.4l-63,32.32c-7,3.59-32.32-1-10.78-3.64-5.1-9.91-10.16-19.83-15.29-29.73a32.51,32.51,0,0,0-3.45-5.7c-5-6-10.48-4.32-16,1.22a79.39,79.39,0,0,1-9.05,8.2c-10.07,7.42-21.09,8.89-29.72-.57a50.39,50.39,0,0,1-12.3-24c-3.52-17.06,9.12-30,26.52-27.3,10.25,1.57,15.12-4.22,11.78-14.08a39,39,0,0,0-2.31-5.06q-7.48-14.62-15-29.25c-3.21-6.26-2.94-7.11,3.21-10.28C47,63.93,57.86,58.27,68.81,52.78c5.46-2.74,11.08-4.13,17-1.11C93,55.26,96.2,61.13,94.73,69c-.88,4.68-1.21,9.09,1.4,13.43,3.38,5.66,8,8.63,14.74,7.7a40.86,40.86,0,0,0,25.61-13.33c6.12-6.84,4.59-17.13-3.06-22.34a36.71,36.71,0,0,0-3.85-2.23C117,45.64,115.68,32.47,126.9,23.56A34.49,34.49,0,0,1,132.55,20c10.22-5.31,15.93-11.39,26.19-16.63-11.05-6.87,11.41-2,14.43,3.87,5.2,10.07,10.35,20.16,15.54,30.23a35.12,35.12,0,0,0,3.06,5.3c5.75,7.44,14.68,5.84,17.28-1.42,2.21-6.15,6.37-10.88,12.8-13.1,8.38-2.9,16.2-2,22.81,4.16A46.46,46.46,0,0,1,259.82,62c1.6,14.52-10.28,25.93-24.74,24.28-1.11-.13-2.21-.3-3.32-.43-9.38-1.08-14.62,5.55-10.62,14.26,4.87,10.62,10.48,20.91,15.8,31.33,5.19,10.2,6,9.24-4.54,14.65Q201.89,161.73,171.43,177.4Z"/><path class="cls-2" d="M160.14,175.11,97.19,207.43c-7,3.59-7.09,3.55-10.79-3.64-5.09-9.91-10.16-19.84-15.29-29.73a32.36,32.36,0,0,0-3.45-5.71c-4.94-6-11.93-5.46-16,1.22-2.3,3.78-3.94,8-7.7,10.74-10.07,7.42-22.45,6.35-31.07-3.11a50.32,50.32,0,0,1-12.31-24c-3.52-17.05,9.12-30,26.52-27.3,10.25,1.57,15.12-4.21,11.79-14.07a37.2,37.2,0,0,0-2.32-5.06c-5-9.76-10-19.5-15-29.25-3.2-6.27-2.93-7.12,3.22-10.28C35.7,61.64,46.57,56,57.53,50.48c5.46-2.74,11.08-4.12,17-1.1,7.1,3.59,10.34,9.46,8.86,17.28-.88,4.68-1.2,9.1,1.4,13.44,3.39,5.65,8,8.63,14.74,7.69A40.87,40.87,0,0,0,125.2,74.47c6.12-6.84,4.58-17.14-3.06-22.34a36.79,36.79,0,0,0-3.85-2.24c-12.63-6.55-13.89-19.71-2.68-28.63a35,35,0,0,1,5.66-3.52Q136.6,9.79,152,2c6-3.08,6.87-2.82,9.9,3,5.19,10.06,10.34,20.16,15.54,30.22a33.06,33.06,0,0,0,3.06,5.3c5.75,7.44,14.68,5.84,17.28-1.42,2.2-6.15,6.37-10.87,12.8-13.1,8.37-2.9,16.2-2,22.81,4.17a46.4,46.4,0,0,1,15.15,29.57c1.6,14.51-10.27,25.93-24.74,24.27-1.11-.12-2.21-.29-3.31-.42-9.39-1.08-14.62,5.54-10.63,14.25,4.87,10.63,10.49,20.91,15.8,31.33,5.2,10.2,6,9.24-4.54,14.65Q190.62,159.43,160.14,175.11Z"/><path class="cls-3" d="M157.31,169c-20,10.26-40,20.45-59.94,30.88-3.44,1.8-4.91,1.39-6.64-2.12-5.15-10.5-10.68-20.82-16.09-31.2a16.28,16.28,0,0,0-12.09-8.86c-7.51-1.37-13.57,1.71-17,8.53-1.57,3.12-2.68,6.51-5.8,8.65-7.36,5.06-14.16,4.74-20.69-1.43A38.92,38.92,0,0,1,7.3,151.23c-2.21-12.91,6.53-20.67,20.38-18.41,11.39,1.86,19.2-5,19-16.5-.09-4-1.52-7.6-3.31-11.09C38.57,96,33.89,86.68,29,77.49c-1.34-2.52-1.74-4,1.41-5.5C40.61,67,50.62,61.7,60.72,56.57A19.5,19.5,0,0,1,64.89,55C72,53.3,77.57,58,76.67,65.26c-.83,6.73-1.46,13.25,2.76,19.27C85,92.44,92.41,96,102,94.37a47.52,47.52,0,0,0,28-14.9c9.83-10.73,6.88-27.07-5.84-34.17-1.46-.82-3-1.57-4.4-2.41-5.48-3.21-6.45-8.54-2.45-13.55a19.53,19.53,0,0,1,6.49-5.16c9.42-4.82,18.9-9.55,28.22-14.58,3-1.59,4.28-1.39,5.82,1.8,4.52,9.37,9.45,18.53,14.15,27.81a25.82,25.82,0,0,0,8,9.85c8.43,5.91,18.84,3.24,23.4-6,.57-1.16,1.19-2.31,1.85-3.42,5.79-9.71,16-11.37,24.39-3.68a39,39,0,0,1,11.9,22.18c2.27,12.5-6.16,20.71-19,18.86-10.48-1.51-16.07,1.19-19.49,9.45a16.17,16.17,0,0,0,.65,14c5.26,10.45,10.43,21,16,31.26,1.88,3.5,1.22,4.89-2.2,6.61C197.26,148.42,177.31,158.76,157.31,169Z"/><rect class="cls-4" x="82.02" y="116.21" width="16.93" height="29.44" rx="8.46" transform="translate(-49.24 54.72) rotate(-26.74)"/><rect class="cls-4" x="161.02" y="77.21" width="16.93" height="29.44" rx="8.46" transform="translate(-23.24 86.1) rotate(-26.74)"/><ellipse class="cls-4" cx="144.46" cy="140.48" rx="13.68" ry="12.38" transform="translate(-47.76 80.03) rotate(-26.74)"/></g></g></svg>