<?xml version="1.0"?>
<svg xmlns="http://www.w3.org/2000/svg" viewBox="0 0 64 64" width="512" height="512"><g id="Calendar"><path fill="#00d097" d="M59,10H53V9a3,3,0,0,0-3-3H45V5a3,3,0,0,0-6,0V6H25V5a3,3,0,0,0-6,0V6H14a3,3,0,0,0-3,3v1H5a3,3,0,0,0-3,3V47a3,3,0,0,0,3,3H25v4H21a3,3,0,0,0-3,3v4a1,1,0,0,0,1,1H45a1,1,0,0,0,1-1V57a3,3,0,0,0-3-3H39V50H59a3,3,0,0,0,3-3V13A3,3,0,0,0,59,10ZM13,16H51V33a1,1,0,0,1-1,1H14a1,1,0,0,1-1-1Zm1,20H50a3,3,0,0,0,3-3V15h4V39H7V15h4V33A3,3,0,0,0,14,36ZM41,5a1,1,0,0,1,2,0V9a1,1,0,0,1-2,0ZM21,5a1,1,0,0,1,2,0V9a1,1,0,0,1-2,0ZM13,9a1,1,0,0,1,1-1h5V9a3,3,0,0,0,6,0V8H39V9a3,3,0,0,0,6,0V8h5a1,1,0,0,1,1,1v5H13ZM5,12h6v1H6a1,1,0,0,0-1,1V40a1,1,0,0,0,1,1H58a1,1,0,0,0,1-1V14a1,1,0,0,0-1-1H53V12h6a1,1,0,0,1,1,1V42H4V13A1,1,0,0,1,5,12ZM43,56a1,1,0,0,1,1,1v3H20V57a1,1,0,0,1,1-1Zm-6-2H27V50H37Zm22-6H5a1,1,0,0,1-1-1V44H60v3A1,1,0,0,1,59,48Z"/><path fill="#00d097" d="M55,45H53a1,1,0,0,0,0,2h2a1,1,0,0,0,0-2Z"/><path fill="#00d097" d="M28,30a2,2,0,0,1-2-2,1,1,0,0,0-2,0,4,4,0,1,0,6.618-3A3.992,3.992,0,1,0,24,22a1,1,0,0,0,2,0,2,2,0,1,1,2,2H27a1,1,0,0,0,0,2h1a2,2,0,0,1,0,4Z"/><path fill="#00d097" d="M35.555,21.832,37,20.869V31a1,1,0,0,0,2,0V19a1,1,0,0,0-1.555-.832l-3,2a1,1,0,0,0,1.11,1.664Z"/></g></svg>
