<svg id="Layer_1" data-name="Layer 1" xmlns="http://www.w3.org/2000/svg" xmlns:xlink="http://www.w3.org/1999/xlink" viewBox="0 0 743.25 905.31"><defs><style>.cls-1{fill:none;clip-rule:evenodd;}.cls-2{clip-path:url(#clip-path);}.cls-3{fill:#fff;}</style><clipPath id="clip-path" transform="translate(-606.32 -125.32)"><path class="cls-1" d="M944.18,889.84c-.5,5-2.69,9.37-4.24,13.25-5.67,14.2-5.83,15.18-16,32.95a79.21,79.21,0,0,1-9.44,13.71c-5,5.54-10.87,13.06-20.15,10.08-4.65-1.5-9.35-10.35-11.66-18C879.3,930.55,867,914,874.37,800c3.28-50.81,13.91-111.29,17.85-121.69a167,167,0,0,1-41.36,37.65c-14.5,9.42-31.14,17.62-50.9,20.15-21.92,2.8-52.41-1.64-57.26-17.5-2-6.58,1.31-13.11,3.71-17,6.4-10.25,14.59-16.18,22.8-24.39,20.69-20.67,38.53-43,55.67-67.33,7.66-10.88,16.56-20.5,22.65-33.09l-.38-.32c-5.45,4-16.95,5.39-23.86,8-10.29,3.83-21.15,6.65-31.81,10.6-7,2.61-14.17,6.14-23.33,6.36-7.77-10.71-9.66-21.62-14.32-35.52-4.81-14.4-9.22-30.21-13.78-45.07-2.67-8.71-3.24-17.75-6.36-26-6.14,5.93-10.59,12.77-19.09,16.44-11.78,5.08-26.47,2.42-35.53-3.18-18.59-11.51-26.46-29.78-32.34-54.09-6.1-25.23,4.46-59.75,17.5-69.45,5.17-3.84,12.64-10.64,23.86-8A46.89,46.89,0,0,1,704.53,384c2.37,1.72,3.84,4.66,6.36,6.36v-2.65c-3.21-5-2.58-16.67-4.24-23.33-4.36-17.5-5.38-37.12-9.55-54.08-.89-3.63-3.34-19.9-1.59-22.8,1.89-4.95,7.36-5.89,12.2-7.95,8.63-3.69,18.32-5.79,28.1-9,32.07-10.6,66.94-17,99.15-27.57,7-2.28,28-8.58,35.52-5.3,2.95,1.28,4.23,4.27,6.36,6.36-.14,7.71.43,16.65,3.71,21.21,14.81,20.57,65.23,6.59,83.25-1.06,4.77-2,9.33-3,13.78-5.3,9.28-4.81,23.29-11.16,26-22.27,2.79-11.49-16.35-21-7.42-33.4,6.79-9.44,34-11.91,47.19-15.91,22.94-7,47.56-11.83,70-19.09,6.91-2.23,13.26-2.55,20.15-4.77,7.12-2.3,15.38-4.39,22.79-6.36l8.49-1.06c3.52-1,9.83-3.39,14.84-2.12,1.82.45,3.39,1.62,5.31,2.12,12.18,22,17.62,53.58,26,79,2.2,6.69,2.88,13.26,5.3,19.62l.53-.1c.22-16.63,18.91-34,36.58-26.42,14.29,6.14,22,23.76,27.57,38.71,4.73,12.81,12.43,43.78,7.14,63.58-3.08,11.53-7.67,18.6-7.67,22.85,0,7.79-5.51,44.29-7.95,50.9-16,43.33-37,81.49-63.09,115.05-21.23,27.28-52.91,56.86-58.33,60.44.52,3.4,1.19,7.07,1.53,10.9,10.49,119.9-7.29,195.27-8.18,199.11-2.51,10.85.07,7.79.25,35.25.07,10.61.67,13.69-1.43,30-3.05,23.71-5.31,31-7.35,38.38-3.24,11.68-9.8,30-23.3,29.43-9.74-.44-16.78-5.11-27.79-20.21-13.36-18.31-20.37-47.92-20.7-47.78-12.6,5.49-20.8,10.08-29.14,13.32-29.62,11.51-53.3,21.13-90.67,21.74ZM857.76,572.77c.09,11.61-11.85,23.09-17,30.75-18,26.92-37.49,51.81-59.91,74.23-8.75,8.75-32,22.67-28.64,38.18,3.45,15.92,60.84,10.59,86.28-3.92,24.15-13.77,23-13.18,53.17-46.45,1.42-1.57,7.45-17.06,12.72-19.09,1.71-1.14,3.11-.1,3.72,1.59,1.27,2-2.75,16.5-3.72,19.62-2.62,8.49-14.81,76.18-19.93,142.8-7,90.4,5,140.52,16.82,137.23s33.15-54.1,33.87-60c.24-2-2.88-3-2.12-4.77,2-4.67,25.32,1.95,58.4-7.33,27.49-7.72,70.75-26.49,81.38-33.58,2.39-1.6,6.72-1.73,3.44,3.69-1.17,1.94-3.52,3.16-5.9,4.34.86,3.71,2.91,7.37,4.24,10.61,4,9.67,6.49,19.09,11.67,27.57,3.07,5,7.16,9.71,10.6,14.31,2.12,2.84,11.8,14.19,17.5,10.61,8-2.73,10-14.11,12.72-22.27,7.22-21.86,8-54.42,8-82.71,0-7.16-2-17.51,0-25.45,7-28.15,10.25-61.41,11.66-95.44,2.68-64.54-4.67-96.91-5.74-109.3a8.25,8.25,0,0,1,3.76-7.6c7.27-4.74,35-27.89,57.38-57.22,22.85-29.86,42.49-59.91,58.6-106.36,6-17.29,13.53-48.36,8-70.52-1.87-7.42-2.39-17.34-10.07-18.56-6.23-1.92-29.92,27.87-34.47,33.93-9.76,13-36.92,45-39.76,48.78-10.09,13.37-53.63,61-60.45,67.87-3.67,3.68-34.68,34.2-42.41,39.24-9.9,6.44-73.82,25.08-96.76,25.44l-.27-1.06c11.43-6.24,26-8.65,39.76-13.25,11.88-4,24.34-8.62,35.53-13.25,5.4-2.24,11-2.91,15.9-5.84,5.68-3.39,21-18.2,23.33-20.67,11.12-8.43,96.85-106,99.68-109.76,12-15.92,24.17-31.23,36.06-47.19,3.67-4.93,10.5-11.3,16.43-13.78,14.36-6,22.51,6.83,26,16.43,2.09,5.77,3.22-14.41,1.59-28.63-2.49-21.77-7.71-36-18.55-50.9-2.84-3.88-10.48-12.6-18.56-10.6-10.34,2.55-15.48,12.39-18,22.8-1.59,6.5-.12,18.95-5.83,21.21-1.3.87-2.78.32-4.24,0-7.51-12.72-8.83-31.65-13.79-46.66-4.67-14.15-7.88-28.93-12.72-43.48-2.61-7.83-7.26-16.1-8.49-24.39-9.08-.14-17.41,3-24.39,5.3-7.52,2.49-15.56,3.62-22.79,5.83-28.24,8.64-58,12.86-85.37,21.74-9.63,3.13-19.55,4.48-28.63,7.43-5.3,1.72-11.46,1.28-13.26,6.36-2.71,4.39,3.36,10,4.78,12.72a23.55,23.55,0,0,1-1.59,24.39c-3.79,5.22-10.63,8.42-15.91,12.2-18.51,13.26-39.23,17.11-65.22,23.33-16.65,4-37.09-.47-46.66-7.43-7.89-5.74-10.33-15.66-11.13-28.63a8.21,8.21,0,0,0-4.77-1.06c-2,1.22-4.92.83-7.42,1.59-8.66,2.65-17.64,4-26.52,6.9-28.41,9.29-59.18,15.19-87.48,24.39-10.1,3.28-20.26,5.12-29.16,9-3.51,1.53-9,1.91-9.54,6.36,3.23,5.08,3,20.42,4.77,27.57,5.13,20.36,7,43.5,12.72,63.63,1.69,5.94,6.48,24.21,1.06,26.51-.82.55-2.16.55-3.71.53-8.77-9.6-14.55-23.39-28.63-27.57-14.57-4.33-23.27,7.11-27.57,15.37-13.66,26.23-8.24,66.61,6.36,87.49,10.26,14.66,31.72,25,50.37,11.13,6.5-4.83,9.85-17,19.09-18.55,7.22,6.26,7,16.77,10.07,27,5.58,18.33,9.51,38.77,15.38,56.73,2.18,6.69,4,25.54,10.6,26.51,4.07-2.71,10.06-3,14.85-4.77,10.81-4,22.22-7,33.4-11.14,14.46-5.36,29.89-10.53,44.54-15.37L880,556.34c7.2-2.37,14.85-5.57,22.26-8,8.38-2.69,18.4-3,27.57-4.24v.53h.53v.53h-.53c-9.71,9.41-27.25,12.15-41.88,17-9.79,3.22-19.65,9.05-30.22,10.6Zm212.08-296.92c3.74,0,6.78.1,9,1.59,7.23,4.85,15.78,28.78,10.61,42.42-1.53,4-4.59,5.79-7.42,8.48-15.79.83-16.55-13.64-19.62-27-1.79-7.8,1.44-22.78,5.83-24.38.41-.37,1.18-.7,1.59-1.07Zm-237,66.81c3.74,0,6.78.1,9,1.59,7.23,4.84,15.78,28.78,10.6,42.42-1.53,4-4.59,5.79-7.42,8.48-15.78.83-16.54-13.65-19.62-27-1.79-7.81,1.44-22.78,5.83-24.39.41-.36,1.19-.69,1.6-1.06Zm98.61,81.65c-4.32.34-5.58,2.74-10.07,3.18-.94-1-2.83-1.68-3.18-3.18-1-4.09,14.27-11,17.5-12.72,20.39-10.6,42.21-18.88,65.74-26.51,6-1.95,29-8.34,31.82-1.06,2.2,2.81,1.63,9.42,1.59,14.31a112.39,112.39,0,0,1-5.31,32.35c-5.7,17.47-13.29,32.66-29.69,39.23-7.35,2.95-19.39,1.64-26-1.06-15.58-6.38-40-26-42.42-44.54Zm54.43-26c-15.83,4.6-46.3,23.91-40.78,37.09,2.11,5,8.76,10.39,12.23,13.34,7.3,6.2,14.47,11.3,27.68,14.26,9,2,15.47-2.73,19.61-5.83,10.06-7.56,14.08-17.85,18-31.82,1-3.37,3.81-16.52,2.12-21.2-2.5-6.94-5.43-10.21-21.82-9.64a29.71,29.71,0,0,0-4.61.52C994.91,395.7,994.91,395.7,985.88,398.33Z"/></clipPath></defs><g class="cls-2"><rect class="cls-3" width="743.25" height="905.31"/></g></svg>