<svg style="fill:#00d097;" height="512pt" viewBox="0 0 512 512.00103" width="512pt" xmlns="http://www.w3.org/2000/svg"><path d="m90 75c0 8.28125-6.714844 15-15 15-8.28125 0-15-6.71875-15-15 0-8.285156 6.71875-15 15-15 8.285156 0 15 6.714844 15 15zm0 0"/><path d="m150 75c0 8.28125-6.714844 15-15 15-8.28125 0-15-6.71875-15-15 0-8.285156 6.71875-15 15-15 8.285156 0 15 6.714844 15 15zm0 0"/><path d="m210 75c0 8.28125-6.714844 15-15 15-8.28125 0-15-6.71875-15-15 0-8.285156 6.71875-15 15-15 8.285156 0 15 6.714844 15 15zm0 0"/><path d="m509.863281 468.066406-31.820312-53.03125c-5.019531-8.371094-16.578125-9.777344-23.46875-2.890625l-10.605469 10.609375-63.640625-63.640625 29.34375-29.347656c23.28125 3.277344 46.914063-4.484375 63.421875-20.992187 29.242188-29.242188 29.242188-76.824219 0-106.066407-22.429688-22.425781-55.636719-27.632812-83.09375-15.65625 0-17.800781 0-156.914062 0-172.050781 0-8.285156-6.714844-15-15-15h-360c-8.285156 0-15 6.714844-15 15v360c0 8.285156 6.714844 15 15 15h169.222656c-5.789062 10.769531-8.867187 22.871094-8.867187 35.445312 0 41.449219 33.542969 75 75 75 45.875 0 80.351562-40.394531 74.027343-85.386718l34.730469-34.730469 63.640625 63.640625-10.605468 10.605469c-6.90625 6.902343-5.464844 18.457031 2.886718 23.46875l53.035156 31.820312c5.960938 3.578125 13.507813 2.558594 18.324219-2.257812l21.210938-21.210938c4.867187-4.871093 5.796875-12.425781 2.257812-18.328125zm-163.828125-201.941406-9.9375 9.941406c-2.179687-4.546875-5.132812-8.742187-8.804687-12.414062l-63.636719-63.636719c-5.855469-5.859375-15.355469-5.859375-21.214844 0l-39.984375 39.984375h-172.457031v-90h330v60.859375c-11.660156 15.71875-16.722656 35.664063-13.964844 55.265625zm-61.167968 39.953125-53.03125-53.03125 21.214843-21.214844 53.03125 53.035157c5.863281 5.863281 5.863281 15.347656 0 21.210937-5.851562 5.851563-15.367187 5.847656-21.214843 0zm-254.867188-276.078125h330v90h-330zm0 240h176.359375l57.296875 57.292969c3.714844 3.71875 7.933594 6.640625 12.429688 8.78125l-15.34375 15.34375c-16.289063-2.289063-32.804688.824219-46.941407 8.625-.28125-.019531-.558593-.042969-.839843-.042969h-182.960938zm267.503906 129.507812c-3.777344 3.777344-5.261718 9.277344-3.894531 14.4375 4.171875 15.792969-.101563 31.988282-11.433594 43.320313-8.5 8.496094-19.800781 13.179687-31.820312 13.179687-6.832031 0-13.425781-1.515624-19.410157-4.378906l30.015626-30.015625c5.855468-5.859375 5.855468-15.355469 0-21.210937-5.859376-5.859375-15.355469-5.859375-21.214844 0l-30.011719 30.011718c-2.867187-5.980468-4.378906-12.578124-4.378906-19.40625 0-12.019531 4.679687-23.320312 13.179687-31.820312 11.367188-11.367188 27.570313-15.59375 43.316406-11.433594 5.164063 1.367188 10.660157-.117187 14.4375-3.894531l96.621094-96.621094c3.777344-3.777343 5.257813-9.277343 3.894532-14.4375-4.171876-15.792969.101562-31.988281 11.433593-43.320312 13.828125-13.824219 34.484375-16.746094 51.210938-8.78125l-29.996094 29.996093c-5.859375 5.859376-5.859375 15.355469 0 21.210938 5.855469 5.859375 15.355469 5.859375 21.210937 0l29.996094-29.992188c7.96875 16.722657 5.046875 37.378907-8.78125 51.207032-11.332031 11.332031-27.523437 15.605468-43.316406 11.433594-5.15625-1.363282-10.660156.121093-14.4375 3.894531zm175.957032 78.601563-26.515626-15.910156 15.257813-15.257813 15.910156 26.519532zm0 0"/><path d="m90 195c0 8.28125-6.714844 15-15 15-8.28125 0-15-6.71875-15-15 0-8.285156 6.71875-15 15-15 8.285156 0 15 6.714844 15 15zm0 0"/><path d="m150 195c0 8.28125-6.714844 15-15 15-8.28125 0-15-6.71875-15-15 0-8.285156 6.71875-15 15-15 8.285156 0 15 6.714844 15 15zm0 0"/><path d="m210 195c0 8.28125-6.714844 15-15 15-8.28125 0-15-6.71875-15-15 0-8.285156 6.71875-15 15-15 8.285156 0 15 6.714844 15 15zm0 0"/><path d="m90 315c0 8.28125-6.714844 15-15 15-8.28125 0-15-6.71875-15-15 0-8.285156 6.71875-15 15-15 8.285156 0 15 6.714844 15 15zm0 0"/><path d="m150 315c0 8.28125-6.714844 15-15 15-8.28125 0-15-6.71875-15-15 0-8.285156 6.71875-15 15-15 8.285156 0 15 6.714844 15 15zm0 0"/><path d="m210 315c0 8.28125-6.714844 15-15 15-8.28125 0-15-6.71875-15-15 0-8.285156 6.71875-15 15-15 8.285156 0 15 6.714844 15 15zm0 0"/></svg>