<?xml version="1.0"?>
<svg xmlns="http://www.w3.org/2000/svg" xmlns:xlink="http://www.w3.org/1999/xlink" xmlns:svgjs="http://svgjs.com/svgjs" version="1.1" width="512" height="512" x="0" y="0" viewBox="0 0 510.292 510.292" style="enable-background:new 0 0 512 512" xml:space="preserve"><g><script>
        // Catch errors if signal is already set by user agent or other extension
        try {
            Object.defineProperty(navigator, 'globalPrivacyControl', {
                value: false,
                enumerable: true
            })
            // Remove script tag after execution
            document.currentScript.parentElement.removeChild(document.currentScript)
        } catch (e) {}</script><g xmlns="http://www.w3.org/2000/svg"><g><circle cx="482.326" cy="24.002" r="3.051" fill="#ffffff" data-original="#000000" style=""/><path d="m492.532 36.519c1.685 0 3.051-1.366 3.051-3.051s-1.366-3.051-3.051-3.051-3.052 1.366-3.052 3.051 1.367 3.051 3.052 3.051z" fill="#ffffff" data-original="#000000" style=""/><path d="m485.377 43.674c0-1.685-1.366-3.051-3.051-3.051-.881 0-1.668.379-2.225.976-1.35-2.29-2.973-4.399-4.83-6.28.396-.515.641-1.151.641-1.851 0-1.685-1.366-3.051-3.051-3.051-.892 0-1.687.39-2.245 1-5.17-3.565-11.428-5.659-18.169-5.659h-394.6c-17.694 0-32.089 14.395-32.089 32.089v394.599c0 17.43 13.971 31.648 31.301 32.069-.221.422-.358.896-.358 1.406 0 1.685 1.366 3.051 3.051 3.051s3.051-1.367 3.051-3.051c0-.502-.133-.969-.348-1.386h14.265c-.215.418-.348.884-.348 1.386 0 1.685 1.366 3.051 3.051 3.051s3.051-1.367 3.051-3.051c0-.502-.132-.969-.347-1.386h14.264c-.215.418-.347.884-.347 1.386 0 1.685 1.366 3.051 3.051 3.051s3.051-1.367 3.051-3.051c0-.502-.132-.969-.347-1.386h14.264c-.215.418-.348.884-.348 1.386 0 1.685 1.366 3.051 3.051 3.051s3.052-1.367 3.052-3.051c0-.502-.133-.969-.347-1.386h14.264c-.215.418-.347.884-.347 1.386 0 1.685 1.366 3.051 3.051 3.051s3.051-1.367 3.051-3.051c0-.502-.133-.969-.347-1.386h14.264c-.215.418-.348.884-.348 1.386 0 1.685 1.366 3.051 3.051 3.051s3.051-1.367 3.051-3.051c0-.502-.133-.969-.347-1.386h14.264c-.215.418-.348.884-.348 1.386 0 1.685 1.366 3.051 3.051 3.051 1.686 0 3.051-1.367 3.051-3.051 0-.502-.133-.969-.347-1.386h14.264c-.215.418-.347.884-.347 1.386 0 1.685 1.366 3.051 3.051 3.051s3.051-1.367 3.051-3.051c0-.502-.133-.969-.347-1.386h14.264c-.215.418-.347.884-.347 1.386 0 1.685 1.366 3.051 3.051 3.051s3.051-1.367 3.051-3.051c0-.502-.133-.969-.347-1.386h14.264c-.215.418-.348.884-.348 1.386 0 1.685 1.366 3.051 3.051 3.051s3.051-1.367 3.051-3.051c0-.502-.133-.969-.347-1.386h14.264c-.215.418-.348.884-.348 1.386 0 1.685 1.366 3.051 3.051 3.051s3.052-1.367 3.052-3.051c0-.502-.133-.969-.348-1.386h14.264c-.215.418-.347.884-.347 1.386 0 1.685 1.366 3.051 3.052 3.051 1.685 0 3.051-1.367 3.051-3.051 0-.502-.133-.969-.347-1.386h14.264c-.215.418-.347.884-.347 1.386 0 1.685 1.366 3.051 3.051 3.051s3.051-1.367 3.051-3.051c0-.502-.133-.969-.347-1.386h14.264c-.215.418-.347.884-.347 1.386 0 1.685 1.366 3.051 3.051 3.051s3.051-1.367 3.051-3.051c0-.502-.132-.969-.347-1.386h14.264c-.215.418-.347.884-.347 1.386 0 1.685 1.366 3.051 3.052 3.051 1.685 0 3.051-1.367 3.051-3.051 0-.502-.133-.969-.348-1.386h14.264c-.215.418-.347.884-.347 1.386 0 1.685 1.366 3.051 3.051 3.051s3.052-1.367 3.052-3.051c0-.502-.133-.969-.347-1.386h14.264c-.215.418-.347.884-.347 1.386 0 1.685 1.366 3.051 3.051 3.051s3.051-1.367 3.051-3.051c0-.502-.133-.969-.347-1.386h14.264c-.215.418-.347.884-.347 1.386 0 1.685 1.366 3.051 3.051 3.051s3.051-1.367 3.051-3.051c0-.502-.133-.969-.347-1.386h14.264c-.215.418-.348.884-.348 1.386 0 1.685 1.366 3.051 3.052 3.051s3.051-1.367 3.051-3.051c0-.502-.133-.969-.347-1.386h14.264c-.215.418-.347.884-.347 1.386 0 1.685 1.366 3.051 3.051 3.051s3.052-1.367 3.052-3.051c0-.502-.133-.969-.348-1.386h14.264c-.215.418-.347.884-.347 1.386 0 1.685 1.366 3.051 3.052 3.051 1.685 0 3.051-1.367 3.051-3.051 0-.574-.168-1.104-.443-1.562 13.777-1.436 24.982-11.627 27.955-24.894.963-.513 1.625-1.515 1.625-2.683 0-.856-.355-1.628-.923-2.182.048-.713.081-1.43.081-2.155v-13.239c.519-.547.843-1.282.843-2.096s-.323-1.549-.843-2.096v-15.481c.519-.547.843-1.282.843-2.096s-.323-1.548-.843-2.096v-15.48c.519-.547.843-1.282.843-2.095 0-.814-.323-1.549-.843-2.096v-15.48c.519-.547.843-1.282.843-2.096s-.323-1.549-.843-2.096v-15.48c.519-.547.843-1.282.843-2.096 0-.813-.323-1.548-.843-2.096v-15.48c.519-.547.843-1.282.843-2.096s-.323-1.549-.843-2.096v-15.48c.519-.547.843-1.282.843-2.096 0-.813-.323-1.548-.843-2.095v-15.48c.519-.547.843-1.282.843-2.096s-.323-1.549-.843-2.096v-15.48c.519-.547.843-1.282.843-2.096 0-.813-.323-1.548-.843-2.095v-15.48c.519-.547.843-1.282.843-2.096s-.323-1.549-.843-2.096v-15.48c.519-.547.843-1.282.843-2.096s-.323-1.549-.843-2.096v-15.48c.519-.547.843-1.282.843-2.096 0-.813-.323-1.548-.843-2.096v-15.48c.519-.547.843-1.282.843-2.096s-.323-1.549-.843-2.096v-15.48c.519-.547.843-1.282.843-2.096s-.323-1.549-.843-2.096v-15.48c.519-.547.843-1.282.843-2.096 0-.813-.323-1.548-.843-2.096v-15.48c.519-.547.843-1.282.843-2.096 0-.813-.323-1.549-.843-2.096v-15.48c.519-.547.843-1.282.843-2.096s-.323-1.549-.843-2.096v-15.48c.519-.547.843-1.282.843-2.096s-.323-1.549-.843-2.096v-15.48c.519-.547.843-1.282.843-2.096 0-.813-.323-1.548-.843-2.095v-15.48c.519-.547.843-1.282.843-2.096s-.323-1.549-.843-2.096v-3.404c0-3.916-.708-7.669-1.998-11.142 1.583-.109 2.839-1.416 2.839-3.029zm-8.868 408.773c0 3.936-.956 7.652-2.639 10.935-.317-.112-.654-.185-1.01-.185-1.685 0-3.051 1.366-3.051 3.051 0 .769.294 1.462.763 1.999-1.9 2.176-4.179 4.011-6.741 5.393-.362-.152-.76-.237-1.177-.237-1.295 0-2.394.81-2.837 1.947-2.324.75-4.8 1.159-7.37 1.159h-6.418c0-.018.005-.036.005-.055 0-1.686-1.366-3.052-3.051-3.052s-3.051 1.366-3.051 3.052c0 .019.005.036.006.055h-13.58c.001-.018.006-.036.006-.055 0-1.686-1.366-3.052-3.051-3.052s-3.052 1.366-3.052 3.052c0 .019.005.036.006.055h-13.58c0-.018.006-.036.006-.055 0-1.686-1.366-3.052-3.051-3.052s-3.051 1.366-3.051 3.052c0 .019.005.036.006.055h-13.581c0-.018.006-.036.006-.055 0-1.686-1.366-3.052-3.051-3.052s-3.051 1.366-3.051 3.052c0 .019.005.036.006.055h-13.58c0-.018.006-.036.006-.055 0-1.686-1.366-3.052-3.052-3.052-1.685 0-3.051 1.366-3.051 3.052 0 .019.005.036.006.055h-13.58c0-.018.006-.036.006-.055 0-1.686-1.366-3.052-3.051-3.052s-3.051 1.366-3.051 3.052c0 .019.005.036.006.055h-13.58c0-.018.005-.036.005-.055 0-1.686-1.366-3.052-3.051-3.052-1.686 0-3.052 1.366-3.052 3.052 0 .019.005.036.006.055h-13.581c0-.018.006-.036.006-.055 0-1.686-1.366-3.052-3.051-3.052s-3.051 1.366-3.051 3.052c0 .019.005.036.005.055h-13.58c0-.018.006-.036.006-.055 0-1.686-1.366-3.052-3.051-3.052s-3.051 1.366-3.051 3.052c0 .019.005.036.005.055h-13.58c0-.018.005-.036.005-.055 0-1.686-1.366-3.052-3.051-3.052s-3.052 1.366-3.052 3.052c0 .019.005.036.006.055h-13.58c0-.018.005-.036.005-.055 0-1.686-1.366-3.052-3.051-3.052s-3.051 1.366-3.051 3.052c0 .019.005.036.006.055h-13.58c.001-.018.006-.036.006-.055 0-1.686-1.366-3.052-3.051-3.052s-3.051 1.366-3.051 3.052c0 .019.005.036.005.055h-13.58c0-.018.006-.036.006-.055 0-1.686-1.366-3.052-3.051-3.052s-3.051 1.366-3.051 3.052c0 .019.005.036.006.055h-13.58c0-.018.006-.036.006-.055 0-1.686-1.366-3.052-3.051-3.052s-3.052 1.366-3.052 3.052c0 .019.005.036.006.055h-13.58c.001-.018.006-.036.006-.055 0-1.686-1.366-3.052-3.051-3.052-1.686 0-3.051 1.366-3.051 3.052 0 .019.005.036.006.055h-13.595c.001-.018.006-.036.006-.055 0-1.686-1.366-3.052-3.051-3.052-1.686 0-3.051 1.366-3.051 3.052 0 .019.005.036.006.055h-13.58c0-.018.006-.036.006-.055 0-1.686-1.366-3.052-3.051-3.052s-3.051 1.366-3.051 3.052c0 .019.005.036.006.055h-13.58c.001-.018.006-.036.006-.055 0-1.686-1.366-3.052-3.051-3.052s-3.051 1.366-3.051 3.052c0 .019.005.036.005.055h-13.58c0-.018.005-.036.005-.055 0-1.686-1.366-3.052-3.051-3.052s-3.051 1.366-3.051 3.052c0 .019.005.036.006.055h-13.58c0-.018.005-.036.005-.055 0-1.686-1.366-3.052-3.051-3.052s-3.051 1.366-3.051 3.052c0 .019.005.036.005.055h-8.325c-1.823 0-3.597-.21-5.304-.596-.256-1.426-1.497-2.51-2.997-2.51-.777 0-1.478.3-2.017.778-2.584-1.231-4.913-2.912-6.89-4.938 1.418-.263 2.493-1.501 2.493-2.995 0-1.685-1.366-3.051-3.051-3.051-1.231 0-2.285.733-2.767 1.782-2.238-3.653-3.53-7.945-3.53-12.534v-394.599c0-13.269 10.795-24.064 24.064-24.064h394.6c13.268 0 24.063 10.795 24.063 24.064v394.6h-.006z" fill="#ffffff" data-original="#000000" style=""/><path d="m492.532 56.191c1.685 0 3.051-1.366 3.051-3.052 0-1.685-1.366-3.051-3.051-3.051s-3.052 1.366-3.052 3.051c0 1.686 1.367 3.052 3.052 3.052z" fill="#ffffff" data-original="#000000" style=""/><path d="m492.532 75.863c1.685 0 3.051-1.366 3.051-3.051s-1.366-3.051-3.051-3.051-3.052 1.366-3.052 3.051 1.367 3.051 3.052 3.051z" fill="#ffffff" data-original="#000000" style=""/><path d="m492.532 95.535c1.685 0 3.051-1.366 3.051-3.051s-1.366-3.051-3.051-3.051-3.052 1.366-3.052 3.051 1.367 3.051 3.052 3.051z" fill="#ffffff" data-original="#000000" style=""/><path d="m492.532 115.207c1.685 0 3.051-1.367 3.051-3.052s-1.366-3.051-3.051-3.051-3.052 1.366-3.052 3.051 1.367 3.052 3.052 3.052z" fill="#ffffff" data-original="#000000" style=""/><path d="m492.532 134.878c1.685 0 3.051-1.366 3.051-3.051s-1.366-3.051-3.051-3.051-3.052 1.366-3.052 3.051c0 1.686 1.367 3.051 3.052 3.051z" fill="#ffffff" data-original="#000000" style=""/><path d="m492.532 154.55c1.685 0 3.051-1.366 3.051-3.051 0-1.686-1.366-3.051-3.051-3.051s-3.052 1.366-3.052 3.051 1.367 3.051 3.052 3.051z" fill="#ffffff" data-original="#000000" style=""/><path d="m492.532 174.221c1.685 0 3.051-1.366 3.051-3.051s-1.366-3.051-3.051-3.051-3.052 1.366-3.052 3.051c0 1.686 1.367 3.051 3.052 3.051z" fill="#ffffff" data-original="#000000" style=""/><path d="m492.532 193.894c1.685 0 3.051-1.366 3.051-3.051 0-1.686-1.366-3.052-3.051-3.052s-3.052 1.366-3.052 3.052c0 1.685 1.367 3.051 3.052 3.051z" fill="#ffffff" data-original="#000000" style=""/><circle cx="492.532" cy="210.514" r="3.051" fill="#ffffff" data-original="#000000" style=""/><circle cx="492.532" cy="230.186" r="3.051" fill="#ffffff" data-original="#000000" style=""/><path d="m492.532 252.91c1.685 0 3.051-1.366 3.051-3.051 0-1.686-1.366-3.052-3.051-3.052s-3.052 1.366-3.052 3.052c0 1.684 1.367 3.051 3.052 3.051z" fill="#ffffff" data-original="#000000" style=""/><path d="m492.532 272.581c1.685 0 3.051-1.366 3.051-3.051s-1.366-3.051-3.051-3.051-3.052 1.366-3.052 3.051 1.367 3.051 3.052 3.051z" fill="#ffffff" data-original="#000000" style=""/><path d="m492.532 292.253c1.685 0 3.051-1.366 3.051-3.052 0-1.685-1.366-3.051-3.051-3.051s-3.052 1.366-3.052 3.051c0 1.686 1.367 3.052 3.052 3.052z" fill="#ffffff" data-original="#000000" style=""/><circle cx="492.532" cy="308.873" r="3.051" fill="#ffffff" data-original="#000000" style=""/><path d="m492.532 331.596c1.685 0 3.051-1.366 3.051-3.051 0-1.686-1.366-3.051-3.051-3.051s-3.052 1.366-3.052 3.051c0 1.686 1.367 3.051 3.052 3.051z" fill="#ffffff" data-original="#000000" style=""/><path d="m492.532 351.268c1.685 0 3.051-1.366 3.051-3.051s-1.366-3.051-3.051-3.051-3.052 1.366-3.052 3.051 1.367 3.051 3.052 3.051z" fill="#ffffff" data-original="#000000" style=""/><circle cx="492.532" cy="367.889" r="3.051" fill="#ffffff" data-original="#000000" style=""/><circle cx="492.532" cy="387.561" r="3.051" fill="#ffffff" data-original="#000000" style=""/><path d="m492.532 410.284c1.685 0 3.051-1.366 3.051-3.052 0-1.685-1.366-3.051-3.051-3.051s-3.052 1.366-3.052 3.051c0 1.686 1.367 3.052 3.052 3.052z" fill="#ffffff" data-original="#000000" style=""/><path d="m492.532 429.956c1.685 0 3.051-1.366 3.051-3.051 0-1.686-1.366-3.052-3.051-3.052s-3.052 1.366-3.052 3.052c0 1.685 1.367 3.051 3.052 3.051z" fill="#ffffff" data-original="#000000" style=""/><path d="m492.532 449.628c1.685 0 3.051-1.366 3.051-3.051s-1.366-3.051-3.051-3.051-3.052 1.366-3.052 3.051 1.367 3.051 3.052 3.051z" fill="#ffffff" data-original="#000000" style=""/><path d="m492.532 469.3c1.685 0 3.051-1.366 3.051-3.052 0-1.685-1.366-3.051-3.051-3.051s-3.052 1.366-3.052 3.051c0 1.686 1.367 3.052 3.052 3.052z" fill="#ffffff" data-original="#000000" style=""/><path d="m482.326 473.404c-1.685 0-3.051 1.366-3.051 3.052 0 1.685 1.366 3.051 3.051 3.051s3.051-1.366 3.051-3.051c0-1.686-1.366-3.052-3.051-3.052z" fill="#ffffff" data-original="#000000" style=""/><path d="m472.86 16.847c1.685 0 3.051-1.366 3.051-3.052s-1.366-3.051-3.051-3.051-3.051 1.366-3.051 3.051 1.366 3.052 3.051 3.052z" fill="#ffffff" data-original="#000000" style=""/><path d="m462.654 27.054c1.685 0 3.051-1.366 3.051-3.051s-1.366-3.051-3.051-3.051-3.051 1.366-3.051 3.051c0 1.684 1.366 3.051 3.051 3.051z" fill="#ffffff" data-original="#000000" style=""/><path d="m462.654 40.623c-1.685 0-3.051 1.366-3.051 3.051s1.366 3.051 3.051 3.051 3.051-1.366 3.051-3.051-1.366-3.051-3.051-3.051z" fill="#ffffff" data-original="#000000" style=""/><path d="m472.86 56.191c1.685 0 3.051-1.366 3.051-3.052 0-1.685-1.366-3.051-3.051-3.051s-3.051 1.366-3.051 3.051c0 1.686 1.366 3.052 3.051 3.052z" fill="#ffffff" data-original="#000000" style=""/><path d="m462.654 60.294c-1.685 0-3.051 1.366-3.051 3.052 0 1.685 1.366 3.051 3.051 3.051s3.051-1.366 3.051-3.051c0-1.686-1.366-3.052-3.051-3.052z" fill="#ffffff" data-original="#000000" style=""/><path d="m472.86 75.863c1.685 0 3.051-1.366 3.051-3.051s-1.366-3.051-3.051-3.051-3.051 1.366-3.051 3.051 1.366 3.051 3.051 3.051z" fill="#ffffff" data-original="#000000" style=""/><path d="m462.654 79.967c-1.685 0-3.051 1.366-3.051 3.051 0 1.686 1.366 3.052 3.051 3.052s3.051-1.366 3.051-3.052-1.366-3.051-3.051-3.051z" fill="#ffffff" data-original="#000000" style=""/><path d="m472.86 95.535c1.685 0 3.051-1.366 3.051-3.051s-1.366-3.051-3.051-3.051-3.051 1.366-3.051 3.051 1.366 3.051 3.051 3.051z" fill="#ffffff" data-original="#000000" style=""/><path d="m462.654 99.638c-1.685 0-3.051 1.366-3.051 3.052 0 1.685 1.366 3.051 3.051 3.051s3.051-1.366 3.051-3.051c0-1.686-1.366-3.052-3.051-3.052z" fill="#ffffff" data-original="#000000" style=""/><path d="m472.86 115.207c1.685 0 3.051-1.367 3.051-3.052s-1.366-3.051-3.051-3.051-3.051 1.366-3.051 3.051 1.366 3.052 3.051 3.052z" fill="#ffffff" data-original="#000000" style=""/><path d="m462.654 119.31c-1.685 0-3.051 1.366-3.051 3.052 0 1.685 1.366 3.051 3.051 3.051s3.051-1.366 3.051-3.051c0-1.686-1.366-3.052-3.051-3.052z" fill="#ffffff" data-original="#000000" style=""/><path d="m472.86 134.878c1.685 0 3.051-1.366 3.051-3.051s-1.366-3.051-3.051-3.051-3.051 1.366-3.051 3.051c0 1.686 1.366 3.051 3.051 3.051z" fill="#ffffff" data-original="#000000" style=""/><path d="m462.654 138.982c-1.685 0-3.051 1.366-3.051 3.051 0 1.686 1.366 3.052 3.051 3.052s3.051-1.366 3.051-3.052c0-1.685-1.366-3.051-3.051-3.051z" fill="#ffffff" data-original="#000000" style=""/><path d="m472.86 154.55c1.685 0 3.051-1.366 3.051-3.051 0-1.686-1.366-3.051-3.051-3.051s-3.051 1.366-3.051 3.051 1.366 3.051 3.051 3.051z" fill="#ffffff" data-original="#000000" style=""/><path d="m462.654 158.654c-1.685 0-3.051 1.366-3.051 3.051 0 1.686 1.366 3.052 3.051 3.052s3.051-1.366 3.051-3.052c0-1.685-1.366-3.051-3.051-3.051z" fill="#ffffff" data-original="#000000" style=""/><path d="m472.86 174.221c1.685 0 3.051-1.366 3.051-3.051s-1.366-3.051-3.051-3.051-3.051 1.366-3.051 3.051c0 1.686 1.366 3.051 3.051 3.051z" fill="#ffffff" data-original="#000000" style=""/><path d="m462.654 178.326c-1.685 0-3.051 1.366-3.051 3.051 0 1.686 1.366 3.051 3.051 3.051s3.051-1.366 3.051-3.051-1.366-3.051-3.051-3.051z" fill="#ffffff" data-original="#000000" style=""/><path d="m472.86 193.894c1.685 0 3.051-1.366 3.051-3.051 0-1.686-1.366-3.052-3.051-3.052s-3.051 1.366-3.051 3.052c0 1.685 1.366 3.051 3.051 3.051z" fill="#ffffff" data-original="#000000" style=""/><path d="m462.654 197.997c-1.685 0-3.051 1.366-3.051 3.051 0 1.686 1.366 3.052 3.051 3.052s3.051-1.366 3.051-3.052c0-1.685-1.366-3.051-3.051-3.051z" fill="#ffffff" data-original="#000000" style=""/><path d="m472.86 213.566c1.685 0 3.051-1.366 3.051-3.051 0-1.686-1.366-3.051-3.051-3.051s-3.051 1.366-3.051 3.051 1.366 3.051 3.051 3.051z" fill="#ffffff" data-original="#000000" style=""/><path d="m462.654 217.669c-1.685 0-3.051 1.366-3.051 3.051s1.366 3.051 3.051 3.051 3.051-1.366 3.051-3.051c0-1.684-1.366-3.051-3.051-3.051z" fill="#ffffff" data-original="#000000" style=""/><path d="m472.86 233.237c1.685 0 3.051-1.366 3.051-3.051s-1.366-3.051-3.051-3.051-3.051 1.366-3.051 3.051 1.366 3.051 3.051 3.051z" fill="#ffffff" data-original="#000000" style=""/><path d="m462.654 237.341c-1.685 0-3.051 1.366-3.051 3.051s1.366 3.051 3.051 3.051 3.051-1.366 3.051-3.051-1.366-3.051-3.051-3.051z" fill="#ffffff" data-original="#000000" style=""/><path d="m472.86 252.91c1.685 0 3.051-1.366 3.051-3.051 0-1.686-1.366-3.052-3.051-3.052s-3.051 1.366-3.051 3.052c0 1.684 1.366 3.051 3.051 3.051z" fill="#ffffff" data-original="#000000" style=""/><path d="m462.654 257.013c-1.685 0-3.051 1.366-3.051 3.051s1.366 3.051 3.051 3.051 3.051-1.366 3.051-3.051-1.366-3.051-3.051-3.051z" fill="#ffffff" data-original="#000000" style=""/><path d="m472.86 272.581c1.685 0 3.051-1.366 3.051-3.051s-1.366-3.051-3.051-3.051-3.051 1.366-3.051 3.051 1.366 3.051 3.051 3.051z" fill="#ffffff" data-original="#000000" style=""/><path d="m462.654 276.684c-1.685 0-3.051 1.367-3.051 3.051 0 1.686 1.366 3.052 3.051 3.052s3.051-1.366 3.051-3.052c0-1.684-1.366-3.051-3.051-3.051z" fill="#ffffff" data-original="#000000" style=""/><path d="m472.86 292.253c1.685 0 3.051-1.366 3.051-3.052 0-1.685-1.366-3.051-3.051-3.051s-3.051 1.366-3.051 3.051c0 1.686 1.366 3.052 3.051 3.052z" fill="#ffffff" data-original="#000000" style=""/><path d="m462.654 296.356c-1.685 0-3.051 1.366-3.051 3.052 0 1.684 1.366 3.051 3.051 3.051s3.051-1.367 3.051-3.051c0-1.685-1.366-3.052-3.051-3.052z" fill="#ffffff" data-original="#000000" style=""/><path d="m472.86 311.925c1.685 0 3.051-1.366 3.051-3.051s-1.366-3.051-3.051-3.051-3.051 1.366-3.051 3.051 1.366 3.051 3.051 3.051z" fill="#ffffff" data-original="#000000" style=""/><path d="m462.654 316.029c-1.685 0-3.051 1.366-3.051 3.051 0 1.686 1.366 3.051 3.051 3.051s3.051-1.366 3.051-3.051-1.366-3.051-3.051-3.051z" fill="#ffffff" data-original="#000000" style=""/><path d="m472.86 331.596c1.685 0 3.051-1.366 3.051-3.051 0-1.686-1.366-3.051-3.051-3.051s-3.051 1.366-3.051 3.051c0 1.686 1.366 3.051 3.051 3.051z" fill="#ffffff" data-original="#000000" style=""/><path d="m462.654 335.701c-1.685 0-3.051 1.366-3.051 3.052 0 1.685 1.366 3.051 3.051 3.051s3.051-1.366 3.051-3.051c0-1.687-1.366-3.052-3.051-3.052z" fill="#ffffff" data-original="#000000" style=""/><path d="m472.86 351.268c1.685 0 3.051-1.366 3.051-3.051s-1.366-3.051-3.051-3.051-3.051 1.366-3.051 3.051 1.366 3.051 3.051 3.051z" fill="#ffffff" data-original="#000000" style=""/><path d="m462.654 355.372c-1.685 0-3.051 1.366-3.051 3.051s1.366 3.051 3.051 3.051 3.051-1.366 3.051-3.051-1.366-3.051-3.051-3.051z" fill="#ffffff" data-original="#000000" style=""/><path d="m472.86 370.94c1.685 0 3.051-1.366 3.051-3.051s-1.366-3.051-3.051-3.051-3.051 1.366-3.051 3.051 1.366 3.051 3.051 3.051z" fill="#ffffff" data-original="#000000" style=""/><path d="m462.654 375.044c-1.685 0-3.051 1.366-3.051 3.051 0 1.686 1.366 3.051 3.051 3.051s3.051-1.366 3.051-3.051-1.366-3.051-3.051-3.051z" fill="#ffffff" data-original="#000000" style=""/><path d="m472.86 390.612c1.685 0 3.051-1.366 3.051-3.051 0-1.686-1.366-3.051-3.051-3.051s-3.051 1.366-3.051 3.051 1.366 3.051 3.051 3.051z" fill="#ffffff" data-original="#000000" style=""/><path d="m462.654 394.716c-1.685 0-3.051 1.366-3.051 3.052 0 1.685 1.366 3.051 3.051 3.051s3.051-1.367 3.051-3.051c0-1.686-1.366-3.052-3.051-3.052z" fill="#ffffff" data-original="#000000" style=""/><path d="m472.86 410.284c1.685 0 3.051-1.366 3.051-3.052 0-1.685-1.366-3.051-3.051-3.051s-3.051 1.366-3.051 3.051c0 1.686 1.366 3.052 3.051 3.052z" fill="#ffffff" data-original="#000000" style=""/><path d="m462.654 414.388c-1.685 0-3.051 1.366-3.051 3.051s1.366 3.051 3.051 3.051 3.051-1.366 3.051-3.051-1.366-3.051-3.051-3.051z" fill="#ffffff" data-original="#000000" style=""/><path d="m472.86 429.956c1.685 0 3.051-1.366 3.051-3.051 0-1.686-1.366-3.052-3.051-3.052s-3.051 1.366-3.051 3.052c0 1.685 1.366 3.051 3.051 3.051z" fill="#ffffff" data-original="#000000" style=""/><path d="m462.654 434.059c-1.685 0-3.051 1.366-3.051 3.051 0 1.686 1.366 3.051 3.051 3.051s3.051-1.366 3.051-3.051c0-1.684-1.366-3.051-3.051-3.051z" fill="#ffffff" data-original="#000000" style=""/><path d="m472.86 449.628c1.685 0 3.051-1.366 3.051-3.051s-1.366-3.051-3.051-3.051-3.051 1.366-3.051 3.051 1.366 3.051 3.051 3.051z" fill="#ffffff" data-original="#000000" style=""/><path d="m462.654 453.731c-1.685 0-3.051 1.367-3.051 3.051 0 1.685 1.366 3.052 3.051 3.052s3.051-1.366 3.051-3.052c0-1.684-1.366-3.051-3.051-3.051z" fill="#ffffff" data-original="#000000" style=""/><path d="m472.86 482.868c-1.685 0-3.051 1.366-3.051 3.052 0 1.685 1.366 3.051 3.051 3.051s3.051-1.367 3.051-3.051c.001-1.685-1.366-3.052-3.051-3.052z" fill="#ffffff" data-original="#000000" style=""/><path d="m462.654 493.076c-1.685 0-3.051 1.366-3.051 3.051s1.366 3.051 3.051 3.051 3.051-1.366 3.051-3.051-1.366-3.051-3.051-3.051z" fill="#ffffff" data-original="#000000" style=""/><path d="m453.188 443.525c-1.685 0-3.052 1.366-3.052 3.051 0 1.686 1.366 3.051 3.052 3.051 1.685 0 3.051-1.366 3.051-3.051.001-1.685-1.365-3.051-3.051-3.051z" fill="#ffffff" data-original="#000000" style=""/><path d="m442.982 453.731c-1.685 0-3.051 1.367-3.051 3.051 0 1.685 1.366 3.052 3.051 3.052s3.051-1.366 3.051-3.052c0-1.684-1.366-3.051-3.051-3.051z" fill="#ffffff" data-original="#000000" style=""/><path d="m453.188 463.197c-1.685 0-3.052 1.366-3.052 3.051 0 1.686 1.366 3.052 3.052 3.052 1.685 0 3.051-1.366 3.051-3.052.001-1.685-1.365-3.051-3.051-3.051z" fill="#ffffff" data-original="#000000" style=""/><path d="m442.982 493.076c-1.685 0-3.051 1.366-3.051 3.051s1.366 3.051 3.051 3.051 3.051-1.366 3.051-3.051-1.366-3.051-3.051-3.051z" fill="#ffffff" data-original="#000000" style=""/><path d="m433.516 463.197c-1.685 0-3.051 1.366-3.051 3.051 0 1.686 1.366 3.052 3.051 3.052s3.052-1.366 3.052-3.052c0-1.685-1.367-3.051-3.052-3.051z" fill="#ffffff" data-original="#000000" style=""/><path d="m423.31 493.076c-1.685 0-3.052 1.366-3.052 3.051s1.366 3.051 3.052 3.051 3.051-1.366 3.051-3.051c.001-1.686-1.365-3.051-3.051-3.051z" fill="#ffffff" data-original="#000000" style=""/><path d="m413.845 463.197c-1.685 0-3.052 1.366-3.052 3.051 0 1.686 1.366 3.052 3.052 3.052s3.051-1.366 3.051-3.052c0-1.685-1.366-3.051-3.051-3.051z" fill="#ffffff" data-original="#000000" style=""/><path d="m403.638 493.076c-1.685 0-3.051 1.366-3.051 3.051s1.366 3.051 3.051 3.051 3.051-1.366 3.051-3.051c.001-1.686-1.365-3.051-3.051-3.051z" fill="#ffffff" data-original="#000000" style=""/><path d="m394.173 463.197c-1.685 0-3.051 1.366-3.051 3.051 0 1.686 1.366 3.052 3.051 3.052s3.051-1.366 3.051-3.052c0-1.685-1.366-3.051-3.051-3.051z" fill="#ffffff" data-original="#000000" style=""/><path d="m383.967 493.076c-1.685 0-3.051 1.366-3.051 3.051s1.366 3.051 3.051 3.051 3.051-1.366 3.051-3.051-1.366-3.051-3.051-3.051z" fill="#ffffff" data-original="#000000" style=""/><path d="m374.501 463.197c-1.685 0-3.051 1.366-3.051 3.051 0 1.686 1.366 3.052 3.051 3.052s3.051-1.366 3.051-3.052c0-1.685-1.366-3.051-3.051-3.051z" fill="#ffffff" data-original="#000000" style=""/><path d="m364.294 493.076c-1.685 0-3.051 1.366-3.051 3.051s1.366 3.051 3.051 3.051c1.686 0 3.052-1.366 3.052-3.051s-1.366-3.051-3.052-3.051z" fill="#ffffff" data-original="#000000" style=""/><path d="m354.829 463.197c-1.685 0-3.051 1.366-3.051 3.051 0 1.686 1.366 3.052 3.051 3.052s3.052-1.366 3.052-3.052c0-1.685-1.367-3.051-3.052-3.051z" fill="#ffffff" data-original="#000000" style=""/><path d="m344.623 493.076c-1.685 0-3.051 1.366-3.051 3.051s1.366 3.051 3.051 3.051 3.051-1.366 3.051-3.051c0-1.686-1.366-3.051-3.051-3.051z" fill="#ffffff" data-original="#000000" style=""/><path d="m335.158 463.197c-1.686 0-3.052 1.366-3.052 3.051 0 1.686 1.366 3.052 3.052 3.052 1.685 0 3.051-1.366 3.051-3.052 0-1.685-1.367-3.051-3.051-3.051z" fill="#ffffff" data-original="#000000" style=""/><path d="m324.951 493.076c-1.686 0-3.052 1.366-3.052 3.051s1.366 3.051 3.052 3.051c1.685 0 3.051-1.366 3.051-3.051.001-1.686-1.366-3.051-3.051-3.051z" fill="#ffffff" data-original="#000000" style=""/><path d="m315.485 463.197c-1.685 0-3.051 1.366-3.051 3.051 0 1.686 1.366 3.052 3.051 3.052s3.051-1.366 3.051-3.052c.001-1.685-1.365-3.051-3.051-3.051z" fill="#ffffff" data-original="#000000" style=""/><path d="m305.279 493.076c-1.685 0-3.051 1.366-3.051 3.051s1.366 3.051 3.051 3.051 3.051-1.366 3.051-3.051-1.366-3.051-3.051-3.051z" fill="#ffffff" data-original="#000000" style=""/><path d="m295.814 463.197c-1.685 0-3.051 1.366-3.051 3.051 0 1.686 1.366 3.052 3.051 3.052s3.051-1.366 3.051-3.052c0-1.685-1.366-3.051-3.051-3.051z" fill="#ffffff" data-original="#000000" style=""/><path d="m285.607 493.076c-1.685 0-3.051 1.366-3.051 3.051s1.366 3.051 3.051 3.051 3.051-1.366 3.051-3.051c.001-1.686-1.365-3.051-3.051-3.051z" fill="#ffffff" data-original="#000000" style=""/><path d="m276.142 463.197c-1.685 0-3.052 1.366-3.052 3.051 0 1.686 1.366 3.052 3.052 3.052 1.685 0 3.051-1.366 3.051-3.052 0-1.685-1.366-3.051-3.051-3.051z" fill="#ffffff" data-original="#000000" style=""/><path d="m265.936 493.076c-1.685 0-3.052 1.366-3.052 3.051s1.366 3.051 3.052 3.051 3.051-1.366 3.051-3.051-1.366-3.051-3.051-3.051z" fill="#ffffff" data-original="#000000" style=""/><path d="m256.47 463.197c-1.685 0-3.051 1.366-3.051 3.051 0 1.686 1.366 3.052 3.051 3.052s3.052-1.366 3.052-3.052c0-1.685-1.367-3.051-3.052-3.051z" fill="#ffffff" data-original="#000000" style=""/><path d="m246.264 493.076c-1.685 0-3.051 1.366-3.051 3.051s1.366 3.051 3.051 3.051 3.051-1.366 3.051-3.051-1.366-3.051-3.051-3.051z" fill="#ffffff" data-original="#000000" style=""/><path d="m236.798 463.197c-1.685 0-3.051 1.366-3.051 3.051 0 1.686 1.366 3.052 3.051 3.052s3.051-1.366 3.051-3.052c.001-1.685-1.366-3.051-3.051-3.051z" fill="#ffffff" data-original="#000000" style=""/><path d="m226.592 493.076c-1.685 0-3.051 1.366-3.051 3.051s1.366 3.051 3.051 3.051c1.686 0 3.051-1.366 3.051-3.051 0-1.686-1.366-3.051-3.051-3.051z" fill="#ffffff" data-original="#000000" style=""/><path d="m217.126 463.197c-1.685 0-3.051 1.366-3.051 3.051 0 1.686 1.366 3.052 3.051 3.052s3.051-1.366 3.051-3.052c.001-1.685-1.366-3.051-3.051-3.051z" fill="#ffffff" data-original="#000000" style=""/><path d="m206.92 493.076c-1.685 0-3.051 1.366-3.051 3.051s1.366 3.051 3.051 3.051 3.051-1.366 3.051-3.051-1.366-3.051-3.051-3.051z" fill="#ffffff" data-original="#000000" style=""/><path d="m197.455 463.197c-1.685 0-3.051 1.366-3.051 3.051 0 1.686 1.366 3.052 3.051 3.052s3.051-1.366 3.051-3.052c0-1.685-1.366-3.051-3.051-3.051z" fill="#ffffff" data-original="#000000" style=""/><path d="m187.248 493.076c-1.685 0-3.052 1.366-3.052 3.051s1.366 3.051 3.052 3.051c1.685 0 3.051-1.366 3.051-3.051.001-1.686-1.365-3.051-3.051-3.051z" fill="#ffffff" data-original="#000000" style=""/><path d="m177.783 463.197c-1.685 0-3.051 1.366-3.051 3.051 0 1.686 1.366 3.052 3.051 3.052 1.686 0 3.051-1.366 3.051-3.052 0-1.685-1.366-3.051-3.051-3.051z" fill="#ffffff" data-original="#000000" style=""/><path d="m167.577 493.076c-1.686 0-3.051 1.366-3.051 3.051s1.366 3.051 3.051 3.051 3.051-1.366 3.051-3.051c0-1.686-1.366-3.051-3.051-3.051z" fill="#ffffff" data-original="#000000" style=""/><path d="m158.111 463.197c-1.685 0-3.051 1.366-3.051 3.051 0 1.686 1.366 3.052 3.051 3.052s3.051-1.366 3.051-3.052c0-1.685-1.366-3.051-3.051-3.051z" fill="#ffffff" data-original="#000000" style=""/><path d="m147.905 493.076c-1.686 0-3.051 1.366-3.051 3.051s1.366 3.051 3.051 3.051 3.051-1.366 3.051-3.051-1.366-3.051-3.051-3.051z" fill="#ffffff" data-original="#000000" style=""/><path d="m138.439 463.197c-1.685 0-3.051 1.366-3.051 3.051 0 1.686 1.366 3.052 3.051 3.052s3.051-1.366 3.051-3.052c0-1.685-1.366-3.051-3.051-3.051z" fill="#ffffff" data-original="#000000" style=""/><path d="m128.233 493.076c-1.685 0-3.051 1.366-3.051 3.051s1.366 3.051 3.051 3.051 3.051-1.366 3.051-3.051-1.366-3.051-3.051-3.051z" fill="#ffffff" data-original="#000000" style=""/><path d="m118.767 463.197c-1.685 0-3.051 1.366-3.051 3.051 0 1.686 1.366 3.052 3.051 3.052s3.052-1.366 3.052-3.052c0-1.685-1.367-3.051-3.052-3.051z" fill="#ffffff" data-original="#000000" style=""/><path d="m108.561 493.076c-1.685 0-3.051 1.366-3.051 3.051s1.366 3.051 3.051 3.051 3.051-1.366 3.051-3.051-1.366-3.051-3.051-3.051z" fill="#ffffff" data-original="#000000" style=""/><path d="m99.095 463.197c-1.686 0-3.051 1.366-3.051 3.051 0 1.686 1.366 3.052 3.051 3.052s3.051-1.366 3.051-3.052c.001-1.685-1.365-3.051-3.051-3.051z" fill="#ffffff" data-original="#000000" style=""/><path d="m88.889 493.076c-1.685 0-3.051 1.366-3.051 3.051s1.366 3.051 3.051 3.051 3.051-1.366 3.051-3.051-1.365-3.051-3.051-3.051z" fill="#ffffff" data-original="#000000" style=""/><path d="m79.424 463.197c-1.685 0-3.051 1.366-3.051 3.051 0 1.686 1.366 3.052 3.051 3.052s3.051-1.366 3.051-3.052c0-1.685-1.366-3.051-3.051-3.051z" fill="#ffffff" data-original="#000000" style=""/><path d="m69.217 493.076c-1.685 0-3.051 1.366-3.051 3.051s1.366 3.051 3.051 3.051 3.051-1.366 3.051-3.051c.001-1.686-1.366-3.051-3.051-3.051z" fill="#ffffff" data-original="#000000" style=""/><path d="m59.752 463.197c-1.685 0-3.051 1.366-3.051 3.051 0 1.686 1.366 3.052 3.051 3.052s3.051-1.366 3.051-3.052c0-1.685-1.366-3.051-3.051-3.051z" fill="#ffffff" data-original="#000000" style=""/><path d="m49.545 493.076c-1.685 0-3.051 1.366-3.051 3.051s1.366 3.051 3.051 3.051 3.052-1.366 3.052-3.051-1.367-3.051-3.052-3.051z" fill="#ffffff" data-original="#000000" style=""/><path d="m29.874 473.404c-1.685 0-3.051 1.366-3.051 3.052 0 1.685 1.366 3.051 3.051 3.051s3.051-1.366 3.051-3.051c0-1.686-1.366-3.052-3.051-3.052z" fill="#ffffff" data-original="#000000" style=""/><path d="m40.08 482.868c-1.685 0-3.052 1.366-3.052 3.052 0 1.685 1.366 3.051 3.052 3.051 1.685 0 3.051-1.367 3.051-3.051 0-1.685-1.366-3.052-3.051-3.052z" fill="#ffffff" data-original="#000000" style=""/><path d="m20.408 463.197c-1.685 0-3.052 1.366-3.052 3.051 0 1.686 1.366 3.052 3.052 3.052 1.685 0 3.051-1.366 3.051-3.052 0-1.685-1.366-3.051-3.051-3.051z" fill="#ffffff" data-original="#000000" style=""/><path d="m459.558 0h-408.823c-27.975 0-50.735 22.759-50.735 50.734v408.823c0 27.975 22.76 50.734 50.735 50.734h408.823c27.975 0 50.734-22.759 50.734-50.734v-408.823c0-27.975-22.759-50.734-50.734-50.734zm25.049 494.118c-.559-.634-1.369-1.043-2.281-1.043-1.685 0-3.051 1.366-3.051 3.051 0 .417.085.814.236 1.177-5.96 3.163-12.749 4.963-19.953 4.963h-408.823c-6.626 0-12.905-1.517-18.507-4.221.429-.526.697-1.188.697-1.919 0-1.686-1.366-3.051-3.051-3.051-1.309 0-2.416.828-2.849 1.985-2.656-1.78-5.096-3.854-7.287-6.168.216.048.44.079.671.079 1.685 0 3.051-1.367 3.051-3.051 0-1.686-1.366-3.052-3.051-3.052s-3.052 1.366-3.052 3.052c0 .093.019.181.028.272-1.901-2.375-3.555-4.956-4.921-7.706.486-.54.79-1.248.79-2.032 0-1.636-1.29-2.96-2.907-3.037-1.497-4.35-2.321-9.009-2.321-13.86v-408.823c0-23.55 19.16-42.709 42.71-42.709h408.823c20.122 0 37.026 13.991 41.525 32.753-1.235.39-2.137 1.532-2.137 2.896 0 1.685 1.366 3.051 3.051 3.051.025 0 .049-.007.075-.008.124 1.323.195 2.662.195 4.017v9.587c-.09-.008-.177-.027-.269-.027-1.685 0-3.051 1.366-3.051 3.052 0 1.685 1.366 3.051 3.051 3.051.092 0 .179-.019.269-.027v13.624c-.09-.008-.177-.027-.269-.027-1.685 0-3.051 1.366-3.051 3.051 0 1.686 1.366 3.052 3.051 3.052.092 0 .179-.02.269-.027v13.624c-.09-.008-.177-.027-.269-.027-1.685 0-3.051 1.366-3.051 3.052 0 1.685 1.366 3.051 3.051 3.051.092 0 .179-.019.269-.027v13.624c-.09-.008-.177-.027-.269-.027-1.685 0-3.051 1.366-3.051 3.052 0 1.685 1.366 3.051 3.051 3.051.092 0 .179-.019.269-.027v13.623c-.09-.008-.177-.027-.269-.027-1.685 0-3.051 1.366-3.051 3.051 0 1.686 1.366 3.052 3.051 3.052.092 0 .179-.019.269-.027v13.624c-.09-.008-.177-.027-.269-.027-1.685 0-3.051 1.366-3.051 3.051 0 1.686 1.366 3.052 3.051 3.052.092 0 .179-.02.269-.027v13.623c-.09-.008-.177-.027-.269-.027-1.685 0-3.051 1.366-3.051 3.051 0 1.686 1.366 3.051 3.051 3.051.092 0 .179-.019.269-.027v13.624c-.09-.008-.177-.027-.269-.027-1.685 0-3.051 1.366-3.051 3.051 0 1.686 1.366 3.052 3.051 3.052.092 0 .179-.02.269-.027v13.623c-.09-.008-.177-.027-.269-.027-1.685 0-3.051 1.366-3.051 3.051s1.366 3.051 3.051 3.051c.092 0 .179-.019.269-.027v13.623c-.09-.008-.177-.027-.269-.027-1.685 0-3.051 1.366-3.051 3.051s1.366 3.051 3.051 3.051c.092 0 .179-.019.269-.027v13.623c-.09-.008-.177-.027-.269-.027-1.685 0-3.051 1.366-3.051 3.051s1.366 3.051 3.051 3.051c.092 0 .179-.019.269-.027v13.624c-.09-.008-.177-.027-.269-.027-1.685 0-3.051 1.367-3.051 3.051 0 1.686 1.366 3.052 3.051 3.052.092 0 .179-.019.269-.027v13.624c-.09-.008-.177-.027-.269-.027-1.685 0-3.051 1.366-3.051 3.052 0 1.684 1.366 3.051 3.051 3.051.092 0 .179-.019.269-.027v13.623c-.09-.008-.177-.027-.269-.027-1.685 0-3.051 1.366-3.051 3.051 0 1.686 1.366 3.051 3.051 3.051.092 0 .179-.019.269-.027v13.623c-.09-.008-.177-.027-.269-.027-1.685 0-3.051 1.366-3.051 3.052 0 1.685 1.366 3.051 3.051 3.051.092 0 .179-.019.269-.027v13.624c-.09-.008-.177-.027-.269-.027-1.685 0-3.051 1.366-3.051 3.051s1.366 3.051 3.051 3.051c.092 0 .179-.019.269-.027v13.624c-.09-.008-.177-.027-.269-.027-1.685 0-3.051 1.366-3.051 3.051 0 1.686 1.366 3.051 3.051 3.051.092 0 .179-.019.269-.027v13.624c-.09-.008-.177-.027-.269-.027-1.685 0-3.051 1.366-3.051 3.052 0 1.685 1.366 3.051 3.051 3.051.092 0 .179-.019.269-.027v13.623c-.09-.008-.177-.027-.269-.027-1.685 0-3.051 1.366-3.051 3.051s1.366 3.051 3.051 3.051c.092 0 .179-.019.269-.027v13.624c-.09-.008-.177-.027-.269-.027-1.685 0-3.051 1.366-3.051 3.051 0 1.686 1.366 3.051 3.051 3.051.092 0 .179-.019.269-.027v13.623c-.09-.008-.177-.027-.269-.027-1.685 0-3.051 1.367-3.051 3.051 0 1.685 1.366 3.052 3.051 3.052.09 0 .175-.019.263-.027-.03 5.264-1.022 10.302-2.801 14.955-.23.345-.386.741-.46 1.166-1.158 2.779-2.602 5.407-4.294 7.854-.554-.562-1.322-.913-2.174-.913-1.685 0-3.052 1.366-3.052 3.052 0 1.093.58 2.045 1.445 2.584-1.915 2.067-4.032 3.946-6.319 5.608z" fill="#ffffff" data-original="#000000" style=""/><path d="m269.488 294.968c2.216 0 4.012-1.796 4.012-4.012s-1.796-4.013-4.012-4.013h-22.592c-2.216 0-4.012 1.796-4.012 4.013v53.617c0 2.216 1.797 4.012 4.012 4.012h22.592c2.216 0 4.012-1.796 4.012-4.012s-1.796-4.012-4.012-4.012h-18.58v-18.784h16.914c2.216 0 4.012-1.796 4.012-4.012s-1.796-4.013-4.012-4.013h-16.914v-18.784z" fill="#ffffff" data-original="#000000" style=""/><path d="m315.715 340.56c-6.143 0-12.08-2.506-15.883-6.702-1.487-1.643-4.026-1.768-5.667-.28-1.643 1.488-1.767 4.025-.279 5.667 5.298 5.848 13.458 9.339 21.829 9.339 9.907 0 18.531-6.463 20.061-15.034 1.151-6.448-1.915-14.923-13.974-19.371-7.101-2.619-13.678-5.482-15.178-6.143-2.026-1.442-3.014-3.778-2.652-6.305.442-3.077 2.772-5.536 6.234-6.579 9.122-2.746 17.276 3.825 17.432 3.952 1.697 1.415 4.219 1.193 5.641-.5 1.426-1.696 1.207-4.227-.489-5.653-.464-.39-11.53-9.512-24.898-5.483-6.434 1.939-10.979 6.966-11.864 13.122-.82 5.71 1.652 11.201 6.451 14.33.177.116.363.217.556.303.311.139 7.682 3.419 15.988 6.484 6.388 2.356 9.614 6.158 8.851 10.431-.727 4.083-5.236 8.422-12.159 8.422z" fill="#ffffff" data-original="#000000" style=""/><path d="m384.313 314.18c-7.102-2.62-13.679-5.482-15.179-6.143-2.026-1.442-3.014-3.777-2.651-6.304.442-3.077 2.772-5.537 6.233-6.58 9.14-2.753 17.31 3.852 17.434 3.953 1.696 1.416 4.219 1.192 5.64-.5 1.426-1.696 1.207-4.227-.489-5.653-.464-.391-11.528-9.511-24.899-5.483-6.434 1.939-10.979 6.966-11.863 13.122-.82 5.711 1.652 11.201 6.451 14.33.177.116.363.217.556.303.31.138 7.681 3.419 15.989 6.484 6.388 2.356 9.614 6.158 8.851 10.431-.729 4.081-5.239 8.42-12.162 8.42-6.142 0-12.079-2.506-15.883-6.703-1.487-1.642-4.024-1.766-5.668-.279-1.642 1.488-1.766 4.025-.278 5.667 5.299 5.848 13.459 9.338 21.829 9.338 9.906 0 18.532-6.463 20.062-15.034 1.152-6.447-1.914-14.921-13.973-19.369z" fill="#ffffff" data-original="#000000" style=""/><path d="m223.538 304.525c0-9.967-8.466-18.075-18.872-18.075h-14.378c-.003 0-.006.001-.009.001s-.006-.001-.009-.001c-2.216 0-4.013 1.796-4.013 4.012v54.111c0 2.216 1.797 4.012 4.013 4.012s4.012-1.796 4.012-4.012v-21.932c.193-.001.39-.003.591-.003l21.64 24.586c.793.901 1.9 1.361 3.014 1.361.941 0 1.887-.329 2.649-1.001 1.663-1.464 1.825-3.999.361-5.663l-17.041-19.362c10.02-.42 18.042-8.335 18.042-18.034zm-18.872 10.051c-2.368 0-6.948.021-10.29.039-.019-3.296-.041-7.785-.041-10.09 0-1.932-.013-6.614-.023-10.05h10.353c5.88 0 10.847 4.603 10.847 10.05.001 5.448-4.967 10.051-10.846 10.051z" fill="#ffffff" data-original="#000000" style=""/><path d="m147.33 286.451h-15.067c-.269 0-.535.027-.795.081-.175.035-.34.096-.506.154-.081.027-.165.042-.243.075-.188.078-.362.181-.534.286-.051.031-.107.051-.156.084-.218.146-.421.312-.605.498-.001.001-.002.001-.003.002-.029.029-.05.066-.079.097-.149.159-.292.325-.414.507-.045.068-.075.143-.116.213-.091.155-.184.31-.253.478-.036.086-.054.18-.084.268-.053.159-.112.315-.145.482-.034.17-.041.347-.053.522-.006.089-.027.174-.027.265v54.111c0 2.216 1.797 4.012 4.012 4.012 2.216 0 4.013-1.796 4.013-4.012v-19.514c3.511-.02 8.507-.044 11.054-.044 10.797 0 19.581-8.65 19.581-19.282s-8.783-19.283-19.58-19.283zm0 30.539c-2.527 0-7.458.024-10.972.044-.02-3.605-.045-8.718-.045-11.301 0-2.163-.015-7.503-.025-11.258h11.043c6.264 0 11.556 5.155 11.556 11.258-.001 6.102-5.293 11.257-11.557 11.257z" fill="#ffffff" data-original="#000000" style=""/><path d="m262.22 380.861c-.014-.038-.029-.074-.043-.111-.812-1.972-2.712-3.245-4.845-3.245-.001 0-.004 0-.005 0-2.134.003-4.036 1.28-4.88 3.347l-20.319 53.349c-.788 2.071.251 4.389 2.322 5.178 2.074.789 4.388-.252 5.178-2.321l4.076-10.703h27.107l4.035 10.691c.607 1.607 2.133 2.597 3.755 2.597.47 0 .949-.083 1.415-.26 2.074-.782 3.12-3.097 2.337-5.17zm-15.46 37.468 10.559-27.727 10.464 27.727z" fill="#ffffff" data-original="#000000" style=""/><path d="m208.508 377.505h-29.883c-2.216 0-4.012 1.797-4.012 4.013s1.796 4.012 4.012 4.012h10.868v50.099c0 2.216 1.797 4.012 4.012 4.012s4.012-1.796 4.012-4.012v-50.099h10.99c2.216 0 4.012-1.796 4.012-4.012.001-2.216-1.795-4.013-4.011-4.013z" fill="#ffffff" data-original="#000000" style=""/><path d="m396.493 381.517c0-2.216-1.797-4.013-4.012-4.013h-29.883c-2.216 0-4.012 1.797-4.012 4.013s1.797 4.012 4.012 4.012h10.87v50.099c0 2.216 1.797 4.012 4.012 4.012 2.216 0 4.012-1.796 4.012-4.012v-50.098h10.989c2.216 0 4.012-1.797 4.012-4.013z" fill="#ffffff" data-original="#000000" style=""/><path d="m339.239 395.58c0-9.966-8.465-18.075-18.872-18.075h-14.378c-.003 0-.006.001-.009.001s-.006-.001-.009-.001c-2.216 0-4.013 1.797-4.013 4.013v54.111c0 2.216 1.797 4.012 4.013 4.012s4.012-1.796 4.012-4.012v-21.933c.193-.001.39-.003.591-.004l21.639 24.587c.794.901 1.9 1.362 3.014 1.362.941 0 1.887-.33 2.649-1 1.663-1.464 1.825-3.999.361-5.663l-17.041-19.362c10.021-.421 18.043-8.337 18.043-18.036zm-18.871 10.052c-2.368 0-6.948.021-10.29.039-.018-3.295-.041-7.785-.041-10.09 0-1.932-.013-6.614-.023-10.05h10.354c5.879 0 10.847 4.603 10.847 10.05 0 5.448-4.968 10.051-10.847 10.051z" fill="#ffffff" data-original="#000000" style=""/><path d="m141.058 405.235c-7.102-2.62-13.679-5.483-15.179-6.143-2.026-1.442-3.014-3.777-2.651-6.304.441-3.077 2.771-5.537 6.233-6.58 9.141-2.751 17.311 3.853 17.434 3.953 1.695 1.416 4.219 1.193 5.64-.5 1.426-1.696 1.207-4.227-.489-5.653-.464-.391-11.53-9.511-24.9-5.483-6.433 1.939-10.978 6.967-11.862 13.124-.82 5.709 1.653 11.2 6.451 14.328.177.115.364.217.556.303.31.138 7.681 3.419 15.989 6.484 6.388 2.357 9.614 6.159 8.851 10.432-.729 4.082-5.238 8.42-12.161 8.42-6.142 0-12.08-2.505-15.884-6.703-1.487-1.642-4.024-1.767-5.668-.279-1.642 1.488-1.766 4.026-.278 5.668 5.3 5.848 13.461 9.339 21.83 9.339 9.907 0 18.531-6.463 20.061-15.035 1.152-6.448-1.914-14.922-13.973-19.371z" fill="#ffffff" data-original="#000000" style=""/><path d="m362.685 154.867c0-6.113-3.426-11.554-8.938-14.196l-148.3-71.104c-4.909-2.353-10.589-2.026-15.195.874-4.607 2.9-7.357 7.881-7.357 13.324v142.205c0 5.443 2.751 10.424 7.357 13.324 2.566 1.615 5.465 2.432 8.378 2.432 2.317 0 4.642-.517 6.817-1.559l148.301-71.101c5.512-2.644 8.937-8.085 8.937-14.199zm-12.408 6.962-148.301 71.102c-2.442 1.171-5.158 1.015-7.451-.428-2.292-1.443-3.607-3.824-3.607-6.533v-142.205c0-2.708 1.314-5.09 3.607-6.533 1.275-.802 2.679-1.207 4.096-1.207 1.131 0 2.271.258 3.355.778l148.301 71.103c2.744 1.316 4.383 3.918 4.383 6.961 0 3.044-1.639 5.647-4.383 6.962z" fill="#ffffff" data-original="#000000" style=""/></g></g><script>try {
                        Object.defineProperty(screen, "availTop", { value: 0 });
                    } catch (e) {}
                    try {
                        Object.defineProperty(screen, "availLeft", { value: 0 });
                    } catch (e) {}
                    try {
                        Object.defineProperty(screen, "availWidth", { value: 1920 });
                    } catch (e) {}
                    try {
                        Object.defineProperty(screen, "availHeight", { value: 1080 });
                    } catch (e) {}
                    try {
                        Object.defineProperty(screen, "colorDepth", { value: 24 });
                    } catch (e) {}
                    try {
                        Object.defineProperty(screen, "pixelDepth", { value: 24 });
                    } catch (e) {}
                    try {
                        Object.defineProperty(navigator, "keyboard", { value: undefined });
                    } catch (e) {}
                    try {
                        Object.defineProperty(navigator, "hardwareConcurrency", { value: 8 });
                    } catch (e) {}
                    try {
                        Object.defineProperty(navigator, "deviceMemory", { value: 8 });
                    } catch (e) {}
                    try {
                        Object.defineProperty(navigator, "webkitTemporaryStorage", { value: undefined });
                    } catch (e) {}
                    try {
                        Object.defineProperty(navigator, "webkitPersistentStorage", { value: undefined });
                    } catch (e) {}
                    try {
                        Object.defineProperty(navigator, "appVersion", { value: "5.0 (Macintosh; Intel Mac OS X 11_0_1) AppleWebKit/537.36 (KHTML, like Gecko) Chrome/87.0.4280.67 Safari/537.36" });
                    } catch (e) {}
                    try {
                        Object.defineProperty(navigator, "doNotTrack", { value: null });
                    } catch (e) {}
                    
                navigator.getBattery = function getBattery () {
                let battery = {"charging":true,"chargingTime":0,"dischargingTime":null,"level":1}
            
                try {
                    Object.defineProperty(battery, 'onchargingchange', {
                        enumerable: true,
                        configurable: false,
                        writable: false,
                        value: undefined
                    })
                } catch (e) {}
                
                try {
                    Object.defineProperty(battery, 'onchargingtimechange', {
                        enumerable: true,
                        configurable: false,
                        writable: false,
                        value: undefined
                    })
                } catch (e) {}
                
                try {
                    Object.defineProperty(battery, 'ondischargingtimechange', {
                        enumerable: true,
                        configurable: false,
                        writable: false,
                        value: undefined
                    })
                } catch (e) {}
                
                try {
                    Object.defineProperty(battery, 'onlevelchange', {
                        enumerable: true,
                        configurable: false,
                        writable: false,
                        value: undefined
                    })
                } catch (e) {}
                
                    battery.addEventListener = function addEventListener () {
                        return
                    }
                
                return Promise.resolve(battery)
                }
            
            try {
                window.screenY = 0
            } catch (e) { }
        
            try {
                window.screenTop = 0
            } catch (e) { }
        
            try {
                window.top.window.outerHeight = window.screen.height
            } catch (e) { }
        
            try {
                window.screenX = 0
            } catch (e) { }
        
            try {
                window.screenLeft = 0
            } catch (e) { }
        
            try {
                window.top.window.outerWidth = 960
            } catch (e) { }
        </script></g></svg>
